<svg width="40" height="41" viewBox="0 0 40 41" fill="none" xmlns="http://www.w3.org/2000/svg">
<path d="M0.585754 5.57309H4.2946V5.49596C4.2946 4.84072 4.84127 4.30135 5.50471 4.30135H7.26157C7.3005 3.64611 7.80824 3.14514 8.47168 3.14514H12.3757C13.4688 2.2588 16.748 1.60352 19.5196 1.60352H36.5794C37.9069 1.60352 39 2.68257 39 3.99307V11.0074C39 12.3176 37.9069 13.3969 36.5794 13.3969H31.9338L34.7055 27.849H35.6034C37.321 27.849 38.7655 29.2363 38.7655 30.9706V36.4818C38.7655 38.1774 37.3602 39.6035 35.6034 39.6035H20.0269C18.3093 39.6035 16.8647 38.2162 16.8647 36.4818V30.9706C16.8647 29.275 18.27 27.849 20.0269 27.849H23.3061L19.4805 13.3583H16.3964L16.2012 13.204C13.7028 10.8916 12.6876 9.85122 12.2972 9.31156H8.51046C7.84673 9.31156 7.33925 8.77189 7.30035 8.15535H5.5435C4.87976 8.15535 4.33338 7.61568 4.33338 6.96074V6.88361H0.624538C0.273064 6.88361 0 6.61377 0 6.26708C0 5.92011 0.23428 5.57309 0.585754 5.57309ZM18.1536 30.9703V36.4816C18.1536 37.5222 19.0125 38.3315 20.0275 38.3315H35.604C36.6581 38.3315 37.4779 37.4835 37.4779 36.4816V30.9703C37.4779 29.9297 36.6189 29.1204 35.604 29.1204H20.0275C19.0125 29.082 18.1536 29.93 18.1536 30.9703ZM24.6339 27.8487H33.4178L30.646 13.358H20.7692L24.6339 27.8487ZM13.2345 8.50217C13.6249 8.96471 15.3037 10.6219 16.8652 12.0863H36.5797C37.2042 12.0863 37.7117 11.5854 37.7117 10.9688L37.712 3.99319C37.712 3.37665 37.2045 2.87566 36.58 2.87566H19.3641C16.0067 2.87566 13.7813 3.68492 13.196 4.03187L13.1955 8.50217H13.2345ZM8.51072 8.03964H11.634L11.6337 4.37832L8.51045 4.33988L8.51072 8.03964ZM5.54376 6.88343H6.91018V5.53452L5.54376 5.49608V6.88343Z" fill="black"/>
<path fill-rule="evenodd" clip-rule="evenodd" d="M21.4624 10.3367C21.1661 10.1885 21.0459 9.82809 21.1941 9.5317L23.6575 4.60502C23.8056 4.30863 24.1661 4.18849 24.4624 4.33669C24.7588 4.48488 24.879 4.84529 24.7308 5.14167L22.2674 10.0684C22.1192 10.3647 21.7588 10.4849 21.4624 10.3367Z" fill="black"/>
<path fill-rule="evenodd" clip-rule="evenodd" d="M24.4624 10.3367C24.1661 10.1885 24.0459 9.82809 24.1941 9.5317L26.6575 4.60502C26.8056 4.30863 27.1661 4.18849 27.4624 4.33669C27.7588 4.48488 27.879 4.84529 27.7308 5.14167L25.2674 10.0684C25.1192 10.3647 24.7588 10.4849 24.4624 10.3367Z" fill="black"/>
<path fill-rule="evenodd" clip-rule="evenodd" d="M27.4624 10.3367C27.1661 10.1885 27.0459 9.82809 27.1941 9.5317L29.6575 4.60502C29.8056 4.30863 30.1661 4.18849 30.4624 4.33669C30.7588 4.48488 30.879 4.84529 30.7308 5.14167L28.2674 10.0684C28.1192 10.3647 27.7588 10.4849 27.4624 10.3367Z" fill="black"/>
</svg>
