<svg width="43" height="43" viewBox="0 0 43 43" fill="none" xmlns="http://www.w3.org/2000/svg">
<g clip-path="url(#clip0_1408_119699)">
<path d="M10.2049 27.8223C7.91067 27.8223 6.04492 29.688 6.04492 31.9823C6.04492 34.2765 7.91067 36.1423 10.2049 36.1423C12.4992 36.1423 14.3649 34.2765 14.3649 31.9823C14.3649 29.688 12.4991 27.8223 10.2049 27.8223ZM10.2049 34.7556C8.67539 34.7556 7.43162 33.5117 7.43162 31.9823C7.43162 30.4527 8.67547 29.209 10.2049 29.209C11.7344 29.209 12.9782 30.4528 12.9782 31.9823C12.9782 33.5117 11.7344 34.7556 10.2049 34.7556Z" fill="#393D4C"/>
<path d="M33.7791 27.8223C31.4849 27.8223 29.6191 29.688 29.6191 31.9823C29.6191 34.2765 31.4849 36.1423 33.7791 36.1423C36.0734 36.1423 37.9391 34.2765 37.9391 31.9823C37.9391 29.688 36.0734 27.8223 33.7791 27.8223ZM33.7791 34.7556C32.2496 34.7556 31.0058 33.5117 31.0058 31.9823C31.0058 30.4527 32.2497 29.209 33.7791 29.209C35.3087 29.209 36.5524 30.4528 36.5524 31.9823C36.5524 33.5117 35.3087 34.7556 33.7791 34.7556Z" fill="#393D4C"/>
<path d="M41.9888 23.98L35.7488 14.2733C35.6212 14.075 35.4014 13.9551 35.1656 13.9551H27.539C27.1556 13.9551 26.8457 14.2657 26.8457 14.6484V31.9817C26.8457 32.3651 27.1556 32.675 27.539 32.675H30.3123V31.2883H28.2323V15.3418H34.7871L40.7123 24.5589V31.2885H37.2456V32.6751H41.4056C41.789 32.6751 42.0989 32.3652 42.0989 31.9818V24.3551C42.099 24.2226 42.0609 24.0916 41.9888 23.98Z" fill="#393D4C"/>
<path d="M31.0058 22.9685V18.1152H36.5524V16.7285H30.3124C29.929 16.7285 29.6191 17.0391 29.6191 17.4218V23.6618C29.6191 24.0452 29.929 24.3551 30.3124 24.3551H40.7124V22.9684H31.0058V22.9685Z" fill="#393D4C"/>
<path d="M27.538 9.09961H1.19135C0.808666 9.09961 0.498047 9.41023 0.498047 9.79292V31.9796C0.498047 32.363 0.808666 32.6729 1.19135 32.6729H6.73805V31.2862H1.88474V10.4862H26.8447V31.2862H13.6714V32.6729H27.538C27.9215 32.6729 28.2314 32.363 28.2314 31.9796V9.79292C28.2314 9.41023 27.9215 9.09961 27.538 9.09961Z" fill="#393D4C"/>
<path d="M5.35141 28.5137H1.19141V29.9004H5.35141V28.5137Z" fill="#393D4C"/>
<path d="M26.8433 28.5137H15.0566V29.9004H26.8433V28.5137Z" fill="#393D4C"/>
<path d="M41.4042 28.5137H38.6309V29.9004H41.4042V28.5137Z" fill="#393D4C"/>
<path d="M27.5382 11.873H3.27148V13.2597H27.5382V11.873Z" fill="#393D4C"/>
<path d="M10.8984 31.2871H9.51172V32.6738H10.8984V31.2871Z" fill="#393D4C"/>
<path d="M34.4707 31.2871H33.084V32.6738H34.4707V31.2871Z" fill="#393D4C"/>
<path d="M12.9782 6.32617H3.27148V7.71287H12.9782V6.32617Z" fill="#393D4C"/>
<path d="M1.88474 6.32617H0.498047V7.71286H1.88474V6.32617Z" fill="#393D4C"/>
</g>
<defs>
<clipPath id="clip0_1408_119699">
<rect width="41.6" height="41.6" fill="white" transform="translate(0.498047 0.435547)"/>
</clipPath>
</defs>
</svg>
