<svg width="32" height="35" viewBox="0 0 32 35" fill="none" xmlns="http://www.w3.org/2000/svg">
<path d="M31.2594 28.5205V5.86598C31.2594 4.45804 30.1141 3.3128 28.7062 3.3128H7.88244C7.54853 1.66738 6.09142 0.424805 4.34862 0.424805C2.35987 0.424805 0.742188 2.04249 0.742188 4.03088V31.0737C0.742188 31.0808 0.74602 31.0867 0.746238 31.0938C0.759059 33.1049 2.38008 34.6742 4.34443 34.6742H25.1374C26.5457 34.6742 27.6916 33.5283 27.6916 32.12V31.0737H28.7062C30.1141 31.0737 31.2594 29.9284 31.2594 28.5205ZM2.16929 4.03088C2.16929 2.82955 3.14694 1.85191 4.34862 1.85191C5.55029 1.85191 6.52794 2.82955 6.52794 4.03088V28.2003C5.89181 27.7191 5.07508 27.4627 4.34409 27.4627C3.54296 27.4627 2.78484 27.7292 2.16929 28.1968V4.03088ZM26.2645 32.12C26.2645 32.7415 25.759 33.2471 25.1374 33.2471H4.34443C3.06579 33.2471 1.98897 32.1351 2.20396 30.7292C2.38256 29.6086 3.33522 28.8923 4.33851 28.8923C5.18275 28.8923 5.96506 29.3746 6.32856 30.1688C6.42102 30.3694 6.59107 31.0737 7.24149 31.0737H26.2645V32.12ZM29.8323 28.5205C29.8323 29.1414 29.3271 29.6466 28.7062 29.6466C-0.174401 29.6427 10.361 29.6441 7.95504 29.6438V4.7399H28.7062C29.3271 4.7399 29.8323 5.2451 29.8323 5.86598V28.5205Z" fill="#393D4C"/>
<path d="M26.9784 26.0811H10.8093C10.4152 26.0811 10.0957 26.4006 10.0957 26.7946C10.0957 27.1887 10.4152 27.5082 10.8093 27.5082H26.9784C27.3725 27.5082 27.692 27.1887 27.692 26.7946C27.692 26.4006 27.3725 26.0811 26.9784 26.0811Z" fill="#393D4C"/>
<path d="M26.9785 6.87793H22.2272C21.8332 6.87793 21.5137 7.19742 21.5137 7.59148C21.5137 7.98554 21.8332 8.30503 22.2272 8.30503H26.9785C27.3726 8.30503 27.6921 7.98554 27.6921 7.59148C27.6921 7.19742 27.3726 6.87793 26.9785 6.87793Z" fill="#393D4C"/>
<path d="M26.9785 10.7217H22.2272C21.8332 10.7217 21.5137 11.0412 21.5137 11.4352C21.5137 11.8293 21.8332 12.1488 22.2272 12.1488H26.9785C27.3726 12.1488 27.6921 11.8293 27.6921 11.4352C27.6921 11.0412 27.3726 10.7217 26.9785 10.7217Z" fill="#393D4C"/>
<path d="M26.9785 14.5576H22.2272C21.8332 14.5576 21.5137 14.8771 21.5137 15.2712C21.5137 15.6652 21.8332 15.9847 22.2272 15.9847H26.9785C27.3726 15.9847 27.6921 15.6652 27.6921 15.2712C27.6921 14.8771 27.3726 14.5576 26.9785 14.5576Z" fill="#393D4C"/>
<path d="M26.9784 18.4014H10.8093C10.4152 18.4014 10.0957 18.7209 10.0957 19.1149C10.0957 19.509 10.4152 19.8285 10.8093 19.8285H26.9784C27.3725 19.8285 27.692 19.509 27.692 19.1149C27.692 18.7209 27.3725 18.4014 26.9784 18.4014Z" fill="#393D4C"/>
<path d="M26.9784 22.2373H10.8093C10.4152 22.2373 10.0957 22.5568 10.0957 22.9509C10.0957 23.3449 10.4152 23.6644 10.8093 23.6644H26.9784C27.3725 23.6644 27.692 23.3449 27.692 22.9509C27.692 22.5568 27.3725 22.2373 26.9784 22.2373Z" fill="#393D4C"/>
<path d="M10.8093 16.3935H18.8938H18.9078C19.3108 16.3935 19.6955 16.0256 19.6074 15.5502V7.59539C19.6074 7.20133 19.2879 6.88184 18.8938 6.88184H10.8093C10.4152 6.88184 10.0957 7.20133 10.0957 7.59539V15.68C10.0957 16.0512 10.4182 16.3935 10.8093 16.3935ZM14.1735 14.9176C14.1748 14.9197 14.1753 14.9221 14.1767 14.9243L14.2038 14.9664H12.1137L13.1579 13.3369L14.1735 14.9176ZM15.9011 14.9664L15.5968 14.4929L16.5542 12.5735L17.7524 14.9664H15.9011ZM18.1803 8.30894V12.6334L17.1911 10.6579C17.0702 10.4165 16.8232 10.2639 16.5532 10.2639H16.5528C16.2825 10.2642 16.0355 10.4168 15.9146 10.659L14.6989 13.0954L13.7572 11.6297C13.6258 11.4251 13.3997 11.3018 13.1569 11.3018H13.1565C12.9133 11.3018 12.6872 11.4258 12.5562 11.6304L11.5228 13.2435V8.30894H18.1803Z" fill="#393D4C"/>
</svg>
