<svg width="38" height="39" viewBox="0 0 38 39" fill="none" xmlns="http://www.w3.org/2000/svg">
<g clip-path="url(#clip0_1408_119613)">
<path d="M35.108 12.8292H32.5885C30.5232 7.12913 25.1123 3.3291 18.9992 3.3291C12.8861 3.3291 7.47521 7.12913 5.40998 12.8292H2.89039C1.52734 12.8292 0.412109 13.9444 0.412109 15.3075V20.264C0.412109 21.6271 1.52734 22.7423 2.89039 22.7423H5.98824C6.23607 22.7423 6.4839 22.6184 6.64912 22.4119C6.81434 22.2053 6.85564 21.9162 6.77303 21.6684C6.35998 20.4292 6.15346 19.1075 6.15346 17.7857C6.15346 16.464 6.35998 15.1422 6.77303 13.9031C8.50783 8.5748 13.3818 4.98129 18.9992 4.98129C24.6167 4.98129 29.4906 8.5748 31.1841 13.9031C31.5972 15.1422 31.8037 16.464 31.8037 17.7857C31.8037 19.1075 31.5972 20.4292 31.1841 21.6684C29.4906 26.9967 24.6167 30.5902 18.9992 30.5902H12.8035C11.1926 30.5902 9.91219 31.8706 9.91219 33.4815C9.91219 35.0924 11.1926 36.3729 12.8035 36.3729H16.934C18.5449 36.3729 19.8253 35.0924 19.8253 33.4815V32.2011C25.608 31.8706 30.6058 28.1945 32.5885 22.7423H35.108C36.4711 22.7423 37.5863 21.6271 37.5863 20.264V15.3075C37.5863 13.9444 36.4711 12.8292 35.108 12.8292ZM4.91432 21.0901H2.89039C2.43604 21.0901 2.0643 20.7184 2.0643 20.264V15.3075C2.0643 14.8531 2.43604 14.4814 2.89039 14.4814H4.91432C4.66649 15.5553 4.54258 16.6705 4.54258 17.7857C4.54258 18.901 4.66649 20.0162 4.91432 21.0901ZM18.1731 33.4815C18.1731 34.1837 17.6362 34.7207 16.934 34.7207H12.8035C12.1013 34.7207 11.5644 34.1837 11.5644 33.4815C11.5644 32.7793 12.1013 32.2424 12.8035 32.2424H18.1731V33.4815ZM35.9341 20.264C35.9341 20.7184 35.5624 21.0901 35.108 21.0901H33.0841C33.3319 20.0162 33.4559 18.901 33.4559 17.7857C33.4559 16.6705 33.3319 15.5553 33.0841 14.4814H35.108C35.5624 14.4814 35.9341 14.8531 35.9341 15.3075V20.264ZM29.3254 17.7857C29.3254 12.0857 24.6993 7.45957 18.9992 7.45957C13.2992 7.45957 8.67305 12.0857 8.67305 17.7857C8.67305 20.264 9.54045 22.6184 11.1513 24.4771L8.92088 26.7076C8.67305 26.9554 8.63174 27.2858 8.75566 27.6163C8.87957 27.9054 9.1687 28.1119 9.49914 28.1119H18.9992C24.6993 28.1119 29.3254 23.4858 29.3254 17.7857ZM12.8861 23.8988C11.2339 22.2466 10.3252 20.0988 10.3252 17.7857C10.3252 12.9944 14.2079 9.11176 18.9992 9.11176C23.7906 9.11176 27.6732 12.9944 27.6732 17.7857C27.6732 22.5771 23.7906 26.4597 18.9992 26.4597H11.4818L12.8448 25.0967C13.1753 24.7662 13.1753 24.2293 12.8861 23.8988ZM18.1731 17.7857C18.1731 17.3314 18.5449 16.9596 18.9992 16.9596C19.4536 16.9596 19.8253 17.3314 19.8253 17.7857C19.8253 18.2401 19.4536 18.6118 18.9992 18.6118C18.5449 18.6118 18.1731 18.2401 18.1731 17.7857ZM22.3036 17.7857C22.3036 17.3314 22.6753 16.9596 23.1297 16.9596C23.584 16.9596 23.9558 17.3314 23.9558 17.7857C23.9558 18.2401 23.584 18.6118 23.1297 18.6118C22.6753 18.6118 22.3036 18.2401 22.3036 17.7857ZM14.0427 17.7857C14.0427 17.3314 14.4144 16.9596 14.8688 16.9596C15.3231 16.9596 15.6948 17.3314 15.6948 17.7857C15.6948 18.2401 15.3231 18.6118 14.8688 18.6118C14.4144 18.6118 14.0427 18.2401 14.0427 17.7857Z" fill="#393D4C"/>
</g>
<defs>
<clipPath id="clip0_1408_119613">
<rect width="37.8182" height="37.8182" fill="white" transform="translate(0.0917969 0.942383)"/>
</clipPath>
</defs>
</svg>
