<svg width="53" height="55" viewBox="0 0 53 55" fill="none" xmlns="http://www.w3.org/2000/svg">
<g clip-path="url(#clip0_1408_119657)">
<path d="M41.5287 0.603516H12.0619C11.5836 0.603516 11.1953 1.00518 11.1953 1.50003V53.5C11.1953 53.9949 11.5836 54.3965 12.0619 54.3965H41.5286C42.0069 54.3965 42.3952 53.9949 42.3952 53.5V1.50003C42.3953 1.00518 42.007 0.603516 41.5287 0.603516ZM40.662 52.6035H12.9287V2.39665H40.6621V52.6035H40.662Z" fill="#393D4C"/>
<path d="M38.062 4.18945H15.5287C15.0504 4.18945 14.6621 4.59112 14.6621 5.08597V53.4998C14.6621 53.9946 15.0504 54.3963 15.5287 54.3963H38.0621C38.5405 54.3963 38.9287 53.9946 38.9287 53.4998V5.08597C38.9287 4.59112 38.5405 4.18945 38.062 4.18945ZM37.1954 52.6033H16.3954V5.98259H37.1954V52.6033Z" fill="#393D4C"/>
<path d="M51.9283 52.6035H1.66155C1.1832 52.6035 0.794922 53.0052 0.794922 53.5C0.794922 53.9949 1.1832 54.3966 1.66155 54.3966H51.9282C52.4065 54.3966 52.7948 53.995 52.7948 53.5001C52.7948 53.0053 52.4067 52.6035 51.9283 52.6035Z" fill="#393D4C"/>
<path d="M22.4622 28.3965H18.9955C18.5172 28.3965 18.1289 28.7981 18.1289 29.293C18.1289 29.7879 18.5172 30.1895 18.9955 30.1895H22.4622C22.9405 30.1895 23.3288 29.7879 23.3288 29.293C23.3289 28.7981 22.9406 28.3965 22.4622 28.3965Z" fill="#393D4C"/>
<path d="M34.5955 7.77539H18.9955C18.5172 7.77539 18.1289 8.17705 18.1289 8.67191V25.7064C18.1289 26.2012 18.5172 26.6029 18.9955 26.6029H34.5955C35.0739 26.6029 35.4622 26.2012 35.4622 25.7064V8.67191C35.4622 8.17705 35.0739 7.77539 34.5955 7.77539ZM33.7289 24.8098H19.8622V9.56842H33.7288V24.8098H33.7289Z" fill="#393D4C"/>
<path d="M34.5955 31.9824H18.9955C18.5172 31.9824 18.1289 32.3841 18.1289 32.8789V49.9134C18.1289 50.4082 18.5172 50.8099 18.9955 50.8099H34.5955C35.0739 50.8099 35.4622 50.4082 35.4622 49.9134V32.8789C35.4622 32.3841 35.0739 31.9824 34.5955 31.9824ZM33.7289 49.0169H19.8622V33.7755H33.7288V49.0169H33.7289Z" fill="#393D4C"/>
</g>
<defs>
<clipPath id="clip0_1408_119657">
<rect width="52" height="53.7931" fill="white" transform="translate(0.794922 0.603516)"/>
</clipPath>
</defs>
</svg>
