<svg width="100" height="100" viewBox="0 0 100 100" fill="none" xmlns="http://www.w3.org/2000/svg">
<rect width="100" height="100" fill="white"/>
<path d="M55.3289 27.8401C45.8584 35.1262 40.3147 45.0353 38.749 55.9763C39.0693 44.6812 43.1677 33.3998 52.4477 24.9922C53.6167 25.7172 54.5745 26.7202 55.3289 27.8401Z" fill="#ED1846"/>
<path d="M44.5956 76.7584C56.4624 81.1481 82.5913 68.2704 83.9683 40.4858C84.5842 28.0171 77.8685 20.0663 67.6023 21.8648C66.4206 20.4185 64.6975 19.2002 62.8549 18.35C79.6143 11.6472 99.0395 20.0728 98.2182 40.3662C96.8356 74.4845 57.8019 91.4294 37.9316 78.7732C40.2888 78.3524 42.7634 77.5745 44.5956 76.7584Z" fill="#ED1846"/>
<path d="M67.5943 21.8598C66.3428 20.4468 64.4961 19.2252 62.6865 18.345C65.331 16.7987 73.2416 15.072 80.1385 16.5834C91.0672 18.8184 99.573 27.211 99.0315 40.5412C98.3299 57.8651 87.7237 70.7918 74.4181 77.4221C86.0481 71.7187 94.3126 54.8532 94.5643 40.0681C94.7183 31.0303 90.6929 20.2079 79.7733 17.6393C74.5481 16.4096 66.4906 16.1302 67.5943 21.8598Z" fill="#ED1846"/>
<path d="M39.5802 71.0344C37.8975 71.891 36.0511 72.5915 33.9362 73.0979C25.8153 63.8735 24.917 51.8998 27.0801 40.4992C30.0334 24.9611 43.5975 16.5025 55.1065 17.4692C64.639 18.2693 72.7561 25.5305 72.2388 40.6259C71.5162 61.7453 52.6668 74.4374 37.5607 77.6389C13.3048 82.779 8.44289 54.8775 15.9123 37.3748C17.6093 36.6345 18.6742 36.0467 20.287 35.0771C11.1559 49.9546 15.9696 78.2939 34.3716 73.9859C46.3118 71.187 59.3224 59.8507 59.6342 40.5537C60.0428 15.0052 36.525 18.2452 31.9355 40.523C30.1725 49.0819 29.8603 63.238 39.5802 71.0344Z" fill="#ED1846"/>
<path d="M52.5029 17.4084C55.3152 17.2947 57.7866 17.6819 59.9494 18.3281C70.0962 21.3773 73.3443 31.4054 73.0256 40.7291C72.5492 54.7359 63.2864 64.9238 53.2382 71.2143C62.5967 65.0957 68.0654 52.1984 68.4924 40.57C68.9294 28.5539 65.3747 17.9733 52.5029 17.4084Z" fill="#ED1846"/>
<path d="M39.5824 71.0395C37.8997 71.8962 36.0532 72.5966 33.9383 73.103C23.9092 60.963 26.8771 35.6386 38.4376 27.3594C28.8115 37.904 27.9889 62.2826 39.5824 71.0395Z" fill="#ED1846"/>
<path d="M18.901 72.9131C15.8451 69.6136 13.9592 65.0769 13.1143 60.086C11.8524 52.6693 13.0056 44.2091 15.9179 37.3778C17.6148 36.6375 18.6797 36.0498 20.2926 35.0801C12.0607 49.3986 15.9962 75.7104 32.1862 74.349C29.2248 75.3804 22.0523 76.3354 18.901 72.9131Z" fill="#ED1846"/>
<path d="M27.0757 27.6996C28.1975 26.0112 24.1414 25.0984 21.8496 27.2759C15.15 34.7713 11.2732 38.2835 1.23047 39.6031C11.9117 39.4548 22.1132 34.1493 27.0757 27.6996Z" fill="#ED1846"/>
<path d="M12.6729 51.3425C12.8174 46.4739 13.7853 41.5879 15.73 37.387C17.4193 36.6071 18.6624 36.0233 20.2824 35.0801C15.5599 40.0948 13.498 44.9452 12.6729 51.3425Z" fill="#ED1846"/>
<path d="M39.7117 71.0976C38.0351 71.9546 36.0771 72.6246 33.9574 73.1343C31.1813 67.8435 31.0373 61.8595 31.3957 54.8711C32.2931 60.864 34.6244 66.9706 39.7117 71.0976Z" fill="#ED1846"/>
<path d="M59.6191 18.375C66.966 20.6257 72.8976 27.9758 72.467 40.6094C72.106 51.1397 67.2031 59.8776 60.3473 65.7989C72.4835 54.7897 78.0965 26.3099 59.6191 18.375Z" fill="#ED1846"/>
<path d="M46.2191 37.2188C42.4088 42.8261 39.9572 49.3055 38.749 55.973C38.9033 50.5447 40.2422 43.9 46.2191 37.2188Z" fill="#ED1846"/>
<path d="M27.2319 27.7689C28.3537 26.0792 24.2575 24.6988 21.8143 27.2054C19.0356 30.3199 18.9331 33.3309 13.0303 37.3893C20.0624 34.7795 24.4578 31.3657 27.2319 27.7689Z" fill="#ED1846"/>
<path d="M11.0084 36.8066C7.09206 38.5245 3.19382 39.3282 1 39.6193C2.90884 39.6366 4.65141 39.4788 6.4176 39.1394C8.09289 38.7166 10.7312 37.0752 11.0084 36.8066Z" fill="#ED1846"/>
<path d="M83.7441 17.6875C92.3891 20.8546 98.6946 28.6245 98.2169 40.3659C97.7164 52.7467 92.251 62.864 84.5483 70.1271C96.8175 58.4949 106.039 28.139 83.7441 17.6875Z" fill="#ED1846"/>
<path d="M44.5782 76.752C45.5144 79.7695 48.4761 82.0061 55.1763 82.9128C48.6175 83.3858 42.3016 81.9065 37.7422 78.725C40.0945 78.3012 42.7011 77.4972 44.5782 76.752Z" fill="#ED1846"/>
</svg>
