<?xml version="1.0" standalone="no"?>
<!DOCTYPE svg PUBLIC "-//W3C//DTD SVG 20010904//EN"
 "http://www.w3.org/TR/2001/REC-SVG-20010904/DTD/svg10.dtd">
<svg version="1.0" xmlns="http://www.w3.org/2000/svg"
 width="700.000000pt" height="700.000000pt" viewBox="0 0 700.000000 700.000000"
 preserveAspectRatio="xMidYMid meet">
<metadata>
Created by potrace 1.14, written by Peter Selinger 2001-2017
</metadata>
<g transform="translate(0.000000,700.000000) scale(0.100000,-0.100000)"
fill="#000000" stroke="none">
<path d="M5035 5874 c-16 -2 -73 -9 -125 -15 -166 -19 -369 -70 -477 -121
l-43 -20 77 -44 c87 -50 214 -144 242 -180 19 -24 19 -24 119 -13 167 19 340
-9 487 -80 284 -136 467 -413 541 -816 28 -150 25 -498 -5 -695 -95 -628 -352
-1149 -776 -1574 -145 -146 -268 -247 -440 -361 -246 -164 -576 -303 -840
-355 -210 -42 -465 -38 -616 9 l-57 18 -114 -39 c-62 -22 -167 -52 -232 -68
-65 -16 -121 -32 -123 -34 -3 -2 28 -23 68 -47 397 -232 889 -301 1469 -208
362 58 683 171 1073 379 505 268 892 611 1184 1050 241 361 388 749 460 1210
13 87 18 175 18 360 0 216 -3 258 -23 358 -31 153 -72 275 -138 407 -235 477
-728 801 -1324 870 -112 13 -325 18 -405 9z"/>
<path d="M3555 5773 c-406 -52 -772 -228 -1074 -519 -432 -414 -632 -943 -648
-1715 -6 -291 3 -418 47 -639 69 -347 216 -666 435 -945 56 -71 61 -75 90 -69
58 12 241 75 306 105 l65 30 -105 107 c-119 119 -183 208 -264 363 -322 612
-308 1537 33 2215 88 176 164 286 275 399 316 323 729 405 1029 204 221 -147
362 -423 412 -803 20 -154 14 -556 -11 -716 -84 -534 -299 -977 -655 -1344
-298 -308 -724 -550 -1115 -632 -119 -25 -317 -22 -420 5 -417 112 -703 523
-800 1151 -22 143 -31 465 -16 615 32 332 122 660 241 883 22 39 38 72 36 72
-1 0 -74 -37 -160 -81 -182 -94 -164 -71 -241 -304 -52 -156 -88 -321 -110
-510 -21 -176 -24 -578 -6 -720 52 -406 188 -752 388 -987 60 -70 214 -195
313 -253 142 -83 301 -134 485 -155 123 -14 198 -13 348 5 492 57 1090 309
1544 650 626 471 997 1034 1108 1685 22 129 31 457 16 601 -87 830 -593 1315
-1364 1308 -84 -1 -165 -4 -182 -6z"/>
<path d="M3556 5139 c-339 -349 -566 -736 -711 -1214 -63 -209 -114 -504 -129
-745 l-5 -85 14 60 c8 33 25 101 36 150 102 437 324 907 576 1225 89 112 371
394 466 465 36 28 66 53 66 57 2 15 -106 131 -153 166 l-48 36 -112 -115z"/>
<path d="M1670 5181 c-65 -21 -114 -57 -176 -128 -224 -255 -469 -478 -630
-575 -146 -88 -379 -170 -634 -223 l-115 -24 70 0 c147 -1 427 54 657 128 289
95 575 246 789 419 85 68 266 254 282 289 28 63 -35 114 -147 119 -39 2 -82 0
-96 -5z"/>
</g>
</svg>
