<svg width="52" height="52" viewBox="0 0 52 52" fill="none" xmlns="http://www.w3.org/2000/svg">
<rect width="17.7183" height="4.02689" transform="matrix(-1 0 0 1 50.9658 24.3926)" fill="#DADDE7"/>
<rect width="5.63764" height="5.63764" transform="matrix(-1 0 0 1 9.8916 13.9219)" fill="#DADDE7"/>
<path d="M51.7717 25.9245C51.7717 24.3986 50.5303 23.1572 49.0044 23.1572H35.1251C34.6725 23.1572 34.2454 23.2671 33.8679 23.4605V21.3452C33.8679 20.3196 33.0336 19.4853 32.0081 19.4853H10.5801C10.5979 19.4157 10.6133 19.3452 10.6233 19.2726L11.2231 14.8973C11.283 14.4605 11.1511 14.0195 10.8614 13.6871C10.5715 13.3548 10.1524 13.1642 9.71148 13.1642H8.02792V12.5566H8.30225C10.1488 12.5566 11.6511 11.0543 11.6511 9.20767V8.70833C11.6511 7.99979 11.0746 7.42334 10.3661 7.42334H9.86661C9.10482 7.42334 8.40192 7.67955 7.83855 8.10963C7.37998 6.80631 6.13717 5.86914 4.67901 5.86914H3.58208C2.87354 5.86914 2.29708 6.4456 2.29708 7.15414V8.25117C2.29708 10.0977 3.79933 11.6 5.64588 11.6H6.51781V13.1642H4.93493C4.49398 13.1642 4.07487 13.3548 3.78504 13.6871C3.4953 14.0194 3.36341 14.4605 3.42332 14.8972L4.02313 19.2727C4.03309 19.3453 4.0485 19.4159 4.06632 19.4854H2.08738C1.06182 19.4853 0.227539 20.3196 0.227539 21.3452V50.7993C0.227539 51.3528 0.677952 51.8031 1.23145 51.8031H3.41415C3.93484 51.8031 4.41374 51.4982 4.63421 51.0261L4.99956 50.243H47.0735L47.359 50.9566C47.5646 51.4708 48.0553 51.8031 48.6091 51.8031H50.7679C51.3214 51.8031 51.7718 51.3528 51.7718 50.7993V29.8885C51.7718 29.1981 51.4782 28.5753 51.0096 28.1373C51.4814 27.6408 51.7718 26.9704 51.7718 26.233V25.9245H51.7717ZM9.86661 8.93344H10.1409V9.20767C10.1409 10.2216 9.31613 11.0465 8.30225 11.0465H8.02792V10.7721C8.02792 9.75835 8.85283 8.93344 9.86661 8.93344ZM3.80728 8.25117V7.37924H4.67912C5.693 7.37924 6.51792 8.20406 6.51792 9.21794V10.0899H5.64598C4.6321 10.09 3.80728 9.26505 3.80728 8.25117ZM4.92315 14.6797C4.92778 14.6743 4.9311 14.6743 4.93493 14.6743H9.71158C9.7154 14.6743 9.71862 14.6743 9.72336 14.6797C9.72799 14.685 9.72748 14.6882 9.72698 14.6921L9.12717 19.0674C9.10069 19.2604 8.93388 19.406 8.73917 19.406H5.90733C5.71253 19.406 5.54571 19.2604 5.51934 19.0675L4.91952 14.6921C4.91892 14.6882 4.91852 14.685 4.92315 14.6797ZM35.1251 24.6673H49.0044C49.6976 24.6673 50.2616 25.2312 50.2616 25.9245V26.233C50.2616 26.9263 49.6975 27.4903 49.0044 27.4903H35.1251C34.4318 27.4903 33.8679 26.9263 33.8679 26.233V25.9245C33.8678 25.2312 34.4318 24.6673 35.1251 24.6673ZM49.3735 29.0004C49.8631 29.0004 50.2616 29.3988 50.2616 29.8885V34.0779H36.7775C36.3604 34.0779 36.0225 34.416 36.0225 34.833C36.0225 35.25 36.3604 35.588 36.7775 35.588H50.2616V45.3941H48.8154C48.742 44.2989 47.978 43.3583 46.9045 43.0727L46.8822 43.0668C45.9773 42.8257 45.3448 42.5986 44.7332 42.3789C44.0664 42.1394 43.4365 41.9132 42.5467 41.6988C42.354 41.6524 42.1584 41.6102 41.9616 41.5701C41.9614 41.57 41.9612 41.57 41.961 41.5699C41.9319 41.5624 41.9028 41.557 41.8738 41.553C41.4426 41.4675 41.004 41.396 40.5615 41.3423C40.4031 41.3232 40.2427 41.3546 40.1033 41.4323C39.7455 41.6315 39.1634 41.8697 38.4225 41.8727C38.4181 41.8727 38.4138 41.8727 38.4093 41.8727C37.9605 41.8727 37.5201 41.7865 37.1002 41.6165C36.7612 41.4794 36.378 41.5193 36.0751 41.7235C35.7729 41.9272 35.5924 42.2667 35.5924 42.6314V45.3941H33.8678V29.0004H49.3735ZM41.3903 43.7634C41.4541 43.78 41.518 43.788 41.581 43.788C41.9165 43.788 42.2227 43.5627 42.3112 43.2229L42.3176 43.1984C42.6937 43.2925 43.0249 43.3904 43.3354 43.4919L43.3138 43.5745C43.2088 43.9781 43.4509 44.3904 43.8545 44.4954C43.9183 44.512 43.9822 44.52 44.0451 44.52C44.3679 44.52 44.6615 44.3104 44.7623 43.992C45.2457 44.1606 45.7989 44.3412 46.4947 44.5265L46.5173 44.5324C46.9289 44.642 47.2307 44.9841 47.298 45.3943H37.1025V43.2086C37.5342 43.3261 37.976 43.3817 38.4282 43.383C39.3453 43.3794 40.0925 43.1246 40.6097 42.8712C40.6857 42.8815 40.7611 42.8936 40.8368 42.9049C40.7705 43.2876 41.0074 43.6637 41.3903 43.7634ZM32.3577 21.3452V45.405H17.8027V20.9954H32.0081C32.2009 20.9954 32.3577 21.1523 32.3577 21.3452ZM50.2616 50.293H48.7199L48.4344 49.5794C48.2288 49.0653 47.7381 48.7329 47.1843 48.7329H4.89516C4.37428 48.7329 3.89537 49.038 3.6751 49.5099L3.30976 50.2929H1.73764V46.915H4.55851C4.9756 46.915 5.31356 46.5769 5.31356 46.1599C5.31356 45.7429 4.9756 45.4049 4.55851 45.4049H1.73764V21.3452C1.73764 21.1523 1.89459 20.9954 2.08738 20.9954H16.2927V45.405H7.88204C7.46495 45.405 7.12699 45.743 7.12699 46.16C7.12699 46.577 7.46495 46.9151 7.88204 46.9151H50.2616V50.293Z" fill="#343B4C"/>
<path d="M49.3548 14.7273H34.858C34.6444 14.7273 34.4395 14.6424 34.2885 14.4914C34.1375 14.3403 34.0526 14.1355 34.0526 13.9219V1.03585C34.0526 0.822247 34.1375 0.617396 34.2885 0.466358C34.4395 0.315321 34.6444 0.230469 34.858 0.230469H49.3548C49.5684 0.230469 49.7732 0.315321 49.9243 0.466358C50.0753 0.617396 50.1602 0.822247 50.1602 1.03585V13.9219C50.1602 14.1355 50.0753 14.3403 49.9243 14.4914C49.7732 14.6424 49.5684 14.7273 49.3548 14.7273ZM48.5494 1.84122H35.6634V13.1165H48.5494V1.84122Z" fill="#343B4C"/>
<path d="M37.2752 2.64648H46.9397C47.1533 2.64648 47.3582 2.73134 47.5092 2.88237C47.6603 3.03341 47.7451 3.23826 47.7451 3.45186V11.5056C47.7451 11.7192 47.6603 11.9241 47.5092 12.0751C47.3582 12.2262 47.1533 12.311 46.9397 12.311H37.2752C37.0616 12.311 36.8568 12.2262 36.7057 12.0751C36.5547 11.9241 36.4698 11.7192 36.4698 11.5056V3.45186C36.4698 3.23826 36.5547 3.03341 36.7057 2.88237C36.8568 2.73134 37.0616 2.64648 37.2752 2.64648ZM38.0806 10.7003H46.1344V8.78346L43.8793 7.65593L41.8739 9.66132C41.799 9.73681 41.71 9.79673 41.6118 9.83761C41.5137 9.8785 41.4084 9.89955 41.3021 9.89955C41.1958 9.89955 41.0905 9.8785 40.9924 9.83761C40.8942 9.79673 40.8051 9.73681 40.7303 9.66132L39.6913 8.61433L38.0806 10.2251V10.7003ZM38.0806 7.95392L39.1195 6.90693C39.1944 6.83145 39.2835 6.77153 39.3816 6.73064C39.4798 6.68975 39.585 6.6687 39.6913 6.6687C39.7977 6.6687 39.9029 6.68975 40.0011 6.73064C40.0992 6.77153 40.1883 6.83145 40.2632 6.90693L41.3021 7.95392L43.1464 6.10155C43.267 5.982 43.4222 5.9036 43.59 5.87756C43.7578 5.85153 43.9295 5.87919 44.0806 5.95659L46.1344 6.97942V4.25724H38.0806V7.95392Z" fill="#343B4C"/>
<path d="M14.0827 29.1323C14.5135 29.1323 14.8628 28.7831 14.8628 28.3523C14.8628 27.9215 14.5135 27.5723 14.0827 27.5723C13.652 27.5723 13.3027 27.9215 13.3027 28.3523C13.3027 28.7831 13.652 29.1323 14.0827 29.1323Z" fill="#343B4C"/>
<path d="M20.0124 29.1323C20.4432 29.1323 20.7924 28.7831 20.7924 28.3523C20.7924 27.9215 20.4432 27.5723 20.0124 27.5723C19.5816 27.5723 19.2324 27.9215 19.2324 28.3523C19.2324 28.7831 19.5816 29.1323 20.0124 29.1323Z" fill="#343B4C"/>
</svg>
