<svg width="60" height="60" viewBox="0 0 60 60" fill="none" xmlns="http://www.w3.org/2000/svg">
<rect x="17.1396" y="11.1992" width="14.6209" height="40" fill="#DADDE7"/>
<rect x="34.627" y="44.0625" width="7.61507" height="4.6875" fill="#DADDE7"/>
<path d="M58.5883 11.8599C59.0615 11.8599 59.377 11.5492 59.377 11.0831V7.97599C59.377 7.50993 59.0615 7.19922 58.5883 7.19922H0.788692C0.315477 7.19922 0 7.50993 0 7.97599V11.0831C0 11.5492 0.315477 11.8599 0.788692 11.8599H2.36608V50.6985H0.788692C0.315477 50.6985 0 51.0092 0 51.4753V54.5824C0 55.0485 0.315477 55.3592 0.788692 55.3592H58.5883C59.0615 55.3592 59.377 55.0485 59.377 54.5824V51.4753C59.377 51.0092 59.0615 50.6985 58.5883 50.6985H46.5328V11.8599H58.5883ZM1.57738 8.75277H57.7996V10.3063H1.57738V8.75277ZM30.759 50.6985H18.1399V11.8599H30.759V50.6985ZM3.94346 11.8599H16.5625V50.6985H3.94346V11.8599ZM57.7996 53.8056H1.57738V52.2521H57.7996V53.8056ZM44.9554 50.6985H32.3364V11.8599H44.9554V50.6985Z" fill="#343B4C"/>
<path d="M14.1969 28.9492C13.7237 28.9492 13.4082 29.2599 13.4082 29.726V32.8331C13.4082 33.2992 13.7237 33.6099 14.1969 33.6099C14.6701 33.6099 14.9856 33.2992 14.9856 32.8331V29.726C14.9856 29.2599 14.6701 28.9492 14.1969 28.9492Z" fill="#343B4C"/>
<path d="M20.5045 33.6099C20.9777 33.6099 21.2932 33.2992 21.2932 32.8331V29.726C21.2932 29.2599 20.9777 28.9492 20.5045 28.9492C20.0313 28.9492 19.7158 29.2599 19.7158 29.726V32.8331C19.7158 33.2992 20.0313 33.6099 20.5045 33.6099Z" fill="#343B4C"/>
<path d="M53.6666 33.6099C54.1398 33.6099 54.4553 33.2992 54.4553 32.8331V29.726C54.4553 29.2599 54.1398 28.9492 53.6666 28.9492C53.1934 28.9492 52.8779 29.2599 52.8779 29.726V32.8331C52.8779 33.2992 53.1934 33.6099 53.6666 33.6099Z" fill="#343B4C"/>
<path d="M34.7037 49.1445H42.5906C43.0638 49.1445 43.3793 48.8338 43.3793 48.3677V44.4838C43.3793 44.0177 43.0638 43.707 42.5906 43.707H34.7037C34.2305 43.707 33.915 44.0177 33.915 44.4838V48.3677C33.915 48.8338 34.2305 49.1445 34.7037 49.1445ZM35.4924 45.2606H41.8019V47.5909H35.4924V45.2606Z" fill="#343B4C"/>
<path d="M34.7037 42.1547H42.5906C43.0638 42.1547 43.3793 41.844 43.3793 41.3779V14.1908C43.3793 13.7248 43.0638 13.4141 42.5906 13.4141H34.7037C34.2305 13.4141 33.915 13.7248 33.915 14.1908V41.3779C33.915 41.844 34.2305 42.1547 34.7037 42.1547ZM35.4924 14.9676H41.8019V40.6011H35.4924V14.9676Z" fill="#343B4C"/>
<path d="M39.6726 23.7448L36.5179 26.8518C36.2024 27.1626 36.2024 27.6286 36.5179 27.9393C36.6756 28.0947 36.9122 28.1724 37.0699 28.1724C37.2277 28.1724 37.4643 28.0947 37.622 27.9393L40.7768 24.8322C41.0923 24.5215 41.0923 24.0555 40.7768 23.7448C40.4613 23.434 39.9881 23.434 39.6726 23.7448Z" fill="#343B4C"/>
<path d="M37.0699 24.2887C37.3065 24.2887 37.4643 24.2111 37.622 24.0557L39.1994 22.5022C39.5149 22.1914 39.5149 21.7254 39.1994 21.4147C38.8839 21.104 38.4107 21.104 38.0952 21.4147L36.5179 22.9682C36.2024 23.2789 36.2024 23.745 36.5179 24.0557C36.6756 24.2111 36.8333 24.2887 37.0699 24.2887Z" fill="#343B4C"/>
<rect x="55.9629" y="11.1992" width="1.536" height="40" fill="#343B4C"/>
</svg>
