<svg width="60" height="60" viewBox="0 0 60 60" fill="none" xmlns="http://www.w3.org/2000/svg">
<rect x="5.14355" y="41.2246" width="4.81092" height="16.8382" transform="rotate(-90 5.14355 41.2246)" fill="#DADDE7"/>
<rect x="22.7842" y="41.2246" width="4.81092" height="16.8382" transform="rotate(-90 22.7842 41.2246)" fill="#DADDE7"/>
<path d="M5.14355 18.7754L7.94993 13.9645L19.5763 13.9645L21.9818 16.7708L21.9818 18.7754L5.14355 18.7754Z" fill="#DADDE7"/>
<path d="M54.8031 14.6055H39.4081C38.9358 14.6055 38.5528 14.9884 38.5528 15.4607V35.1321H19.7368V32.5663C19.7368 32.0939 19.3538 31.711 18.8815 31.711H16.3157V33.4215H18.0262V35.1321H14.6051V31.711H12.8946V35.1321H9.47345V33.4215H11.184V31.711H8.61817C8.14585 31.711 7.7629 32.0939 7.7629 32.5663V35.1321H5.19707C4.72475 35.1321 4.3418 35.515 4.3418 35.9874V54.8034C4.3418 55.2757 4.72475 55.6587 5.19707 55.6587H54.8031C55.2754 55.6587 55.6583 55.2757 55.6583 54.8034V15.4607C55.6583 14.9884 55.2754 14.6055 54.8031 14.6055ZM40.2634 16.316H53.9478V26.5793H40.2634V16.316ZM38.5528 40.2637H23.1579V36.8426H38.5528V40.2637ZM6.05235 36.8426H21.4473V40.2637H6.05235V36.8426ZM6.05235 41.9743H21.4473V53.9481H6.05235V41.9743ZM23.1579 41.9743H30.0001V53.9481H23.1579V41.9743ZM31.7106 41.9743H38.5528V53.9481H31.7106V41.9743ZM40.2634 53.9481V28.2899H53.9478V53.9481H40.2634Z" fill="#343B4C"/>
<path d="M41.9736 19.7363H43.6842V23.1574H41.9736V19.7363Z" fill="#343B4C"/>
<path d="M41.9736 31.7109H43.6842V35.132H41.9736V31.7109Z" fill="#343B4C"/>
<path d="M9.47422 38.5525C9.47422 39.0249 9.09127 39.4078 8.61895 39.4078C8.14662 39.4078 7.76367 39.0249 7.76367 38.5525C7.76367 38.0802 8.14662 37.6973 8.61895 37.6973C9.09127 37.6973 9.47422 38.0802 9.47422 38.5525Z" fill="#343B4C"/>
<path d="M12.8941 38.5525C12.8941 39.0249 12.5112 39.4078 12.0389 39.4078C11.5665 39.4078 11.1836 39.0249 11.1836 38.5525C11.1836 38.0802 11.5665 37.6973 12.0389 37.6973C12.5112 37.6973 12.8941 38.0802 12.8941 38.5525Z" fill="#343B4C"/>
<path d="M16.317 38.5525C16.317 39.0249 15.934 39.4078 15.4617 39.4078C14.9894 39.4078 14.6064 39.0249 14.6064 38.5525C14.6064 38.0802 14.9894 37.6973 15.4617 37.6973C15.934 37.6973 16.317 38.0802 16.317 38.5525Z" fill="#343B4C"/>
<path d="M19.7369 38.5525C19.7369 39.0249 19.354 39.4078 18.8816 39.4078C18.4093 39.4078 18.0264 39.0249 18.0264 38.5525C18.0264 38.0802 18.4093 37.6973 18.8816 37.6973C19.354 37.6973 19.7369 38.0802 19.7369 38.5525Z" fill="#343B4C"/>
<path d="M5.19707 20.592H22.3026C22.7749 20.592 23.1579 20.2091 23.1579 19.7368V17.1709C23.1579 16.9442 23.0677 16.7266 22.9073 16.5662L19.4862 13.1451C19.3258 12.9848 19.1082 12.8946 18.8815 12.8946H18.0262V5.19707C18.0262 4.72475 17.6433 4.3418 17.1709 4.3418H10.3287C9.8564 4.3418 9.47345 4.72475 9.47345 5.19707V12.8946H8.61817C8.39141 12.8946 8.17383 12.9848 8.01347 13.1451L4.59237 16.5662C4.432 16.7266 4.3418 16.9442 4.3418 17.1709V19.7368C4.3418 20.2091 4.72475 20.592 5.19707 20.592ZM11.184 6.05235H16.3157V12.8946H11.184V6.05235ZM6.05235 17.5251L8.97231 14.6051H18.5273L21.4473 17.5251V18.8815H6.05235V17.5251Z" fill="#343B4C"/>
<path d="M18.8823 43.6836H8.61895C8.14662 43.6836 7.76367 44.0665 7.76367 44.5389V51.3811C7.76367 51.8534 8.14662 52.2364 8.61895 52.2364H18.8823C19.3546 52.2364 19.7375 51.8534 19.7375 51.3811V44.5389C19.7375 44.0665 19.3546 43.6836 18.8823 43.6836ZM18.027 50.5258H9.47422V45.3941H18.027V50.5258Z" fill="#343B4C"/>
<path d="M29.1445 37.6973H32.5656V39.4078H29.1445V37.6973Z" fill="#343B4C"/>
<path d="M26.5781 46.25H28.2887V49.6711H26.5781V46.25Z" fill="#343B4C"/>
<path d="M33.4219 46.25H35.1324V49.6711H33.4219V46.25Z" fill="#343B4C"/>
<path d="M24.868 25.7237H29.9996C30.4719 25.7237 30.8549 25.3407 30.8549 24.8684V24.0131C30.8491 22.4579 29.795 21.1024 28.2891 20.7136V4.3418H26.5785V20.7136C25.0726 21.1024 24.0185 22.4579 24.0127 24.0131V24.8684C24.0127 25.3407 24.3956 25.7237 24.868 25.7237ZM27.4338 22.3026C28.3784 22.3026 29.1443 23.0685 29.1443 24.0131H25.7232C25.7232 23.0685 26.4892 22.3026 27.4338 22.3026Z" fill="#343B4C"/>
<path d="M30.8553 18.8815H35.9869C36.4593 18.8815 36.8422 18.4985 36.8422 18.0262V17.1709C36.8364 15.6157 35.7823 14.2602 34.2764 13.8714V4.3418H32.5658V13.8714C31.0599 14.2602 30.0058 15.6157 30 17.1709V18.0262C30 18.4985 30.383 18.8815 30.8553 18.8815ZM33.4211 15.4604C34.3657 15.4604 35.1317 16.2263 35.1317 17.1709H31.7106C31.7106 16.2263 32.4765 15.4604 33.4211 15.4604Z" fill="#343B4C"/>
</svg>
