<svg width="60" height="60" viewBox="0 0 60 60" fill="none" xmlns="http://www.w3.org/2000/svg">
<path d="M9.375 46.875C9.375 44.2862 11.4737 42.1875 14.0625 42.1875H45.9375C48.5263 42.1875 50.625 44.2862 50.625 46.875H9.375Z" fill="#DADDE7"/>
<rect x="18.3145" y="20.1895" width="6.01438" height="6.11967" transform="rotate(-45 18.3145 20.1895)" fill="#DADDE7"/>
<path d="M0.9375 30H10.3125L7.96875 35.625H0.9375L0.9375 30Z" fill="#DADDE7"/>
<path d="M59.0625 30H49.6875L52.0312 35.625H59.0625V30Z" fill="#DADDE7"/>
<rect x="33.75" y="20.1895" width="6.01438" height="6.11967" transform="rotate(-45 33.75 20.1895)" fill="#DADDE7"/>
<path d="M59.1193 23.4825H54.3611C54.3623 23.4631 54.364 23.4436 54.364 23.4238V18.6684H56.3013C56.837 18.6684 57.2582 18.1718 57.1699 17.6431L56.2305 12.007C56.1598 11.5823 55.7924 11.2712 55.3618 11.2712H51.6047C51.1743 11.2712 50.8069 11.5823 50.7361 12.007L49.7967 17.6431C49.7087 18.1718 50.1299 18.6684 50.6653 18.6684H52.6027V23.4238C52.6027 23.4436 52.6043 23.4631 52.6056 23.4825H48.1939C48.1939 23.4825 47.7885 22.1865 47.7885 22.1323V12.1519C47.7885 10.6304 46.5506 9.39258 45.0292 9.39258H14.9707C13.4493 9.39258 12.2114 10.6304 12.2114 12.1519V22.191C12.2114 22.2311 11.8059 23.4825 11.8059 23.4825H7.3943C7.39559 23.4631 7.39723 23.4436 7.39723 23.4238V18.6684H9.33457C9.87023 18.6684 10.2914 18.1718 10.2032 17.6431L9.26379 12.007C9.19301 11.5823 8.82563 11.2712 8.39508 11.2712H4.63793C4.2075 11.2712 3.84012 11.5823 3.76934 12.007L2.82996 17.6431C2.74172 18.1718 3.16301 18.6684 3.69855 18.6684H5.6359V23.4238C5.6359 23.4436 5.63754 23.4631 5.63883 23.4825H0.880664C0.394219 23.4825 0 23.8767 0 24.3632V35.6352C0 36.1217 0.394219 36.5159 0.880664 36.5159H7.20586L6.62543 38.1601C6.59238 38.2527 6.57527 38.3549 6.57527 38.4532V45.9679C6.57527 46.7356 7.53516 47.1339 8.07867 46.5906L8.45391 46.2153V46.9072C8.45391 47.3937 8.84812 47.7879 9.33457 47.7879H10.3327V49.7253C10.3327 50.2117 10.7269 50.6059 11.2133 50.6059H48.7867C49.2731 50.6059 49.6673 50.2117 49.6673 49.7253V47.7879H50.6654C51.1519 47.7879 51.5461 47.3937 51.5461 46.9072V46.2153L51.9213 46.5905C52.4652 47.134 53.4247 46.734 53.4247 45.9678V38.4531C53.4247 38.3548 53.4076 38.2526 53.3745 38.16L52.7941 36.5159H59.1193C59.6058 36.5159 60 36.1217 60 35.6352V24.3632C60 23.8767 59.6058 23.4825 59.1193 23.4825ZM51.705 16.9072L52.3508 13.0324H54.6162L55.262 16.9072H51.705ZM13.9726 12.1519C13.9726 11.6016 14.4203 11.1538 14.9707 11.1538H45.0293C45.5796 11.1538 46.0274 11.6014 46.0274 12.1519V21.604H44.7831C44.9037 21.2943 44.9706 20.9578 44.9706 20.6059V14.9699C44.9706 13.4484 43.7327 12.2106 42.2113 12.2106H32.8179C31.2964 12.2106 30.0586 13.4484 30.0586 14.9699V20.6059C30.0586 20.9578 30.1255 21.2941 30.2461 21.604H29.7536C29.8741 21.2943 29.9411 20.9578 29.9411 20.6059V14.9699C29.9411 13.4484 28.7032 12.2106 27.1818 12.2106H17.7884C16.2669 12.2106 15.0291 13.4484 15.0291 14.9699V20.6059C15.0291 20.9578 15.096 21.2941 15.2166 21.604H13.9724V12.1519H13.9726ZM41.4585 19.1578L38.8016 16.5008C38.092 15.7914 36.9375 15.7913 36.2277 16.5009L33.5709 19.1577C32.9024 19.8264 32.8643 20.8896 33.4556 21.6039H32.818C32.2677 21.6039 31.8199 21.1562 31.8199 20.6058V14.9699C31.8199 14.4196 32.2676 13.9718 32.818 13.9718H42.2114C42.7617 13.9718 43.2095 14.4195 43.2095 14.9699V20.6059C43.2095 21.1562 42.7618 21.604 42.2114 21.604H41.5739C42.1651 20.8896 42.127 19.8264 41.4585 19.1578ZM40.213 20.4861L37.5564 23.143C37.5334 23.166 37.4958 23.1656 37.4733 23.1431L34.8164 20.486C34.7936 20.4633 34.7936 20.4259 34.8164 20.4031L37.473 17.7463C37.4845 17.7348 37.4996 17.7292 37.5146 17.7292C37.5298 17.7292 37.5449 17.7349 37.5563 17.7463L40.213 20.4033C40.236 20.426 40.236 20.4634 40.213 20.4861ZM26.4292 19.1578L23.7723 16.5008C23.0629 15.7914 21.9083 15.7913 21.1984 16.5009L18.5416 19.1577C17.8731 19.8264 17.835 20.8896 18.4263 21.6039H17.7887C17.2384 21.6039 16.7906 21.1562 16.7906 20.6058V14.9699C16.7906 14.4196 17.2383 13.9718 17.7887 13.9718H27.1821C27.7324 13.9718 28.1802 14.4195 28.1802 14.9699V20.6059C28.1802 21.1562 27.7325 21.604 27.1821 21.604H26.5446C27.1357 20.8896 27.0977 19.8264 26.4292 19.1578ZM25.1837 20.4861L22.5271 23.143C22.5042 23.166 22.4666 23.1656 22.444 23.1431L19.7872 20.486C19.7644 20.4633 19.7644 20.4259 19.7872 20.4031L22.4439 17.7463C22.4554 17.7348 22.4705 17.7292 22.4855 17.7292C22.5006 17.7292 22.5157 17.7349 22.5271 17.7463L25.1838 20.4033C25.2066 20.426 25.2066 20.4634 25.1837 20.4861ZM13.7152 23.3651H20.0196C20.0685 23.3651 21.1985 24.3885 21.1985 24.3885C21.8991 25.089 23.0719 25.0887 23.7724 24.3884L24.7975 23.3633C24.8095 23.3638 35.2045 23.3652 35.2045 23.3652L36.2278 24.3886C36.9284 25.0891 38.1012 25.0888 38.8017 24.3885L39.8249 23.3652H46.285L47.3418 26.3593H12.6584L13.7152 23.3651ZM4.73824 16.9072L5.38406 13.0324H7.64941L8.29523 16.9072H4.73824ZM1.76121 25.2438H11.1843L9.81668 29.1186H1.76121V25.2438ZM7.82754 34.7545H1.76121V30.8797H9.19512L7.82754 34.7545ZM47.906 48.8446H12.094V47.7878H47.9061V48.8446H47.906ZM49.7848 44.6763V46.0266H10.2152V44.6176C10.2152 44.5664 11.578 43.0913 11.578 43.0913H48.4219L49.8081 44.4775C49.7933 44.5413 49.7848 44.6078 49.7848 44.6763ZM51.6634 43.842L49.4094 41.5877C49.2442 41.4226 49.0204 41.3299 48.7867 41.3299H11.2133C10.9798 41.3299 10.7558 41.4227 10.5906 41.5877L8.3366 43.842V39.3339H42.2114C42.6979 39.3339 43.0921 38.9397 43.0921 38.4532C43.0921 37.9668 42.6979 37.5726 42.2114 37.5726H8.70059L12.0367 28.1204H47.9633L51.2995 37.5726H45.0293C44.5429 37.5726 44.1486 37.9668 44.1486 38.4532C44.1486 38.9397 44.5429 39.3339 45.0293 39.3339H51.6634V43.842ZM58.2388 34.7545H52.1725L50.8049 30.8797H58.2388V34.7545ZM58.2388 29.1185H50.1834L48.8159 25.2437H58.2388V29.1185Z" fill="#343B4C"/>
<path d="M54.4224 26.3008H52.5438C52.0573 26.3008 51.6631 26.695 51.6631 27.1814C51.6631 27.6679 52.0573 28.0621 52.5438 28.0621H54.4224C54.9088 28.0621 55.303 27.6679 55.303 27.1814C55.303 26.695 54.9088 26.3008 54.4224 26.3008Z" fill="#343B4C"/>
<path d="M7.45559 26.3008H5.57695C5.09051 26.3008 4.69629 26.695 4.69629 27.1814C4.69629 27.6679 5.09051 28.0621 5.57695 28.0621H7.45559C7.94203 28.0621 8.33625 27.6679 8.33625 27.1814C8.33625 26.695 7.94203 26.3008 7.45559 26.3008Z" fill="#343B4C"/>
</svg>
