<svg width="60" height="60" viewBox="0 0 60 60" fill="none" xmlns="http://www.w3.org/2000/svg">
<g clip-path="url(#clip0_1501_88010)">
<rect x="22.4521" y="48.7188" width="9.31355" height="9.4766" rx="4.65677" transform="rotate(-90 22.4521 48.7188)" fill="#DADDE7"/>
<rect x="20.3691" y="21.8203" width="4.88468" height="11.5602" transform="rotate(-90 20.3691 21.8203)" fill="#DADDE7"/>
<rect x="4.53223" y="25.0898" width="3.72473" height="7.3349" transform="rotate(-90 4.53223 25.0898)" fill="#DADDE7"/>
<path d="M10.3125 41.25C8.76184 41.25 7.5 42.5118 7.5 44.0625C7.5 45.6132 8.76184 46.875 10.3125 46.875C11.8632 46.875 13.1251 45.6132 13.1251 44.0625C13.1251 42.5118 11.8632 41.25 10.3125 41.25ZM10.3125 45C9.79523 45 9.37502 44.5798 9.37502 44.0625C9.37502 43.5452 9.79523 43.125 10.3125 43.125C10.8298 43.125 11.25 43.5452 11.25 44.0625C11.25 44.5798 10.8298 45 10.3125 45Z" fill="#343B4C"/>
<path d="M27.1895 41.25C25.6388 41.25 24.377 42.5118 24.377 44.0625C24.377 45.6132 25.6388 46.875 27.1895 46.875C28.7402 46.875 30.002 45.6132 30.002 44.0625C30.002 42.5118 28.7402 41.25 27.1895 41.25ZM27.1895 45C26.6722 45 26.252 44.5798 26.252 44.0625C26.252 43.5452 26.6722 43.125 27.1895 43.125C27.7068 43.125 28.127 43.5452 28.127 44.0625C28.127 44.5798 27.7068 45 27.1895 45Z" fill="#343B4C"/>
<rect x="41.3252" y="36.1914" width="12.637" height="12.8582" transform="rotate(-90 41.3252 36.1914)" fill="#DADDE7"/>
<path d="M34.6879 28.1251H31.8754V22.3268C32.9639 21.9388 33.7504 20.9076 33.7504 19.6875C33.7504 18.1368 32.4885 16.875 30.9379 16.875H21.5627C20.0121 16.875 18.7502 18.1368 18.7502 19.6875C18.7502 20.908 19.5366 21.9384 20.6252 22.3268V28.1251H11.2501V26.0769C12.3387 25.6889 13.1251 24.6576 13.1251 23.4376C13.1251 21.8869 11.8633 20.625 10.3126 20.625H6.56257C5.01188 20.625 3.75004 21.8869 3.75004 23.4376C3.75004 24.6581 4.53646 25.6885 5.62506 26.0769V28.1251H2.81253C1.26184 28.1251 0 29.387 0 30.9377V44.0628C0 45.6135 1.26184 46.8753 2.81253 46.8753H4.39205C5.44759 49.0877 7.70055 50.6254 10.3126 50.6254C12.9234 50.6254 15.1764 49.0877 16.2319 46.8753H21.2672C22.3228 49.0877 24.5757 50.6254 27.1878 50.6254C29.7986 50.6254 32.0516 49.0877 33.1071 46.8753H34.6879C36.2386 46.8753 37.5004 45.6135 37.5004 44.0628V30.9377C37.5004 29.387 36.2386 28.1251 34.6879 28.1251ZM21.5627 18.75H30.9379C31.4552 18.75 31.8754 19.1702 31.8754 19.6875C31.8754 20.2048 31.4552 20.625 30.9379 20.625H21.5627C21.0454 20.625 20.6252 20.2048 20.6252 19.6875C20.6252 19.1702 21.0454 18.75 21.5627 18.75ZM22.5003 22.5001H30.0003V28.1251H22.5003V22.5001ZM6.56257 22.5001H10.3126C10.8299 22.5001 11.2501 22.9203 11.2501 23.4376C11.2501 23.9549 10.8299 24.3751 10.3126 24.3751H6.56257C6.04527 24.3751 5.62506 23.9549 5.62506 23.4376C5.62506 22.9203 6.04527 22.5001 6.56257 22.5001ZM7.50009 26.2501H9.37511V28.1251H7.50009V26.2501ZM10.3126 48.7504C7.72777 48.7504 5.62506 46.6477 5.62506 44.0628C5.62506 41.478 7.72777 39.3753 10.3126 39.3753C12.8975 39.3753 15.0002 41.478 15.0002 44.0628C15.0002 46.6477 12.8975 48.7504 10.3126 48.7504ZM27.1878 48.7504C24.603 48.7504 22.5003 46.6477 22.5003 44.0628C22.5003 41.478 24.603 39.3753 27.1878 39.3753C29.7727 39.3753 31.8754 41.478 31.8754 44.0628C31.8754 46.6477 29.7727 48.7504 27.1878 48.7504ZM35.6254 44.0628C35.6254 44.5801 35.2052 45.0003 34.6879 45.0003H33.6755C33.7194 44.694 33.7504 44.3826 33.7504 44.0628C33.7504 40.445 30.8056 37.5002 27.1878 37.5002C23.57 37.5002 20.6252 40.445 20.6252 44.0628C20.6252 44.3826 20.6562 44.694 20.7002 45.0003H16.8003C16.8443 44.694 16.8752 44.3826 16.8752 44.0628C16.8752 40.445 13.9305 37.5002 10.3127 37.5002C6.69484 37.5002 3.75009 40.445 3.75009 44.0628C3.75009 44.3826 3.78106 44.694 3.82501 45.0003H2.81258C2.29528 45.0003 1.87507 44.5801 1.87507 44.0628V30.9377C1.87507 30.4204 2.29528 30.0002 2.81258 30.0002H34.688C35.2052 30.0002 35.6255 30.4204 35.6255 30.9377L35.6254 44.0628Z" fill="#343B4C"/>
<path d="M59.0647 35.6253H55.3146V24.3752H58.1272C58.6457 24.3752 59.0647 23.9562 59.0647 23.4377V10.3125C59.0647 9.79396 58.6457 9.375 58.1272 9.375H45.002C44.4835 9.375 44.0645 9.79396 44.0645 10.3125V22.5002H41.252C40.7334 22.5002 40.3145 22.9191 40.3145 23.4377V36.5628C40.3145 37.0814 40.7334 37.5003 41.252 37.5003H45.002V49.688C45.002 50.2065 45.421 50.6255 45.9395 50.6255H59.0647C59.5832 50.6255 60.0022 50.2065 60.0022 49.688V36.5628C60.0022 36.0443 59.5832 35.6253 59.0647 35.6253ZM45.9395 11.25H57.1897V22.5002H45.9395V11.25ZM42.1895 24.3752H53.4396V35.6253H42.1895V24.3752ZM58.1272 48.7505H46.877V37.5003H58.1272V48.7505Z" fill="#343B4C"/>
<path d="M51.5645 13.125C49.4965 13.125 47.8145 14.8071 47.8145 16.875C47.8145 18.943 49.4965 20.6251 51.5645 20.6251C53.6325 20.6251 55.3145 18.943 55.3145 16.875C55.3145 14.8071 53.6325 13.125 51.5645 13.125ZM51.5645 18.7501C50.5303 18.7501 49.6895 17.9092 49.6895 16.875C49.6895 15.8409 50.5303 15 51.5645 15C52.5974 15 53.4395 15.8409 53.4395 16.875C53.4395 17.9092 52.5974 18.7501 51.5645 18.7501Z" fill="#343B4C"/>
<path d="M51.5626 32.8126V27.1875C51.5626 26.669 51.1436 26.25 50.6251 26.25H45C44.4815 26.25 44.0625 26.669 44.0625 27.1875V32.8126C44.0625 33.3311 44.4815 33.7501 45 33.7501H50.6251C51.1436 33.7501 51.5626 33.3311 51.5626 32.8126ZM49.6876 31.8751H45.9375V28.125H49.6876V31.8751Z" fill="#343B4C"/>
<path d="M51.6964 39.8287L48.8839 44.5162C48.7094 44.805 48.7056 45.1658 48.8718 45.4613C49.0388 45.7559 49.3501 45.9367 49.6875 45.9367H55.3125H55.3305C55.8491 45.9367 56.268 45.5178 56.268 44.9992C56.268 44.7602 56.1789 44.5426 56.032 44.3768L53.304 39.8299C52.965 39.2653 52.035 39.2653 51.6964 39.8286L51.6964 39.8287ZM51.344 44.0617L52.5 42.1331L53.656 44.0617H51.344Z" fill="#343B4C"/>
</g>
<defs>
<clipPath id="clip0_1501_88010">
<rect width="60" height="60" fill="white"/>
</clipPath>
</defs>
</svg>
