<svg width="60" height="60" viewBox="0 0 60 60" fill="none" xmlns="http://www.w3.org/2000/svg">
<rect x="15.7539" y="32.6289" width="9.37709" height="9.54125" transform="rotate(-45 15.7539 32.6289)" fill="#DADDE7"/>
<rect x="31.875" y="32.6289" width="9.37709" height="9.54125" transform="rotate(-45 31.875 32.6289)" fill="#DADDE7"/>
<path d="M7.5 49.6875H52.5C52.5 51.7586 50.8211 53.4375 48.75 53.4375H11.25C9.17893 53.4375 7.5 51.7586 7.5 49.6875Z" fill="#DADDE7"/>
<path d="M38.5604 22.2949H21.4386C18.941 22.2949 16.5458 23.2871 14.7798 25.0531C13.0137 26.8191 12.0216 29.2144 12.0216 31.7119V32.568C11.8619 32.5595 11.7019 32.5595 11.5422 32.568C10.7073 32.5658 9.88011 32.7281 9.10801 33.0458C8.3359 33.3635 7.634 33.8303 7.04244 34.4194C6.45089 35.0086 5.98128 35.7086 5.66047 36.4794C5.33967 37.2502 5.17397 38.0767 5.17285 38.9116C5.17315 39.4907 5.25382 40.0669 5.41256 40.6238L6.02894 42.8411C6.36921 44.0923 6.96696 45.2586 7.78393 46.2655C7.94714 47.8426 8.59294 49.331 9.63324 50.5275C10.6735 51.7241 12.0577 52.5706 13.5968 52.9515L11.4052 55.1431C11.2864 55.2635 11.2059 55.4164 11.1739 55.5825C11.1419 55.7485 11.1599 55.9204 11.2254 56.0763C11.3003 56.2211 11.415 56.3416 11.5561 56.4235C11.6971 56.5054 11.8586 56.5453 12.0216 56.5385H17.1581C17.2708 56.5392 17.3825 56.5176 17.4868 56.475C17.5911 56.4324 17.686 56.3696 17.7659 56.2903L20.9335 53.1142H39.0655L42.233 56.2903C42.313 56.3696 42.4079 56.4324 42.5122 56.475C42.6165 56.5176 42.7282 56.5392 42.8408 56.5385H47.9774C48.1464 56.5377 48.3114 56.4868 48.4515 56.3924C48.5917 56.2979 48.7008 56.1641 48.765 56.0078C48.8305 55.8519 48.8485 55.68 48.8165 55.514C48.7845 55.3479 48.704 55.195 48.5852 55.0746L46.3936 52.883C47.9368 52.5101 49.3257 51.666 50.3673 50.4679C51.409 49.2698 52.0518 47.777 52.2065 46.197C53.0182 45.2111 53.6184 44.0688 53.97 42.8411L54.5778 40.6666C54.8485 39.7201 54.8955 38.7236 54.715 37.7558C54.5345 36.788 54.1316 35.8754 53.538 35.09C52.9444 34.3047 52.1764 33.668 51.2946 33.2303C50.4128 32.7926 49.4413 32.5659 48.4568 32.568C48.2971 32.5595 48.1371 32.5595 47.9774 32.568V31.7119C47.9774 29.2144 46.9852 26.8191 45.2192 25.0531C43.4532 23.2871 41.0579 22.2949 38.5604 22.2949ZM13.7338 31.7119C13.7338 29.6685 14.5455 27.7087 15.9904 26.2638C17.4354 24.8189 19.3951 24.0071 21.4386 24.0071H38.5604C40.6038 24.0071 42.5636 24.8189 44.0085 26.2638C45.4534 27.7087 46.2652 29.6685 46.2652 31.7119V32.9618C45.9697 33.0732 45.6834 33.2077 45.4091 33.3642C44.4699 33.8901 43.678 34.6437 43.1062 35.5558L41.18 38.5606H40.9232H38.2436L43.5685 33.2358C43.6488 33.1562 43.7124 33.0615 43.7559 32.9572C43.7994 32.8528 43.8217 32.7409 43.8217 32.6279C43.8217 32.5149 43.7994 32.403 43.7559 32.2987C43.7124 32.1944 43.6488 32.0997 43.5685 32.0201L37.516 25.9676C37.4364 25.8873 37.3417 25.8236 37.2374 25.7802C37.133 25.7367 37.0211 25.7143 36.9081 25.7143C36.7951 25.7143 36.6832 25.7367 36.5789 25.7802C36.4746 25.8236 36.3799 25.8873 36.3003 25.9676L30.2477 32.0201C30.1684 32.1001 30.1056 32.195 30.063 32.2993C30.0204 32.4036 29.9988 32.5153 29.9995 32.6279C29.9988 32.7406 30.0204 32.8523 30.063 32.9566C30.1056 33.0609 30.1684 33.1558 30.2477 33.2358L35.5726 38.5606H24.4435L29.7683 33.2358C29.8477 33.1558 29.9105 33.0609 29.9531 32.9566C29.9957 32.8523 30.0173 32.7406 30.0166 32.6279C30.0173 32.5153 29.9957 32.4036 29.9531 32.2993C29.9105 32.195 29.8477 32.1001 29.7683 32.0201L23.7158 25.9676C23.6362 25.8873 23.5415 25.8236 23.4372 25.7802C23.3329 25.7367 23.221 25.7143 23.108 25.7143C22.9949 25.7143 22.883 25.7367 22.7787 25.7802C22.6744 25.8236 22.5797 25.8873 22.5001 25.9676L16.4476 32.0201C16.3673 32.0997 16.3036 32.1944 16.2602 32.2987C16.2167 32.403 16.1943 32.5149 16.1943 32.6279C16.1943 32.7409 16.2167 32.8528 16.2602 32.9572C16.3036 33.0615 16.3673 33.1562 16.4476 33.2358L21.7553 38.5606H19.0758H18.8189L16.9355 35.5386C16.1809 34.3527 15.0552 33.4497 13.7338 32.9704V31.7119ZM38.723 35.6585L36.9081 37.4734L32.0627 32.6279L33.8861 30.8558L38.723 35.6585ZM35.136 29.6059L36.9509 27.7825L41.7964 32.6279L39.9815 34.4428L35.136 29.6059ZM41.6937 41.5912C41.6166 41.7146 41.5093 41.8163 41.382 41.8867C41.2547 41.9571 41.1115 41.9939 40.966 41.9936H30.8556V40.2728H40.9232C41.0827 40.2717 41.2394 40.3152 41.3756 40.3984C41.5117 40.4816 41.6219 40.6012 41.6937 40.7437C41.7592 40.8754 41.7898 41.0218 41.7823 41.1688C41.7748 41.3157 41.7295 41.4583 41.6509 41.5826L41.6937 41.5912ZM24.9057 35.6585L23.0908 37.4734L18.2454 32.6279L20.0603 30.8558L24.9057 35.6585ZM21.2759 29.6059L23.0908 27.7825L27.9363 32.6279L26.1128 34.4428L21.2759 29.6059ZM29.1434 40.2728V41.985H19.0758C18.9303 41.9853 18.7871 41.9485 18.6598 41.8781C18.5325 41.8077 18.4252 41.706 18.3481 41.5826C18.2663 41.4563 18.2193 41.3106 18.2118 41.1603C18.2043 41.01 18.2365 40.8604 18.3053 40.7266C18.3771 40.5841 18.4873 40.4645 18.6234 40.3813C18.7595 40.2981 18.9162 40.2546 19.0758 40.2557L29.1434 40.2728ZM16.8071 54.8264H14.0848L15.7969 53.1142H18.5193L16.8071 54.8264ZM43.1918 54.8264L41.4797 53.1142H44.202L45.9142 54.8264H43.1918ZM48.8335 49.6898C48.2684 50.2437 47.5992 50.6801 46.8645 50.974C46.1298 51.2679 45.3442 51.4133 44.553 51.402H15.4459C14.3731 51.4012 13.3202 51.1124 12.3971 50.5657C11.474 50.0191 10.7146 49.2347 10.1981 48.2944C11.6723 49.2052 13.3706 49.6883 15.1035 49.6898H44.8955C46.6283 49.6883 48.3267 49.2052 49.8009 48.2944C49.5475 48.8038 49.2216 49.2738 48.8335 49.6898ZM48.491 34.2802C49.2061 34.2805 49.9114 34.4461 50.552 34.764C51.1925 35.082 51.7508 35.5436 52.1835 36.113C52.6161 36.6824 52.9112 37.344 53.0459 38.0463C53.1806 38.7486 53.1511 39.4725 52.9598 40.1615L52.352 42.336C51.8996 43.9638 50.9247 45.3978 49.5774 46.4172C48.23 47.4366 46.585 47.9849 44.8955 47.9776H15.1035C13.4199 47.9774 11.7826 47.4257 10.4422 46.4068C9.10182 45.388 8.13204 43.9582 7.6812 42.336L7.07337 40.1615C6.95667 39.7548 6.89336 39.3347 6.88503 38.9116C6.89207 37.9091 7.22362 36.9359 7.83005 36.1375C8.43647 35.3392 9.28515 34.7588 10.249 34.4831C11.2129 34.2074 12.2402 34.2513 13.177 34.6083C14.1139 34.9653 14.9099 35.616 15.4459 36.4632L17.2266 39.314C16.8159 39.7222 16.5553 40.2572 16.4869 40.8322C16.4185 41.4072 16.5464 41.9884 16.8499 42.4815C17.084 42.8595 17.4122 43.1702 17.8023 43.3833C18.1925 43.5964 18.6313 43.7045 19.0758 43.6972H40.9232C41.3613 43.698 41.7923 43.5868 42.1753 43.3741C42.5582 43.1614 42.8804 42.8543 43.1112 42.482C43.342 42.1096 43.4737 41.6844 43.4938 41.2468C43.5139 40.8092 43.4218 40.3737 43.2261 39.9818C43.1006 39.7343 42.9358 39.5088 42.7381 39.314L44.553 36.4632C44.9814 35.793 45.5698 35.2399 46.2652 34.8538C46.9379 34.4864 47.6904 34.2895 48.4568 34.2802H48.491Z" fill="#343B4C"/>
<path d="M4.31703 18.8706H19.7267C19.9537 18.8706 20.1715 18.7804 20.332 18.6198C20.4926 18.4593 20.5828 18.2415 20.5828 18.0145V4.31703C20.5828 4.08998 20.4926 3.87223 20.332 3.71168C20.1715 3.55113 19.9537 3.46094 19.7267 3.46094H4.31703C4.08998 3.46094 3.87223 3.55113 3.71168 3.71168C3.55113 3.87223 3.46094 4.08998 3.46094 4.31703V18.0145C3.46094 18.2415 3.55113 18.4593 3.71168 18.6198C3.87223 18.7804 4.08998 18.8706 4.31703 18.8706ZM5.17312 5.17312H18.8706V17.1584H5.17312V5.17312Z" fill="#343B4C"/>
<path d="M17.1585 6.0293H6.88539C6.65834 6.0293 6.44059 6.11949 6.28004 6.28004C6.11949 6.44059 6.0293 6.65834 6.0293 6.88539V15.4463C6.0293 15.6733 6.11949 15.8911 6.28004 16.0516C6.44059 16.2122 6.65834 16.3024 6.88539 16.3024H17.1585C17.3855 16.3024 17.6033 16.2122 17.7638 16.0516C17.9244 15.8911 18.0146 15.6733 18.0146 15.4463V6.88539C18.0146 6.65834 17.9244 6.44059 17.7638 6.28004C17.6033 6.11949 17.3855 6.0293 17.1585 6.0293ZM16.3024 14.5902H7.74148V12.5527L10.1385 11.3542L12.2702 13.4858C12.3498 13.5661 12.4445 13.6298 12.5488 13.6732C12.6531 13.7167 12.765 13.7391 12.878 13.7391C12.991 13.7391 13.1029 13.7167 13.2073 13.6732C13.3116 13.6298 13.4063 13.5661 13.4858 13.4858L14.5902 12.3729L16.3024 14.0851V14.5902ZM16.3024 11.6709L15.198 10.558C15.1184 10.4778 15.0238 10.4141 14.9194 10.3706C14.8151 10.3272 14.7032 10.3048 14.5902 10.3048C14.4772 10.3048 14.3653 10.3272 14.261 10.3706C14.1566 10.4141 14.062 10.4778 13.9824 10.558L12.878 11.6709L10.9176 9.70193C10.7894 9.57484 10.6244 9.49151 10.446 9.46383C10.2677 9.43616 10.0851 9.46555 9.92451 9.54783L7.74148 10.6351V7.74148H16.3024V11.6709Z" fill="#343B4C"/>
<path d="M55.6827 3.46094H40.2731C40.046 3.46094 39.8283 3.55113 39.6677 3.71168C39.5072 3.87223 39.417 4.08998 39.417 4.31703V18.0145C39.417 18.2415 39.5072 18.4593 39.6677 18.6198C39.8283 18.7804 40.046 18.8706 40.2731 18.8706H55.6827C55.9098 18.8706 56.1275 18.7804 56.2881 18.6198C56.4486 18.4593 56.5388 18.2415 56.5388 18.0145V4.31703C56.5388 4.08998 56.4486 3.87223 56.2881 3.71168C56.1275 3.55113 55.9098 3.46094 55.6827 3.46094ZM54.8266 17.1584H41.1292V5.17312H54.8266V17.1584Z" fill="#343B4C"/>
<path d="M42.8424 16.3024H53.1155C53.3426 16.3024 53.5603 16.2122 53.7209 16.0516C53.8814 15.8911 53.9716 15.6733 53.9716 15.4463V6.88539C53.9716 6.65834 53.8814 6.44059 53.7209 6.28004C53.5603 6.11949 53.3426 6.0293 53.1155 6.0293H42.8424C42.6154 6.0293 42.3976 6.11949 42.2371 6.28004C42.0765 6.44059 41.9863 6.65834 41.9863 6.88539V15.4463C41.9863 15.6733 42.0765 15.8911 42.2371 16.0516C42.3976 16.2122 42.6154 16.3024 42.8424 16.3024ZM52.2594 14.5902H48.9549C48.8809 14.3106 48.8407 14.0232 48.8351 13.7341C48.8351 12.8259 49.1958 11.9549 49.838 11.3127C50.4802 10.6705 51.3512 10.3098 52.2594 10.3098V14.5902ZM43.6985 7.74148H52.2594V8.59757C51.4584 8.59922 50.6688 8.7882 49.9538 9.14941C49.2388 9.51062 48.6182 10.034 48.1416 10.6779C47.5458 10.4368 46.9095 10.3119 46.2668 10.3098C45.3639 10.314 44.478 10.5561 43.6985 11.0117V7.74148ZM43.6985 13.2033C44.1503 12.7073 44.7342 12.3503 45.3816 12.1744C46.0291 11.9985 46.7133 12.011 47.354 12.2103C47.1989 12.7033 47.121 13.2173 47.1229 13.7341C47.1226 14.0212 47.1484 14.3078 47.1999 14.5902H43.6985V13.2033Z" fill="#343B4C"/>
<path d="M22.2949 18.8701H37.7046V17.1579H34.6141L35.9924 13.1514C36.0061 13.0606 36.0061 12.9683 35.9924 12.8775V10.3092C35.9924 10.0822 35.9022 9.86442 35.7416 9.70387C35.5811 9.54332 35.3633 9.45312 35.1363 9.45312C35.1363 8.41725 33.8693 5.84042 33.3299 4.77887C33.2576 4.63929 33.1483 4.52231 33.0139 4.44076C32.8795 4.35922 32.7252 4.31625 32.568 4.31658C32.4108 4.31625 32.2565 4.35922 32.1222 4.44076C31.9878 4.52231 31.8784 4.63929 31.8061 4.77887L31.4893 5.42094C31.1983 4.78743 30.9158 4.22241 30.7617 3.92278C30.6898 3.78255 30.5807 3.66487 30.4462 3.58269C30.3118 3.50051 30.1573 3.45703 29.9997 3.45703C29.8422 3.45703 29.6877 3.50051 29.5532 3.58269C29.4188 3.66487 29.3097 3.78255 29.2378 3.92278C29.0837 4.22241 28.8012 4.77887 28.5101 5.42094L28.1934 4.77887C28.1211 4.63929 28.0117 4.52231 27.8773 4.44076C27.7429 4.35922 27.5887 4.31625 27.4315 4.31658C27.2743 4.31625 27.12 4.35922 26.9856 4.44076C26.8512 4.52231 26.7419 4.63929 26.6695 4.77887C26.1302 5.84042 24.8632 8.41725 24.8632 9.45312C24.6361 9.45312 24.4184 9.54332 24.2578 9.70387C24.0973 9.86442 24.0071 10.0822 24.0071 10.3092V12.8775C24.011 12.968 24.0283 13.0574 24.0585 13.1429L25.3854 17.1579H22.2949V18.8701ZM32.8077 17.1579H27.1918L26.0532 13.7336H33.9463L32.8077 17.1579ZM32.568 7.14168C32.9431 7.87589 33.2304 8.65172 33.4241 9.45312H32.4139C32.5136 9.1786 32.5657 8.88908 32.568 8.59703C32.5477 8.25784 32.4785 7.92337 32.3625 7.60397L32.568 7.14168ZM29.9997 6.28559C30.3762 7.01922 30.6636 7.7952 30.8558 8.59703C30.8558 8.82408 30.7656 9.04183 30.6051 9.20238C30.4445 9.36293 30.2268 9.45312 29.9997 9.45312C29.7727 9.45312 29.5549 9.36293 29.3944 9.20238C29.2338 9.04183 29.1436 8.82408 29.1436 8.59703C29.3359 7.7952 29.6233 7.01922 29.9997 6.28559ZM27.4315 7.14168L27.6369 7.60397C27.521 7.92337 27.4518 8.25784 27.4315 8.59703C27.4338 8.88908 27.4859 9.1786 27.5856 9.45312H26.5754C26.7676 8.65129 27.055 7.87531 27.4315 7.14168ZM25.7193 11.1653H34.2802V12.0214H25.7193V11.1653Z" fill="#343B4C"/>
</svg>
