<svg width="60" height="60" viewBox="0 0 60 60" fill="none" xmlns="http://www.w3.org/2000/svg">
<rect x="16.9502" y="7.49219" width="2.9058" height="45.0399" fill="#DADDE7"/>
<rect x="16.9502" y="7.49219" width="26.1016" height="3.05058" fill="#DADDE7"/>
<rect x="40.1455" y="7.49219" width="2.9058" height="45.0399" fill="#DADDE7"/>
<path d="M43.2094 6.69141H16.7916C16.3627 6.69141 16.0146 7.03951 16.0146 7.46837V52.5339C16.0146 52.9628 16.3627 53.3109 16.7916 53.3109H43.2093C43.6382 53.3109 43.9863 52.9628 43.9863 52.5339V7.46837C43.9864 7.03951 43.6383 6.69141 43.2094 6.69141ZM42.4324 51.757H17.5687V8.24542H42.4325V51.757H42.4324Z" fill="#343B4C"/>
<path d="M40.1018 9.80078H19.9C19.4711 9.80078 19.123 10.1489 19.123 10.5777V52.5354C19.123 52.9642 19.4711 53.3123 19.9 53.3123H40.1019C40.5307 53.3123 40.8788 52.9642 40.8788 52.5354V10.5777C40.8788 10.1489 40.5307 9.80078 40.1018 9.80078ZM39.3248 51.7584H20.677V11.3548H39.3248V51.7584Z" fill="#343B4C"/>
<path d="M52.5311 51.7539H7.46544C7.03658 51.7539 6.68848 52.102 6.68848 52.5309C6.68848 52.9597 7.03658 53.3079 7.46544 53.3079H52.531C52.9599 53.3079 53.308 52.9598 53.308 52.531C53.308 52.1021 52.96 51.7539 52.5311 51.7539Z" fill="#343B4C"/>
<rect opacity="0.3" x="23.2783" y="13.8594" width="13.7686" height="14.4394" fill="#DADDE7"/>
<rect opacity="0.3" x="23.2783" y="35.7617" width="13.7686" height="14.4394" fill="#DADDE7"/>
<path d="M26.1154 30.7773H23.0074C22.5786 30.7773 22.2305 31.1254 22.2305 31.5543C22.2305 31.9832 22.5786 32.3313 23.0074 32.3313H26.1154C26.5442 32.3313 26.8923 31.9832 26.8923 31.5543C26.8924 31.1254 26.5443 30.7773 26.1154 30.7773Z" fill="#343B4C"/>
<path d="M36.9933 12.9062H23.0074C22.5786 12.9062 22.2305 13.2543 22.2305 13.6832V28.446C22.2305 28.8749 22.5786 29.223 23.0074 29.223H36.9933C37.4222 29.223 37.7703 28.8749 37.7703 28.446V13.6832C37.7703 13.2543 37.4222 12.9062 36.9933 12.9062ZM36.2163 27.6691H23.7844V14.4602H36.2162V27.6691H36.2163Z" fill="#343B4C"/>
<path d="M36.9933 33.8867H23.0074C22.5786 33.8867 22.2305 34.2348 22.2305 34.6637V49.4265C22.2305 49.8554 22.5786 50.2035 23.0074 50.2035H36.9933C37.4222 50.2035 37.7703 49.8554 37.7703 49.4265V34.6637C37.7703 34.2348 37.4222 33.8867 36.9933 33.8867ZM36.2163 48.6496H23.7844V35.4406H36.2162V48.6496H36.2163Z" fill="#343B4C"/>
</svg>
