<svg width="60" height="60" viewBox="0 0 60 60" fill="none" xmlns="http://www.w3.org/2000/svg">
<rect x="12.1875" y="32.8125" width="3.75" height="35.625" transform="rotate(-90 12.1875 32.8125)" fill="#DADDE7"/>
<path d="M53.9521 19.6875C53.0979 19.6855 52.2637 19.9461 51.5625 20.434V18.75C51.5611 17.5072 51.0668 16.3158 50.188 15.437C49.3092 14.5582 48.1178 14.0639 46.875 14.0625H13.125C11.8822 14.0639 10.6908 14.5582 9.81199 15.437C8.93321 16.3158 8.4389 17.5072 8.4375 18.75V20.434C7.81113 19.999 7.07766 19.7437 6.31656 19.6958C5.55546 19.6478 4.79575 19.8091 4.11974 20.162C3.44373 20.515 2.87719 21.0462 2.4815 21.6981C2.08582 22.35 1.87608 23.0978 1.875 23.8604V23.8812C1.87493 24.3034 1.93899 24.723 2.06497 25.1259L5.78287 37.0232C6.07232 37.9597 6.64938 38.7813 7.43216 39.3713C8.21494 39.9614 9.16367 40.2899 10.1437 40.3102L9.38776 44.8459C9.36539 44.9802 9.37253 45.1178 9.4087 45.249C9.44487 45.3803 9.50919 45.5021 9.5972 45.606C9.6852 45.7099 9.79478 45.7933 9.91831 45.8506C10.0418 45.9078 10.1763 45.9375 10.3125 45.9375H12.1875C12.3418 45.9375 12.4938 45.8994 12.6299 45.8266C12.7659 45.7537 12.8819 45.6484 12.9675 45.52L16.4392 40.3125H43.5608L47.0325 45.52C47.1181 45.6484 47.2341 45.7537 47.3701 45.8266C47.5062 45.8994 47.6582 45.9375 47.8125 45.9375H49.6875C49.8237 45.9375 49.9582 45.9078 50.0817 45.8506C50.2052 45.7933 50.3148 45.7099 50.4028 45.606C50.4908 45.5021 50.5551 45.3803 50.5913 45.249C50.6275 45.1178 50.6346 44.9802 50.6122 44.8459L49.8563 40.3102C50.8363 40.2899 51.7851 39.9614 52.5678 39.3713C53.3506 38.7813 53.9277 37.9597 54.2171 37.0232L57.935 25.1259C58.061 24.723 58.1251 24.3034 58.125 23.8812V23.8604C58.1237 22.7541 57.6837 21.6934 56.9014 20.9111C56.1191 20.1288 55.0584 19.6888 53.9521 19.6875ZM13.125 15.9375H46.875C47.6207 15.9384 48.3355 16.2349 48.8628 16.7622C49.3901 17.2895 49.6866 18.0043 49.6875 18.75V23.5309L48.07 28.7879C47.7247 28.2939 47.2653 27.8905 46.7309 27.6119C46.1964 27.3333 45.6027 27.1877 45 27.1875H32.8125C32.2801 27.1874 31.7538 27.301 31.2687 27.5206C30.7837 27.7403 30.3512 28.0609 30 28.4611C29.6488 28.0609 29.2163 27.7403 28.7313 27.5206C28.2462 27.301 27.7199 27.1874 27.1875 27.1875H15C14.3973 27.1877 13.8036 27.3333 13.2691 27.6119C12.7347 27.8905 12.2753 28.2939 11.93 28.7879L10.3125 23.5309V18.75C10.3134 18.0043 10.6099 17.2895 11.1372 16.7622C11.6645 16.2349 12.3793 15.9384 13.125 15.9375ZM29.0625 31.875H13.125V30.9375C13.1256 30.4404 13.3233 29.9638 13.6748 29.6123C14.0263 29.2608 14.5029 29.0631 15 29.0625H27.1875C27.6846 29.0631 28.1612 29.2608 28.5127 29.6123C28.8642 29.9638 29.0619 30.4404 29.0625 30.9375V31.875ZM46.875 31.875H30.9375V30.9375C30.9381 30.4404 31.1358 29.9638 31.4873 29.6123C31.8388 29.2608 32.3154 29.0631 32.8125 29.0625H45C45.4971 29.0631 45.9737 29.2608 46.3252 29.6123C46.6767 29.9638 46.8744 30.4404 46.875 30.9375V31.875ZM11.6858 44.0625H11.4192L12.0442 40.3125H14.1858L11.6858 44.0625ZM48.3142 44.0625L45.8142 40.3125H47.9558L48.5808 44.0625H48.3142ZM56.25 23.8812C56.25 24.1137 56.2148 24.3448 56.1454 24.5666L52.4275 36.4639C52.2504 37.037 51.894 37.5381 51.4107 37.8934C50.9275 38.2487 50.3429 38.4394 49.7431 38.4375H10.2569C9.65712 38.4394 9.07254 38.2487 8.58928 37.8934C8.10601 37.5381 7.74959 37.037 7.5725 36.4639L3.8546 24.5666C3.78523 24.3448 3.74997 24.1137 3.75 23.8812V23.8604C3.75 23.3102 3.94744 22.7782 4.30642 22.3612C4.6654 21.9442 5.16209 21.6699 5.70621 21.588C6.25032 21.5062 6.80573 21.6224 7.27148 21.9153C7.73722 22.2083 8.08238 22.6587 8.24421 23.1846L11.2915 33.0882C11.3504 33.2798 11.4693 33.4475 11.6305 33.5666C11.7918 33.6857 11.987 33.75 12.1875 33.75H47.8125C48.013 33.75 48.2082 33.6857 48.3695 33.5666C48.5307 33.4475 48.6496 33.2798 48.7085 33.0882L51.7558 23.1846C51.9176 22.6587 52.2628 22.2083 52.7285 21.9153C53.1943 21.6224 53.7497 21.5062 54.2938 21.588C54.8379 21.6699 55.3346 21.9442 55.6936 22.3612C56.0526 22.7782 56.25 23.3102 56.25 23.8604V23.8812Z" fill="#343B4C"/>
<path d="M17.8125 20.625H15.9375V22.5H17.8125V20.625Z" fill="#343B4C"/>
<path d="M24.375 20.625H22.5V22.5H24.375V20.625Z" fill="#343B4C"/>
<path d="M30.9375 20.625H29.0625V22.5H30.9375V20.625Z" fill="#343B4C"/>
<path d="M37.5 20.625H35.625V22.5H37.5V20.625Z" fill="#343B4C"/>
<path d="M44.0625 20.625H42.1875V22.5H44.0625V20.625Z" fill="#343B4C"/>
</svg>
