<svg width="73" height="72" viewBox="0 0 73 72" fill="none" xmlns="http://www.w3.org/2000/svg">
<path d="M7.71691 23L65.8849 23.0067L71.3034 26.6802V47.8032H70.3392L69.5976 49.0227H65.4328L64.896 47.8032H8.41662L7.67508 49.0227H3.51136L2.97399 47.8032H2.0249V26.673L7.71721 23.0001L7.71691 23ZM8.20434 41.6618L65.5754 41.7095L64.1602 40.5478C62.7725 41.3628 57.9732 41.3286 55.7216 41.3578C50.4315 41.4279 45.1314 41.2383 39.8442 41.3881C37.8888 41.4441 36.952 41.5507 36.8505 39.9532C36.202 40.7408 35.0628 41.1345 33.0154 41.3544C26.6574 41.4666 15.3071 43.3233 10.0127 40.2943L8.20434 41.6618ZM65.9918 42.0247V42.0483L7.72473 42V41.9821C7.07407 42.3921 6.42619 42.7029 5.8653 42.7427V46.8981H67.6807V42.8033C67.1175 42.736 66.5506 42.4252 65.9918 42.0247ZM5.86516 42.4039C6.9842 42.308 8.57784 40.9718 9.72044 40.0913C9.58189 39.9723 9.48485 39.8473 9.4411 39.7037C9.3205 39.283 9.26048 38.6845 9.26048 37.9962C9.26048 37.6512 9.30423 35.992 9.48261 35.6409C9.6234 35.4255 9.77036 35.2185 9.92629 35.02C9.95378 34.9498 10.1136 33.9419 9.66715 33.8173C8.82857 34.4119 7.03919 34.2683 5.86514 34.2526V42.4046L5.86516 42.4039ZM64.4396 40.3352C65.4094 41.1076 66.6383 42.3125 67.6811 42.4628V34.2519C66.621 34.2614 65.1777 34.34 64.3666 33.8077C63.8612 33.949 64.0559 34.713 64.0789 35.091C64.4463 35.6021 64.6375 35.8539 64.7077 36.4748C64.8445 37.6724 64.9046 39.8532 64.4401 40.3357L64.4396 40.3352ZM5.86516 33.9137C6.96681 33.9317 9.31765 34.0641 9.58861 33.4476C10.8726 30.8241 10.1518 28.0157 8.67487 26.5258H6.46262C6.20909 26.7872 6.00211 27.0447 5.86523 27.2904V33.9143L5.86516 33.9137ZM67.6805 33.9137V27.2909C67.5437 27.0441 67.3367 26.7867 67.082 26.5253H65.3241C63.6222 28.4364 63.3721 30.7861 64.3072 33.2961C64.7469 34.0854 67.4063 33.9171 67.6805 33.9137ZM65.9018 25.5016H64.1456C62.2889 27.5922 62.2273 30.0451 63.3233 32.7408C62.7831 32.8917 62.8342 33.3192 62.8824 33.8077C63.1663 34.0596 63.4389 34.3327 63.6974 34.6283C63.67 34.2211 63.6958 33.7718 64.048 33.5676C62.1724 28.7521 65.1519 26.4035 65.1519 26.1871H66.7292C66.4773 25.9582 66.1963 25.7282 65.9018 25.5022L65.9018 25.5016ZM63.9841 25.1757L65.4503 25.1633C65.2013 24.9811 64.9478 24.8027 64.6981 24.6305H62.9183C61.0465 26.7227 60.9797 29.1835 62.0786 31.8877C61.5978 32.0218 61.5687 32.2141 61.6321 32.8895C61.9389 33.0735 62.235 33.2782 62.5189 33.5032C62.5026 33.1223 62.5492 32.7246 62.874 32.5372C61.811 29.8083 62.0887 27.2321 63.9835 25.1756L63.9841 25.1757ZM62.7371 24.3259L64.2034 24.2905L63.5269 23.8317H61.9339C60.02 25.9295 59.9382 28.4117 61.0476 31.1411C60.4951 31.2959 60.5507 31.5427 60.623 32.3712C60.8463 32.4682 61.0639 32.5737 61.2765 32.6875C61.2557 32.296 61.2944 31.8781 61.631 31.6846C60.5692 28.958 60.8446 26.3821 62.7366 24.3258L62.7371 24.3259ZM9.95111 33.567C10.2854 33.7606 10.3252 34.1756 10.3056 34.566C10.5608 34.28 10.8334 34.0135 11.1206 33.7656C11.1672 33.2832 11.1997 32.8872 10.677 32.7408C11.773 30.0461 11.7102 27.5921 9.85352 25.5027H7.64242C7.34905 25.7287 7.0686 25.9587 6.81618 26.1864L8.82596 26.1881C10.7342 28.2461 11.0169 30.8308 9.95111 33.567ZM11.124 32.5377C11.4392 32.72 11.4925 33.1009 11.4802 33.4711C11.7651 33.2495 12.0613 33.0454 12.3693 32.8597C12.4282 32.2073 12.3951 32.02 11.92 31.8882C13.0199 29.1851 12.9515 26.722 11.0802 24.631H8.86628C8.86628 24.6231 8.18644 25.0971 8.09613 25.1627L9.99878 25.1582C11.907 27.2163 12.1898 29.8009 11.124 32.5377ZM12.367 31.6846C12.6935 31.8725 12.7395 32.2735 12.7221 32.655C12.9369 32.5372 13.1551 32.4272 13.3784 32.3246C13.4591 31.5152 13.4754 31.2886 12.9498 31.141C14.0599 28.4121 13.9763 25.9283 12.0635 23.8317H10.0179L9.3414 24.2905L11.2407 24.3045C13.1496 26.3626 13.4329 28.9473 12.366 31.6841L12.367 31.6846ZM13.3974 30.938C13.8002 31.1708 13.7755 31.7255 13.7334 32.1709C14.6758 31.7822 16.0612 31.4052 17.0973 31.3777C22.1311 31.1158 27.1743 31.0283 32.2137 31.0653C34.7361 31.0833 36.3129 31.6268 37.0718 32.9517C37.3652 31.8978 38.3238 31.2628 41.1615 31.2544C46.5884 31.2219 52.0001 31.389 57.4209 31.6056C58.4401 31.6875 59.3897 31.8916 60.2681 32.2265C60.2232 31.7727 60.1789 31.1798 60.5985 30.9375C59.5816 28.3275 59.7734 25.8657 61.482 23.8312H12.5127C14.2212 25.8668 14.4131 28.3265 13.3962 30.9375L13.3974 30.938ZM37.6293 36.4114C40.2225 35.5168 61.1001 35.1314 63.9821 36.2168C63.8565 35.2958 61.923 33.8345 61.1573 33.3943C60.0506 32.7571 58.7847 32.3953 57.3694 32.282C57.3952 32.1064 42.4353 31.9173 41.1688 31.9308C36.9215 31.9757 37.6592 33.483 37.6299 36.412L37.6293 36.4114ZM63.939 36.6936C62.6007 35.5128 38.399 36.048 37.658 36.8893L37.6227 36.8579C37.5212 40.9516 36.9154 40.7956 39.8255 40.7121C47.0501 40.5079 54.3632 41.1518 61.5602 40.4641C62.9491 40.3312 63.8527 40.145 63.9649 39.8583C64.1618 39.542 64.3648 37.1647 63.939 36.6936ZM10.0861 35.9801C13.7758 35.2789 30.695 34.3775 36.9515 36.1528C36.9734 34.8537 36.8556 33.6073 36.187 32.8771C35.5414 32.1715 34.3467 31.7727 32.2067 31.7412C31.105 31.73 17.1147 31.8635 17.142 32.0537C15.6757 32.1715 14.2488 32.5759 12.9962 33.2771C12.299 33.6663 10.2987 35.1612 10.0872 35.9801L10.0861 35.9801ZM36.9429 36.5539L36.8173 36.6021C35.065 35.243 12.5136 35.5538 10.0251 36.472C9.92914 37.3588 9.84668 38.7713 10.0868 39.4987C11.0297 41.9528 29.0817 40.6211 32.9602 40.6784C34.8826 40.4714 35.8883 40.1258 36.3909 39.4415C36.8884 38.765 36.9198 37.5238 36.9434 36.5534L36.9429 36.5539ZM64.2478 23.8316C65.6675 24.7947 67.481 26.037 68.0631 27.146L68.0867 27.2403V46.8972H70.3977V27.1541L65.4969 23.8306L64.2478 23.8316ZM5.45654 46.8974L5.48122 27.1458C6.06234 26.0362 7.87583 24.7944 9.29543 23.8313H8.09225L2.92953 27.162V46.8979H5.45711L5.45654 46.8974Z" fill="black"/>
</svg>
