<svg width="100" height="100" viewBox="0 0 100 100" fill="none" xmlns="http://www.w3.org/2000/svg">
<path d="M40.9805 45.9682V44.3657H50.3233V45.9682H40.9805ZM40.9805 49.6849V48.2528H52.4032V49.6849H40.9805ZM44.1175 55.1064V30.897H52.3691C53.4602 30.897 54.4263 31.113 55.2674 31.5449C56.1312 31.9768 56.87 32.5565 57.4838 33.2839C58.1203 33.9886 58.5976 34.7842 58.9159 35.6707C59.2569 36.5573 59.4273 37.4665 59.4273 38.3986C59.4273 39.6943 59.1546 40.9218 58.609 42.0811C58.0634 43.2177 57.2792 44.1497 56.2563 44.8771C55.2333 45.6045 54.0172 45.9682 52.6078 45.9682H45.8564V55.1064H44.1175ZM45.8564 44.3657H52.5396C53.6989 44.3657 54.6537 44.0815 55.4038 43.5132C56.1767 42.9449 56.745 42.2061 57.1087 41.2969C57.4951 40.3876 57.6884 39.4215 57.6884 38.3986C57.6884 37.3302 57.461 36.3527 57.0064 35.4661C56.5745 34.5569 55.9494 33.8295 55.131 33.2839C54.3354 32.7383 53.392 32.4655 52.3009 32.4655H45.8564V44.3657Z" fill="black"/>
<path d="M65 79.2705L68.695 72.8705L61.305 72.8705L65 79.2705ZM64.36 65.2705L64.36 73.5105L65.64 73.5105L65.64 65.2705L64.36 65.2705Z" fill="black"/>
<path d="M50 79.2705L53.695 72.8705L46.305 72.8705L50 79.2705ZM49.36 65.2705L49.36 73.5105L50.64 73.5105L50.64 65.2705L49.36 65.2705Z" fill="black"/>
<path d="M35 79.2705L38.695 72.8705L31.305 72.8705L35 79.2705ZM34.36 65.2705L34.36 73.5105L35.64 73.5105L35.64 65.2705L34.36 65.2705Z" fill="black"/>
<rect x="16" y="21" width="67.0312" height="43.3968" rx="8.36016" stroke="black" stroke-width="2"/>
</svg>
