<svg width="100" height="100" viewBox="0 0 100 100" fill="none" xmlns="http://www.w3.org/2000/svg">
<path fill-rule="evenodd" clip-rule="evenodd" d="M26.6826 65.0856V68.2803H24.2345V70.3506H20.5654V68.2803H18.2144V44.0989C18.2144 40.4789 18.8031 39.7741 20.2829 36.6553C21.3571 34.4053 22.9626 34.3054 24.9761 34.311C24.9214 32.1536 25.4889 29.8567 28.1982 29.7964L48.0496 29.5732C48.7595 29.5654 49.3923 29.5637 49.9826 29.9409C50.5401 29.5866 51.1439 29.5687 51.8225 29.5726L71.7439 29.7959C74.4699 29.8528 75.0452 32.1374 74.9895 34.3114C77.4114 34.2975 78.7366 34.3533 79.9684 37.168C81.4595 40.4744 81.8054 40.6223 81.8054 44.6423V68.2809H79.4108V70.3512H75.7406V68.2809H73.3366V65.0397L26.6809 65.086L26.6826 65.0856ZM73.2641 41.8227C72.8617 40.9856 71.7251 38.8066 70.6809 39.0996C69.3684 39.469 67.5352 46.2977 67.5542 47.6727C67.5637 48.3641 68.0966 51.2966 69.1596 51.8513C72.3154 53.498 73.1875 44.2526 73.2639 41.8234L73.2641 41.8227ZM73.0593 39.3724L73.2189 33.1397C73.2328 32.292 72.5972 31.6128 71.71 31.5951L51.8043 31.3719C51.085 31.3675 50.7424 31.3474 50.7373 31.9645L50.5108 46.7617C50.5203 47.5441 50.7585 47.9665 51.5588 47.9665H66.5388C66.6727 45.5748 69.1146 33.6636 73.0595 39.3728L73.0593 39.3724ZM73.2641 49.133C72.6251 51.2317 71.2251 54.119 68.6531 52.7787C67.3964 52.1582 67.0638 50.7904 66.7558 49.1341L33.2115 49.1353C32.9174 50.6765 32.5597 51.9455 31.4012 52.6268C28.8699 54.2585 27.3521 51.3757 26.6852 49.1362H26.4648V49.1335L26.0747 49.4091H26.0764V58.2384H26.0747L26.4252 58.5124H73.6266L73.9726 58.2384L73.9709 49.4091C73.5022 49.0754 73.6796 49.1335 73.2639 49.1335L73.2641 49.133ZM26.9141 39.6564C31.0988 33.7518 33.7712 46.1324 33.4252 47.9656H48.4052C49.2272 47.9656 49.4398 47.5359 49.4532 46.7457L49.2283 31.9643C49.2177 31.3225 48.8455 31.3644 48.0698 31.3727L28.2241 31.5948C27.3664 31.6149 26.7274 32.2985 26.747 33.164L26.9144 39.6561L26.9141 39.6564ZM26.7584 42.1436C26.7165 42.3456 27.2176 53.777 30.8544 51.725C31.8957 51.1374 32.461 48.0391 32.4665 47.3606C32.4788 46.0096 30.673 39.3907 29.3845 39.1334C27.922 39.3053 27.2852 40.9984 26.7584 42.144V42.1436ZM80.0055 44.6407V66.4793H75.1372C75.1372 62.5127 75.3365 43.3736 74.9631 40.575L74.2036 36.1136C76.7974 36.1136 77.3962 35.7676 78.3264 37.9071C79.6433 40.8324 80.0055 40.9211 80.0055 44.6416L80.0055 44.6407ZM20.0141 44.0983V66.4783H24.8824C24.8824 62.5419 24.6865 43.2754 25.0297 40.574L25.7618 36.1126C23.6793 36.1126 22.6503 35.8737 21.9076 37.4279C20.6029 40.1796 20.0141 40.8966 20.0141 44.098L20.0141 44.0983ZM26.465 63.284L73.9707 63.2377V59.6165H26.0764V63.2377C26.1785 63.2667 26.3119 63.284 26.4648 63.284H26.465Z" fill="black"/>
</svg>
