<svg width="100" height="100" viewBox="0 0 100 100" fill="none" xmlns="http://www.w3.org/2000/svg">
<path d="M14.7206 34.3374L27.3323 36.9462L27.4619 31.6756C27.5495 30.5596 28.4125 30.1124 29.4748 30.1246L49.1999 30.0671C49.8509 30.069 50.3357 30.2089 50.7465 30.5679C51.0371 30.2964 51.5609 30.0594 52.1959 30.0581L72.0028 30C72.8389 29.9987 73.6458 30.4772 73.7517 31.3868L74.2072 36.9214L86.9377 33.6732C89.0656 33.3193 90.6121 35.2503 90.5515 37.0856L88.4185 70.6781H13.4919L9.532 38.5001C8.71945 32.735 13.7992 34.3358 14.7203 34.3358L14.7206 34.3374ZM51.206 31.9662L50.8393 48.1148C51.2481 47.8746 51.816 47.729 52.5973 47.7322L73.0746 47.8069L73.134 37.8775L72.6083 31.4838C72.5572 31.1963 72.1982 31.1605 71.9638 31.1433L52.2207 31.2014C51.2459 31.2251 51.2408 31.6198 51.2069 31.9661L51.206 31.9662ZM49.975 48.3732L50.3481 31.9416C50.3219 31.6874 50.1392 31.2096 49.2123 31.2102L29.461 31.2683C29.0145 31.2683 28.637 31.2964 28.6025 31.7928C28.4716 37.1644 28.3808 42.4076 28.3483 47.8028L47.8706 47.7312C48.9035 47.7268 49.5602 47.9842 49.9754 48.3726L49.975 48.3732ZM27.4912 47.8066L27.5493 38.1596L17.4794 36.0765C19.4987 38.3481 20.0198 43.2291 20.0851 48.7706C21.5096 47.808 24.4658 47.8187 27.4912 47.8066ZM73.9896 38.1616L73.9314 47.8118C76.4853 47.8355 79.1114 47.8757 80.4254 48.8013C80.4938 43.0037 81.0616 37.9202 83.3243 35.7764L73.9896 38.1616ZM72.804 48.6634L52.5964 48.5899C50.2839 48.5809 50.696 50.3044 50.696 51.2798V58.0798C50.696 58.7083 51.2173 59.2098 51.8459 59.2098H79.4891C80.202 59.2098 80.5457 58.7416 80.5655 58.4752C80.5074 55.7233 80.4192 52.8672 80.4186 50.1281C80.1784 49.6292 79.7363 49.3091 79.0548 49.1015C77.7906 48.7176 75.7547 48.6729 72.8048 48.6627L72.804 48.6634ZM81.2821 49.9007C81.2616 51.8868 81.4954 57.4288 81.4565 58.4854C81.5344 62.1719 81.5395 65.7267 81.1818 68.6709H87.3449C87.5506 65.5204 89.4746 37.2403 89.384 36.6614C88.9081 33.6578 85.7032 34.9986 84.1817 36.1695C81.7013 38.0796 81.2567 43.5884 81.2828 49.9011L81.2821 49.9007ZM79.489 60.0715H51.8457C51.1922 60.0715 50.6051 59.7591 50.2327 59.2647C49.8597 59.7604 49.2732 60.0715 48.6198 60.0715H20.9749C20.589 60.0715 20.2256 59.961 19.9183 59.7719C19.8634 63.0814 19.8838 66.1841 20.1949 68.6716H80.3154C80.6271 66.1797 80.6444 63.0669 80.5888 59.7438C80.5888 59.7438 79.9379 60.0715 79.4875 60.0715L79.489 60.0715ZM19.0512 58.6547C18.8698 58.0619 18.9656 52.3497 18.9656 51.2797C18.9656 50.6869 19.0499 50.1938 19.2294 49.7837C19.2524 42.7154 18.6711 36.6808 15.2759 35.6211C12.6875 35.0832 10.1662 34.6833 10.6625 38.3378L14.4978 68.6712H19.3296C18.977 65.7723 18.977 62.2801 19.0505 58.6543L19.0512 58.6547ZM47.8686 48.5898L27.6611 48.6633C24.7118 48.6741 22.676 48.7182 21.4111 49.1021C20.306 49.4388 19.8262 50.0744 19.8262 51.2791V58.079C19.8262 58.7076 20.3475 59.209 20.9748 59.209H48.6197C49.2483 59.209 49.7695 58.7069 49.7695 58.079L49.8027 50.3733C49.7995 49.5741 49.5689 48.5821 47.8685 48.5885L47.8686 48.5898Z" fill="black"/>
</svg>
