<svg width="100" height="100" viewBox="0 0 100 100" fill="none" xmlns="http://www.w3.org/2000/svg">
<path d="M19.6795 25H80.3205C80.7735 25 81 24.5558 81 24C81 23.4442 80.6982 23 80.3205 23H19.6795C19.3018 23 19 23.4442 19 24C19 24.555 19.3018 25 19.6795 25Z" fill="black"/>
<path d="M80.3205 75H19.6795C19.3018 75 19 75.4442 19 76C19 76.5558 19.3018 77 19.6795 77H80.3205C80.7735 77 81 76.5558 81 76C81 75.4442 80.6982 75 80.3205 75Z" fill="black"/>
<path d="M46.4663 35.9137C46.5586 34.2107 45.9114 33.1269 45.079 32.3525C45.9114 31.6559 46.4663 30.5722 46.4663 28.8691H44.8016C44.8016 30.1078 44.5241 30.8817 43.784 31.501C43.3214 31.8882 42.7664 32.2753 42.2115 32.5075C42.1193 32.5847 41.9341 32.5847 41.8418 32.6625C41.5643 32.7397 41.2869 32.8175 41.0094 32.9719C39.2517 33.514 36.2919 34.1328 33.5167 34.1328C28.4289 34.1328 25.7466 32.9719 25.7466 32.4298C25.7466 31.8877 28.3367 30.7267 33.5167 30.7267C36.1069 30.7267 38.6046 31.1911 40.3622 31.6555C41.1023 31.4233 41.6572 31.1911 42.2121 30.804C39.9919 29.9524 36.2919 29.333 33.5166 29.333C28.9837 29.333 24.1738 30.2618 24.1738 32.4292C24.1738 34.5194 29.0765 35.5254 33.5166 35.5254C35.7368 35.5254 38.2341 35.216 40.4544 34.5966C42.3043 34.1322 43.3218 33.6678 43.7845 33.2807C44.4324 33.9 44.8021 34.6738 44.8021 35.9125C44.8021 37.1512 44.5246 37.9251 43.7845 38.5444C43.3219 38.9315 42.7669 39.3187 42.212 39.5509C42.1198 39.6281 41.9346 39.6281 41.8423 39.7059C41.5648 39.7831 41.2874 39.8608 41.0099 40.0153C39.2522 40.5574 36.2924 41.1762 33.5172 41.1762C28.4294 41.1762 25.7471 40.0153 25.7471 39.4732C25.7471 38.9311 28.3372 37.7701 33.5172 37.7701C36.1074 37.7701 38.6051 38.2345 40.3627 38.6989C41.1028 38.4667 41.6577 38.2345 42.2126 37.8473C39.9924 36.9958 36.2924 36.3764 33.5171 36.3764C28.9842 36.3764 24.1743 37.3052 24.1743 39.4726C24.1743 41.5628 29.0771 42.5688 33.5171 42.5688C35.7373 42.5688 38.2346 42.2593 40.4549 41.64C42.3048 41.1756 43.3223 40.7112 43.785 40.3241C44.4329 40.9434 44.8026 41.7172 44.8026 42.9559C44.8026 44.1946 44.5251 44.9685 43.785 45.5878C43.3224 45.9749 42.7675 46.3621 42.2125 46.5943C42.1203 46.6715 41.9351 46.6715 41.8428 46.7493C41.5653 46.8265 41.2879 46.9042 41.0104 47.0587C39.2527 47.6008 36.2929 48.2196 33.5178 48.2196C28.4299 48.2196 25.7476 47.0587 25.7476 46.5166C25.7476 45.9745 28.3377 44.8135 33.5178 44.8135C36.1079 44.8135 38.6056 45.2779 40.3632 45.7423C41.1033 45.5101 41.6582 45.2779 42.2131 44.8907C39.9929 44.0392 36.2929 43.4198 33.5176 43.4198C28.9847 43.4198 24.1749 44.3485 24.1749 46.516C24.1749 48.6062 29.0776 49.6121 33.5176 49.6121C35.7379 49.6121 38.2351 49.3027 40.4554 48.6834C42.3053 48.219 43.3229 47.7546 43.7855 47.3674C44.4334 47.9868 44.8031 48.7606 44.8031 49.9993C44.8031 51.238 44.5257 52.0119 43.7855 52.6312C43.3229 53.0183 42.768 53.4055 42.2131 53.6377C42.1208 53.7149 41.9356 53.7149 41.8433 53.7926C41.5659 53.8699 41.2884 53.9476 41.0109 54.1021C39.2532 54.6442 36.2934 55.263 33.5183 55.263C28.4304 55.263 25.7481 54.1021 25.7481 53.56C25.7481 53.0179 28.3382 51.8569 33.5183 51.8569C36.1084 51.8569 38.6062 52.3213 40.3637 52.7857C41.1039 52.5535 41.6588 52.3213 42.2137 51.9341C39.9934 51.0826 36.2934 50.4632 33.5181 50.4632C28.9852 50.4632 24.1754 51.3919 24.1754 53.5593C24.1754 55.6496 29.0781 56.6555 33.5181 56.6555C35.7384 56.6555 38.2356 56.3461 40.4559 55.7268C42.3058 55.2624 43.3234 54.798 43.7861 54.4108C44.4339 55.0302 44.8036 55.804 44.8036 57.0427C44.8036 58.2814 44.5262 59.0552 43.7861 59.5973C43.3234 59.9844 42.7685 60.3716 42.2136 60.6038C42.1213 60.681 41.9361 60.681 41.8438 60.7588C41.5664 60.836 41.2889 60.9137 41.0114 61.0682C39.2537 61.6103 36.2939 62.2291 33.5188 62.2291C28.4309 62.2291 25.7486 61.0682 25.7486 60.5261C25.7486 59.9839 28.3387 58.823 33.5188 58.823C36.1089 58.823 38.6067 59.2874 40.3643 59.7518C41.1044 59.5196 41.6593 59.2874 42.2142 58.9002C39.9939 58.0487 36.2939 57.4293 33.5186 57.4293C28.9858 57.4293 24.1759 58.358 24.1759 60.5255C24.1759 62.6157 29.0786 63.6216 33.5186 63.6216C35.7389 63.6216 38.2362 63.3122 40.4564 62.6929C42.3063 62.2285 43.3239 61.7641 43.7866 61.3769C44.4344 61.9963 44.8041 62.7701 44.8041 64.0088C44.8041 65.2475 44.4344 66.099 43.7866 66.7185C43.3239 67.1056 42.769 67.4151 42.2141 67.725C42.1218 67.8022 42.0289 67.8022 41.8443 67.88C41.5669 68.0349 41.2894 68.1122 41.012 68.1894C39.162 68.7315 36.2944 69.3503 33.5193 69.3503C28.3392 69.3503 25.7491 68.1894 25.7491 67.6473C25.7491 67.1051 28.4314 65.9442 33.5193 65.9442C36.1094 65.9442 38.6072 66.4086 40.3648 66.873C41.1049 66.718 41.6598 66.4086 42.2147 66.0214C39.9944 65.0927 36.2944 64.5505 33.5191 64.5505C29.0791 64.5505 24.1764 65.557 24.1764 67.6467C24.1764 69.8142 28.9868 70.7429 33.5191 70.7429C35.6466 70.7429 38.2367 70.4334 40.4569 69.8141C42.3999 69.3497 43.3244 68.8853 43.7871 68.4982C44.5272 69.1175 44.8047 69.8913 44.8047 71.13H46.4694C46.4694 69.427 45.9145 68.3432 45.0821 67.5688C45.9145 66.7945 46.4694 65.6335 46.4694 64.0076C46.5617 62.3045 45.9145 61.2208 45.0821 60.4464C45.9145 59.7498 46.4694 58.6661 46.4694 57.0401C46.5617 55.3371 45.9145 54.2533 45.0821 53.4789C45.9145 52.7046 46.4694 51.6209 46.4694 49.9956C46.5617 48.2925 45.9145 47.2087 45.0821 46.4343C45.9145 45.7378 46.4694 44.5763 46.4694 42.951C46.5617 41.2479 45.9145 40.1641 45.0821 39.3898C45.9106 38.6997 46.4655 37.6159 46.4655 35.9129L46.4663 35.9137Z" fill="black"/>
<path d="M75.8145 35.9267C75.9067 34.2205 75.2595 33.1348 74.4272 32.3589C75.2596 31.6611 75.8145 30.5753 75.8145 28.8691H74.1497C74.1497 30.1101 73.8723 30.8854 73.1322 31.5059C72.6695 31.8937 72.1146 32.2816 71.5597 32.5142C71.4674 32.5916 71.2822 32.5916 71.1899 32.6695C70.9125 32.7468 70.635 32.8247 70.3575 32.9795C68.5998 33.5226 65.64 34.1426 62.8649 34.1426C57.777 34.1426 55.0947 32.9795 55.0947 32.4364C55.0947 31.8933 57.6848 30.7302 62.8649 30.7302C65.455 30.7302 67.9528 31.1954 69.7103 31.6607C70.4505 31.428 71.0054 31.1954 71.5603 30.8075C69.34 29.9544 65.64 29.3339 62.8647 29.3339C58.3319 29.3339 53.522 30.2643 53.522 32.4358C53.522 34.5299 58.4247 35.5377 62.8647 35.5377C65.085 35.5377 67.5823 35.2277 69.8025 34.6072C71.6524 34.1419 72.67 33.6767 73.1327 33.2888C73.7805 33.9093 74.1502 34.6845 74.1502 35.9255C74.1502 37.1665 73.8728 37.9418 73.1327 38.5622C72.67 38.9501 72.1151 39.338 71.5602 39.5706C71.4679 39.648 71.2827 39.648 71.1904 39.7259C70.913 39.8032 70.6355 39.8811 70.3581 40.0358C68.6003 40.579 65.6405 41.1989 62.8654 41.1989C57.7775 41.1989 55.0952 40.0358 55.0952 39.4927C55.0952 38.9496 57.6853 37.7865 62.8654 37.7865C65.4555 37.7865 67.9533 38.2518 69.7109 38.717C70.451 38.4844 71.0059 38.2518 71.5608 37.8639C69.3405 37.0108 65.6405 36.3902 62.8652 36.3902C58.3324 36.3902 53.5225 37.3207 53.5225 39.4921C53.5225 41.5862 58.4252 42.594 62.8652 42.594C65.0855 42.594 67.5828 42.2841 69.803 41.6635C71.6529 41.1983 72.6705 40.7331 73.1332 40.3452C73.781 40.9657 74.1508 41.8189 74.1508 42.9819C74.1508 44.2229 73.8733 44.9982 73.1332 45.6186C72.6705 46.0065 72.1156 46.3944 71.5607 46.627C71.4684 46.7043 71.2832 46.7043 71.191 46.7822C70.9135 46.8596 70.636 46.9375 70.3586 47.0922C68.6008 47.6354 65.641 48.2553 62.8659 48.2553C57.778 48.2553 55.0957 47.0922 55.0957 46.5491C55.0957 46.006 57.6858 44.8429 62.8659 44.8429C65.456 44.8429 67.9538 45.3082 69.7114 45.7734C70.4515 45.5408 71.0064 45.3082 71.5613 44.9203C69.341 44.0672 65.641 43.4466 62.8657 43.4466C58.3329 43.4466 53.523 44.3771 53.523 46.5485C53.523 48.6426 58.4257 49.6504 62.8657 49.6504C65.086 49.6504 67.5833 49.3404 69.8035 48.7199C71.6535 48.2547 72.671 47.7894 73.1337 47.4016C73.7815 48.0221 74.1513 48.7973 74.1513 50.0383C74.1513 51.2793 73.8738 52.0546 73.1337 52.675C72.671 53.0629 72.1161 53.4508 71.5612 53.6834C71.4689 53.7607 71.2837 53.7607 71.1915 53.8386C70.914 53.916 70.6365 53.9939 70.3591 54.1486C68.6013 54.6918 65.6415 55.3117 62.8664 55.3117C57.7785 55.3117 55.0962 54.1486 55.0962 53.6055C55.0962 53.0624 57.6864 51.8993 62.8664 51.8993C65.4565 51.8993 67.9543 52.3646 69.7119 52.8298C70.452 52.5972 71.0069 52.3646 71.5618 51.9767C69.3415 51.1235 65.6415 50.503 62.8663 50.503C58.3334 50.503 53.5235 51.4335 53.5235 53.6049C53.5235 55.699 58.4262 56.7068 62.8663 56.7068C65.0865 56.7068 67.5838 56.3968 69.8041 55.7763C71.654 55.3111 72.6715 54.8458 73.1342 54.458C73.782 55.0785 74.1518 55.8537 74.1518 57.0947C74.1518 58.3357 73.8743 59.1109 73.1342 59.654C72.6715 60.0418 72.1166 60.4297 71.5617 60.6623C71.4694 60.7397 71.2843 60.7397 71.192 60.8176C70.9145 60.8949 70.6371 60.9729 70.3596 61.1276C68.6018 61.6707 65.6421 62.2907 62.8669 62.2907C57.779 62.2907 55.0968 61.1276 55.0968 60.5845C55.0968 60.0413 57.6869 58.8783 62.8669 58.8783C65.457 58.8783 67.9548 59.3435 69.7124 59.8088C70.4525 59.5761 71.0074 59.3435 71.5623 58.9556C69.342 58.1025 65.6421 57.482 62.8668 57.482C58.3339 57.482 53.524 58.4125 53.524 60.5839C53.524 62.678 58.4267 63.6858 62.8668 63.6858C65.087 63.6858 67.5843 63.3758 69.8046 62.7553C71.6545 62.29 72.672 61.8248 73.1347 61.4369C73.7826 62.0574 74.1523 62.8326 74.1523 64.0736C74.1523 65.3146 73.8748 66.0899 73.1347 66.7103C72.6721 67.0982 72.1171 67.4861 71.5622 67.7187C71.47 67.7961 71.2848 67.7961 71.1925 67.874C70.915 67.9513 70.6376 68.0292 70.3601 68.184C68.6024 68.7271 65.6426 69.347 62.8674 69.347C57.7796 69.347 55.0973 68.184 55.0973 67.6409C55.0973 67.0977 57.6874 65.9347 62.8674 65.9347C65.4576 65.9347 67.9553 66.3999 69.7129 66.8651C70.453 66.6325 71.0079 66.3999 71.5628 66.012C69.3426 65.1589 65.6426 64.5383 62.8673 64.5383C58.3344 64.5383 53.5245 65.4688 53.5245 67.6402C53.5245 69.7344 58.4272 70.7421 62.8673 70.7421C65.0875 70.7421 67.5848 70.4322 69.8051 69.8117C71.655 69.3464 72.6725 68.8812 73.1352 68.4933C73.7831 69.1138 74.1528 69.889 74.1528 71.13H75.8175C75.9098 69.4238 75.2626 68.3381 74.4302 67.5622C75.2626 66.8644 75.8175 65.7786 75.8175 64.0724C75.9098 62.3662 75.2626 61.2805 74.4302 60.5046C75.2626 59.8068 75.8175 58.721 75.8175 57.0921C75.9098 55.3859 75.2626 54.3002 74.4302 53.5243C75.2626 52.7486 75.8175 51.6629 75.8175 50.0345C75.9098 48.3283 75.2626 47.2426 74.4302 46.4668C75.2626 45.7689 75.8175 44.6053 75.8175 43.0542C75.9098 41.348 75.2626 40.1848 74.4302 39.4092C75.2588 38.7178 75.8137 37.6321 75.8137 35.9259L75.8145 35.9267Z" fill="black"/>
</svg>
