<svg width="32" height="35" fill="none" xmlns="http://www.w3.org/2000/svg"><path d="M31.26 28.52V5.866a2.556 2.556 0 0 0-2.554-2.553H7.882A3.612 3.612 0 0 0 4.35.425 3.61 3.61 0 0 0 .742 4.03v27.043c0 .007.004.013.004.02a3.59 3.59 0 0 0 3.598 3.58h20.793a2.557 2.557 0 0 0 2.555-2.554v-1.046h1.014a2.556 2.556 0 0 0 2.553-2.554ZM2.17 4.03c0-1.2.977-2.178 2.179-2.178 1.201 0 2.179.978 2.179 2.179V28.2a3.732 3.732 0 0 0-2.184-.738 3.59 3.59 0 0 0-2.175.734V4.03Zm24.095 28.09c0 .622-.506 1.127-1.128 1.127H4.344a2.16 2.16 0 0 1-2.14-2.518 2.164 2.164 0 0 1 2.135-1.837c.844 0 1.626.483 1.99 1.277.092.2.262.905.912.905h19.024v1.046Zm3.567-3.6c0 .621-.505 1.127-1.126 1.127l-20.751-.003V4.74h20.751c.621 0 1.126.505 1.126 1.126V28.52Z" fill="#393D4C"/><path d="M26.978 26.081H10.81a.714.714 0 1 0 0 1.427h16.17a.714.714 0 0 0 0-1.427Zm.001-19.203h-4.752a.714.714 0 0 0 0 1.427h4.752a.714.714 0 1 0 0-1.427Zm0 3.844h-4.752a.714.714 0 0 0 0 1.427h4.752a.714.714 0 0 0 0-1.427Zm0 3.836h-4.752a.714.714 0 0 0 0 1.427h4.752a.714.714 0 1 0 0-1.427Zm-.001 3.843H10.81a.714.714 0 1 0 0 1.427h16.17a.714.714 0 0 0 0-1.427Zm0 3.836H10.81a.714.714 0 0 0 0 1.427h16.17a.714.714 0 1 0 0-1.427ZM10.81 16.393h8.097a.715.715 0 0 0 .7-.843V7.595a.714.714 0 0 0-.714-.713h-8.085a.714.714 0 0 0-.713.713v8.085a.73.73 0 0 0 .713.713Zm3.364-1.475.003.006.027.042h-2.09l1.044-1.63 1.016 1.582Zm1.727.048-.304-.473.957-1.92 1.198 2.393h-1.85Zm2.28-6.657v4.324l-.99-1.975a.714.714 0 0 0-1.276.001l-1.216 2.436-.942-1.465a.713.713 0 0 0-1.201 0l-1.033 1.614V8.308h6.657Z" fill="#393D4C"/></svg>