<svg width="43" height="43" fill="none" xmlns="http://www.w3.org/2000/svg"><g clip-path="url(#a)" fill="#393D4C"><path d="M10.205 27.822a4.164 4.164 0 0 0-4.16 4.16 4.164 4.164 0 0 0 4.16 4.16 4.164 4.164 0 0 0 4.16-4.16 4.164 4.164 0 0 0-4.16-4.16Zm0 6.934a2.776 2.776 0 0 1-2.773-2.774 2.776 2.776 0 0 1 2.773-2.773 2.776 2.776 0 0 1 2.773 2.773 2.776 2.776 0 0 1-2.773 2.774Zm23.575-6.934a4.164 4.164 0 0 0-4.16 4.16 4.164 4.164 0 0 0 4.16 4.16 4.164 4.164 0 0 0 4.16-4.16 4.164 4.164 0 0 0-4.16-4.16Zm0 6.934a2.776 2.776 0 0 1-2.774-2.774 2.776 2.776 0 0 1 2.773-2.773 2.776 2.776 0 0 1 2.773 2.773 2.776 2.776 0 0 1-2.773 2.774Z"/><path d="m41.989 23.98-6.24-9.707a.694.694 0 0 0-.583-.318h-7.627a.693.693 0 0 0-.693.693v17.334c0 .383.31.693.693.693h2.773v-1.387h-2.08V15.342h6.555l5.925 9.217v6.73h-3.466v1.386h4.16c.383 0 .693-.31.693-.693v-7.627a.692.692 0 0 0-.11-.375Z"/><path d="M31.006 22.968v-4.853h5.546V16.73h-6.24a.693.693 0 0 0-.693.693v6.24c0 .383.31.693.693.693h10.4v-1.387h-9.706ZM27.538 9.1H1.191a.694.694 0 0 0-.693.693V31.98c0 .383.31.693.693.693h5.547v-1.387H1.885v-20.8h24.96v20.8H13.67v1.387h13.867c.384 0 .693-.31.693-.693V9.793a.693.693 0 0 0-.693-.693Z"/><path d="M5.351 28.514h-4.16V29.9h4.16v-1.386Zm21.492 0H15.057V29.9h11.786v-1.386Zm14.561 0h-2.773V29.9h2.773v-1.386ZM27.538 11.873H3.271v1.387h24.267v-1.387Zm-16.64 19.414H9.512v1.387h1.386v-1.387Zm23.572 0h-1.386v1.387h1.387v-1.387ZM12.978 6.326H3.271v1.387h9.707V6.326Zm-11.093 0H.498v1.387h1.387V6.326Z"/></g><defs><clipPath id="a"><path fill="#fff" transform="translate(.498 .436)" d="M0 0h41.6v41.6H0z"/></clipPath></defs></svg>