<svg width="38" height="39" fill="none" xmlns="http://www.w3.org/2000/svg"><g clip-path="url(#a)"><path d="M35.108 12.83h-2.52A14.42 14.42 0 0 0 19 3.33a14.42 14.42 0 0 0-13.589 9.5H2.89a2.486 2.486 0 0 0-2.478 2.477v4.957a2.486 2.486 0 0 0 2.478 2.478h3.098a.862.862 0 0 0 .661-.33.8.8 0 0 0 .124-.744c-.413-1.239-.62-2.56-.62-3.882s.207-2.644.62-3.883c1.735-5.328 6.609-8.922 12.226-8.922 5.618 0 10.492 3.594 12.185 8.922.413 1.24.62 2.561.62 3.883a12.32 12.32 0 0 1-.62 3.882C29.491 26.997 24.617 30.59 19 30.59h-6.195a2.873 2.873 0 0 0-2.892 2.891 2.874 2.874 0 0 0 2.891 2.892h4.131c1.61 0 2.891-1.28 2.891-2.892v-1.28c5.783-.33 10.78-4.006 12.764-9.459h2.519a2.486 2.486 0 0 0 2.478-2.478v-4.957a2.486 2.486 0 0 0-2.478-2.478ZM4.914 21.09H2.89a.828.828 0 0 1-.826-.826v-4.957c0-.454.372-.826.826-.826h2.024a14.737 14.737 0 0 0-.371 3.305c0 1.115.123 2.23.371 3.304Zm13.26 12.391c0 .703-.538 1.24-1.24 1.24h-4.13c-.703 0-1.24-.537-1.24-1.24 0-.702.537-1.239 1.24-1.239h5.37v1.24Zm17.76-13.217a.828.828 0 0 1-.826.826h-2.024c.248-1.074.372-2.189.372-3.304 0-1.116-.124-2.23-.372-3.305h2.024c.454 0 .826.372.826.826v4.957Zm-6.609-2.478C29.325 12.086 24.7 7.46 19 7.46S8.673 12.086 8.673 17.786c0 2.478.867 4.832 2.478 6.691l-2.23 2.23c-.248.248-.29.579-.165.91a.817.817 0 0 0 .743.495H19c5.7 0 10.326-4.626 10.326-10.326Zm-16.439 6.113c-1.652-1.652-2.56-3.8-2.56-6.113a8.673 8.673 0 0 1 8.673-8.674 8.673 8.673 0 0 1 8.674 8.674A8.673 8.673 0 0 1 19 26.46h-7.517l1.363-1.363a.89.89 0 0 0 .041-1.198Zm5.287-6.113c0-.455.372-.826.826-.826.455 0 .826.371.826.826a.828.828 0 0 1-.826.826.829.829 0 0 1-.826-.826Zm4.13 0c0-.455.372-.826.827-.826.454 0 .826.371.826.826a.829.829 0 0 1-.826.826.828.828 0 0 1-.826-.826Zm-8.26 0c0-.455.371-.826.826-.826.454 0 .826.371.826.826a.828.828 0 0 1-.826.826.828.828 0 0 1-.826-.826Z" fill="#393D4C"/></g><defs><clipPath id="a"><path fill="#fff" transform="translate(.092 .942)" d="M0 0h37.818v37.818H0z"/></clipPath></defs></svg>