<svg width="53" height="55" fill="none" xmlns="http://www.w3.org/2000/svg"><g clip-path="url(#a)" fill="#393D4C"><path d="M41.529.604H12.062c-.478 0-.867.401-.867.896v52c0 .495.389.897.867.897h29.467c.478 0 .866-.402.866-.897v-52c0-.495-.388-.896-.866-.896Zm-.867 52H12.929V2.396h27.733v50.206Z"/><path d="M38.062 4.19H15.529c-.479 0-.867.401-.867.896V53.5c0 .495.388.896.867.896h22.533c.479 0 .867-.401.867-.896V5.086c0-.495-.389-.897-.867-.897Zm-.867 48.413h-20.8V5.983h20.8v46.62Z"/><path d="M51.928 52.603H1.662c-.479 0-.867.402-.867.897s.388.897.867.897h50.266c.479 0 .867-.402.867-.897s-.388-.897-.867-.897ZM22.462 28.396h-3.466c-.479 0-.867.402-.867.897s.388.896.866.896h3.467c.479 0 .867-.401.867-.896s-.388-.896-.867-.896ZM34.596 7.775h-15.6c-.479 0-.867.402-.867.897v17.034c0 .495.388.897.866.897h15.6c.479 0 .867-.402.867-.897V8.672c0-.495-.388-.897-.867-.897Zm-.867 17.035H19.862V9.568H33.73V24.81Zm.867 7.172h-15.6c-.479 0-.867.402-.867.897v17.034c0 .495.388.897.866.897h15.6c.479 0 .867-.402.867-.897V32.88c0-.495-.388-.897-.867-.897Zm-.867 17.035H19.862V33.775H33.73v15.242Z"/></g><defs><clipPath id="a"><path fill="#fff" transform="translate(.795 .604)" d="M0 0h52v53.793H0z"/></clipPath></defs></svg>