<svg width="40" height="41" fill="none" xmlns="http://www.w3.org/2000/svg"><path d="M.586 5.573h3.709v-.077c0-.655.546-1.195 1.21-1.195h1.757c.039-.655.546-1.156 1.21-1.156h3.904c1.093-.886 4.372-1.541 7.144-1.541h17.06c1.327 0 2.42 1.079 2.42 2.39v7.013c0 1.31-1.093 2.39-2.42 2.39h-4.646l2.771 14.452h.898c1.718 0 3.163 1.387 3.163 3.122v5.51c0 1.696-1.406 3.122-3.163 3.122H20.027c-1.718 0-3.162-1.387-3.162-3.121V30.97c0-1.696 1.405-3.122 3.162-3.122h3.28l-3.826-14.49h-3.085l-.195-.155c-2.498-2.312-3.513-3.353-3.904-3.892H8.51c-.663 0-1.17-.54-1.21-1.157H5.544c-.664 0-1.21-.54-1.21-1.194v-.077H.623A.613.613 0 0 1 0 6.267c0-.347.234-.694.586-.694ZM18.154 30.97v5.512c0 1.04.858 1.85 1.873 1.85h15.577a1.862 1.862 0 0 0 1.874-1.85V30.97c0-1.04-.86-1.85-1.874-1.85H20.028c-1.015-.038-1.874.81-1.874 1.85Zm6.48-3.121h8.784l-2.772-14.491h-9.877l3.865 14.49Zm-11.4-19.347c.39.463 2.07 2.12 3.631 3.584H36.58c.624 0 1.132-.5 1.132-1.117V3.993c0-.616-.508-1.117-1.132-1.117H19.364c-3.357 0-5.583.809-6.168 1.156v4.47h.039ZM8.512 8.04h3.123V4.378L8.51 4.34v3.7ZM5.544 6.883H6.91V5.535l-1.366-.039v1.387Z" fill="#000"/><path fill-rule="evenodd" clip-rule="evenodd" d="M21.462 10.337a.6.6 0 0 1-.268-.805l2.463-4.927a.6.6 0 1 1 1.074.537l-2.464 4.926a.6.6 0 0 1-.805.269Zm3 0a.6.6 0 0 1-.268-.805l2.463-4.927a.6.6 0 1 1 1.074.537l-2.464 4.926a.6.6 0 0 1-.805.269Zm3 0a.6.6 0 0 1-.268-.805l2.463-4.927a.6.6 0 1 1 1.074.537l-2.464 4.926a.6.6 0 0 1-.805.269Z" fill="#000"/></svg>