<svg width="30" height="36" viewBox="0 0 30 36" fill="none" xmlns="http://www.w3.org/2000/svg">
<path d="M21.3361 28.2097V13.3499L16.608 23.7995H12.4758L7.74774 13.3499V28.2097H0V0H8.46291L14.5419 13.2705L20.6606 0H29.0838V28.2097H21.3361Z" fill="#D1103A"/>
<path d="M0 25.7695H29.0747V29.9995C29.0747 33.3132 26.3884 35.9995 23.0747 35.9995H5.99999C2.68629 35.9995 0 33.3132 0 29.9995V25.7695Z" fill="#D1103A"/>
<rect x="1.61523" y="25.2324" width="25.8442" height="9.15314" rx="4.57657" fill="#ED1846"/>
<path d="M20.7762 28.9708C20.6783 28.6631 20.5294 28.3778 20.3304 28.1155C20.1316 27.8474 19.8831 27.6292 19.5871 27.4615C19.2792 27.287 18.9255 27.2033 18.5331 27.2033C18.1631 27.2033 17.8232 27.2825 17.5183 27.445C17.2255 27.5989 16.9747 27.8077 16.7669 28.0697C16.5616 28.324 16.4052 28.6078 16.2979 28.92C16.1912 29.2302 16.1372 29.5429 16.1372 29.8571C16.1372 30.1522 16.1864 30.4519 16.2828 30.7555L16.2827 30.7555L16.2837 30.7584C16.3858 31.0647 16.5342 31.3492 16.7282 31.6111L16.7282 31.6111L16.7297 31.6131C16.9332 31.8811 17.1844 32.0973 17.4814 32.2607L17.4827 32.2614C17.7936 32.4296 18.1456 32.5108 18.5331 32.5108C18.9022 32.5108 19.2397 32.4342 19.5405 32.2762L19.5417 32.2756C19.8376 32.1177 20.0905 31.9097 20.2986 31.652C20.5042 31.3974 20.6609 31.1134 20.7683 30.8009C20.8751 30.4903 20.929 30.1754 20.929 29.8571C20.929 29.5694 20.877 29.2737 20.7762 28.9708ZM20.7762 28.9708C20.776 28.9703 20.7759 28.9698 20.7757 28.9693L20.5751 29.0362L20.7766 28.9722C20.7765 28.9717 20.7763 28.9713 20.7762 28.9708ZM11.3318 31.0782V30.8667H11.1203H10.4702V27.3809V27.1694H10.2587H8.94262H8.85504L8.79311 27.2313C8.79335 27.2311 8.79258 27.2318 8.79054 27.2338C8.78685 27.2373 8.77902 27.2447 8.76548 27.2574L8.68267 27.3351L8.6826 27.3351L8.67778 27.3399C8.62069 27.397 8.53995 27.4642 8.43238 27.5417L8.43235 27.5417L8.42906 27.5441C8.33221 27.6168 8.22419 27.6821 8.10444 27.74L8.10443 27.7399L8.10181 27.7413C7.99985 27.7922 7.90767 27.8139 7.82324 27.8139H7.6118V28.0253V29.2058V29.4172H7.82324C7.94466 29.4172 8.0712 29.3901 8.20015 29.3437C8.32349 29.2993 8.44401 29.2451 8.56165 29.1814L8.56166 29.1814L8.56426 29.18C8.62284 29.1472 8.67851 29.114 8.73118 29.0806V30.8667H7.97928H7.76783V31.0782V32.2315V32.4429H7.97928H11.1203H11.3318V32.2315V31.0782ZM12.6385 32.2607L12.6398 32.2614C12.9506 32.4296 13.3027 32.5108 13.6902 32.5108C14.0593 32.5108 14.3968 32.4342 14.6976 32.2762L14.6976 32.2762L14.6987 32.2756C14.9947 32.1177 15.2476 31.9097 15.4557 31.652C15.6613 31.3974 15.8179 31.1134 15.9253 30.8009C16.0321 30.4903 16.0861 30.1754 16.0861 29.8571C16.0861 29.5694 16.0341 29.2737 15.9332 28.9708C15.8354 28.6631 15.6865 28.3779 15.4875 28.1156C15.2886 27.8474 15.0402 27.6292 14.7442 27.4615L14.6408 27.644L14.7442 27.4615C14.4362 27.287 14.0826 27.2033 13.6902 27.2033C13.3201 27.2033 12.9803 27.2825 12.6754 27.445C12.3826 27.5989 12.1317 27.8077 11.924 28.0696C11.7187 28.324 11.5623 28.6078 11.455 28.92C11.3483 29.2302 11.2942 29.5429 11.2942 29.8571C11.2942 30.1522 11.3435 30.4519 11.4398 30.7555L11.4398 30.7555L11.4408 30.7584C11.5429 31.0647 11.6913 31.3492 11.8853 31.6111L11.8853 31.6111L11.8868 31.6131C12.0903 31.8811 12.3414 32.0973 12.6385 32.2607ZM13.9568 30.8344L13.9567 30.8344L13.9533 30.8371C13.8935 30.8839 13.8109 30.9142 13.6902 30.9142C13.5778 30.9142 13.4918 30.8878 13.4232 30.8428C13.344 30.7862 13.2783 30.7129 13.2259 30.6199C13.1722 30.5116 13.1311 30.3922 13.1033 30.2609C13.0746 30.1258 13.0604 29.9912 13.0604 29.8571C13.0604 29.7363 13.0724 29.6099 13.097 29.4779C13.125 29.3469 13.1662 29.2279 13.2199 29.1199C13.2738 29.02 13.3418 28.941 13.4235 28.8797C13.4907 28.8293 13.5757 28.7999 13.6902 28.7999C13.8014 28.7999 13.8822 28.8278 13.9444 28.8738L13.9442 28.874L13.9528 28.8797C14.0295 28.9309 14.0951 29.003 14.1483 29.1021L14.1482 29.1021L14.1498 29.1049C14.2065 29.207 14.2494 29.3226 14.2771 29.4532C14.3057 29.5883 14.3199 29.7229 14.3199 29.8571C14.3199 29.9763 14.306 30.104 14.2771 30.2406L14.277 30.2406L14.2761 30.2455C14.2528 30.3695 14.2124 30.4846 14.155 30.5916L14.155 30.5916L14.1523 30.5969C14.103 30.6955 14.0379 30.7736 13.9568 30.8344ZM18.7997 30.8344L18.7997 30.8344L18.7963 30.8371C18.7364 30.8839 18.6538 30.9142 18.5331 30.9142C18.4207 30.9142 18.3347 30.8878 18.2661 30.8428C18.1869 30.7862 18.1212 30.7129 18.0688 30.6199C18.0152 30.5116 17.9741 30.3922 17.9462 30.2609C17.9175 30.1258 17.9033 29.9912 17.9033 29.8571C17.9033 29.7363 17.9153 29.6099 17.9399 29.4779C17.9679 29.3469 18.0091 29.2279 18.0628 29.1199C18.1167 29.02 18.1847 28.941 18.2665 28.8797C18.3336 28.8293 18.4187 28.7999 18.5331 28.7999C18.6443 28.7999 18.7251 28.8278 18.7873 28.8738L18.7872 28.874L18.7957 28.8797C18.8725 28.9309 18.9381 29.003 18.9912 29.1021L18.9912 29.1021L18.9928 29.1049C19.0495 29.207 19.0923 29.3226 19.12 29.4532C19.1487 29.5883 19.1629 29.7229 19.1629 29.8571C19.1629 29.9763 19.149 30.104 19.12 30.2406L19.1199 30.2406L19.119 30.2455C19.0958 30.3695 19.0554 30.4846 18.998 30.5916L18.9979 30.5916L18.9953 30.5969C18.946 30.6955 18.8808 30.7736 18.7997 30.8344Z" fill="white" stroke="#ED1846" stroke-width="0.422884"/>
</svg>
