<svg width="46" height="56" viewBox="0 0 46 56" fill="none" xmlns="http://www.w3.org/2000/svg">
<path d="M33.1894 43.8818V20.7666L25.8346 37.0214H19.4069L12.052 20.7666V43.8818H0V0H13.1645L22.6207 20.643L32.1388 0H45.2415V43.8818H33.1894Z" fill="white" fill-opacity="0.3"/>
<path d="M0 43.8818H45.2415L45.2273 45.5907C45.2273 51.3397 40.5668 56.0002 34.8178 56.0002H10.4094C4.66046 56.0002 0 51.3397 0 45.5907V43.8818Z" fill="white" fill-opacity="0.3"/>
<rect x="2.5127" y="39.25" width="40.202" height="14.2382" rx="7.11911" fill="#CED2DF"/>
<path d="M17.2977 48.3452V50.1392H12.4117V48.3452H13.9102V44.525C13.8539 44.6094 13.7589 44.7044 13.6253 44.8099C13.4916 44.9084 13.3368 45.0069 13.1609 45.1054C12.9921 45.1968 12.8197 45.2742 12.6438 45.3375C12.4679 45.4009 12.3097 45.4325 12.1689 45.4325V43.5963C12.3589 43.5963 12.5524 43.547 12.7494 43.4485C12.9534 43.3501 13.1398 43.2375 13.3087 43.1108C13.4846 42.9842 13.6253 42.8681 13.7308 42.7626C13.8434 42.6571 13.9032 42.6008 13.9102 42.5938H15.9575V48.3452H17.2977Z" fill="#343B4C"/>
<path d="M21.2953 50.2447C20.7395 50.2447 20.247 50.1286 19.8178 49.8964C19.3957 49.6643 19.0404 49.3582 18.752 48.9783C18.4706 48.5984 18.256 48.1869 18.1082 47.7436C17.9675 47.3004 17.8972 46.8677 17.8972 46.4456C17.8972 45.9953 17.9746 45.5451 18.1293 45.0948C18.2841 44.6446 18.5093 44.2365 18.8047 43.8707C19.1002 43.4978 19.4555 43.2023 19.8706 42.9842C20.2927 42.7591 20.7676 42.6465 21.2953 42.6465C21.8581 42.6465 22.3506 42.7661 22.7727 43.0053C23.1948 43.2445 23.5466 43.5541 23.828 43.934C24.1164 44.3139 24.331 44.7255 24.4717 45.1687C24.6195 45.6119 24.6933 46.0376 24.6933 46.4456C24.6933 46.9029 24.6159 47.3567 24.4612 47.8069C24.3064 48.2572 24.0813 48.6653 23.7858 49.0311C23.4903 49.3969 23.1315 49.6924 22.7094 49.9176C22.2943 50.1357 21.8229 50.2447 21.2953 50.2447ZM19.9867 46.4456C19.9867 46.6778 20.0113 46.9099 20.0606 47.1421C20.1098 47.3743 20.1837 47.5889 20.2822 47.7858C20.3877 47.9758 20.5249 48.1306 20.6937 48.2502C20.8626 48.3627 21.0631 48.419 21.2953 48.419C21.5415 48.419 21.7455 48.3557 21.9073 48.2291C22.0762 48.1024 22.2099 47.9406 22.3083 47.7436C22.4139 47.5466 22.4878 47.3356 22.53 47.1104C22.5792 46.8783 22.6038 46.6567 22.6038 46.4456C22.6038 46.2134 22.5792 45.9813 22.53 45.7491C22.4807 45.5169 22.4033 45.3059 22.2978 45.1159C22.1923 44.9189 22.0551 44.7642 21.8862 44.6516C21.7244 44.532 21.5274 44.4722 21.2953 44.4722C21.0561 44.4722 20.852 44.5355 20.6832 44.6621C20.5143 44.7888 20.3771 44.9506 20.2716 45.1476C20.1731 45.3446 20.0992 45.5592 20.05 45.7913C20.0078 46.0165 19.9867 46.2345 19.9867 46.4456Z" fill="#343B4C"/>
<path d="M28.8287 50.2447C28.2729 50.2447 27.7805 50.1286 27.3513 49.8964C26.9292 49.6643 26.5739 49.3582 26.2854 48.9783C26.004 48.5984 25.7894 48.1869 25.6417 47.7436C25.501 47.3004 25.4306 46.8677 25.4306 46.4456C25.4306 45.9953 25.508 45.5451 25.6628 45.0948C25.8176 44.6446 26.0427 44.2365 26.3382 43.8707C26.6337 43.4978 26.989 43.2023 27.4041 42.9842C27.8262 42.7591 28.3011 42.6465 28.8287 42.6465C29.3915 42.6465 29.884 42.7661 30.3061 43.0053C30.7283 43.2445 31.08 43.5541 31.3614 43.934C31.6499 44.3139 31.8645 44.7255 32.0052 45.1687C32.1529 45.6119 32.2268 46.0376 32.2268 46.4456C32.2268 46.9029 32.1494 47.3567 31.9946 47.8069C31.8399 48.2572 31.6147 48.6653 31.3192 49.0311C31.0238 49.3969 30.6649 49.6924 30.2428 49.9176C29.8277 50.1357 29.3564 50.2447 28.8287 50.2447ZM27.5201 46.4456C27.5201 46.6778 27.5448 46.9099 27.594 47.1421C27.6433 47.3743 27.7171 47.5889 27.8156 47.7858C27.9212 47.9758 28.0583 48.1306 28.2272 48.2502C28.396 48.3627 28.5966 48.419 28.8287 48.419C29.075 48.419 29.279 48.3557 29.4408 48.2291C29.6096 48.1024 29.7433 47.9406 29.8418 47.7436C29.9473 47.5466 30.0212 47.3356 30.0634 47.1104C30.1127 46.8783 30.1373 46.6567 30.1373 46.4456C30.1373 46.2134 30.1127 45.9813 30.0634 45.7491C30.0142 45.5169 29.9368 45.3059 29.8313 45.1159C29.7257 44.9189 29.5885 44.7642 29.4197 44.6516C29.2579 44.532 29.0609 44.4722 28.8287 44.4722C28.5895 44.4722 28.3855 44.5355 28.2166 44.6621C28.0478 44.7888 27.9106 44.9506 27.8051 45.1476C27.7066 45.3446 27.6327 45.5592 27.5835 45.7913C27.5412 46.0165 27.5201 46.2345 27.5201 46.4456Z" fill="#343B4C"/>
</svg>
