<svg width="31" height="38" viewBox="0 0 31 38" fill="none" xmlns="http://www.w3.org/2000/svg">
<mask id="path-1-outside-1_976_111011" maskUnits="userSpaceOnUse" x="0.0839844" y="0" width="31" height="38" fill="black">
<rect fill="white" x="0.0839844" width="31" height="38"/>
<path d="M1.08398 29.5V1H30.0989V29.5H20.8084V9.10511H10.3745V29.5H1.08398Z"/>
<path d="M1.08398 26.7911H30.0989V31.0001C30.0989 34.3138 27.4126 37.0001 24.0989 37.0001H7.08398C3.77027 37.0001 1.08398 34.3138 1.08398 31.0001V26.7911Z"/>
<path d="M2.69593 30.8208C2.69593 28.2984 4.74072 26.2536 7.26309 26.2536H23.9198C26.4422 26.2536 28.487 28.2984 28.487 30.8208C28.487 33.3432 26.4422 35.388 23.9198 35.388H7.2631C4.74072 35.388 2.69593 33.3432 2.69593 30.8208Z"/>
<path d="M12.1811 32.0877V33.2386H9.04649V32.0877H10.0078V29.6369C9.97174 29.6911 9.91081 29.752 9.82505 29.8197C9.7393 29.8829 9.64 29.9461 9.52717 30.0093C9.41884 30.0679 9.30826 30.1176 9.19543 30.1582C9.08259 30.1988 8.98104 30.2191 8.89077 30.2191V29.0411C9.01264 29.0411 9.13675 29.0095 9.26313 28.9464C9.39402 28.8832 9.51363 28.811 9.62195 28.7297C9.73478 28.6485 9.82505 28.574 9.89275 28.5063C9.96497 28.4386 10.0033 28.4025 10.0078 28.398H11.3213V32.0877H12.1811Z"/>
<path d="M14.7456 33.3063C14.3891 33.3063 14.0731 33.2319 13.7978 33.0829C13.527 32.934 13.2991 32.7376 13.114 32.4939C12.9335 32.2502 12.7958 31.9862 12.701 31.7018C12.6108 31.4175 12.5656 31.1399 12.5656 30.8691C12.5656 30.5802 12.6153 30.2914 12.7146 30.0025C12.8139 29.7136 12.9583 29.4519 13.1479 29.2172C13.3374 28.978 13.5654 28.7884 13.8317 28.6485C14.1025 28.504 14.4071 28.4318 14.7456 28.4318C15.1067 28.4318 15.4226 28.5086 15.6935 28.662C15.9643 28.8155 16.1899 29.0141 16.3705 29.2578C16.5555 29.5015 16.6932 29.7655 16.7834 30.0499C16.8782 30.3342 16.9256 30.6073 16.9256 30.8691C16.9256 31.1625 16.876 31.4536 16.7767 31.7424C16.6774 32.0313 16.5329 32.2931 16.3434 32.5278C16.1538 32.7625 15.9236 32.952 15.6528 33.0965C15.3865 33.2364 15.0841 33.3063 14.7456 33.3063ZM13.9061 30.8691C13.9061 31.018 13.9219 31.167 13.9535 31.3159C13.9851 31.4649 14.0325 31.6025 14.0957 31.7289C14.1634 31.8508 14.2514 31.95 14.3597 32.0268C14.4681 32.099 14.5967 32.1351 14.7456 32.1351C14.9036 32.1351 15.0345 32.0945 15.1383 32.0132C15.2466 31.932 15.3324 31.8282 15.3956 31.7018C15.4633 31.5754 15.5107 31.44 15.5377 31.2956C15.5693 31.1467 15.5851 31.0045 15.5851 30.8691C15.5851 30.7201 15.5693 30.5712 15.5377 30.4223C15.5061 30.2733 15.4565 30.1379 15.3888 30.016C15.3211 29.8897 15.2331 29.7904 15.1248 29.7182C15.0209 29.6414 14.8946 29.6031 14.7456 29.6031C14.5922 29.6031 14.4613 29.6437 14.353 29.7249C14.2446 29.8062 14.1566 29.91 14.0889 30.0364C14.0257 30.1627 13.9783 30.3004 13.9468 30.4493C13.9197 30.5938 13.9061 30.7337 13.9061 30.8691Z"/>
<path d="M19.5786 33.3063C19.2221 33.3063 18.9061 33.2319 18.6308 33.0829C18.36 32.934 18.1321 32.7376 17.947 32.4939C17.7665 32.2502 17.6288 31.9862 17.534 31.7018C17.4438 31.4175 17.3986 31.1399 17.3986 30.8691C17.3986 30.5802 17.4483 30.2914 17.5476 30.0025C17.6469 29.7136 17.7913 29.4519 17.9809 29.2172C18.1704 28.978 18.3984 28.7884 18.6646 28.6485C18.9355 28.504 19.2401 28.4318 19.5786 28.4318C19.9397 28.4318 20.2556 28.5086 20.5264 28.662C20.7972 28.8155 21.0229 29.0141 21.2035 29.2578C21.3885 29.5015 21.5262 29.7655 21.6164 30.0499C21.7112 30.3342 21.7586 30.6073 21.7586 30.8691C21.7586 31.1625 21.709 31.4536 21.6097 31.7424C21.5104 32.0313 21.3659 32.2931 21.1764 32.5278C20.9868 32.7625 20.7566 32.952 20.4858 33.0965C20.2195 33.2364 19.9171 33.3063 19.5786 33.3063ZM18.7391 30.8691C18.7391 31.018 18.7549 31.167 18.7865 31.3159C18.8181 31.4649 18.8655 31.6025 18.9287 31.7289C18.9964 31.8508 19.0844 31.95 19.1927 32.0268C19.301 32.099 19.4297 32.1351 19.5786 32.1351C19.7366 32.1351 19.8675 32.0945 19.9713 32.0132C20.0796 31.932 20.1654 31.8282 20.2286 31.7018C20.2963 31.5754 20.3436 31.44 20.3707 31.2956C20.4023 31.1467 20.4181 31.0045 20.4181 30.8691C20.4181 30.7201 20.4023 30.5712 20.3707 30.4223C20.3391 30.2733 20.2895 30.1379 20.2218 30.016C20.1541 29.8897 20.0661 29.7904 19.9577 29.7182C19.8539 29.6414 19.7276 29.6031 19.5786 29.6031C19.4252 29.6031 19.2943 29.6437 19.1859 29.7249C19.0776 29.8062 18.9896 29.91 18.9219 30.0364C18.8587 30.1627 18.8113 30.3004 18.7797 30.4493C18.7527 30.5938 18.7391 30.7337 18.7391 30.8691Z"/>
</mask>
<path d="M1.08398 29.5V1H30.0989V29.5H20.8084V9.10511H10.3745V29.5H1.08398Z" fill="#D1103A"/>
<path d="M1.08398 26.7911H30.0989V31.0001C30.0989 34.3138 27.4126 37.0001 24.0989 37.0001H7.08398C3.77027 37.0001 1.08398 34.3138 1.08398 31.0001V26.7911Z" fill="#D1103A"/>
<path d="M2.69593 30.8208C2.69593 28.2984 4.74072 26.2536 7.26309 26.2536H23.9198C26.4422 26.2536 28.487 28.2984 28.487 30.8208C28.487 33.3432 26.4422 35.388 23.9198 35.388H7.2631C4.74072 35.388 2.69593 33.3432 2.69593 30.8208Z" fill="#ED1846"/>
<path d="M12.1811 32.0877V33.2386H9.04649V32.0877H10.0078V29.6369C9.97174 29.6911 9.91081 29.752 9.82505 29.8197C9.7393 29.8829 9.64 29.9461 9.52717 30.0093C9.41884 30.0679 9.30826 30.1176 9.19543 30.1582C9.08259 30.1988 8.98104 30.2191 8.89077 30.2191V29.0411C9.01264 29.0411 9.13675 29.0095 9.26313 28.9464C9.39402 28.8832 9.51363 28.811 9.62195 28.7297C9.73478 28.6485 9.82505 28.574 9.89275 28.5063C9.96497 28.4386 10.0033 28.4025 10.0078 28.398H11.3213V32.0877H12.1811Z" fill="white"/>
<path d="M14.7456 33.3063C14.3891 33.3063 14.0731 33.2319 13.7978 33.0829C13.527 32.934 13.2991 32.7376 13.114 32.4939C12.9335 32.2502 12.7958 31.9862 12.701 31.7018C12.6108 31.4175 12.5656 31.1399 12.5656 30.8691C12.5656 30.5802 12.6153 30.2914 12.7146 30.0025C12.8139 29.7136 12.9583 29.4519 13.1479 29.2172C13.3374 28.978 13.5654 28.7884 13.8317 28.6485C14.1025 28.504 14.4071 28.4318 14.7456 28.4318C15.1067 28.4318 15.4226 28.5086 15.6935 28.662C15.9643 28.8155 16.1899 29.0141 16.3705 29.2578C16.5555 29.5015 16.6932 29.7655 16.7834 30.0499C16.8782 30.3342 16.9256 30.6073 16.9256 30.8691C16.9256 31.1625 16.876 31.4536 16.7767 31.7424C16.6774 32.0313 16.5329 32.2931 16.3434 32.5278C16.1538 32.7625 15.9236 32.952 15.6528 33.0965C15.3865 33.2364 15.0841 33.3063 14.7456 33.3063ZM13.9061 30.8691C13.9061 31.018 13.9219 31.167 13.9535 31.3159C13.9851 31.4649 14.0325 31.6025 14.0957 31.7289C14.1634 31.8508 14.2514 31.95 14.3597 32.0268C14.4681 32.099 14.5967 32.1351 14.7456 32.1351C14.9036 32.1351 15.0345 32.0945 15.1383 32.0132C15.2466 31.932 15.3324 31.8282 15.3956 31.7018C15.4633 31.5754 15.5107 31.44 15.5377 31.2956C15.5693 31.1467 15.5851 31.0045 15.5851 30.8691C15.5851 30.7201 15.5693 30.5712 15.5377 30.4223C15.5061 30.2733 15.4565 30.1379 15.3888 30.016C15.3211 29.8897 15.2331 29.7904 15.1248 29.7182C15.0209 29.6414 14.8946 29.6031 14.7456 29.6031C14.5922 29.6031 14.4613 29.6437 14.353 29.7249C14.2446 29.8062 14.1566 29.91 14.0889 30.0364C14.0257 30.1627 13.9783 30.3004 13.9468 30.4493C13.9197 30.5938 13.9061 30.7337 13.9061 30.8691Z" fill="white"/>
<path d="M19.5786 33.3063C19.2221 33.3063 18.9061 33.2319 18.6308 33.0829C18.36 32.934 18.1321 32.7376 17.947 32.4939C17.7665 32.2502 17.6288 31.9862 17.534 31.7018C17.4438 31.4175 17.3986 31.1399 17.3986 30.8691C17.3986 30.5802 17.4483 30.2914 17.5476 30.0025C17.6469 29.7136 17.7913 29.4519 17.9809 29.2172C18.1704 28.978 18.3984 28.7884 18.6646 28.6485C18.9355 28.504 19.2401 28.4318 19.5786 28.4318C19.9397 28.4318 20.2556 28.5086 20.5264 28.662C20.7972 28.8155 21.0229 29.0141 21.2035 29.2578C21.3885 29.5015 21.5262 29.7655 21.6164 30.0499C21.7112 30.3342 21.7586 30.6073 21.7586 30.8691C21.7586 31.1625 21.709 31.4536 21.6097 31.7424C21.5104 32.0313 21.3659 32.2931 21.1764 32.5278C20.9868 32.7625 20.7566 32.952 20.4858 33.0965C20.2195 33.2364 19.9171 33.3063 19.5786 33.3063ZM18.7391 30.8691C18.7391 31.018 18.7549 31.167 18.7865 31.3159C18.8181 31.4649 18.8655 31.6025 18.9287 31.7289C18.9964 31.8508 19.0844 31.95 19.1927 32.0268C19.301 32.099 19.4297 32.1351 19.5786 32.1351C19.7366 32.1351 19.8675 32.0945 19.9713 32.0132C20.0796 31.932 20.1654 31.8282 20.2286 31.7018C20.2963 31.5754 20.3436 31.44 20.3707 31.2956C20.4023 31.1467 20.4181 31.0045 20.4181 30.8691C20.4181 30.7201 20.4023 30.5712 20.3707 30.4223C20.3391 30.2733 20.2895 30.1379 20.2218 30.016C20.1541 29.8897 20.0661 29.7904 19.9577 29.7182C19.8539 29.6414 19.7276 29.6031 19.5786 29.6031C19.4252 29.6031 19.2943 29.6437 19.1859 29.7249C19.0776 29.8062 18.9896 29.91 18.9219 30.0364C18.8587 30.1627 18.8113 30.3004 18.7797 30.4493C18.7527 30.5938 18.7391 30.7337 18.7391 30.8691Z" fill="white"/>
<path d="M1.08398 29.5V1H30.0989V29.5H20.8084V9.10511H10.3745V29.5H1.08398Z" stroke="#ED1846" stroke-width="0.975" mask="url(#path-1-outside-1_976_111011)"/>
<path d="M1.08398 26.7911H30.0989V31.0001C30.0989 34.3138 27.4126 37.0001 24.0989 37.0001H7.08398C3.77027 37.0001 1.08398 34.3138 1.08398 31.0001V26.7911Z" stroke="#ED1846" stroke-width="0.975" mask="url(#path-1-outside-1_976_111011)"/>
<path d="M2.69593 30.8208C2.69593 28.2984 4.74072 26.2536 7.26309 26.2536H23.9198C26.4422 26.2536 28.487 28.2984 28.487 30.8208C28.487 33.3432 26.4422 35.388 23.9198 35.388H7.2631C4.74072 35.388 2.69593 33.3432 2.69593 30.8208Z" stroke="#ED1846" stroke-width="0.975" mask="url(#path-1-outside-1_976_111011)"/>
<path d="M12.1811 32.0877V33.2386H9.04649V32.0877H10.0078V29.6369C9.97174 29.6911 9.91081 29.752 9.82505 29.8197C9.7393 29.8829 9.64 29.9461 9.52717 30.0093C9.41884 30.0679 9.30826 30.1176 9.19543 30.1582C9.08259 30.1988 8.98104 30.2191 8.89077 30.2191V29.0411C9.01264 29.0411 9.13675 29.0095 9.26313 28.9464C9.39402 28.8832 9.51363 28.811 9.62195 28.7297C9.73478 28.6485 9.82505 28.574 9.89275 28.5063C9.96497 28.4386 10.0033 28.4025 10.0078 28.398H11.3213V32.0877H12.1811Z" stroke="#ED1846" stroke-width="0.975" mask="url(#path-1-outside-1_976_111011)"/>
<path d="M14.7456 33.3063C14.3891 33.3063 14.0731 33.2319 13.7978 33.0829C13.527 32.934 13.2991 32.7376 13.114 32.4939C12.9335 32.2502 12.7958 31.9862 12.701 31.7018C12.6108 31.4175 12.5656 31.1399 12.5656 30.8691C12.5656 30.5802 12.6153 30.2914 12.7146 30.0025C12.8139 29.7136 12.9583 29.4519 13.1479 29.2172C13.3374 28.978 13.5654 28.7884 13.8317 28.6485C14.1025 28.504 14.4071 28.4318 14.7456 28.4318C15.1067 28.4318 15.4226 28.5086 15.6935 28.662C15.9643 28.8155 16.1899 29.0141 16.3705 29.2578C16.5555 29.5015 16.6932 29.7655 16.7834 30.0499C16.8782 30.3342 16.9256 30.6073 16.9256 30.8691C16.9256 31.1625 16.876 31.4536 16.7767 31.7424C16.6774 32.0313 16.5329 32.2931 16.3434 32.5278C16.1538 32.7625 15.9236 32.952 15.6528 33.0965C15.3865 33.2364 15.0841 33.3063 14.7456 33.3063ZM13.9061 30.8691C13.9061 31.018 13.9219 31.167 13.9535 31.3159C13.9851 31.4649 14.0325 31.6025 14.0957 31.7289C14.1634 31.8508 14.2514 31.95 14.3597 32.0268C14.4681 32.099 14.5967 32.1351 14.7456 32.1351C14.9036 32.1351 15.0345 32.0945 15.1383 32.0132C15.2466 31.932 15.3324 31.8282 15.3956 31.7018C15.4633 31.5754 15.5107 31.44 15.5377 31.2956C15.5693 31.1467 15.5851 31.0045 15.5851 30.8691C15.5851 30.7201 15.5693 30.5712 15.5377 30.4223C15.5061 30.2733 15.4565 30.1379 15.3888 30.016C15.3211 29.8897 15.2331 29.7904 15.1248 29.7182C15.0209 29.6414 14.8946 29.6031 14.7456 29.6031C14.5922 29.6031 14.4613 29.6437 14.353 29.7249C14.2446 29.8062 14.1566 29.91 14.0889 30.0364C14.0257 30.1627 13.9783 30.3004 13.9468 30.4493C13.9197 30.5938 13.9061 30.7337 13.9061 30.8691Z" stroke="#ED1846" stroke-width="0.975" mask="url(#path-1-outside-1_976_111011)"/>
<path d="M19.5786 33.3063C19.2221 33.3063 18.9061 33.2319 18.6308 33.0829C18.36 32.934 18.1321 32.7376 17.947 32.4939C17.7665 32.2502 17.6288 31.9862 17.534 31.7018C17.4438 31.4175 17.3986 31.1399 17.3986 30.8691C17.3986 30.5802 17.4483 30.2914 17.5476 30.0025C17.6469 29.7136 17.7913 29.4519 17.9809 29.2172C18.1704 28.978 18.3984 28.7884 18.6646 28.6485C18.9355 28.504 19.2401 28.4318 19.5786 28.4318C19.9397 28.4318 20.2556 28.5086 20.5264 28.662C20.7972 28.8155 21.0229 29.0141 21.2035 29.2578C21.3885 29.5015 21.5262 29.7655 21.6164 30.0499C21.7112 30.3342 21.7586 30.6073 21.7586 30.8691C21.7586 31.1625 21.709 31.4536 21.6097 31.7424C21.5104 32.0313 21.3659 32.2931 21.1764 32.5278C20.9868 32.7625 20.7566 32.952 20.4858 33.0965C20.2195 33.2364 19.9171 33.3063 19.5786 33.3063ZM18.7391 30.8691C18.7391 31.018 18.7549 31.167 18.7865 31.3159C18.8181 31.4649 18.8655 31.6025 18.9287 31.7289C18.9964 31.8508 19.0844 31.95 19.1927 32.0268C19.301 32.099 19.4297 32.1351 19.5786 32.1351C19.7366 32.1351 19.8675 32.0945 19.9713 32.0132C20.0796 31.932 20.1654 31.8282 20.2286 31.7018C20.2963 31.5754 20.3436 31.44 20.3707 31.2956C20.4023 31.1467 20.4181 31.0045 20.4181 30.8691C20.4181 30.7201 20.4023 30.5712 20.3707 30.4223C20.3391 30.2733 20.2895 30.1379 20.2218 30.016C20.1541 29.8897 20.0661 29.7904 19.9577 29.7182C19.8539 29.6414 19.7276 29.6031 19.5786 29.6031C19.4252 29.6031 19.2943 29.6437 19.1859 29.7249C19.0776 29.8062 18.9896 29.91 18.9219 30.0364C18.8587 30.1627 18.8113 30.3004 18.7797 30.4493C18.7527 30.5938 18.7391 30.7337 18.7391 30.8691Z" stroke="#ED1846" stroke-width="0.975" mask="url(#path-1-outside-1_976_111011)"/>
</svg>
