<svg width="46" height="56" viewBox="0 0 46 56" fill="none" xmlns="http://www.w3.org/2000/svg">
<path d="M0 46.806V0H45.1343V46.806H30.6825V12.6079H14.4519V46.806H0Z" fill="white" fill-opacity="0.3"/>
<path d="M0 46.8029H45.1343V48C45.1343 52.4183 41.5526 56 37.1343 56H8.00001C3.58173 56 0 52.4183 0 48V46.8029Z" fill="white" fill-opacity="0.3"/>
<rect x="2.50781" y="39.2852" width="40.1194" height="14.209" rx="7.10448" fill="#CED2DF"/>
<path d="M17.2618 48.3607V50.151H12.3858V48.3607H13.8812V44.5483C13.8251 44.6326 13.7303 44.7274 13.5969 44.8327C13.4635 44.931 13.309 45.0293 13.1335 45.1276C12.965 45.2188 12.793 45.2961 12.6175 45.3592C12.4419 45.4224 12.284 45.454 12.1436 45.454V43.6216C12.3331 43.6216 12.5262 43.5724 12.7228 43.4741C12.9264 43.3758 13.1124 43.2635 13.2809 43.1371C13.4565 43.0108 13.5969 42.8949 13.7022 42.7896C13.8145 42.6843 13.8742 42.6281 13.8812 42.6211H15.9243V48.3607H17.2618Z" fill="#343B4C"/>
<path d="M21.2511 50.2563C20.6965 50.2563 20.205 50.1405 19.7767 49.9088C19.3555 49.6771 19.0009 49.3717 18.7131 48.9926C18.4322 48.6134 18.2181 48.2027 18.0706 47.7604C17.9302 47.3181 17.86 46.8863 17.86 46.465C17.86 46.0157 17.9372 45.5664 18.0917 45.117C18.2462 44.6677 18.4708 44.2605 18.7657 43.8954C19.0606 43.5233 19.4151 43.2284 19.8294 43.0108C20.2506 42.7861 20.7245 42.6738 21.2511 42.6738C21.8128 42.6738 22.3042 42.7931 22.7255 43.0318C23.1468 43.2705 23.4978 43.5794 23.7786 43.9586C24.0665 44.3377 24.2806 44.7484 24.421 45.1907C24.5685 45.6331 24.6422 46.0578 24.6422 46.465C24.6422 46.9214 24.565 47.3742 24.4105 47.8236C24.2561 48.2729 24.0314 48.6801 23.7365 49.0452C23.4416 49.4103 23.0836 49.7052 22.6623 49.9298C22.2481 50.1475 21.7777 50.2563 21.2511 50.2563ZM19.9452 46.465C19.9452 46.6967 19.9698 46.9284 20.0189 47.1601C20.0681 47.3918 20.1418 47.6059 20.2401 47.8025C20.3454 47.9921 20.4823 48.1465 20.6508 48.2659C20.8193 48.3782 21.0194 48.4344 21.2511 48.4344C21.4968 48.4344 21.7004 48.3712 21.8619 48.2448C22.0304 48.1185 22.1638 47.957 22.2621 47.7604C22.3674 47.5638 22.4412 47.3532 22.4833 47.1285C22.5324 46.8968 22.557 46.6757 22.557 46.465C22.557 46.2333 22.5324 46.0017 22.4833 45.77C22.4341 45.5383 22.3569 45.3276 22.2516 45.1381C22.1463 44.9415 22.0094 44.787 21.8409 44.6747C21.6794 44.5554 21.4828 44.4957 21.2511 44.4957C21.0124 44.4957 20.8088 44.5589 20.6403 44.6852C20.4718 44.8116 20.3349 44.9731 20.2296 45.1697C20.1313 45.3663 20.0576 45.5804 20.0084 45.8121C19.9663 46.0368 19.9452 46.2544 19.9452 46.465Z" fill="#343B4C"/>
<path d="M28.7691 50.2563C28.2144 50.2563 27.723 50.1405 27.2947 49.9088C26.8735 49.6771 26.5189 49.3717 26.231 48.9926C25.9502 48.6134 25.7361 48.2027 25.5886 47.7604C25.4482 47.3181 25.378 46.8863 25.378 46.465C25.378 46.0157 25.4552 45.5664 25.6097 45.117C25.7641 44.6677 25.9888 44.2605 26.2837 43.8954C26.5786 43.5233 26.9331 43.2284 27.3474 43.0108C27.7686 42.7861 28.2425 42.6738 28.7691 42.6738C29.3308 42.6738 29.8222 42.7931 30.2435 43.0318C30.6647 43.2705 31.0158 43.5794 31.2966 43.9586C31.5845 44.3377 31.7986 44.7484 31.939 45.1907C32.0865 45.6331 32.1602 46.0578 32.1602 46.465C32.1602 46.9214 32.083 47.3742 31.9285 47.8236C31.774 48.2729 31.5494 48.6801 31.2545 49.0452C30.9596 49.4103 30.6015 49.7052 30.1803 49.9298C29.7661 50.1475 29.2957 50.2563 28.7691 50.2563ZM27.4632 46.465C27.4632 46.6967 27.4878 46.9284 27.5369 47.1601C27.5861 47.3918 27.6598 47.6059 27.7581 47.8025C27.8634 47.9921 28.0003 48.1465 28.1688 48.2659C28.3373 48.3782 28.5374 48.4344 28.7691 48.4344C29.0148 48.4344 29.2184 48.3712 29.3799 48.2448C29.5484 48.1185 29.6818 47.957 29.7801 47.7604C29.8854 47.5638 29.9591 47.3532 30.0013 47.1285C30.0504 46.8968 30.075 46.6757 30.075 46.465C30.075 46.2333 30.0504 46.0017 30.0013 45.77C29.9521 45.5383 29.8749 45.3276 29.7696 45.1381C29.6643 44.9415 29.5273 44.787 29.3588 44.6747C29.1974 44.5554 29.0008 44.4957 28.7691 44.4957C28.5304 44.4957 28.3268 44.5589 28.1583 44.6852C27.9898 44.8116 27.8529 44.9731 27.7476 45.1697C27.6493 45.3663 27.5755 45.5804 27.5264 45.8121C27.4843 46.0368 27.4632 46.2544 27.4632 46.465Z" fill="#343B4C"/>
</svg>
