<svg width="33" height="32" viewBox="0 0 33 32" fill="none" xmlns="http://www.w3.org/2000/svg">
<path d="M16.5 2C9.8724 2 4.5 7.3724 4.5 14C4.5 17.3126 5.8422 20.312 8.013 22.4834C10.1844 24.656 15.3 27.8 15.6 31.1C15.645 31.5948 16.0032 32 16.5 32C16.9968 32 17.355 31.5948 17.4 31.1C17.7 27.8 22.8156 24.656 24.987 22.4834C27.1578 20.312 28.5 17.3126 28.5 14C28.5 7.3724 23.1276 2 16.5 2Z" fill="#FF4433"/>
<path d="M16.4988 18.1959C18.8184 18.1959 20.6988 16.3155 20.6988 13.9959C20.6988 11.6763 18.8184 9.7959 16.4988 9.7959C14.1792 9.7959 12.2988 11.6763 12.2988 13.9959C12.2988 16.3155 14.1792 18.1959 16.4988 18.1959Z" fill="white"/>
</svg>
