<svg width="100" height="100" fill="none" xmlns="http://www.w3.org/2000/svg"><path d="M19.68 25h60.64c.454 0 .68-.444.68-1s-.302-1-.68-1H19.68c-.378 0-.68.444-.68 1 0 .555.302 1 .68 1Zm60.64 50H19.68c-.378 0-.68.444-.68 1s.302 1 .68 1h60.64c.454 0 .68-.444.68-1s-.302-1-.68-1ZM46.466 35.914c.093-1.703-.555-2.787-1.387-3.562.832-.696 1.387-1.78 1.387-3.483h-1.664c0 1.239-.278 2.013-1.018 2.632-.463.387-1.018.774-1.572 1.006-.093.078-.278.078-.37.156-.278.077-.555.155-.833.309-1.757.542-4.717 1.16-7.492 1.16-5.088 0-7.77-1.16-7.77-1.702s2.59-1.703 7.77-1.703c2.59 0 5.088.464 6.845.928.74-.232 1.295-.464 1.85-.851-2.22-.852-5.92-1.471-8.695-1.471-4.533 0-9.343.929-9.343 3.096 0 2.09 4.902 3.096 9.343 3.096 2.22 0 4.717-.309 6.937-.928 1.85-.465 2.868-.93 3.33-1.316.648.619 1.018 1.393 1.018 2.632 0 1.238-.277 2.012-1.017 2.631-.463.388-1.018.775-1.573 1.007-.092.077-.277.077-.37.155-.277.077-.555.155-.832.31-1.758.541-4.718 1.16-7.493 1.16-5.088 0-7.77-1.16-7.77-1.703 0-.542 2.59-1.703 7.77-1.703 2.59 0 5.088.464 6.846.929.74-.232 1.295-.465 1.85-.852-2.22-.851-5.92-1.47-8.696-1.47-4.533 0-9.343.928-9.343 3.096 0 2.09 4.903 3.096 9.343 3.096 2.22 0 4.718-.31 6.938-.929 1.85-.464 2.867-.929 3.33-1.316.648.62 1.018 1.393 1.018 2.632s-.278 2.012-1.018 2.632c-.463.387-1.017.774-1.572 1.006-.093.078-.278.078-.37.155-.278.078-.555.155-.833.31-1.757.542-4.717 1.16-7.492 1.16-5.088 0-7.77-1.16-7.77-1.702 0-.543 2.59-1.704 7.77-1.704 2.59 0 5.088.465 6.845.93.74-.233 1.295-.465 1.85-.852-2.22-.852-5.92-1.471-8.695-1.471-4.533 0-9.343.928-9.343 3.096 0 2.09 4.903 3.096 9.343 3.096 2.22 0 4.717-.31 6.937-.929 1.85-.464 2.868-.928 3.33-1.316.648.62 1.018 1.394 1.018 2.632 0 1.239-.277 2.013-1.017 2.632-.463.387-1.018.775-1.573 1.007-.092.077-.277.077-.37.155-.277.077-.555.155-.832.31-1.758.541-4.718 1.16-7.493 1.16-5.088 0-7.77-1.16-7.77-1.703 0-.542 2.59-1.703 7.77-1.703 2.59 0 5.088.464 6.846.929.74-.233 1.295-.465 1.85-.852-2.22-.851-5.92-1.47-8.696-1.47-4.533 0-9.343.928-9.343 3.095 0 2.09 4.903 3.097 9.343 3.097 2.22 0 4.718-.31 6.938-.93 1.85-.464 2.867-.928 3.33-1.315.648.62 1.018 1.393 1.018 2.632 0 1.238-.278 2.012-1.018 2.554-.463.387-1.017.775-1.572 1.007-.093.077-.278.077-.37.155-.278.077-.555.155-.833.31-1.757.541-4.717 1.16-7.492 1.16-5.088 0-7.77-1.16-7.77-1.703 0-.542 2.59-1.703 7.77-1.703 2.59 0 5.088.464 6.845.929.74-.232 1.295-.465 1.85-.852-2.22-.851-5.92-1.47-8.695-1.47-4.533 0-9.343.928-9.343 3.096 0 2.09 4.903 3.096 9.343 3.096 2.22 0 4.717-.31 6.937-.93 1.85-.464 2.868-.928 3.33-1.315.648.62 1.018 1.393 1.018 2.632s-.37 2.09-1.017 2.71c-.463.387-1.018.696-1.573 1.006-.092.077-.185.077-.37.155-.277.155-.555.232-.832.31-1.85.541-4.718 1.16-7.493 1.16-5.18 0-7.77-1.16-7.77-1.703 0-.542 2.682-1.703 7.77-1.703 2.59 0 5.088.465 6.846.929.74-.155 1.295-.464 1.85-.852-2.22-.928-5.92-1.47-8.696-1.47-4.44 0-9.343 1.006-9.343 3.096 0 2.167 4.81 3.096 9.343 3.096 2.128 0 4.718-.31 6.938-.929 1.943-.464 2.867-.929 3.33-1.316.74.62 1.018 1.393 1.018 2.632h1.664c0-1.703-.555-2.787-1.387-3.561.832-.775 1.387-1.936 1.387-3.561.093-1.703-.555-2.787-1.387-3.562.832-.696 1.387-1.78 1.387-3.406.093-1.703-.555-2.787-1.387-3.561.832-.774 1.387-1.858 1.387-3.483.093-1.704-.555-2.787-1.387-3.562.832-.696 1.387-1.858 1.387-3.483.093-1.703-.555-2.787-1.387-3.561.829-.69 1.383-1.774 1.383-3.477h.001Zm29.348.013c.093-1.706-.554-2.792-1.387-3.568.833-.698 1.387-1.784 1.387-3.49H74.15c0 1.241-.278 2.016-1.018 2.637-.463.388-1.017.776-1.572 1.008-.093.078-.278.078-.37.155-.278.078-.555.156-.832.31-1.758.544-4.718 1.164-7.493 1.164-5.088 0-7.77-1.163-7.77-1.707 0-.543 2.59-1.706 7.77-1.706 2.59 0 5.088.465 6.845.93.74-.232 1.295-.465 1.85-.852-2.22-.854-5.92-1.474-8.695-1.474-4.533 0-9.343.93-9.343 3.102 0 2.094 4.903 3.102 9.343 3.102 2.22 0 4.717-.31 6.937-.93 1.85-.466 2.868-.931 3.33-1.32.648.621 1.018 1.397 1.018 2.638 0 1.24-.277 2.016-1.017 2.636-.463.388-1.018.776-1.573 1.009-.092.077-.277.077-.37.155-.277.077-.555.155-.832.31-1.758.543-4.718 1.163-7.493 1.163-5.087 0-7.77-1.163-7.77-1.706 0-.543 2.59-1.707 7.77-1.707 2.59 0 5.088.466 6.846.931.74-.233 1.295-.465 1.85-.853-2.22-.853-5.92-1.474-8.696-1.474-4.533 0-9.343.93-9.343 3.102 0 2.094 4.903 3.102 9.343 3.102 2.22 0 4.718-.31 6.938-.93 1.85-.466 2.868-.93 3.33-1.319.648.62 1.018 1.474 1.018 2.637 0 1.24-.278 2.016-1.018 2.637-.462.388-1.017.775-1.572 1.008-.093.077-.278.077-.37.155-.278.078-.555.156-.832.31-1.758.543-4.718 1.163-7.493 1.163-5.088 0-7.77-1.163-7.77-1.706 0-.543 2.59-1.706 7.77-1.706 2.59 0 5.088.465 6.845.93.74-.232 1.295-.465 1.85-.853-2.22-.853-5.92-1.473-8.695-1.473-4.533 0-9.343.93-9.343 3.101 0 2.095 4.903 3.102 9.343 3.102 2.22 0 4.717-.31 6.938-.93 1.85-.465 2.867-.93 3.33-1.318.647.62 1.017 1.395 1.017 2.636s-.277 2.017-1.017 2.637c-.463.388-1.018.776-1.573 1.008-.092.078-.277.078-.37.156-.277.077-.555.155-.832.31-1.758.543-4.718 1.163-7.493 1.163-5.087 0-7.77-1.163-7.77-1.706 0-.544 2.59-1.707 7.77-1.707 2.59 0 5.088.466 6.846.93.74-.232 1.295-.464 1.85-.852-2.22-.853-5.92-1.474-8.696-1.474-4.533 0-9.343.93-9.343 3.102 0 2.094 4.903 3.102 9.343 3.102 2.22 0 4.718-.31 6.938-.93 1.85-.466 2.867-.931 3.33-1.319.648.62 1.018 1.396 1.018 2.637 0 1.24-.278 2.016-1.018 2.559-.463.388-1.017.776-1.572 1.008-.093.078-.278.078-.37.156-.277.077-.555.155-.832.31-1.758.543-4.718 1.163-7.493 1.163-5.088 0-7.77-1.163-7.77-1.706 0-.544 2.59-1.707 7.77-1.707 2.59 0 5.088.465 6.845.93.74-.232 1.295-.465 1.85-.852-2.22-.854-5.92-1.474-8.695-1.474-4.533 0-9.343.93-9.343 3.102 0 2.094 4.903 3.102 9.343 3.102 2.22 0 4.717-.31 6.938-.93 1.85-.466 2.867-.931 3.33-1.32.648.621 1.017 1.397 1.017 2.638 0 1.24-.277 2.016-1.017 2.636-.463.388-1.018.776-1.573 1.009-.092.077-.277.077-.37.155-.277.077-.554.155-.832.31-1.758.543-4.717 1.163-7.493 1.163-5.087 0-7.77-1.163-7.77-1.706 0-.543 2.59-1.706 7.77-1.706 2.59 0 5.088.465 6.846.93.74-.233 1.295-.465 1.85-.853-2.22-.853-5.92-1.474-8.696-1.474-4.533 0-9.342.93-9.342 3.102 0 2.094 4.902 3.102 9.342 3.102 2.22 0 4.718-.31 6.938-.93 1.85-.466 2.867-.93 3.33-1.319.648.62 1.018 1.396 1.018 2.637h1.664c.093-1.706-.554-2.792-1.387-3.568.833-.698 1.387-1.783 1.387-3.49.093-1.706-.554-2.791-1.387-3.567.833-.698 1.387-1.784 1.387-3.413.093-1.706-.554-2.792-1.387-3.568.833-.775 1.387-1.861 1.387-3.49.093-1.706-.554-2.791-1.387-3.567.833-.698 1.387-1.862 1.387-3.413.093-1.706-.554-2.87-1.387-3.645.829-.691 1.384-1.777 1.384-3.483Z" fill="#000"/></svg>