<svg width="100" height="100" fill="none" xmlns="http://www.w3.org/2000/svg"><path fill-rule="evenodd" clip-rule="evenodd" d="M26.683 65.086v3.194h-2.448v2.07h-3.67v-2.07h-2.35V44.1c0-3.62.588-4.325 2.068-7.444 1.074-2.25 2.68-2.35 4.693-2.344-.055-2.157.513-4.454 3.222-4.515l19.852-.223c.71-.008 1.342-.01 1.933.368.557-.354 1.16-.372 1.84-.368l19.92.223c2.727.057 3.302 2.341 3.247 4.515 2.421-.014 3.747.042 4.978 2.857 1.492 3.306 1.837 3.454 1.837 7.474v23.639h-2.394v2.07h-3.67v-2.07h-2.404V65.04l-46.656.046h.002Zm46.581-23.263c-.402-.837-1.539-3.016-2.583-2.723-1.313.369-3.146 7.198-3.127 8.573.01.691.543 3.624 1.606 4.178 3.155 1.647 4.028-7.598 4.104-10.028Zm-.205-2.45.16-6.233c.014-.848-.622-1.527-1.509-1.545l-19.906-.223c-.719-.005-1.062-.025-1.067.593l-.226 14.797c.01.782.247 1.205 1.048 1.205h14.98c.134-2.392 2.576-14.303 6.52-8.594Zm.205 9.76c-.639 2.099-2.039 4.986-4.61 3.646-1.258-.62-1.59-1.989-1.898-3.645l-33.544.001c-.295 1.541-.652 2.81-1.81 3.492-2.532 1.631-4.05-1.251-4.717-3.49h-.22v-.004l-.39.276h.001v8.83h-.001l.35.273h47.202l.346-.274-.002-8.829c-.469-.334-.291-.276-.707-.276Zm-46.35-9.477c4.185-5.904 6.857 6.476 6.511 8.31h14.98c.822 0 1.035-.43 1.048-1.22l-.225-14.782c-.01-.641-.383-.6-1.158-.591l-19.846.222c-.858.02-1.497.703-1.477 1.569l.167 6.492Zm-.156 2.488c-.041.202.46 11.633 4.096 9.581 1.042-.588 1.607-3.686 1.613-4.364.012-1.351-1.794-7.97-3.082-8.228-1.463.172-2.1 1.865-2.627 3.011Zm53.248 2.497v21.838h-4.869c0-3.966.2-23.105-.174-25.904l-.76-4.461c2.594 0 3.193-.346 4.123 1.793 1.317 2.925 1.68 3.014 1.68 6.735v-.001Zm-59.992-.543v22.38h4.868c0-3.936-.196-23.203.148-25.904l.732-4.461c-2.083 0-3.112-.24-3.854 1.315-1.305 2.752-1.894 3.469-1.894 6.67Zm6.451 19.186 47.506-.046v-3.621H26.076v3.62c.102.03.236.047.389.047Z" fill="#000"/></svg>