<svg width="100" height="100" fill="none" xmlns="http://www.w3.org/2000/svg"><path d="m14.72 34.337 12.612 2.61.13-5.271c.087-1.116.95-1.564 2.013-1.551l19.725-.058c.65.002 1.136.142 1.546.5.291-.27.815-.508 1.45-.509L72.003 30c.836-.001 1.643.477 1.749 1.387l.455 5.534 12.73-3.248c2.129-.354 3.675 1.577 3.615 3.413l-2.134 33.592H13.492L9.532 38.5c-.813-5.765 4.267-4.164 5.188-4.164v.001Zm36.486-2.37-.367 16.148c.41-.24.977-.386 1.758-.383l20.478.075.059-9.93-.526-6.393c-.05-.288-.41-.324-.644-.34L52.22 31.2c-.975.024-.98.419-1.014.765h-.001Zm-1.231 16.406.373-16.431c-.026-.255-.209-.732-1.136-.732l-19.751.058c-.446 0-.824.028-.858.525a865.344 865.344 0 0 0-.255 16.01l19.523-.072c1.032-.004 1.69.253 2.104.642Zm-22.484-.566.058-9.647-10.07-2.083c2.02 2.271 2.54 7.152 2.606 12.694 1.425-.963 4.38-.952 7.406-.964Zm46.499-9.645-.059 9.65c2.554.024 5.18.064 6.494.99.069-5.798.637-10.882 2.9-13.026l-9.335 2.386Zm-1.186 10.501-20.208-.073c-2.312-.01-1.9 1.714-1.9 2.69v6.8c0 .628.521 1.13 1.15 1.13h27.643c.713 0 1.057-.468 1.076-.735-.058-2.752-.146-5.608-.146-8.347-.24-.499-.683-.819-1.364-1.026-1.264-.384-3.3-.43-6.25-.44l-.001.001Zm8.478 1.238c-.02 1.986.213 7.528.175 8.584.077 3.687.083 7.242-.275 10.186h6.163c.206-3.15 2.13-31.43 2.039-32.01-.476-3.003-3.68-1.662-5.202-.492-2.48 1.91-2.925 7.42-2.9 13.732ZM79.49 60.07H51.846c-.654 0-1.24-.312-1.613-.806-.373.495-.96.806-1.613.806H20.975c-.386 0-.75-.11-1.057-.3-.055 3.31-.034 6.413.277 8.9h60.12c.312-2.491.33-5.604.274-8.927 0 0-.651.328-1.102.328h.002Zm-60.438-1.416c-.181-.593-.085-6.305-.085-7.375 0-.593.084-1.086.263-1.496.023-7.069-.558-13.103-3.953-14.163-2.588-.538-5.11-.938-4.614 2.717l3.836 30.333h4.832c-.353-2.899-.353-6.39-.28-10.017h.001ZM47.87 48.59l-20.208.073c-2.95.011-4.985.055-6.25.44-1.105.336-1.585.971-1.585 2.176v6.8c0 .629.521 1.13 1.149 1.13H48.62c.628 0 1.15-.502 1.15-1.13l.033-7.706c-.003-.799-.234-1.79-1.934-1.784Z" fill="#000"/></svg>