<svg width="73" height="72" fill="none" xmlns="http://www.w3.org/2000/svg"><path d="m7.717 23 58.168.007 5.418 3.673v21.123h-.964l-.741 1.22h-4.165l-.537-1.22H8.416l-.74 1.22H3.51l-.537-1.22h-.95v-21.13L7.718 23Zm.487 18.662 57.371.047-1.415-1.161c-1.387.815-6.187.78-8.438.81-5.29.07-10.59-.12-15.878.03-1.955.056-2.892.163-2.994-1.435-.648.788-1.787 1.181-3.835 1.401-6.358.113-17.708 1.97-23.002-1.06l-1.809 1.368Zm57.788.363v.023L7.725 42v-.018c-.65.41-1.299.72-1.86.76v4.156h61.816v-4.095c-.563-.067-1.13-.378-1.69-.778Zm-60.127.379c1.12-.096 2.713-1.432 3.855-2.313a.848.848 0 0 1-.279-.387c-.12-.421-.18-1.02-.18-1.708 0-.345.043-2.004.222-2.355a8.77 8.77 0 0 1 .443-.621c.028-.07.188-1.078-.259-1.203-.838.595-2.628.451-3.802.436v8.152-.001Zm58.575-2.069c.97.773 2.198 1.977 3.241 2.128v-8.211c-1.06.01-2.503.088-3.314-.444-.506.141-.311.905-.288 1.283.367.511.559.763.629 1.384.136 1.197.197 3.378-.268 3.86ZM5.865 33.914c1.102.018 3.453.15 3.724-.466 1.284-2.624.563-5.432-.914-6.922H6.463a3.85 3.85 0 0 0-.598.764v6.624Zm61.815 0V27.29a3.752 3.752 0 0 0-.598-.766h-1.758c-1.702 1.911-1.952 4.261-1.017 6.771.44.79 3.1.621 3.373.618Zm-1.778-8.412h-1.756c-1.857 2.09-1.919 4.543-.823 7.239-.54.15-.489.578-.44 1.067.283.252.556.525.814.82-.027-.407-.001-.856.351-1.06-1.876-4.816 1.104-7.164 1.104-7.38h1.577a13.08 13.08 0 0 0-.827-.686Zm-1.918-.326 1.466-.013a33.07 33.07 0 0 0-.752-.532h-1.78c-1.871 2.092-1.938 4.552-.84 7.257-.48.134-.51.326-.446 1.001.307.184.603.39.887.614-.016-.38.03-.778.355-.966-1.063-2.729-.785-5.305 1.11-7.361Zm-1.247-.85 1.466-.035-.676-.46h-1.593c-1.914 2.099-1.996 4.58-.886 7.31-.553.155-.497.402-.425 1.23.223.097.44.203.654.316-.021-.391.017-.809.354-1.002-1.062-2.727-.786-5.303 1.106-7.36ZM9.951 33.567c.334.194.374.609.355.999.255-.286.527-.553.815-.8.046-.483.079-.879-.444-1.025 1.096-2.695 1.033-5.149-.823-7.238H7.642a14.58 14.58 0 0 0-.826.683l2.01.002c1.908 2.058 2.19 4.643 1.125 7.379Zm1.173-1.03c.315.183.368.564.356.934.285-.221.581-.426.89-.611.058-.653.025-.84-.45-.972 1.1-2.703 1.031-5.166-.84-7.257H8.866c0-.008-.68.466-.77.532L10 25.158c1.908 2.058 2.19 4.643 1.125 7.38Zm1.243-.852c.326.188.372.588.355.97.215-.118.433-.228.656-.33.081-.81.097-1.036-.428-1.184 1.11-2.729 1.026-5.213-.886-7.31h-2.046l-.677.46 1.9.014c1.909 2.058 2.192 4.642 1.125 7.38h.001Zm1.03-.747c.403.233.378.788.336 1.233.943-.389 2.328-.766 3.364-.793a254.95 254.95 0 0 1 15.117-.313c2.522.018 4.099.562 4.858 1.887.293-1.054 1.252-1.69 4.09-1.698 5.426-.032 10.838.135 16.259.352a10.26 10.26 0 0 1 2.847.62c-.045-.453-.09-1.046.33-1.288-1.016-2.61-.825-5.072.884-7.107h-48.97c1.71 2.036 1.901 4.495.884 7.107h.001Zm24.232 5.473c2.593-.894 23.471-1.28 26.353-.194-.126-.921-2.059-2.383-2.825-2.823-1.106-.637-2.372-.999-3.788-1.112.026-.176-14.934-.365-16.2-.351-4.247.045-3.51 1.552-3.54 4.481Zm26.31.283c-1.338-1.181-25.54-.646-26.281.195l-.035-.031c-.102 4.094-.708 3.938 2.203 3.854 7.224-.204 14.537.44 21.734-.248 1.39-.133 2.293-.319 2.405-.606.197-.316.4-2.693-.026-3.164Zm-53.853-.714c3.69-.701 20.609-1.602 26.866.173.021-1.3-.096-2.546-.765-3.276-.646-.706-1.84-1.104-3.98-1.136-1.102-.011-15.092.122-15.065.313-1.466.117-2.893.522-4.146 1.223-.697.39-2.697 1.884-2.909 2.703Zm26.857.574-.126.048c-1.752-1.359-24.303-1.048-26.792-.13-.096.887-.178 2.3.062 3.027.943 2.454 18.995 1.122 22.873 1.18 1.923-.208 2.928-.553 3.43-1.238.498-.676.53-1.917.553-2.888Zm27.305-12.722c1.42.963 3.233 2.205 3.815 3.314l.024.094v19.657h2.31V27.154l-4.9-3.323h-1.25ZM5.457 46.897l.024-19.751c.581-1.11 2.395-2.352 3.814-3.315H8.092L2.93 27.162v19.736h2.527Z" fill="#000"/></svg>