<svg width="60" height="60" fill="none" xmlns="http://www.w3.org/2000/svg"><path fill="#DADDE7" d="M12.188 32.812v-3.75h35.625v3.75z"/><path d="M53.952 19.688a4.167 4.167 0 0 0-2.39.746V18.75a4.693 4.693 0 0 0-4.687-4.688h-33.75a4.693 4.693 0 0 0-4.688 4.688v1.684a4.178 4.178 0 0 0-6.562 3.426v.021c0 .422.064.842.19 1.245l3.718 11.897a4.666 4.666 0 0 0 4.36 3.287l-.755 4.536a.937.937 0 0 0 .925 1.092h1.874a.938.938 0 0 0 .78-.418l3.472-5.208h27.122l3.471 5.208a.939.939 0 0 0 .78.417h1.876a.938.938 0 0 0 .924-1.091l-.756-4.536a4.665 4.665 0 0 0 4.361-3.287l3.718-11.897c.126-.403.19-.823.19-1.245v-.02a4.178 4.178 0 0 0-4.173-4.174Zm-40.827-3.75h33.75a2.816 2.816 0 0 1 2.813 2.812v4.78l-1.618 5.258a3.747 3.747 0 0 0-3.07-1.6H32.812A3.742 3.742 0 0 0 30 28.46a3.742 3.742 0 0 0-2.813-1.273H15a3.747 3.747 0 0 0-3.07 1.6l-1.617-5.257v-4.78a2.816 2.816 0 0 1 2.812-2.813Zm15.938 15.937H13.124v-.938A1.877 1.877 0 0 1 15 29.063h12.188a1.877 1.877 0 0 1 1.875 1.875v.938Zm17.812 0H30.937v-.938a1.877 1.877 0 0 1 1.875-1.875H45a1.877 1.877 0 0 1 1.875 1.875v.938Zm-35.19 12.188h-.266l.625-3.75h2.142l-2.5 3.75Zm36.63 0-2.5-3.75h2.14l.626 3.75h-.267ZM56.25 23.88c0 .233-.035.464-.105.686l-3.718 11.897a2.8 2.8 0 0 1-2.684 1.974H10.257a2.8 2.8 0 0 1-2.684-1.974L3.854 24.567a2.295 2.295 0 0 1-.105-.686v-.02a2.298 2.298 0 0 1 4.494-.676l3.047 9.903a.937.937 0 0 0 .896.662h35.626a.938.938 0 0 0 .895-.662l3.048-9.903a2.298 2.298 0 0 1 4.494.675v.021Z" fill="#343B4C"/><path d="M17.813 20.625h-1.875V22.5h1.874v-1.875Zm6.562 0H22.5V22.5h1.875v-1.875Zm6.563 0h-1.875V22.5h1.875v-1.875Zm6.562 0h-1.875V22.5H37.5v-1.875Zm6.563 0h-1.876V22.5h1.876v-1.875Z" fill="#343B4C"/></svg>