<svg width="25" height="24" viewBox="0 0 25 24" fill="none" xmlns="http://www.w3.org/2000/svg">
<path d="M20.6483 11.9518C20.9204 11.9518 21.1813 12.0599 21.3739 12.2524C21.5662 12.4448 21.6743 12.7058 21.6743 12.9778C21.6743 13.7943 21.3501 14.5773 20.7728 15.1545C20.1954 15.7318 19.4126 16.0562 18.5961 16.0562H6.43971C5.62326 16.0562 4.84043 15.7318 4.26299 15.1545C3.68574 14.5773 3.36152 13.7943 3.36152 12.9778C3.36152 12.6114 3.55709 12.2726 3.87451 12.0893C4.19193 11.906 4.58309 11.906 4.90048 12.0893C5.2179 12.2727 5.41347 12.6114 5.41347 12.9778V14.0038L19.622 14.004V12.9778C19.622 12.7058 19.7301 12.4448 19.9224 12.2524C20.1149 12.0599 20.3761 11.9518 20.6483 11.9518ZM20.648 10.4126C20.0566 10.4126 19.4833 10.6168 19.0252 10.9907C18.5672 11.3647 18.2524 11.8854 18.1342 12.4648H6.90124C6.73108 11.6261 6.15368 10.9276 5.36205 10.6025C4.57029 10.2774 3.66863 10.3684 2.95813 10.8453C2.2474 11.3221 1.8214 12.122 1.82227 12.9778C1.82227 14.2024 2.30878 15.3769 3.17461 16.2428C3.79436 16.8625 4.57226 17.2879 5.41347 17.4797C5.74749 17.5558 6.0915 17.5951 6.43956 17.5951H18.5959C18.944 17.5951 19.288 17.5558 19.622 17.4797C20.4632 17.2879 21.2411 16.8625 21.8609 16.2428C22.7267 15.3769 23.2132 14.2024 23.2132 12.9778C23.2132 12.2975 22.9431 11.6451 22.4619 11.164C21.9809 10.683 21.3283 10.4126 20.648 10.4126Z" fill="white"/>
<path d="M20.4181 11.6955H18.8789V8.84774C18.8789 8.23545 18.6357 7.64835 18.2027 7.21534C17.7699 6.78232 17.1826 6.53914 16.5703 6.53914H8.46595C7.85366 6.53914 7.26637 6.78231 6.83355 7.21534C6.40053 7.64835 6.15735 8.23545 6.15735 8.84774V11.6955H4.61816V8.84774C4.61816 7.82731 5.02362 6.8487 5.74523 6.12707C6.46668 5.40543 7.44543 5 8.46591 5H16.5703C17.5907 5 18.5695 5.40546 19.2909 6.12707C20.0126 6.8487 20.418 7.82727 20.418 8.84774L20.4181 11.6955Z" fill="white"/>
<path d="M21.4181 19.9063H19.8789C19.8789 19.294 19.6357 18.7068 19.2027 18.2737C18.7699 17.8409 18.1826 17.5976 17.5703 17.5976H7.46595C6.85366 17.5976 6.26637 17.8409 5.83355 18.2737C5.40053 18.7068 5.15735 19.294 5.15735 19.9063H3.61816C3.61816 18.8857 4.02362 17.9071 4.74523 17.1855C5.46668 16.4639 6.44543 16.0586 7.46591 16.0586H17.5703C18.5907 16.0586 19.5695 16.4639 20.2909 17.1855C21.0126 17.9072 21.4181 18.8857 21.4181 19.9063Z" fill="white"/>
</svg>
