<svg width="24" height="24" viewBox="0 0 24 24" fill="none" xmlns="http://www.w3.org/2000/svg">
<path d="M12.0645 9.94141C12.422 9.94141 12.7119 10.231 12.7119 10.5889V12.0652C12.7119 12.423 12.4221 12.7127 12.0645 12.7127C11.7069 12.7127 11.417 12.423 11.417 12.0652V10.5889C11.417 10.231 11.7069 9.94141 12.0645 9.94141Z" fill="#343B4C"/>
<path d="M5.58985 11.0469C5.94737 11.0469 6.23732 11.3365 6.23732 11.6943V14.6533C6.23732 15.0111 5.94753 15.3008 5.58985 15.3008C5.23233 15.3008 4.94238 15.0111 4.94238 14.6533V11.6943C4.94238 11.3365 5.23231 11.0469 5.58985 11.0469Z" fill="#343B4C"/>
<path d="M18.5381 11.041C18.8956 11.041 19.1856 11.3306 19.1856 11.6885V14.6536C19.1856 15.0114 18.8958 15.3011 18.5381 15.3011C18.1806 15.3011 17.8906 15.0114 17.8906 14.6536V11.6885C17.8906 11.3307 18.1806 11.041 18.5381 11.041Z" fill="#343B4C"/>
<path d="M14.7519 15.3453L13.3041 15.1241L12.6506 13.732C12.5439 13.5048 12.3154 13.3594 12.0644 13.3594C11.8135 13.3594 11.585 13.5048 11.4782 13.7318L10.8247 15.124L9.37689 15.3451C9.13694 15.3818 8.93776 15.5492 8.86068 15.7795C8.78361 16.0099 8.84172 16.2632 9.01107 16.4371L10.0776 17.5301L9.82473 19.0815C9.78453 19.3263 9.88795 19.5721 10.0906 19.7151C10.2941 19.858 10.5598 19.8731 10.7769 19.7525L12.0644 19.0413L13.3516 19.7526C13.5675 19.8725 13.834 19.8586 14.038 19.7153C14.2406 19.5724 14.344 19.3264 14.3038 19.0817L14.0509 17.5303L15.1175 16.4372C15.2868 16.2634 15.3451 16.0098 15.2679 15.7797C15.1906 15.5494 14.9916 15.3818 14.7519 15.3453ZM12.896 16.8601C12.7525 17.0075 12.6873 17.2136 12.7204 17.4165L12.8115 17.9749L12.3777 17.7354C12.28 17.6813 12.1723 17.6542 12.0644 17.6542C11.9565 17.6542 11.8488 17.6815 11.751 17.7352L11.3171 17.9747L11.4084 17.4165C11.4416 17.2136 11.3764 17.0074 11.2328 16.8601L10.8181 16.4352L11.362 16.3516C11.5754 16.3194 11.7586 16.1823 11.8503 15.9869L12.0644 15.5311L12.2784 15.9869C12.3701 16.1821 12.5533 16.3194 12.7668 16.3516L13.3107 16.4352L12.896 16.8601Z" fill="#343B4C"/>
<path d="M7.45511 18.5288C6.77211 18.4877 6.23713 17.9237 6.23713 17.244C6.23713 17.1126 6.26302 16.9741 6.31661 16.821C6.38044 16.6375 6.33347 16.4327 6.23186 16.2672C6.12167 16.0876 5.89526 15.9492 5.58968 15.9492C4.16167 15.9492 3 17.1108 3 18.5389C3 19.9672 4.16171 21.1286 5.58968 21.1286C6.68529 21.1286 7.66526 20.4293 8.02794 19.3881C8.09463 19.1964 8.06783 18.9848 7.95523 18.816C7.84248 18.6473 7.65762 18.5408 7.45513 18.5288L7.45511 18.5288ZM5.58966 19.8338C4.87553 19.8338 4.29473 19.2529 4.29473 18.5389C4.29473 18.0552 4.56118 17.633 4.94759 17.4105C5.00766 18.3482 5.57336 19.1561 6.38207 19.557C6.16063 19.7319 5.88336 19.8338 5.58966 19.8338V19.8338Z" fill="#343B4C"/>
<path d="M18.5389 15.9473C17.1109 15.9473 15.9492 17.1088 15.9492 18.5369C15.9492 19.9652 17.1109 21.1266 18.5389 21.1266C19.9669 21.1266 21.1286 19.9651 21.1286 18.5369C21.1286 17.1087 19.9669 15.9473 18.5389 15.9473ZM18.5389 19.8318C17.8248 19.8318 17.244 19.2509 17.244 18.5369C17.244 17.8231 17.8247 17.242 18.5389 17.242C19.2531 17.242 19.8338 17.8229 19.8338 18.5369C19.8338 19.2507 19.2531 19.8318 18.5389 19.8318Z" fill="#343B4C"/>
<path d="M12.0642 3.00004C10.9931 3.00004 10.122 3.87118 10.122 4.94225V5.66933C8.16457 5.83026 6.21007 6.23475 4.26585 6.8828C3.29398 7.20781 2.77268 8.25492 3.09559 9.22348C3.4221 10.203 4.48024 10.7136 5.4357 10.3926C9.83436 8.92574 14.2951 8.92574 18.6922 10.3926C19.6568 10.7162 20.7091 10.1973 21.0335 9.22348C21.3549 8.25974 20.8388 7.20871 19.8635 6.88338C17.9187 6.23487 15.9639 5.83053 14.0066 5.66929V4.94221C14.0066 3.87114 13.1355 3 12.0644 3L12.0642 3.00004ZM11.4167 4.94225C11.4167 4.58502 11.7073 4.29478 12.0642 4.29478C12.4211 4.29478 12.7117 4.58501 12.7117 4.94225V5.60266C12.2801 5.59077 11.8485 5.59077 11.4167 5.60266V4.94225ZM19.4537 8.11118C19.7494 8.21114 19.9001 8.52773 19.8046 8.8136C19.7107 9.09571 19.4 9.26372 19.1028 9.1645C16.7675 8.38547 14.4159 7.99605 12.0643 7.99605C9.71279 7.99605 7.36085 8.38562 5.02548 9.1645C4.73374 9.26115 4.42033 9.10293 4.32414 8.8136C4.22946 8.52939 4.37788 8.21145 4.67519 8.11118C9.57831 6.47727 14.55 6.47727 19.4539 8.11118H19.4537Z" fill="#343B4C"/>
</svg>
