<svg width="25" height="24" viewBox="0 0 25 24" fill="none" xmlns="http://www.w3.org/2000/svg">
<path d="M20.7578 19.4849H19.2094V12.5173C19.2094 12.4489 19.1822 12.3832 19.1338 12.3348C19.0853 12.2864 19.0198 12.2592 18.9512 12.2592H6.56439C6.42182 12.2592 6.30626 12.3747 6.30626 12.5173V19.4849H4.75781V12.5173C4.75781 12.0381 4.94826 11.5788 5.28702 11.24C5.6258 10.9012 6.08516 10.7109 6.56437 10.7109H18.9512C19.4304 10.7109 19.8898 10.9012 20.2286 11.24C20.5673 11.5787 20.7578 12.0381 20.7578 12.5173L20.7578 19.4849Z" fill="white"/>
<path d="M5.53223 15.3555H19.9835V16.9039H5.53223V15.3555Z" fill="white"/>
<path d="M19.2097 11.9999H17.6612V7.35482C17.6612 6.87566 17.471 6.41626 17.1322 6.07747C16.7934 5.73869 16.3341 5.54845 15.8549 5.54845H9.66146C9.1823 5.54845 8.7229 5.73872 8.38411 6.07747C8.04533 6.41624 7.85509 6.87561 7.85509 7.35482V11.9999H6.30664V7.35482C6.30664 6.46502 6.66018 5.61181 7.28929 4.98265C7.91841 4.35354 8.77166 4 9.66146 4H15.8549C16.7447 4 17.5979 4.35354 18.227 4.98265C18.8562 5.61176 19.2097 6.46502 19.2097 7.35482V11.9999Z" fill="white"/>
<path d="M15.5962 12.2583H9.91895V10.452C9.91895 9.43781 10.46 8.50068 11.3383 7.9936C12.2166 7.48651 13.2988 7.48651 14.1771 7.9936C15.0553 8.50068 15.5964 9.43781 15.5964 10.452L15.5962 12.2583ZM11.4672 10.7101H14.0478V10.452C14.0478 9.99095 13.8019 9.56506 13.4027 9.33446C13.0034 9.10405 12.5116 9.10405 12.1124 9.33446C11.7131 9.56505 11.4672 9.99095 11.4672 10.452V10.7101Z" fill="white"/>
</svg>
