<svg width="25" height="24" viewBox="0 0 25 24" fill="none" xmlns="http://www.w3.org/2000/svg">
<path d="M11.499 3.5H13.1442V20.4988H11.499V3.5Z" fill="white"/>
<path d="M8.20898 18.8516H16.4342V20.4967H8.20898V18.8516Z" fill="white"/>
<path d="M13.1442 8.43214H9.03164C8.23164 8.43214 7.46454 8.11447 6.899 7.54876C6.33347 6.98323 6.01562 6.21613 6.01562 5.41632V4.59375H7.66077V5.41632C7.66077 5.77989 7.80516 6.12854 8.0622 6.38558C8.31943 6.64261 8.66807 6.7872 9.03165 6.7872H13.1443L13.1442 8.43214Z" fill="white"/>
<path d="M13.1442 15.0144H9.03164C8.23164 15.0144 7.46454 14.6965 6.899 14.131C6.33347 13.5653 6.01562 12.7982 6.01562 11.9984V11.1758H7.66077V11.9984C7.66077 12.3619 7.80516 12.7106 8.0622 12.9678C8.31943 13.2248 8.66807 13.3692 9.03165 13.3692H13.1443L13.1442 15.0144Z" fill="white"/>
<path d="M15.6116 11.7229H11.499V10.0779H15.6116C15.9752 10.0779 16.3239 9.93352 16.5811 9.67629C16.8381 9.41925 16.9825 9.07061 16.9825 8.70703L18.6277 8.70696C18.6277 9.50676 18.3098 10.2739 17.7443 10.8397C17.1787 11.4052 16.4116 11.7229 15.6116 11.7229Z" fill="white"/>
<path d="M15.5481 8.03252L20.1914 10.7133L21.8266 11.052L21.0443 9.23594C21.5232 8.40649 21.5232 7.38455 21.0443 6.55511C20.5654 5.72567 19.6804 5.21467 18.7226 5.21468C17.7649 5.21469 16.8798 5.72563 16.4009 6.55508L14.2716 6.80176L15.5481 8.03252ZM19.6562 8.71596L17.5456 7.49742L17.6675 7.28631C17.8852 6.90927 18.2874 6.67706 18.7228 6.67699C19.1582 6.67707 19.5604 6.90929 19.7781 7.28626C19.9958 7.66337 19.9958 8.1278 19.7781 8.50484L19.6562 8.71596Z" fill="white"/>
</svg>
