<svg width="60" height="60" fill="none" xmlns="http://www.w3.org/2000/svg"><path fill="#DADDE7" d="m15.754 32.629 6.63-6.63 6.747 6.746-6.63 6.63zm16.121 0 6.63-6.63 6.747 6.746-6.63 6.63zM7.5 49.688h45a3.75 3.75 0 0 1-3.75 3.75h-37.5a3.75 3.75 0 0 1-3.75-3.75Z"/><path d="M38.56 22.295H21.44a9.417 9.417 0 0 0-9.417 9.417v.856a4.51 4.51 0 0 0-.48 0 6.353 6.353 0 0 0-6.37 6.344c.001.579.082 1.155.24 1.712l.617 2.217a9.314 9.314 0 0 0 1.755 3.425 7.704 7.704 0 0 0 5.813 6.686l-2.192 2.191a.856.856 0 0 0-.18.933.856.856 0 0 0 .797.462h5.136a.855.855 0 0 0 .608-.248l3.168-3.176h18.131l3.168 3.176a.857.857 0 0 0 .608.248h5.136a.856.856 0 0 0 .788-.53.857.857 0 0 0-.18-.933l-2.191-2.192a7.645 7.645 0 0 0 5.813-6.686 9.314 9.314 0 0 0 1.763-3.356l.608-2.174a6.351 6.351 0 0 0-6.121-8.099 4.51 4.51 0 0 0-.48 0v-.856a9.417 9.417 0 0 0-9.417-9.417Zm-24.826 9.417a7.705 7.705 0 0 1 7.705-7.705H38.56a7.705 7.705 0 0 1 7.705 7.705v1.25a5.995 5.995 0 0 0-.856.402 6.42 6.42 0 0 0-2.303 2.192L41.18 38.56h-2.937l5.325-5.325a.856.856 0 0 0 0-1.216l-6.052-6.052a.855.855 0 0 0-1.216 0l-6.052 6.052a.857.857 0 0 0-.248.608.855.855 0 0 0 .248.608l5.325 5.325h-11.13l5.325-5.325a.856.856 0 0 0 .249-.608.855.855 0 0 0-.249-.608l-6.052-6.052a.855.855 0 0 0-1.216 0l-6.052 6.052a.855.855 0 0 0 0 1.216l5.307 5.325H18.82l-1.883-3.022a6.37 6.37 0 0 0-3.202-2.569v-1.258Zm24.989 3.946-1.815 1.815-4.845-4.845 1.823-1.772 4.837 4.802Zm-3.587-6.052 1.815-1.824 4.845 4.846-1.815 1.815-4.845-4.837Zm6.558 11.985a.856.856 0 0 1-.728.403h-10.11v-1.721h10.067a.857.857 0 0 1 .86.896.856.856 0 0 1-.132.414l.043.008Zm-16.788-5.933-1.815 1.815-4.846-4.845 1.815-1.772 4.846 4.802Zm-3.63-6.052 1.815-1.824 4.845 4.846-1.823 1.815-4.837-4.837Zm7.867 10.667v1.712H19.076a.856.856 0 0 1-.728-.402.855.855 0 0 1-.043-.856.856.856 0 0 1 .77-.471l10.068.017ZM16.807 54.826h-2.722l1.712-1.712h2.722l-1.712 1.712Zm26.385 0-1.712-1.712h2.722l1.712 1.712h-2.722Zm5.642-5.136a5.992 5.992 0 0 1-4.281 1.712H15.446a5.992 5.992 0 0 1-5.248-3.108 9.348 9.348 0 0 0 4.905 1.396h29.792a9.348 9.348 0 0 0 4.906-1.396c-.254.51-.58.98-.968 1.396Zm-.343-15.41a4.64 4.64 0 0 1 4.469 5.881l-.608 2.175a7.705 7.705 0 0 1-7.456 5.642H15.102a7.704 7.704 0 0 1-7.422-5.642l-.608-2.175a4.88 4.88 0 0 1-.188-1.25 4.64 4.64 0 0 1 8.56-2.448l1.782 2.851a2.568 2.568 0 0 0-.377 3.167 2.569 2.569 0 0 0 2.226 1.216h21.847a2.57 2.57 0 0 0 2.303-3.715 2.568 2.568 0 0 0-.488-.668l1.815-2.85a4.794 4.794 0 0 1 1.712-1.61 4.691 4.691 0 0 1 2.192-.574h.034ZM4.317 18.87h15.41a.856.856 0 0 0 .856-.855V4.317a.856.856 0 0 0-.856-.856H4.317a.856.856 0 0 0-.856.856v13.698a.856.856 0 0 0 .856.856Zm.856-13.697h13.698v11.985H5.173V5.173Z" fill="#343B4C"/><path d="M17.159 6.03H6.885a.856.856 0 0 0-.856.855v8.561a.856.856 0 0 0 .856.856h10.273a.856.856 0 0 0 .857-.856v-8.56a.856.856 0 0 0-.857-.857Zm-.857 8.56h-8.56v-2.037l2.397-1.199 2.131 2.132a.855.855 0 0 0 1.216 0l1.104-1.113 1.712 1.712v.505Zm0-2.92-1.104-1.112a.857.857 0 0 0-1.216 0l-1.104 1.113-1.96-1.97a.856.856 0 0 0-.993-.153L7.74 10.635V7.741h8.561v3.93Zm39.381-8.21h-15.41a.856.856 0 0 0-.856.857v13.698a.856.856 0 0 0 .856.856h15.41a.856.856 0 0 0 .856-.856V4.317a.856.856 0 0 0-.856-.856Zm-.856 13.698H41.129V5.173h13.698v11.985Z" fill="#343B4C"/><path d="M42.842 16.302h10.273a.856.856 0 0 0 .857-.856v-8.56a.856.856 0 0 0-.857-.857H42.843a.856.856 0 0 0-.856.856v8.561a.856.856 0 0 0 .856.856Zm9.417-1.712h-3.304a3.62 3.62 0 0 1-.12-.856 3.424 3.424 0 0 1 3.424-3.424v4.28ZM43.7 7.741h8.56v.857a5.137 5.137 0 0 0-4.117 2.08 5.042 5.042 0 0 0-1.875-.368 5.137 5.137 0 0 0-2.569.702v-3.27Zm0 5.462a3.528 3.528 0 0 1 3.655-.993 5.016 5.016 0 0 0-.154 2.38h-3.502v-1.387ZM22.295 18.87h15.41v-1.712h-3.09l1.377-4.007a.918.918 0 0 0 0-.274V10.31a.856.856 0 0 0-.856-.856c0-1.036-1.267-3.613-1.806-4.674a.856.856 0 0 0-1.208-.338.856.856 0 0 0-.316.338l-.317.642a39.638 39.638 0 0 0-.727-1.498.856.856 0 0 0-1.524 0c-.154.3-.437.856-.728 1.498l-.317-.642a.856.856 0 0 0-1.207-.338.857.857 0 0 0-.317.338c-.539 1.061-1.806 3.638-1.806 4.674a.856.856 0 0 0-.856.856v2.569c.004.09.021.18.051.265l1.327 4.015h-3.09v1.712Zm10.513-1.712h-5.616l-1.139-3.424h7.893l-1.138 3.424Zm-.24-10.016c.375.734.662 1.51.856 2.311h-1.01c.1-.274.152-.564.154-.856-.02-.34-.09-.674-.206-.993l.206-.462ZM30 6.286c.376.733.664 1.51.856 2.311a.856.856 0 0 1-1.712 0c.192-.802.48-1.578.856-2.311Zm-2.569.856.206.462a3.53 3.53 0 0 0-.206.993c.003.292.055.582.155.856h-1.01c.192-.802.479-1.578.855-2.311Zm-1.712 4.023h8.561v.856h-8.56v-.856Z" fill="#343B4C"/></svg>