<svg width="52" height="52" fill="none" xmlns="http://www.w3.org/2000/svg"><path fill="#DADDE7" d="M50.966 24.393H33.248v4.027h17.718zM9.892 13.922H4.254v5.638h5.638z"/><path d="M51.772 25.924a2.77 2.77 0 0 0-2.768-2.767H35.125c-.453 0-.88.11-1.257.303v-2.115c0-1.025-.834-1.86-1.86-1.86H10.58c.018-.07.033-.14.043-.212l.6-4.376a1.526 1.526 0 0 0-1.512-1.733H8.028v-.607h.274a3.353 3.353 0 0 0 3.35-3.35v-.499c0-.708-.577-1.285-1.286-1.285h-.5a3.33 3.33 0 0 0-2.027.687 3.354 3.354 0 0 0-3.16-2.24H3.582c-.708 0-1.285.576-1.285 1.284v1.097A3.353 3.353 0 0 0 5.646 11.6h.872v1.564H4.935a1.525 1.525 0 0 0-1.512 1.733l.6 4.376c.01.072.026.143.043.212H2.087c-1.025 0-1.86.835-1.86 1.86V50.8c0 .554.451 1.004 1.004 1.004h2.183c.52 0 1-.305 1.22-.777L5 50.243h42.074l.285.714a1.34 1.34 0 0 0 1.25.846h2.159c.553 0 1.004-.45 1.004-1.004V29.89c0-.69-.294-1.314-.762-1.752a2.757 2.757 0 0 0 .762-1.904v-.309ZM9.867 8.934h.274v.274a1.84 1.84 0 0 1-1.839 1.838h-.274v-.274a1.84 1.84 0 0 1 1.839-1.839Zm-6.06-.683V7.38h.872a1.84 1.84 0 0 1 1.839 1.839v.872h-.872A1.84 1.84 0 0 1 3.807 8.25Zm1.116 6.429c.005-.006.008-.006.012-.006h4.777c.003 0 .007 0 .011.006.005.005.004.008.004.012l-.6 4.375a.393.393 0 0 1-.388.339H5.907a.393.393 0 0 1-.388-.338l-.6-4.376c0-.004 0-.007.004-.012Zm30.202 9.987h13.88c.693 0 1.257.564 1.257 1.257v.309a1.26 1.26 0 0 1-1.258 1.257H35.125a1.259 1.259 0 0 1-1.257-1.257v-.309c0-.693.564-1.257 1.257-1.257ZM49.373 29a.89.89 0 0 1 .889.889v4.189H36.778a.755.755 0 1 0 0 1.51h13.484v9.806h-1.447a2.583 2.583 0 0 0-1.91-2.321l-.023-.006a24.375 24.375 0 0 1-2.149-.688c-.667-.24-1.296-.466-2.186-.68a17.01 17.01 0 0 0-.585-.129h-.001a.755.755 0 0 0-1.858-.138c-.358.2-.94.438-1.68.44h-.014c-.448 0-.889-.086-1.309-.255a1.096 1.096 0 0 0-1.508 1.014v2.763h-1.724V29h15.505ZM41.39 43.763a.756.756 0 0 0 .921-.54l.007-.025c.376.094.707.192 1.017.294l-.021.083a.755.755 0 0 0 1.448.417c.484.169 1.037.35 1.733.535l.022.005c.412.11.714.452.781.862H37.102V43.21a5.005 5.005 0 0 0 3.507-.337c.077.01.152.022.228.033a.755.755 0 0 0 .553.858Zm-9.032-22.418v24.06H17.803v-24.41h14.205a.35.35 0 0 1 .35.35Zm17.904 28.948H48.72l-.286-.714a1.34 1.34 0 0 0-1.25-.846H4.895c-.52 0-1 .305-1.22.777l-.365.783H1.738v-3.378h2.82a.755.755 0 1 0 0-1.51h-2.82v-24.06a.35.35 0 0 1 .35-.35h14.205v24.41H7.882a.755.755 0 1 0 0 1.51h42.38v3.378Zm-.907-35.566H34.858a.806.806 0 0 1-.805-.805V1.036a.806.806 0 0 1 .805-.806h14.497a.806.806 0 0 1 .805.806v12.886a.806.806 0 0 1-.805.805Zm-.806-12.886H35.663v11.276H48.55V1.84Z" fill="#343B4C"/><path d="M37.275 2.646h9.665a.805.805 0 0 1 .805.806v8.054a.805.805 0 0 1-.805.805h-9.665a.805.805 0 0 1-.805-.805V3.452a.806.806 0 0 1 .805-.806Zm.806 8.054h8.053V8.783L43.88 7.656 41.874 9.66a.805.805 0 0 1-1.144 0l-1.039-1.047-1.61 1.611v.475Zm0-2.746 1.038-1.047a.806.806 0 0 1 1.144 0l1.04 1.047 1.843-1.852a.806.806 0 0 1 .935-.145l2.053 1.022V4.257h-8.053v3.697ZM14.083 29.132a.78.78 0 1 0 0-1.56.78.78 0 0 0 0 1.56Zm5.929 0a.78.78 0 1 0 0-1.56.78.78 0 0 0 0 1.56Z" fill="#343B4C"/></svg>