<svg width="60" height="60" fill="none" xmlns="http://www.w3.org/2000/svg"><path fill="#DADDE7" d="M5.144 41.224v-4.81h16.838v4.81zm17.641.001v-4.811h16.838v4.81zM5.144 18.775l2.806-4.81h11.626l2.406 2.806v2.004H5.144Z"/><path d="M54.803 14.605H39.408a.855.855 0 0 0-.855.856v19.671H19.737v-2.566a.855.855 0 0 0-.855-.855h-2.566v1.71h1.71v1.711h-3.42v-3.421h-1.711v3.421H9.473v-1.71h1.711V31.71H8.618a.855.855 0 0 0-.855.855v2.566H5.197a.855.855 0 0 0-.855.855v18.816c0 .473.383.856.855.856h49.606a.855.855 0 0 0 .855-.856V15.461a.855.855 0 0 0-.855-.856Zm-14.54 1.711h13.685v10.263H40.263V16.316Zm-1.71 23.948H23.158v-3.421h15.395v3.42Zm-32.5-3.421h15.394v3.42H6.052v-3.42Zm0 5.131h15.394v11.974H6.052V41.974Zm17.105 0H30v11.974h-6.842V41.974Zm8.553 0h6.842v11.974H31.71V41.974Zm8.552 11.974V28.29h13.685v25.658H40.263Z" fill="#343B4C"/><path d="M41.974 19.736h1.71v3.421h-1.71v-3.42Zm0 11.974h1.71v3.422h-1.71v-3.421Zm-32.5 6.843a.855.855 0 1 1-1.71 0 .855.855 0 0 1 1.71 0Zm3.42 0a.855.855 0 1 1-1.71 0 .855.855 0 0 1 1.71 0Zm3.423 0a.855.855 0 1 1-1.71 0 .855.855 0 0 1 1.71 0Zm3.42 0a.855.855 0 1 1-1.71 0 .855.855 0 0 1 1.71 0ZM5.197 20.592h17.106a.855.855 0 0 0 .855-.855V17.17a.855.855 0 0 0-.25-.605l-3.422-3.42a.856.856 0 0 0-.605-.251h-.855V5.197a.855.855 0 0 0-.855-.855h-6.842a.855.855 0 0 0-.856.855v7.698h-.855a.856.856 0 0 0-.605.25l-3.42 3.421a.856.856 0 0 0-.251.605v2.566c0 .472.383.855.855.855Zm5.987-14.54h5.132v6.843h-5.132V6.052ZM6.052 17.525l2.92-2.92h9.555l2.92 2.92v1.357H6.052v-1.357Zm12.83 26.159H8.62a.855.855 0 0 0-.855.855v6.842c0 .472.383.855.855.855h10.263a.855.855 0 0 0 .855-.855V44.54a.855.855 0 0 0-.855-.855Zm-.855 6.842H9.474v-5.132h8.553v5.132Zm11.118-12.829h3.42v1.71h-3.42v-1.71Zm-2.567 8.553h1.71v3.421h-1.71V46.25Zm6.844 0h1.71v3.421h-1.71V46.25Zm-8.554-20.526H30a.855.855 0 0 0 .855-.856v-.855a3.42 3.42 0 0 0-2.566-3.3V4.343h-1.71v16.372a3.42 3.42 0 0 0-2.566 3.3v.854c0 .473.383.856.855.856Zm2.566-3.421c.944 0 1.71.765 1.71 1.71h-3.42c0-.945.765-1.71 1.71-1.71Z" fill="#343B4C"/><path d="M30.855 18.881h5.132a.855.855 0 0 0 .855-.855v-.855a3.42 3.42 0 0 0-2.566-3.3v-9.53h-1.71v9.53a3.42 3.42 0 0 0-2.566 3.3v.855c0 .473.383.855.855.855Zm2.566-3.42c.945 0 1.71.765 1.71 1.71h-3.42c0-.945.766-1.71 1.71-1.71Z" fill="#343B4C"/></svg>