<svg width="25" height="24" viewBox="0 0 25 24" fill="none" xmlns="http://www.w3.org/2000/svg">
<path d="M18.0913 5.6001C18.3742 5.6001 18.6454 5.71245 18.8456 5.91241C19.0455 6.11256 19.1579 6.38376 19.1579 6.6667V18.4H6.35788V6.6667C6.35788 6.38377 6.47023 6.11255 6.67019 5.91241C6.87034 5.71245 7.14155 5.6001 7.42448 5.6001H18.0911M18.0911 4H7.42448C6.71724 4 6.03886 4.28088 5.53886 4.78105C5.03867 5.28105 4.75781 5.95943 4.75781 6.66667V20H20.7578V6.66667C20.7578 5.95943 20.4769 5.28105 19.9768 4.78105C19.4768 4.28086 18.7984 4 18.0911 4Z" fill="white"/>
<path d="M9.75781 8C9.75781 8.55219 9.31002 9 8.75781 9C8.20561 9 7.75781 8.55221 7.75781 8C7.75781 7.44779 8.20561 7 8.75781 7C9.31002 7 9.75781 7.44779 9.75781 8Z" fill="white"/>
<path d="M13.7578 8C13.7578 8.55219 13.31 9 12.7578 9C12.2056 9 11.7578 8.55221 11.7578 8C11.7578 7.44779 12.2056 7 12.7578 7C13.31 7 13.7578 7.44779 13.7578 8Z" fill="white"/>
<path d="M17.7578 8C17.7578 8.55219 17.31 9 16.7578 9C16.2056 9 15.7578 8.55221 15.7578 8C15.7578 7.44779 16.2056 7 16.7578 7C17.31 7 17.7578 7.44779 17.7578 8Z" fill="white"/>
<path d="M17.2913 16.5328H8.22461V10.1328H17.2913V16.5328ZM9.82461 14.9329H15.6913V11.7328H9.82461V14.9329Z" fill="white"/>
</svg>
