<svg width="25" height="24" viewBox="0 0 25 24" fill="none" xmlns="http://www.w3.org/2000/svg">
<path d="M12.8223 9.94141C13.1798 9.94141 13.4697 10.231 13.4697 10.5889V12.0652C13.4697 12.423 13.18 12.7127 12.8223 12.7127C12.4647 12.7127 12.1748 12.423 12.1748 12.0652V10.5889C12.1748 10.231 12.4647 9.94141 12.8223 9.94141Z" fill="white"/>
<path d="M6.34766 11.0469C6.70519 11.0469 6.99513 11.3365 6.99513 11.6943V14.6533C6.99513 15.0111 6.70535 15.3008 6.34766 15.3008C5.99014 15.3008 5.7002 15.0111 5.7002 14.6533V11.6943C5.7002 11.3365 5.99013 11.0469 6.34766 11.0469Z" fill="white"/>
<path d="M19.2959 11.043C19.6534 11.043 19.9434 11.3326 19.9434 11.6904V14.6555C19.9434 15.0134 19.6536 15.303 19.2959 15.303C18.9384 15.303 18.6484 15.0134 18.6484 14.6555V11.6904C18.6484 11.3326 18.9384 11.043 19.2959 11.043Z" fill="white"/>
<path d="M15.5097 15.3453L14.0619 15.1241L13.4084 13.732C13.3017 13.5048 13.0732 13.3594 12.8222 13.3594C12.5713 13.3594 12.3428 13.5048 12.236 13.7318L11.5826 15.124L10.1347 15.3451C9.89475 15.3818 9.69557 15.5492 9.6185 15.7795C9.54142 16.0099 9.59953 16.2632 9.76888 16.4371L10.8354 17.5301L10.5825 19.0815C10.5423 19.3263 10.6458 19.5721 10.8484 19.7151C11.0519 19.858 11.3176 19.8731 11.5347 19.7525L12.8222 19.0413L14.1095 19.7526C14.3253 19.8725 14.5918 19.8586 14.7958 19.7153C14.9984 19.5724 15.1018 19.3264 15.0616 19.0817L14.8087 17.5303L15.8753 16.4372C16.0446 16.2634 16.1029 16.0098 16.0257 15.7797C15.9484 15.5494 15.7494 15.3818 15.5097 15.3453ZM13.6538 16.8601C13.5103 17.0075 13.4451 17.2136 13.4783 17.4165L13.5693 17.9749L13.1355 17.7354C13.0378 17.6813 12.9302 17.6542 12.8222 17.6542C12.7143 17.6542 12.6066 17.6815 12.5088 17.7352L12.0749 17.9747L12.1662 17.4165C12.1994 17.2136 12.1343 17.0074 11.9906 16.8601L11.5759 16.4352L12.1198 16.3516C12.3332 16.3194 12.5164 16.1823 12.6081 15.9869L12.8222 15.5311L13.0363 15.9869C13.1279 16.1821 13.3111 16.3194 13.5246 16.3516L14.0685 16.4352L13.6538 16.8601Z" fill="white"/>
<path d="M8.21292 18.5288C7.52992 18.4877 6.99494 17.9237 6.99494 17.244C6.99494 17.1126 7.02084 16.9741 7.07443 16.821C7.13825 16.6375 7.09129 16.4327 6.98968 16.2672C6.87948 16.0876 6.65307 15.9492 6.34749 15.9492C4.91948 15.9492 3.75781 17.1108 3.75781 18.5389C3.75781 19.9672 4.91952 21.1286 6.34749 21.1286C7.44311 21.1286 8.42308 20.4293 8.78575 19.3881C8.85244 19.1964 8.82564 18.9848 8.71304 18.816C8.60029 18.6473 8.41543 18.5408 8.21294 18.5288L8.21292 18.5288ZM6.34748 19.8338C5.63334 19.8338 5.05254 19.2529 5.05254 18.5389C5.05254 18.0552 5.31899 17.633 5.7054 17.4105C5.76547 18.3482 6.33118 19.1561 7.13988 19.557C6.91844 19.7319 6.64117 19.8338 6.34748 19.8338V19.8338Z" fill="white"/>
<path d="M19.2967 15.9492C17.8687 15.9492 16.707 17.1108 16.707 18.5389C16.707 19.9672 17.8687 21.1286 19.2967 21.1286C20.7247 21.1286 21.8864 19.967 21.8864 18.5389C21.8864 17.1106 20.7247 15.9492 19.2967 15.9492ZM19.2967 19.8338C18.5826 19.8338 18.0018 19.2529 18.0018 18.5389C18.0018 17.825 18.5825 17.2439 19.2967 17.2439C20.0109 17.2439 20.5916 17.8248 20.5916 18.5389C20.5916 19.2527 20.0109 19.8338 19.2967 19.8338Z" fill="white"/>
<path d="M12.822 3.00004C11.751 3.00004 10.8798 3.87118 10.8798 4.94225V5.66933C8.92238 5.83026 6.96788 6.23475 5.02367 6.8828C4.05179 7.20781 3.5305 8.25492 3.8534 9.22348C4.17992 10.203 5.23805 10.7136 6.19351 10.3926C10.5922 8.92574 15.0529 8.92574 19.45 10.3926C20.4146 10.7162 21.4669 10.1973 21.7913 9.22348C22.1127 8.25974 21.5967 7.20871 20.6213 6.88338C18.6765 6.23487 16.7217 5.83053 14.7644 5.66929V4.94221C14.7644 3.87114 13.8933 3 12.8222 3L12.822 3.00004ZM12.1746 4.94225C12.1746 4.58502 12.4651 4.29478 12.822 4.29478C13.179 4.29478 13.4695 4.58501 13.4695 4.94225V5.60266C13.0379 5.59077 12.6063 5.59077 12.1746 5.60266V4.94225ZM20.2115 8.11118C20.5072 8.21114 20.6579 8.52773 20.5624 8.8136C20.4685 9.09571 20.1578 9.26372 19.8606 9.1645C17.5253 8.38547 15.1737 7.99605 12.8222 7.99605C10.4706 7.99605 8.11866 8.38562 5.7833 9.1645C5.49156 9.26115 5.17814 9.10293 5.08195 8.8136C4.98727 8.52939 5.1357 8.21145 5.43301 8.11118C10.3361 6.47727 15.3078 6.47727 20.2117 8.11118H20.2115Z" fill="white"/>
</svg>
