<svg width="25" height="24" viewBox="0 0 25 24" fill="none" xmlns="http://www.w3.org/2000/svg">
<path d="M17.6483 11.9518C17.9204 11.9518 18.1813 12.0599 18.3739 12.2524C18.5662 12.4448 18.6743 12.7058 18.6743 12.9778C18.6743 13.7943 18.3501 14.5773 17.7728 15.1545C17.1954 15.7318 16.4126 16.0562 15.5961 16.0562H9.43971C8.62326 16.0562 7.84043 15.7318 7.26299 15.1545C6.68574 14.5773 6.36152 13.7943 6.36152 12.9778C6.36152 12.6114 6.55709 12.2726 6.87451 12.0893C7.19193 11.906 7.58309 11.906 7.90048 12.0893C8.2179 12.2727 8.41347 12.6114 8.41347 12.9778V14.0038L16.622 14.004V12.9778C16.622 12.7058 16.7301 12.4448 16.9224 12.2524C17.1149 12.0599 17.3761 11.9518 17.6483 11.9518ZM17.648 10.4126C17.0566 10.4126 16.4833 10.6168 16.0252 10.9907C15.5672 11.3647 15.2524 11.8854 15.1342 12.4648H9.90124C9.73108 11.6261 9.15368 10.9276 8.36205 10.6025C7.57029 10.2774 6.66863 10.3684 5.95813 10.8453C5.2474 11.3221 4.8214 12.122 4.82227 12.9778C4.82227 14.2024 5.30878 15.3769 6.17461 16.2428C7.04044 17.1086 8.21497 17.5951 9.43956 17.5951H15.5959C16.8205 17.5951 17.9951 17.1086 18.8609 16.2428C19.7267 15.3769 20.2132 14.2024 20.2132 12.9778C20.2132 12.2975 19.943 11.6451 19.4619 11.164C18.9809 10.683 18.3283 10.4126 17.648 10.4126Z" fill="white"/>
<path d="M18.4181 11.6955H16.8789V7.84774C16.8789 7.23545 16.6357 6.64835 16.2027 6.21534C15.7699 5.78232 15.1826 5.53914 14.5703 5.53914H10.466C9.85366 5.53914 9.26637 5.78231 8.83355 6.21534C8.40053 6.64835 8.15735 7.23545 8.15735 7.84774V11.6955H6.61816V7.84774C6.61816 6.82731 7.02362 5.8487 7.74523 5.12707C8.46668 4.40543 9.44543 4 10.4659 4H14.5703C15.5907 4 16.5695 4.40546 17.2909 5.12707C18.0126 5.8487 18.418 6.82727 18.418 7.84774L18.4181 11.6955Z" fill="white"/>
<path d="M18.4181 19.9063H16.8789C16.8789 19.294 16.6357 18.7068 16.2027 18.2737C15.7699 17.8409 15.1826 17.5976 14.5703 17.5976H10.466C9.85366 17.5976 9.26637 17.8409 8.83355 18.2737C8.40053 18.7068 8.15735 19.294 8.15735 19.9063H6.61816C6.61816 18.8857 7.02362 17.9071 7.74523 17.1855C8.46668 16.4639 9.44543 16.0586 10.4659 16.0586H14.5703C15.5907 16.0586 16.5695 16.4639 17.2909 17.1855C18.0126 17.9072 18.418 18.8857 18.418 19.9063H18.4181Z" fill="white"/>
</svg>
