<svg width="60" height="60" fill="none" xmlns="http://www.w3.org/2000/svg"><path fill="#DADDE7" d="M17.14 11.199h14.621v40H17.14zm17.487 32.864h7.615v4.688h-7.615z"/><path d="M58.588 11.86c.474 0 .789-.31.789-.777V7.976c0-.466-.316-.777-.789-.777H.788C.316 7.2 0 7.51 0 7.976v3.107c0 .466.315.777.789.777h1.577v38.838H.79c-.474 0-.789.311-.789.777v3.107c0 .466.315.777.789.777h57.8c.473 0 .788-.31.788-.777v-3.107c0-.466-.316-.776-.789-.776H46.533v-38.84h12.055ZM1.578 8.753H57.8v1.553H1.577V8.753Zm29.181 41.946h-12.62v-38.84h12.62V50.7ZM3.943 11.858h12.62V50.7H3.943V11.86ZM57.8 53.807H1.577v-1.554H57.8v1.554ZM44.955 50.7H32.336V11.86h12.62V50.7Z" fill="#343B4C"/><path d="M14.197 28.95c-.473 0-.789.31-.789.776v3.107c0 .466.316.777.789.777.473 0 .789-.31.789-.777v-3.107c0-.466-.316-.777-.79-.777Zm6.308 4.66c.473 0 .788-.31.788-.777v-3.107c0-.466-.315-.777-.788-.777-.474 0-.79.31-.79.777v3.107c0 .466.316.777.79.777Zm33.162 0c.473 0 .788-.31.788-.777v-3.107c0-.466-.315-.777-.788-.777-.474 0-.79.31-.79.777v3.107c0 .466.316.777.79.777ZM34.704 49.145h7.887c.473 0 .788-.311.788-.777v-3.884c0-.466-.315-.777-.788-.777h-7.887c-.474 0-.789.31-.789.777v3.884c0 .466.316.776.789.776Zm.788-3.884h6.31v2.33h-6.31v-2.33Zm-.788-3.106h7.887c.473 0 .788-.311.788-.777V14.19c0-.466-.315-.777-.788-.777h-7.887c-.474 0-.789.31-.789.777v27.187c0 .466.316.777.789.777Zm.788-27.187h6.31V40.6h-6.31V14.968Z" fill="#343B4C"/><path d="m39.673 23.745-3.155 3.107a.743.743 0 0 0 0 1.087.858.858 0 0 0 .552.233.858.858 0 0 0 .552-.233l3.155-3.107a.743.743 0 0 0 0-1.087.77.77 0 0 0-1.104 0Zm-2.603.544a.721.721 0 0 0 .552-.233l1.577-1.554a.743.743 0 0 0 0-1.087.77.77 0 0 0-1.104 0l-1.577 1.553a.743.743 0 0 0 0 1.088.72.72 0 0 0 .552.233Zm18.893-13.09h1.536v40h-1.536z" fill="#343B4C"/></svg>