<svg width="25" height="24" viewBox="0 0 25 24" fill="none" xmlns="http://www.w3.org/2000/svg">
<path d="M17.919 19H7.59658C6.84378 19 6.12176 18.7008 5.58928 18.1685C5.05698 17.6361 4.75781 16.914 4.75781 16.1612V5.83877C4.75781 5.08597 5.05699 4.36395 5.58928 3.83147C6.12176 3.29917 6.84378 3 7.59658 3H17.919C18.6718 3 19.3939 3.29918 19.9263 3.83147C20.4586 4.36395 20.7578 5.08597 20.7578 5.83877V16.1612C20.7578 16.914 20.4586 17.6361 19.9263 18.1685C19.3939 18.7008 18.6718 19 17.919 19ZM7.59658 4.54855C7.25438 4.54855 6.92622 4.68446 6.6841 4.92639C6.44217 5.1685 6.30627 5.49666 6.30627 5.83887V16.1613C6.30627 16.5035 6.44217 16.8317 6.6841 17.0738C6.92622 17.3157 7.25437 17.4516 7.59658 17.4516H17.919C18.2612 17.4516 18.5894 17.3157 18.8315 17.0738C19.0735 16.8317 19.2094 16.5035 19.2094 16.1613V5.83887C19.2094 5.49667 19.0735 5.16851 18.8315 4.92639C18.5894 4.68446 18.2613 4.54855 17.919 4.54855H7.59658Z" fill="white"/>
<path d="M16.7578 11C16.7578 11.5522 16.3102 12 15.7579 12C15.2054 12 14.7578 11.5522 14.7578 11C14.7578 10.4478 15.2054 10 15.7579 10C16.3102 10 16.7578 10.4478 16.7578 11Z" fill="white"/>
<path d="M11.9834 4.28906H13.5319V18.2244H11.9834V4.28906Z" fill="white"/>
<path d="M10.7578 11C10.7578 11.5522 10.3102 12 9.75769 12C9.20544 12 8.75781 11.5522 8.75781 11C8.75781 10.4478 9.20543 10 9.75769 10C10.3102 10 10.7578 10.4478 10.7578 11Z" fill="white"/>
<path d="M5.75784 19.5C5.75784 18.6716 6.42942 18 7.25784 18H18.2578C19.0863 18 19.7578 18.6716 19.7578 19.5C19.7578 19.6753 19.7578 20 19.7578 20H18.7578C18.7578 19.4477 18.3101 19 17.7578 19H7.75784C7.20556 19 6.75784 19.4477 6.75784 20H5.75781C5.75781 20 5.75784 19.6753 5.75784 19.5Z" fill="white"/>
</svg>
