<svg width="60" height="60" fill="none" xmlns="http://www.w3.org/2000/svg"><g clip-path="url(#a)"><rect x="22.452" y="48.719" width="9.314" height="9.477" rx="4.657" transform="rotate(-90 22.452 48.719)" fill="#DADDE7"/><path fill="#DADDE7" d="M20.369 21.82v-4.885h11.56v4.885zM4.532 25.09v-3.725h7.335v3.725z"/><path d="M10.313 41.25A2.816 2.816 0 0 0 7.5 44.063a2.816 2.816 0 0 0 2.813 2.812 2.816 2.816 0 0 0 2.812-2.813 2.816 2.816 0 0 0-2.813-2.812Zm0 3.75a.938.938 0 1 1 0-1.876.938.938 0 0 1 0 1.876Zm16.877-3.75a2.816 2.816 0 0 0-2.813 2.813 2.816 2.816 0 0 0 2.813 2.812 2.816 2.816 0 0 0 2.812-2.813 2.816 2.816 0 0 0-2.813-2.812Zm0 3.75a.938.938 0 1 1 0-1.876.938.938 0 0 1 0 1.876Z" fill="#343B4C"/><path fill="#DADDE7" d="M41.325 36.192V23.555h12.858v12.637z"/><path d="M34.688 28.125h-2.813v-5.798a2.808 2.808 0 0 0 1.875-2.64 2.816 2.816 0 0 0-2.812-2.812h-9.375a2.816 2.816 0 0 0-2.813 2.813c0 1.22.787 2.25 1.875 2.639v5.798H11.25v-2.048a2.808 2.808 0 0 0 1.875-2.64 2.816 2.816 0 0 0-2.812-2.812h-3.75a2.816 2.816 0 0 0-2.813 2.813c0 1.22.786 2.25 1.875 2.639v2.048H2.813A2.816 2.816 0 0 0 0 30.938v13.125a2.816 2.816 0 0 0 2.813 2.812h1.579c1.056 2.213 3.309 3.75 5.92 3.75 2.611 0 4.864-1.537 5.92-3.75h5.035c1.056 2.213 3.309 3.75 5.92 3.75 2.612 0 4.865-1.537 5.92-3.75h1.58a2.816 2.816 0 0 0 2.813-2.812V30.938a2.816 2.816 0 0 0-2.812-2.813ZM21.563 18.75h9.375a.938.938 0 0 1 0 1.875h-9.375a.938.938 0 0 1 0-1.875Zm.937 3.75H30v5.625h-7.5V22.5Zm-15.937 0h3.75a.938.938 0 0 1 0 1.875h-3.75a.938.938 0 0 1 0-1.875Zm.937 3.75h1.875v1.875H7.5V26.25Zm2.813 22.5a4.693 4.693 0 0 1-4.688-4.687 4.693 4.693 0 0 1 4.688-4.688A4.693 4.693 0 0 1 15 44.063a4.693 4.693 0 0 1-4.687 4.687Zm16.875 0a4.693 4.693 0 0 1-4.688-4.687 4.693 4.693 0 0 1 4.688-4.688 4.693 4.693 0 0 1 4.687 4.688 4.693 4.693 0 0 1-4.687 4.687Zm8.437-4.687c0 .517-.42.937-.937.937h-1.013c.044-.306.075-.617.075-.937a6.571 6.571 0 0 0-6.562-6.563 6.571 6.571 0 0 0-6.563 6.563c0 .32.031.631.075.937h-3.9a6.57 6.57 0 0 0 .075-.937 6.571 6.571 0 0 0-6.562-6.563 6.571 6.571 0 0 0-6.563 6.563c0 .32.031.631.075.937H2.813a.938.938 0 0 1-.938-.937V30.938c0-.518.42-.938.938-.938h31.875c.517 0 .938.42.938.938v13.125Zm23.44-8.438h-3.75v-11.25h2.812a.937.937 0 0 0 .938-.937V10.313a.937.937 0 0 0-.938-.938H45.002a.937.937 0 0 0-.938.938V22.5h-2.812a.936.936 0 0 0-.938.938v13.125c0 .518.42.937.938.937h3.75v12.188c0 .518.419.938.938.938h13.125a.937.937 0 0 0 .937-.938V36.563a.937.937 0 0 0-.937-.938ZM45.94 11.25h11.25V22.5H45.94V11.25Zm-3.75 13.125h11.25v11.25H42.19v-11.25Zm15.937 24.376h-11.25V37.5h11.25v11.25Z" fill="#343B4C"/><path d="M51.565 13.125a3.754 3.754 0 0 0-3.75 3.75 3.754 3.754 0 0 0 3.75 3.75 3.754 3.754 0 0 0 3.75-3.75 3.754 3.754 0 0 0-3.75-3.75Zm0 5.625a1.877 1.877 0 0 1-1.875-1.875c0-1.034.84-1.875 1.875-1.875 1.032 0 1.875.84 1.875 1.875a1.878 1.878 0 0 1-1.875 1.875Zm-.002 14.063v-5.626a.937.937 0 0 0-.938-.937H45a.937.937 0 0 0-.938.938v5.625c0 .518.42.937.938.937h5.625a.937.937 0 0 0 .938-.937Zm-1.875-.938h-3.75v-3.75h3.75v3.75Zm2.008 7.954-2.812 4.687a.938.938 0 0 0 .803 1.42h5.643a.936.936 0 0 0 .702-1.56l-2.728-4.546c-.339-.565-1.269-.565-1.608-.001Zm-.352 4.233 1.156-1.929 1.156 1.929h-2.312Z" fill="#343B4C"/></g><defs><clipPath id="a"><path fill="#fff" d="M0 0h60v60H0z"/></clipPath></defs></svg>