<svg width="25" height="24" viewBox="0 0 25 24" fill="none" xmlns="http://www.w3.org/2000/svg">
<path d="M18.7401 18.8058H17.0949V5.91939C17.0949 5.84652 17.0661 5.77691 17.0146 5.72546C16.9632 5.67402 16.8935 5.64514 16.8209 5.64514H8.04716C7.89589 5.64514 7.7731 5.76792 7.7731 5.9194V18.8058H6.12793V5.9194C6.12793 5.41031 6.33008 4.92222 6.69 4.56226C7.04993 4.20232 7.53819 4 8.04713 4H16.8208C17.3298 4 17.818 4.20234 18.178 4.56226C18.5379 4.9222 18.74 5.41026 18.74 5.9194L18.7401 18.8058Z" fill="white"/>
<path d="M13.5312 21.0006C13.4272 21.0008 13.3239 20.9812 13.2269 20.943L6.97861 18.4424L7.59003 16.9153L12.7088 18.9634V8.66259L6.97852 6.37869L7.58993 4.85156L13.8383 7.34933C13.9909 7.41072 14.1215 7.51629 14.2133 7.65265C14.3051 7.78901 14.3541 7.94986 14.3537 8.11414V20.178C14.3537 20.396 14.2671 20.6053 14.1129 20.7596C13.9586 20.9137 13.7493 21.0006 13.5311 21.0006L13.5312 21.0006Z" fill="white"/>
<path d="M8.04725 17.9827V17.1602H3.93457V18.8053H10.1036L8.04725 17.9827Z" fill="white"/>
<path d="M13.5303 17.1602H20.9331V18.8053H13.5303V17.1602Z" fill="white"/>
</svg>
