<svg width="60" height="60" fill="none" xmlns="http://www.w3.org/2000/svg"><path d="M9.375 46.875a4.688 4.688 0 0 1 4.688-4.688h31.874a4.688 4.688 0 0 1 4.688 4.688H9.375Zm8.939-26.685 4.252-4.253 4.328 4.327-4.253 4.253zM.938 30h9.374L7.97 35.625H.937V30Zm58.125 0h-9.376l2.344 5.625h7.032V30ZM33.75 20.19l4.252-4.253 4.328 4.327-4.253 4.253z" fill="#DADDE7"/><path d="M59.12 23.483h-4.76l.003-.06v-4.755H56.3a.89.89 0 0 0 .869-1.025l-.94-5.636a.88.88 0 0 0-.868-.736h-3.757a.88.88 0 0 0-.869.736l-.94 5.636a.89.89 0 0 0 .87 1.025h1.937v4.756c0 .02.001.04.003.059h-4.412s-.406-1.297-.406-1.35v-9.981a2.762 2.762 0 0 0-2.759-2.76H14.971a2.762 2.762 0 0 0-2.76 2.76V22.19c0 .04-.405 1.292-.405 1.292H7.394l.003-.06v-4.755h1.938a.89.89 0 0 0 .868-1.025l-.94-5.636a.88.88 0 0 0-.868-.736H4.638a.88.88 0 0 0-.869.736l-.939 5.636a.89.89 0 0 0 .869 1.025h1.937v4.756c0 .02.002.04.003.059H.88a.88.88 0 0 0-.881.88v11.272c0 .487.394.88.88.88h6.326l-.58 1.645a.885.885 0 0 0-.05.293v7.515c0 .768.96 1.166 1.503.623l.375-.376v.692c0 .487.394.88.88.88h.999v1.938c0 .487.394.88.88.88h37.574a.88.88 0 0 0 .88-.88v-1.937h.998a.88.88 0 0 0 .881-.88v-.693l.375.375c.544.544 1.504.144 1.504-.622v-7.515c0-.098-.017-.2-.05-.293l-.58-1.644h6.324a.88.88 0 0 0 .881-.88V24.362a.88.88 0 0 0-.88-.88Zm-7.415-6.576.646-3.875h2.265l.646 3.875h-3.557Zm-37.732-4.755a1 1 0 0 1 .998-.998h30.058a1 1 0 0 1 .998.998v9.452h-1.244c.12-.31.188-.646.188-.998V14.97a2.762 2.762 0 0 0-2.76-2.76h-9.393a2.762 2.762 0 0 0-2.76 2.76v5.636c0 .352.067.688.188.998h-.492c.12-.31.187-.646.187-.998V14.97a2.762 2.762 0 0 0-2.76-2.76h-9.393a2.762 2.762 0 0 0-2.759 2.76v5.636c0 .352.067.688.188.998h-1.245v-9.452Zm27.486 7.006L38.802 16.5a1.822 1.822 0 0 0-2.574 0l-2.657 2.657a1.822 1.822 0 0 0-.115 2.446h-.638a1 1 0 0 1-.998-.998V14.97a1 1 0 0 1 .998-.998h9.393a1 1 0 0 1 .998.998v5.636a1 1 0 0 1-.998.998h-.637a1.822 1.822 0 0 0-.115-2.446Zm-1.246 1.328-2.657 2.657a.06.06 0 0 1-.083 0l-2.657-2.657a.059.059 0 0 1 0-.083l2.657-2.657a.059.059 0 0 1 .042-.017c.015 0 .03.006.041.017l2.657 2.657a.058.058 0 0 1 0 .083Zm-13.784-1.328L23.772 16.5a1.822 1.822 0 0 0-2.574 0l-2.656 2.657a1.822 1.822 0 0 0-.116 2.446h-.637a1 1 0 0 1-.998-.998V14.97a1 1 0 0 1 .998-.998h9.393a1 1 0 0 1 .998.998v5.636a1 1 0 0 1-.998.998h-.637a1.822 1.822 0 0 0-.116-2.446Zm-1.245 1.328-2.657 2.657a.06.06 0 0 1-.083 0l-2.657-2.657a.059.059 0 0 1 0-.083l2.657-2.657a.059.059 0 0 1 .083 0l2.657 2.657a.059.059 0 0 1 0 .083Zm-11.469 2.88h6.305c.049 0 1.178 1.023 1.178 1.023.701.7 1.874.7 2.574 0l1.026-1.026 10.407.002 1.023 1.024c.7.7 1.873.7 2.574 0l1.023-1.024h6.46l1.057 2.994H12.658l1.057-2.994Zm-8.977-6.459.646-3.875H7.65l.646 3.875H4.738Zm-2.977 8.337h9.423l-1.367 3.875H1.76v-3.875Zm6.067 9.51H1.76V30.88h7.434l-1.367 3.875Zm40.078 14.09H12.094v-1.056h35.812v1.057Zm1.879-4.168v1.35h-39.57v-1.408c0-.052 1.363-1.527 1.363-1.527h36.844l1.386 1.386a.879.879 0 0 0-.023.2Zm1.878-.834-2.254-2.254a.88.88 0 0 0-.622-.258H11.213a.881.881 0 0 0-.622.258l-2.254 2.254v-4.508H42.21a.88.88 0 1 0 0-1.761H8.701l3.336-9.453h35.926l3.337 9.453h-6.27a.88.88 0 1 0 0 1.76h6.633v4.509Zm6.576-9.087h-6.066l-1.368-3.875h7.434v3.875Zm0-5.637h-8.056l-1.367-3.874h9.423v3.875Z" fill="#343B4C"/><path d="M54.422 26.3h-1.878a.88.88 0 1 0 0 1.762h1.878a.88.88 0 1 0 0-1.761Zm-46.966 0h-1.88a.88.88 0 1 0 .001 1.762h1.879a.88.88 0 1 0 0-1.761Z" fill="#343B4C"/></svg>