<svg width="823" height="897" viewBox="0 0 823 897" fill="none" xmlns="http://www.w3.org/2000/svg">
<path opacity="0.05" d="M820.603 201.709C873.187 980.021 -131.547 1190.36 14.5299 385.24C16.9705 374.687 29.1754 345.666 58.4705 314.006C87.7656 282.345 90.2069 295.537 87.7656 306.091C-50.4589 950.801 360.53 900.428 523.937 682.508C526.126 679.589 527.964 676.431 529.496 673.12L534.517 662.269C1024.94 -171.731 -40.0066 -69.3137 333.048 750.323C341.909 769.791 331.586 793.674 310.787 798.668C295.931 802.236 280.262 794.783 273.53 781.067C-56.7209 108.189 653.554 -227.493 812.821 171.523L818.283 189.227C819.52 193.238 820.32 197.522 820.603 201.709Z" fill="white"/>
</svg>
