<svg width="65" height="64" viewBox="0 0 65 64" fill="none" xmlns="http://www.w3.org/2000/svg">
<g clip-path="url(#clip0_1408_118731)">
<path d="M10.7168 50C10.7168 47.2386 12.9554 45 15.7168 45H49.7168C52.4782 45 54.7168 47.2386 54.7168 50H10.7168Z" fill="#E1E2E5"/>
<rect x="20.252" y="21.5352" width="6.41534" height="6.52765" transform="rotate(-45 20.252 21.5352)" fill="#E1E2E5"/>
<path d="M1.7168 32H11.7168L9.2168 38H1.7168L1.7168 32Z" fill="#E1E2E5"/>
<path d="M63.7168 32H53.7168L56.2168 38H63.7168V32Z" fill="#E1E2E5"/>
<rect x="36.7168" y="21.5352" width="6.41534" height="6.52765" transform="rotate(-45 36.7168 21.5352)" fill="#E1E2E5"/>
<path d="M63.7774 25.0488H58.7019C58.7033 25.028 58.705 25.0073 58.705 24.9862V19.9138H60.7715C61.3429 19.9138 61.7922 19.384 61.698 18.82L60.696 12.8083C60.6205 12.3553 60.2287 12.0234 59.7694 12.0234H55.7618C55.3027 12.0234 54.9108 12.3553 54.8353 12.8083L53.8333 18.82C53.7394 19.384 54.1887 19.9138 54.7598 19.9138H56.8263V24.9862C56.8263 25.0073 56.828 25.028 56.8294 25.0488H52.1237C52.1237 25.0488 51.6912 23.6664 51.6912 23.6085V12.9628C51.6912 11.3399 50.3708 10.0195 48.7479 10.0195H16.6855C15.0627 10.0195 13.7423 11.3399 13.7423 12.9628V23.6712C13.7423 23.7139 13.3098 25.0488 13.3098 25.0488H8.60405C8.60542 25.028 8.60717 25.0073 8.60717 24.9862V19.9138H10.6737C11.245 19.9138 11.6943 19.384 11.6002 18.82L10.5982 12.8083C10.5227 12.3553 10.1308 12.0234 9.67155 12.0234H5.66392C5.2048 12.0234 4.81292 12.3553 4.73742 12.8083L3.73542 18.82C3.6413 19.384 4.09067 19.9138 4.66192 19.9138H6.72842V24.9862C6.72842 25.0073 6.73017 25.028 6.73155 25.0488H1.65617C1.1373 25.0488 0.716797 25.4693 0.716797 25.9882V38.0117C0.716797 38.5305 1.1373 38.951 1.65617 38.951H8.40305L7.78392 40.7049C7.74867 40.8037 7.73042 40.9127 7.73042 41.0175V49.0332C7.73042 49.852 8.7543 50.2769 9.33405 49.6974L9.7343 49.2971V50.0352C9.7343 50.554 10.1548 50.9745 10.6737 50.9745H11.7383V53.041C11.7383 53.5599 12.1588 53.9804 12.6777 53.9804H52.7559C53.2748 53.9804 53.6953 53.5599 53.6953 53.041V50.9745H54.7599C55.2788 50.9745 55.6993 50.554 55.6993 50.0352V49.2971L56.0995 49.6973C56.6797 50.277 57.7032 49.8504 57.7032 49.0331V41.0174C57.7032 40.9125 57.6849 40.8035 57.6495 40.7048L57.0305 38.951H63.7774C64.2963 38.951 64.7168 38.5305 64.7168 38.0117V25.9882C64.7168 25.4693 64.2963 25.0488 63.7774 25.0488ZM55.8688 18.0352L56.5577 13.902H58.974L59.6629 18.0352H55.8688ZM15.6209 12.9628C15.6209 12.3758 16.0984 11.8982 16.6855 11.8982H48.748C49.335 11.8982 49.8127 12.3757 49.8127 12.9628V23.045H48.4854C48.614 22.7147 48.6854 22.3558 48.6854 21.9804V15.9687C48.6854 14.3458 47.365 13.0254 45.7422 13.0254H35.7225C34.0997 13.0254 32.7793 14.3458 32.7793 15.9687V21.9804C32.7793 22.3558 32.8507 22.7145 32.9793 23.045H32.4539C32.5825 22.7147 32.6539 22.3558 32.6539 21.9804V15.9687C32.6539 14.3458 31.3335 13.0254 29.7107 13.0254H19.691C18.0682 13.0254 16.7478 14.3458 16.7478 15.9687V21.9804C16.7478 22.3558 16.8192 22.7145 16.9478 23.045H15.6207V12.9628H15.6209ZM44.9392 20.4358L42.1052 17.6017C41.3483 16.8449 40.1168 16.8448 39.3597 17.6018L36.5258 20.4357C35.8127 21.1489 35.772 22.283 36.4028 23.0449H35.7227C35.1357 23.0449 34.658 22.5674 34.658 21.9803V15.9687C34.658 15.3817 35.1355 14.904 35.7227 14.904H45.7423C46.3293 14.904 46.8069 15.3815 46.8069 15.9687V21.9804C46.8069 22.5674 46.3294 23.045 45.7423 23.045H45.0623C45.6929 22.283 45.6523 21.1489 44.9392 20.4358ZM43.6107 21.8527L40.7769 24.6867C40.7524 24.7112 40.7123 24.7108 40.6883 24.6868L37.8543 21.8525C37.8299 21.8283 37.8299 21.7884 37.8543 21.764L40.688 18.9302C40.7003 18.9179 40.7164 18.9119 40.7324 18.9119C40.7485 18.9119 40.7647 18.918 40.7768 18.9302L43.6107 21.7643C43.6352 21.7885 43.6352 21.8284 43.6107 21.8527ZM28.9079 20.4358L26.0739 17.6017C25.3172 16.8449 24.0857 16.8448 23.3284 17.6018L20.4945 20.4357C19.7814 21.1489 19.7408 22.283 20.3715 23.0449H19.6914C19.1044 23.0449 18.6268 22.5674 18.6268 21.9803V15.9687C18.6268 15.3817 19.1043 14.904 19.6914 14.904H29.711C30.298 14.904 30.7757 15.3815 30.7757 15.9687V21.9804C30.7757 22.5674 30.2982 23.045 29.711 23.045H29.031C29.6615 22.283 29.621 21.1489 28.9079 20.4358ZM27.5794 21.8527L24.7457 24.6867C24.7213 24.7112 24.6812 24.7108 24.657 24.6868L21.8232 21.8525C21.7988 21.8283 21.7988 21.7884 21.8232 21.764L24.6569 18.9302C24.6692 18.9179 24.6853 18.9119 24.7013 18.9119C24.7174 18.9119 24.7335 18.918 24.7457 18.9302L27.5795 21.7643C27.6038 21.7885 27.6038 21.8284 27.5794 21.8527ZM15.3463 24.9235H22.071C22.1232 24.9235 23.3285 26.0152 23.3285 26.0152C24.0758 26.7624 25.3268 26.762 26.074 26.015L27.1674 24.9217C27.1803 24.9222 38.2683 24.9237 38.2683 24.9237L39.3598 26.0153C40.107 26.7625 41.358 26.7622 42.1053 26.0152L43.1967 24.9237H50.0874L51.2147 28.1174H14.219L15.3463 24.9235ZM5.77092 18.0352L6.4598 13.902H8.87617L9.56505 18.0352H5.77092ZM2.59542 26.9275H12.6467L11.1879 31.0607H2.59542V26.9275ZM9.06617 37.0723H2.59542V32.9392H10.5249L9.06617 37.0723ZM51.8165 52.1017H13.617V50.9744H51.8167V52.1017H51.8165ZM53.8205 47.6555V49.0958H11.613V47.5929C11.613 47.5383 13.0667 45.9648 13.0667 45.9648H52.3668L53.8454 47.4434C53.8297 47.5115 53.8205 47.5824 53.8205 47.6555ZM55.8244 46.7655L53.4202 44.361C53.2439 44.1849 53.0052 44.086 52.7559 44.086H12.6777C12.4285 44.086 12.1897 44.185 12.0134 44.361L9.60917 46.7655V41.9569H45.7423C46.2612 41.9569 46.6817 41.5364 46.6817 41.0175C46.6817 40.4987 46.2612 40.0782 45.7423 40.0782H9.99742L13.5559 29.9959H51.8777L55.4363 40.0782H48.748C48.2292 40.0782 47.8087 40.4987 47.8087 41.0175C47.8087 41.5364 48.2292 41.9569 48.748 41.9569H55.8244V46.7655ZM62.8382 37.0723H56.3674L54.9087 32.9392H62.8382V37.0723ZM62.8382 31.0605H54.2458L52.787 26.9274H62.8382V31.0605Z" fill="#393D4C"/>
<path d="M58.7675 28.0547H56.7636C56.2447 28.0547 55.8242 28.4752 55.8242 28.9941C55.8242 29.5129 56.2447 29.9334 56.7636 29.9334H58.7675C59.2863 29.9334 59.7068 29.5129 59.7068 28.9941C59.7068 28.4752 59.2863 28.0547 58.7675 28.0547Z" fill="#393D4C"/>
<path d="M8.66981 28.0547H6.66594C6.14706 28.0547 5.72656 28.4752 5.72656 28.9941C5.72656 29.5129 6.14706 29.9334 6.66594 29.9334H8.66981C9.18869 29.9334 9.60919 29.5129 9.60919 28.9941C9.60919 28.4752 9.18869 28.0547 8.66981 28.0547Z" fill="#393D4C"/>
</g>
<defs>
<clipPath id="clip0_1408_118731">
<rect width="64" height="64" fill="white" transform="translate(0.716797)"/>
</clipPath>
</defs>
</svg>
