<svg width="65" height="64" viewBox="0 0 65 64" fill="none" xmlns="http://www.w3.org/2000/svg">
<rect x="14.7168" y="36" width="36" height="5" fill="#E1E2E5"/>
<path fill-rule="evenodd" clip-rule="evenodd" d="M18.1388 34.2517H16.4702C15.6037 34.2517 14.7703 34.5972 14.1574 35.2102C13.5854 35.7822 13.2477 36.5433 13.2029 37.3475H12.2231V27.4211H13.0234C13.5876 27.4211 14.1282 27.1968 14.5281 26.7986C14.9263 26.3987 15.1506 25.858 15.1506 25.2939V25.1632C15.1506 24.599 14.9263 24.0583 14.5281 23.6601C14.1282 23.2602 13.5875 23.0354 13.0234 23.0354H9.47102C8.90685 23.0354 8.36621 23.2597 7.96629 23.6601C7.56811 24.0583 7.34375 24.5989 7.34375 25.1632V25.2939C7.34375 25.858 7.56811 26.3987 7.96629 26.7986C8.36622 27.1968 8.90687 27.4211 9.47102 27.4211H10.2713V38.3234C10.2713 38.8618 10.7087 39.2992 11.2472 39.2992H13.2028C13.2477 40.1012 13.5853 40.8645 14.1573 41.4344C14.7703 42.0491 15.6037 42.3928 16.4702 42.3928H31.7405V44.524L18.6929 55.2153C18.2363 54.9187 17.6896 54.7448 17.1023 54.7448C15.4865 54.7448 14.1747 56.0566 14.1747 57.6724C14.1747 59.2882 15.4865 60.6 17.1023 60.6C18.7181 60.6 20.0299 59.2882 20.0299 57.6724C20.0299 57.3544 19.9794 57.0477 19.8853 56.7628L31.7406 47.0473V54.9109C30.6048 55.3147 29.7889 56.3982 29.7889 57.6725C29.7889 59.2883 31.1006 60.6001 32.7164 60.6001C34.3323 60.6001 35.644 59.2883 35.644 57.6725C35.644 56.3982 34.8281 55.3147 33.6923 54.9109V47.0473L45.5476 56.7628C45.454 57.0477 45.403 57.354 45.403 57.6724C45.403 59.2882 46.7148 60.6 48.3306 60.6C49.9464 60.6 51.2582 59.2882 51.2582 57.6724C51.2582 56.0566 49.9464 54.7448 48.3306 54.7448C47.7433 54.7448 47.1966 54.9187 46.74 55.2153L33.6924 44.524V42.3928H48.9627C49.8292 42.3928 50.6626 42.0496 51.2756 41.4344C51.8476 40.8646 52.1852 40.1013 52.2301 39.2992H54.1857C54.7242 39.2992 55.1616 38.8618 55.1616 38.3234V27.4211H55.9619C56.526 27.4211 57.0667 27.1968 57.4666 26.7986C57.8648 26.3987 58.0891 25.858 58.0891 25.2939V25.1632C58.0891 24.599 57.8648 24.0583 57.4666 23.6601C57.0667 23.2602 56.526 23.0354 55.9619 23.0354H52.4095C51.8453 23.0354 51.3047 23.2597 50.9048 23.6601C50.5066 24.0583 50.2822 24.5989 50.2822 25.1632V25.2939C50.2822 25.858 50.5066 26.3987 50.9048 26.7986C51.3047 27.1968 51.8454 27.4211 52.4095 27.4211H53.2098V37.3475H52.23C52.1852 36.5433 51.8475 35.7822 51.2755 35.2102C50.6625 34.5972 49.8291 34.2517 48.9627 34.2517H47.2941L45.6447 8.69195C45.4748 6.05321 43.283 4 40.6386 4H24.794C22.1495 4 19.9578 6.05321 19.7878 8.69195L18.1385 34.2517H18.1388ZM17.8774 57.0791C17.6979 56.8469 17.4169 56.6966 17.1024 56.6966C16.5639 56.6966 16.1265 57.134 16.1265 57.6725C16.1265 58.2109 16.5639 58.6483 17.1024 58.6483C17.6408 58.6483 18.0782 58.2109 18.0782 57.6725C18.0782 57.4577 18.0081 57.2569 17.8887 57.0965C17.8848 57.0909 17.8809 57.0848 17.877 57.0791L17.8774 57.0791ZM47.5436 57.0965C47.4247 57.2564 47.3541 57.4577 47.3541 57.6725C47.3541 58.2109 47.7915 58.6483 48.33 58.6483C48.8684 58.6483 49.3058 58.2109 49.3058 57.6725C49.3058 57.134 48.8684 56.6966 48.33 56.6966C48.0159 56.6966 47.7349 56.8469 47.5549 57.0791C47.551 57.0848 47.5471 57.0909 47.5432 57.0965L47.5436 57.0965ZM32.5131 56.718C32.0722 56.8116 31.7402 57.2042 31.7402 57.6725C31.7402 58.2109 32.1776 58.6483 32.7161 58.6483C33.2546 58.6483 33.692 58.2109 33.692 57.6725C33.692 57.2042 33.36 56.8116 32.9191 56.718C32.8529 56.7315 32.7863 56.7393 32.7161 56.7393C32.646 56.7393 32.5793 56.7315 32.5131 56.718ZM16.4699 36.2037H48.9622C49.3116 36.2037 49.6471 36.3422 49.895 36.5901C50.1429 36.838 50.2814 37.1739 50.2814 37.5228V39.1212C50.2814 39.4724 50.1429 39.8083 49.895 40.054C49.6471 40.3018 49.3112 40.4404 48.9622 40.4404H16.4699C16.1205 40.4404 15.7851 40.3018 15.5372 40.054C15.2893 39.8083 15.1508 39.4724 15.1508 39.1212V37.5228C15.1508 37.1734 15.2893 36.838 15.5372 36.5901C15.7851 36.3422 16.121 36.2037 16.4699 36.2037ZM43.6959 8.81928L45.3375 34.2519H20.0944L21.736 8.81928C21.8393 7.20738 23.1785 5.95225 24.7943 5.95225H40.639C42.2548 5.95225 43.594 7.20738 43.6973 8.81928H43.6959ZM26.8609 30.3485H38.5713C39.1097 30.3485 39.5471 29.9111 39.5471 29.3726C39.5471 28.8342 39.1097 28.3968 38.5713 28.3968H26.8609C26.3224 28.3968 25.885 28.8342 25.885 29.3726C25.885 29.9111 26.3224 30.3485 26.8609 30.3485ZM13.0237 25.4692H9.47138C9.42432 25.4692 9.37945 25.4517 9.34634 25.4186C9.31323 25.3855 9.29581 25.3407 9.29581 25.2936V25.1629C9.29581 25.1159 9.31323 25.071 9.34634 25.04C9.37945 25.0069 9.42432 24.9873 9.47138 24.9873H13.0237C13.0708 24.9873 13.1157 25.0069 13.1488 25.04C13.1819 25.0714 13.1993 25.1163 13.1993 25.1629V25.2936C13.1993 25.3407 13.1819 25.3855 13.1488 25.4186C13.1157 25.4517 13.0708 25.4692 13.0237 25.4692ZM55.9617 25.4692H52.4093C52.3623 25.4692 52.3174 25.4517 52.2843 25.4186C52.2512 25.3855 52.2337 25.3407 52.2337 25.2936V25.1629C52.2337 25.1159 52.2512 25.071 52.2843 25.04C52.3174 25.0069 52.3623 24.9873 52.4093 24.9873H55.9617C56.0087 24.9873 56.0536 25.0069 56.0867 25.04C56.1198 25.0714 56.1372 25.1163 56.1372 25.1629V25.2936C56.1372 25.3407 56.1198 25.3855 56.0867 25.4186C56.0536 25.4517 56.0087 25.4692 55.9617 25.4692ZM26.8609 24.4933H38.5713C39.1097 24.4933 39.5471 24.0559 39.5471 23.5174C39.5471 22.979 39.1097 22.5416 38.5713 22.5416H26.8609C26.3224 22.5416 25.885 22.979 25.885 23.5174C25.885 24.0559 26.3224 24.4933 26.8609 24.4933ZM26.8609 18.6381H38.5713C39.1097 18.6381 39.5471 18.2007 39.5471 17.6623C39.5471 17.1238 39.1097 16.6864 38.5713 16.6864H26.8609C26.3224 16.6864 25.885 17.1238 25.885 17.6623C25.885 18.2007 26.3224 18.6381 26.8609 18.6381ZM26.8609 12.783H38.5713C39.1097 12.783 39.5471 12.3456 39.5471 11.8071C39.5471 11.2686 39.1097 10.8312 38.5713 10.8312H26.8609C26.3224 10.8312 25.885 11.2686 25.885 11.8071C25.885 12.3456 26.3224 12.783 26.8609 12.783Z" fill="#393D4C"/>
</svg>
