<svg width="65" height="64" viewBox="0 0 65 64" fill="none" xmlns="http://www.w3.org/2000/svg">
<g clip-path="url(#clip0_1408_118775)">
<rect x="1.7168" y="46" width="6" height="21" transform="rotate(-90 1.7168 46)" fill="#E1E2E5"/>
<rect x="23.7168" y="46" width="6" height="21" transform="rotate(-90 23.7168 46)" fill="#E1E2E5"/>
<path d="M1.7168 18L5.2168 12L19.7168 12L22.7168 15.5L22.7168 18L1.7168 18Z" fill="#E1E2E5"/>
<path d="M63.6501 12.8008H44.4501C43.8611 12.8008 43.3835 13.2784 43.3835 13.8674V38.4008H19.9168V35.2008C19.9168 34.6117 19.4392 34.1341 18.8501 34.1341H15.6501V36.2674H17.7835V38.4008H13.5168V34.1341H11.3835V38.4008H7.1168V36.2674H9.25013V34.1341H6.05013C5.46107 34.1341 4.98346 34.6117 4.98346 35.2008V38.4008H1.78346C1.1944 38.4008 0.716797 38.8784 0.716797 39.4674V62.9341C0.716797 63.5232 1.1944 64.0008 1.78346 64.0008H63.6501C64.2392 64.0008 64.7168 63.5232 64.7168 62.9341V13.8674C64.7168 13.2784 64.2392 12.8008 63.6501 12.8008ZM45.5168 14.9341H62.5835V27.7341H45.5168V14.9341ZM43.3835 44.8008H24.1835V40.5341H43.3835V44.8008ZM2.85013 40.5341H22.0501V44.8008H2.85013V40.5341ZM2.85013 46.9341H22.0501V61.8675H2.85013V46.9341ZM24.1835 46.9341H32.7168V61.8675H24.1835V46.9341ZM34.8501 46.9341H43.3835V61.8675H34.8501V46.9341ZM45.5168 61.8675V29.8674H62.5835V61.8675H45.5168Z" fill="#393D4C"/>
<path d="M47.6504 19.1992H49.7837V23.4659H47.6504V19.1992Z" fill="#393D4C"/>
<path d="M47.6504 34.1328H49.7837V38.3995H47.6504V34.1328Z" fill="#393D4C"/>
<path d="M7.11771 42.6682C7.11771 43.2573 6.6401 43.7349 6.05104 43.7349C5.46198 43.7349 4.98438 43.2573 4.98438 42.6682C4.98438 42.0792 5.46198 41.6016 6.05104 41.6016C6.6401 41.6016 7.11771 42.0792 7.11771 42.6682Z" fill="#393D4C"/>
<path d="M11.3833 42.6682C11.3833 43.2573 10.9057 43.7349 10.3167 43.7349C9.7276 43.7349 9.25 43.2573 9.25 42.6682C9.25 42.0792 9.7276 41.6016 10.3167 41.6016C10.9057 41.6016 11.3833 42.0792 11.3833 42.6682Z" fill="#393D4C"/>
<path d="M15.6509 42.6682C15.6509 43.2573 15.1733 43.7349 14.5842 43.7349C13.9952 43.7349 13.5176 43.2573 13.5176 42.6682C13.5176 42.0792 13.9952 41.6016 14.5842 41.6016C15.1733 41.6016 15.6509 42.0792 15.6509 42.6682Z" fill="#393D4C"/>
<path d="M19.9165 42.6682C19.9165 43.2573 19.4389 43.7349 18.8499 43.7349C18.2608 43.7349 17.7832 43.2573 17.7832 42.6682C17.7832 42.0792 18.2608 41.6016 18.8499 41.6016C19.4389 41.6016 19.9165 42.0792 19.9165 42.6682Z" fill="#393D4C"/>
<path d="M1.78346 20.2667H23.1168C23.7059 20.2667 24.1835 19.7891 24.1835 19.2V16C24.1835 15.7172 24.071 15.4458 23.871 15.2458L19.6043 10.9792C19.4043 10.7792 19.1329 10.6667 18.8501 10.6667H17.7835V1.06667C17.7835 0.477604 17.3059 0 16.7168 0H8.18346C7.5944 0 7.1168 0.477604 7.1168 1.06667V10.6667H6.05013C5.76732 10.6667 5.49596 10.7792 5.29596 10.9792L1.0293 15.2458C0.829297 15.4458 0.716797 15.7172 0.716797 16V19.2C0.716797 19.7891 1.1944 20.2667 1.78346 20.2667ZM9.25013 2.13333H15.6501V10.6667H9.25013V2.13333ZM2.85013 16.4417L6.4918 12.8H18.4085L22.0501 16.4417V18.1333H2.85013V16.4417Z" fill="#393D4C"/>
<path d="M18.851 49.0664H6.05104C5.46198 49.0664 4.98438 49.544 4.98438 50.1331V58.6664C4.98438 59.2555 5.46198 59.7331 6.05104 59.7331H18.851C19.4401 59.7331 19.9177 59.2555 19.9177 58.6664V50.1331C19.9177 49.544 19.4401 49.0664 18.851 49.0664ZM17.7844 57.5997H7.11771V51.1997H17.7844V57.5997Z" fill="#393D4C"/>
<path d="M31.6504 41.6016H35.9171V43.7349H31.6504V41.6016Z" fill="#393D4C"/>
<path d="M28.4492 52.2656H30.5826V56.5323H28.4492V52.2656Z" fill="#393D4C"/>
<path d="M36.9844 52.2656H39.1177V56.5323H36.9844V52.2656Z" fill="#393D4C"/>
<path d="M26.3167 26.6667H32.7167C33.3057 26.6667 33.7833 26.1891 33.7833 25.6V24.5333C33.776 22.5937 32.4615 20.9031 30.5833 20.4182V0H28.45V20.4182C26.5719 20.9031 25.2573 22.5937 25.25 24.5333V25.6C25.25 26.1891 25.7276 26.6667 26.3167 26.6667ZM29.5167 22.4C30.6948 22.4 31.65 23.3552 31.65 24.5333H27.3833C27.3833 23.3552 28.3385 22.4 29.5167 22.4Z" fill="#393D4C"/>
<path d="M33.7835 18.1333H40.1835C40.7725 18.1333 41.2501 17.6557 41.2501 17.0667V16C41.2428 14.0604 39.9283 12.3698 38.0501 11.8849V0H35.9168V11.8849C34.0387 12.3698 32.7241 14.0604 32.7168 16V17.0667C32.7168 17.6557 33.1944 18.1333 33.7835 18.1333ZM36.9835 13.8667C38.1616 13.8667 39.1168 14.8219 39.1168 16H34.8501C34.8501 14.8219 35.8053 13.8667 36.9835 13.8667Z" fill="#393D4C"/>
</g>
<defs>
<clipPath id="clip0_1408_118775">
<rect width="64" height="64" fill="white" transform="translate(0.716797)"/>
</clipPath>
</defs>
</svg>
