<svg width="65" height="64" viewBox="0 0 65 64" fill="none" xmlns="http://www.w3.org/2000/svg">
<g clip-path="url(#clip0_1408_118715)">
<rect x="1.7168" y="30" width="22" height="5" fill="#E1E2E5"/>
<rect x="52.7168" y="17" width="7" height="7" fill="#E1E2E5"/>
<path d="M0.716797 31.9018C0.716797 30.0071 2.25818 28.4657 4.15283 28.4657H21.3862C21.948 28.4657 22.4784 28.6022 22.9472 28.8424V26.2158C22.9472 24.9425 23.9831 23.9066 25.2563 23.9066H51.8625C51.8404 23.8202 51.8213 23.7326 51.8089 23.6424L51.0641 18.2099C50.9898 17.6675 51.1535 17.1199 51.5133 16.7072C51.8731 16.2946 52.3935 16.058 52.941 16.058H55.0314V15.3035H54.6908C52.398 15.3035 50.5328 13.4382 50.5328 11.1453V10.5253C50.5328 9.64553 51.2485 8.92977 52.1283 8.92977H52.7484C53.6943 8.92977 54.5671 9.2479 55.2666 9.78191C55.8359 8.16364 57.3791 7 59.1896 7H60.5516C61.4314 7 62.1471 7.71576 62.1471 8.59552V9.95766C62.1471 12.2504 60.2819 14.1157 57.9891 14.1157H56.9065V16.058H58.8719C59.4194 16.058 59.9397 16.2946 60.2996 16.7072C60.6594 17.1197 60.8231 17.6675 60.7488 18.2098L60.004 23.6426C59.9916 23.7327 59.9725 23.8203 59.9504 23.9067H62.4075C63.6809 23.9066 64.7168 24.9425 64.7168 26.2158V62.7876C64.7168 63.4749 64.1575 64.034 63.4703 64.034H60.7601C60.1136 64.034 59.519 63.6555 59.2452 63.0693L58.7916 62.097H6.55036L6.19586 62.983C5.94061 63.6214 5.33134 64.034 4.64371 64.034H1.96318C1.27592 64.034 0.716667 63.4749 0.716667 62.7876V36.8237C0.716667 35.9665 1.0813 35.1932 1.66305 34.6493C1.07729 34.0328 0.716667 33.2004 0.716667 32.2849V31.9018H0.716797ZM52.7484 10.8048H52.4078V11.1453C52.4078 12.4042 53.4319 13.4284 54.6908 13.4284H55.0314V13.0878C55.0314 11.8291 54.0072 10.8048 52.7484 10.8048ZM60.272 9.95766V8.87502H59.1895C57.9306 8.87502 56.9063 9.89916 56.9063 11.158V12.2407H57.989C59.2479 12.2408 60.272 11.2165 60.272 9.95766ZM58.8865 17.9396C58.8807 17.933 58.8766 17.933 58.8719 17.933H52.9409C52.9362 17.933 52.9322 17.933 52.9263 17.9396C52.9205 17.9463 52.9212 17.9503 52.9218 17.955L53.6665 23.3877C53.6994 23.6273 53.9065 23.8081 54.1483 23.8081H57.6645C57.9063 23.8081 58.1135 23.6273 58.1462 23.3878L58.891 17.955C58.8917 17.9503 58.8922 17.9463 58.8865 17.9396ZM21.3862 30.3408H4.15283C3.29207 30.3408 2.59182 31.041 2.59182 31.9018V32.2849C2.59182 33.1457 3.29219 33.8459 4.15283 33.8459H21.3862C22.2469 33.8459 22.9472 33.1457 22.9472 32.2849V31.9018C22.9473 31.041 22.2469 30.3408 21.3862 30.3408ZM3.69458 35.721C3.08657 35.721 2.59182 36.2157 2.59182 36.8237V42.0255H19.3344C19.8523 42.0255 20.2719 42.4453 20.2719 42.963C20.2719 43.4808 19.8523 43.9006 19.3344 43.9006H2.59182V56.0763H4.38746C4.47871 54.7164 5.42722 53.5485 6.76024 53.1939L6.78786 53.1867C7.9115 52.8873 8.69676 52.6053 9.45615 52.3325C10.2842 52.0351 11.0663 51.7543 12.1711 51.488C12.4103 51.4304 12.6532 51.378 12.8976 51.3283C12.8978 51.3281 12.8981 51.3281 12.8983 51.328C12.9344 51.3186 12.9706 51.312 13.0066 51.307C13.5419 51.2009 14.0866 51.112 14.636 51.0454C14.8327 51.0216 15.0318 51.0606 15.205 51.1571C15.6492 51.4045 16.372 51.7003 17.2919 51.7039C17.2974 51.7039 17.3027 51.7039 17.3082 51.7039C17.8655 51.7039 18.4124 51.5969 18.9338 51.3859C19.3546 51.2156 19.8304 51.2651 20.2065 51.5186C20.5818 51.7716 20.8059 52.1931 20.8059 52.646V56.0763H22.9473V35.721H3.69458ZM13.6069 54.0515C13.5277 54.0722 13.4483 54.082 13.3702 54.082C12.9536 54.082 12.5733 53.8023 12.4634 53.3804L12.4556 53.35C11.9886 53.4668 11.5773 53.5884 11.1918 53.7144L11.2185 53.817C11.3489 54.3182 11.0484 54.8301 10.5473 54.9604C10.468 54.9811 10.3887 54.9909 10.3105 54.9909C9.90977 54.9909 9.54527 54.7307 9.42002 54.3354C8.81989 54.5447 8.133 54.7689 7.26899 54.9991L7.24099 55.0064C6.72986 55.1424 6.35511 55.5672 6.27161 56.0766H18.9309V53.3627C18.3949 53.5085 17.8462 53.5775 17.2849 53.5792C16.1461 53.5748 15.2183 53.2584 14.5762 52.9438C14.4818 52.9565 14.3882 52.9715 14.2942 52.9855C14.3765 53.4608 14.0823 53.9278 13.6069 54.0515ZM24.8223 26.2158V56.0898H42.8945V25.7816H25.2563C25.017 25.7816 24.8223 25.9763 24.8223 26.2158ZM2.59182 62.159H4.50609L4.86059 61.273C5.11584 60.6346 5.7251 60.222 6.41273 60.222H58.9212C59.568 60.222 60.1626 60.6007 60.4361 61.1867L60.8898 62.1589H62.8418V57.9647H59.3392C58.8214 57.9647 58.4017 57.545 58.4017 57.0272C58.4017 56.5094 58.8214 56.0897 59.3392 56.0897H62.8418V26.2158C62.8418 25.9763 62.6469 25.7816 62.4075 25.7816H44.7694V56.0898H55.2126C55.7304 56.0898 56.1501 56.5096 56.1501 57.0273C56.1501 57.5451 55.7304 57.9648 55.2126 57.9648H2.59182V62.159Z" fill="#393D4C"/>
<path d="M3.7168 18H21.7168C21.982 18 22.2364 17.8946 22.4239 17.7071C22.6114 17.5196 22.7168 17.2652 22.7168 17V1C22.7168 0.734784 22.6114 0.48043 22.4239 0.292893C22.2364 0.105357 21.982 0 21.7168 0H3.7168C3.45158 0 3.19723 0.105357 3.00969 0.292893C2.82215 0.48043 2.7168 0.734784 2.7168 1V17C2.7168 17.2652 2.82215 17.5196 3.00969 17.7071C3.19723 17.8946 3.45158 18 3.7168 18ZM4.7168 2H20.7168V16H4.7168V2Z" fill="#393D4C"/>
<path d="M18.7168 3H6.7168C6.45158 3 6.19723 3.10536 6.00969 3.29289C5.82215 3.48043 5.7168 3.73478 5.7168 4V14C5.7168 14.2652 5.82215 14.5196 6.00969 14.7071C6.19723 14.8946 6.45158 15 6.7168 15H18.7168C18.982 15 19.2364 14.8946 19.4239 14.7071C19.6114 14.5196 19.7168 14.2652 19.7168 14V4C19.7168 3.73478 19.6114 3.48043 19.4239 3.29289C19.2364 3.10536 18.982 3 18.7168 3ZM17.7168 13H7.7168V10.62L10.5168 9.22L13.0068 11.71C13.0998 11.8037 13.2104 11.8781 13.3322 11.9289C13.4541 11.9797 13.5848 12.0058 13.7168 12.0058C13.8488 12.0058 13.9795 11.9797 14.1014 11.9289C14.2232 11.8781 14.3338 11.8037 14.4268 11.71L15.7168 10.41L17.7168 12.41V13ZM17.7168 9.59L16.4268 8.29C16.3338 8.19627 16.2232 8.12188 16.1014 8.07111C15.9795 8.02034 15.8488 7.9942 15.7168 7.9942C15.5848 7.9942 15.4541 8.02034 15.3322 8.07111C15.2104 8.12188 15.0998 8.19627 15.0068 8.29L13.7168 9.59L11.4268 7.29C11.2771 7.14155 11.0843 7.04421 10.876 7.01188C10.6677 6.97955 10.4544 7.0139 10.2668 7.11L7.7168 8.38V5H17.7168V9.59Z" fill="#393D4C"/>
<path d="M47.512 35.8862C46.9771 35.8862 46.5435 35.4526 46.5435 34.9177C46.5435 34.3828 46.9771 33.9492 47.512 33.9492C48.0468 33.9492 48.4805 34.3828 48.4805 34.9177C48.4805 35.4526 48.0468 35.8862 47.512 35.8862Z" fill="#393D4C"/>
<path d="M40.1506 35.8862C39.6158 35.8862 39.1821 35.4526 39.1821 34.9177C39.1821 34.3828 39.6158 33.9492 40.1506 33.9492C40.6855 33.9492 41.1191 34.3828 41.1191 34.9177C41.1191 35.4526 40.6855 35.8862 40.1506 35.8862Z" fill="#393D4C"/>
</g>
<defs>
<clipPath id="clip0_1408_118715">
<rect width="64" height="64" fill="white" transform="matrix(-1 0 0 1 64.7168 0)"/>
</clipPath>
</defs>
</svg>
