<svg width="65" height="64" viewBox="0 0 65 64" fill="none" xmlns="http://www.w3.org/2000/svg">
<g clip-path="url(#clip0_1408_118753)">
<rect x="20.3457" y="11.9453" width="15.36" height="42.6667" fill="#E1E2E5"/>
<rect x="49.7168" y="12" width="12" height="43" fill="#E1E2E5"/>
<rect x="38.7168" y="47" width="8" height="5" fill="#E1E2E5"/>
<path d="M63.8896 12.651C64.3868 12.651 64.7182 12.3196 64.7182 11.8225V8.50825C64.7182 8.01111 64.3868 7.67969 63.8896 7.67969H3.1684C2.67127 7.67969 2.33984 8.01111 2.33984 8.50825V11.8225C2.33984 12.3196 2.67127 12.651 3.1684 12.651H4.82552V54.079H3.1684C2.67127 54.079 2.33984 54.4104 2.33984 54.9075V58.2218C2.33984 58.7189 2.67127 59.0503 3.1684 59.0503H63.8896C64.3868 59.0503 64.7182 58.7189 64.7182 58.2218V54.9075C64.7182 54.4104 64.3868 54.079 63.8896 54.079H51.2248V12.651H63.8896ZM3.99696 9.3368H63.0611V10.9939H3.99696V9.3368ZM34.6536 54.079H21.3967V12.651H34.6536V54.079ZM6.48264 12.651H19.7396V54.079H6.48264V12.651ZM63.0611 57.3932H3.99696V55.7361H63.0611V57.3932ZM49.5677 54.079H36.3107V12.651H49.5677V54.079Z" fill="black"/>
<path d="M17.2543 30.8789C16.7572 30.8789 16.4258 31.2103 16.4258 31.7075V35.0217C16.4258 35.5188 16.7572 35.8503 17.2543 35.8503C17.7515 35.8503 18.0829 35.5188 18.0829 35.0217V31.7075C18.0829 31.2103 17.7515 30.8789 17.2543 30.8789Z" fill="black"/>
<path d="M23.8813 35.8503C24.3784 35.8503 24.7098 35.5188 24.7098 35.0217V31.7075C24.7098 31.2103 24.3784 30.8789 23.8813 30.8789C23.3842 30.8789 23.0527 31.2103 23.0527 31.7075V35.0217C23.0527 35.5188 23.3842 35.8503 23.8813 35.8503Z" fill="black"/>
<path d="M58.7192 35.8503C59.2163 35.8503 59.5477 35.5188 59.5477 35.0217V31.7075C59.5477 31.2103 59.2163 30.8789 58.7192 30.8789C58.222 30.8789 57.8906 31.2103 57.8906 31.7075V35.0217C57.8906 35.5188 58.222 35.8503 58.7192 35.8503Z" fill="black"/>
<path d="M38.7973 52.421H47.0829C47.58 52.421 47.9114 52.0896 47.9114 51.5925V47.4497C47.9114 46.9525 47.58 46.6211 47.0829 46.6211H38.7973C38.3002 46.6211 37.9688 46.9525 37.9688 47.4497V51.5925C37.9688 52.0896 38.3002 52.421 38.7973 52.421ZM39.6259 48.2782H46.2543V50.7639H39.6259V48.2782Z" fill="black"/>
<path d="M38.7973 44.9653H47.0829C47.58 44.9653 47.9114 44.6338 47.9114 44.1367V15.1372C47.9114 14.64 47.58 14.3086 47.0829 14.3086H38.7973C38.3002 14.3086 37.9688 14.64 37.9688 15.1372V44.1367C37.9688 44.6338 38.3002 44.9653 38.7973 44.9653ZM39.6259 15.9657H46.2543V43.3081H39.6259V15.9657Z" fill="black"/>
<path d="M44.0179 25.3267L40.7036 28.6409C40.3722 28.9723 40.3722 29.4695 40.7036 29.8009C40.8694 29.9666 41.1179 30.0495 41.2836 30.0495C41.4493 30.0495 41.6979 29.9666 41.8636 29.8009L45.1779 26.4867C45.5093 26.1553 45.5093 25.6581 45.1779 25.3267C44.8464 24.9953 44.3493 24.9953 44.0179 25.3267Z" fill="black"/>
<path d="M41.2836 25.908C41.5322 25.908 41.6979 25.8251 41.8636 25.6594L43.5207 24.0023C43.8522 23.6709 43.8522 23.1737 43.5207 22.8423C43.1893 22.5109 42.6922 22.5109 42.3608 22.8423L40.7036 24.4994C40.3722 24.8309 40.3722 25.328 40.7036 25.6594C40.8694 25.8251 41.0351 25.908 41.2836 25.908Z" fill="black"/>
<rect x="61.3027" y="11.9453" width="1.536" height="42.6667" fill="black"/>
</g>
<defs>
<clipPath id="clip0_1408_118753">
<rect width="64" height="54.6133" fill="white" transform="translate(0.716797 4.26562)"/>
</clipPath>
</defs>
</svg>
