<svg width="823" height="897" fill="none" xmlns="http://www.w3.org/2000/svg"><path opacity=".05" d="M820.603 201.709C873.187 980.021-131.547 1190.36 14.53 385.24c2.44-10.553 14.645-39.574 43.94-71.234 29.296-31.661 31.737-18.469 29.296-7.915C-50.46 950.801 360.53 900.428 523.937 682.508c2.189-2.919 4.027-6.077 5.559-9.388l5.021-10.851c490.423-834-574.524-731.583-201.469 88.054 8.861 19.468-1.462 43.351-22.261 48.345-14.856 3.568-30.525-3.885-37.257-17.601-330.25-672.878 380.024-1008.56 539.291-609.544l5.462 17.704a55.566 55.566 0 0 1 2.32 12.482Z" fill="#fff"/></svg>