<svg width="30" height="20" viewBox="0 0 30 20" fill="none" xmlns="http://www.w3.org/2000/svg">
<path d="M16.7086 3.53372C13.8534 5.70862 12.182 8.66655 11.71 11.9325C11.8065 8.56083 13.0421 5.1933 15.8399 2.68359C16.1924 2.9 16.4812 3.1994 16.7086 3.53372Z" fill="#ED1846"/>
<path d="M13.473 18.1363C17.0507 19.4467 24.9282 15.6026 25.3434 7.30884C25.5291 3.5869 23.5044 1.21353 20.4092 1.75041C20.053 1.31867 19.5335 0.954996 18.978 0.701236C24.0307 -1.29958 29.8872 1.21548 29.6396 7.27314C29.2227 17.4576 17.4545 22.5157 11.4639 18.7378C12.1745 18.6122 12.9206 18.38 13.473 18.1363Z" fill="#ED1846"/>
<path d="M20.4064 1.74917C20.0291 1.32737 19.4723 0.962727 18.9268 0.699995C19.724 0.23841 22.109 -0.277008 24.1883 0.174141C27.4832 0.841309 30.0476 3.34653 29.8844 7.32564C29.6728 12.4969 26.4752 16.3556 22.4637 18.3347C25.97 16.6322 28.4617 11.5978 28.5375 7.18442C28.584 4.48659 27.3704 1.25608 24.0782 0.489341C22.5029 0.122258 20.0737 0.0388739 20.4064 1.74917Z" fill="#ED1846"/>
<path d="M11.9606 16.4277C11.4532 16.6834 10.8966 16.8925 10.259 17.0437C7.8106 14.2902 7.53977 10.716 8.19192 7.31284C9.08232 2.67465 13.1717 0.149734 16.6416 0.43831C19.5155 0.677148 21.9627 2.84464 21.8068 7.35068C21.5889 13.6549 15.906 17.4435 11.3517 18.3992C4.03882 19.9335 2.57303 11.6048 4.82497 6.38021C5.33659 6.15922 5.65764 5.98377 6.1439 5.69432C3.39097 10.1353 4.84223 18.5947 10.3902 17.3087C13.9901 16.4732 17.9126 13.0893 18.0066 7.32912C18.1298 -0.297221 11.0394 0.669931 9.65577 7.31996C9.12426 9.87481 9.03014 14.1005 11.9606 16.4277Z" fill="#ED1846"/>
<path d="M15.8564 0.419951C16.7043 0.386012 17.4494 0.501579 18.1015 0.694483C21.1606 1.60468 22.1399 4.59811 22.0438 7.38127C21.9002 11.5624 19.1075 14.6035 16.0781 16.4812C18.8996 14.6548 20.5484 10.8049 20.6771 7.33378C20.8089 3.74691 19.7372 0.588571 15.8564 0.419951Z" fill="#ED1846"/>
<path d="M11.9612 16.4293C11.4539 16.685 10.8972 16.8941 10.2596 17.0453C7.23594 13.4214 8.13074 5.862 11.6161 3.39062C8.71393 6.53824 8.46593 13.8153 11.9612 16.4293Z" fill="#ED1846"/>
<path d="M5.72654 16.9886C4.80522 16.0037 4.23665 14.6495 3.98192 13.1597C3.60147 10.9458 3.94915 8.42035 4.82717 6.3812C5.33878 6.16021 5.65983 5.98477 6.14609 5.69531C3.66428 9.96944 4.85077 17.8236 9.73189 17.4172C8.83905 17.7251 6.67663 18.0102 5.72654 16.9886Z" fill="#ED1846"/>
<path d="M8.19048 3.49289C8.52869 2.98888 7.30583 2.7164 6.61486 3.3664C4.59503 5.60382 3.42619 6.65221 0.398438 7.04611C3.61871 7.00183 6.69435 5.41813 8.19048 3.49289Z" fill="#ED1846"/>
<path d="M3.84863 10.5497C3.89223 9.0964 4.18402 7.63791 4.77034 6.38393C5.27962 6.15114 5.65441 5.97687 6.14281 5.69531C4.71904 7.19222 4.09742 8.64008 3.84863 10.5497Z" fill="#ED1846"/>
<path d="M12.0001 16.4472C11.4947 16.703 10.9043 16.903 10.2653 17.0552C9.4283 15.4758 9.3849 13.6896 9.49296 11.6035C9.76349 13.3924 10.4664 15.2153 12.0001 16.4472Z" fill="#ED1846"/>
<path d="M18.002 0.708984C20.2169 1.38083 22.0052 3.57485 21.8754 7.34604C21.7666 10.4894 20.2884 13.0977 18.2215 14.8652C21.8804 11.5789 23.5727 3.07757 18.002 0.708984Z" fill="#ED1846"/>
<path d="M13.9621 6.33398C12.8134 8.0078 12.0742 9.94192 11.71 11.9322C11.7565 10.3118 12.1601 8.32837 13.9621 6.33398Z" fill="#ED1846"/>
<path d="M8.23769 3.51314C8.5759 3.00874 7.34095 2.5967 6.60434 3.34491C5.7666 4.27461 5.73569 5.1734 3.95605 6.38485C6.07615 5.60583 7.40132 4.58679 8.23769 3.51314Z" fill="#ED1846"/>
<path d="M3.34652 6.21094C2.16579 6.72372 0.990515 6.96363 0.329102 7.05053C0.904595 7.0557 1.42996 7.00859 1.96245 6.90726C2.46753 6.78107 3.26294 6.2911 3.34652 6.21094Z" fill="#ED1846"/>
<path d="M25.2754 0.503906C27.8817 1.44931 29.7828 3.76865 29.6388 7.27349C29.4879 10.9692 27.8401 13.9893 25.5178 16.1573C29.2169 12.6851 31.9969 3.62373 25.2754 0.503906Z" fill="#ED1846"/>
<path d="M13.4672 18.1348C13.7495 19.0355 14.6424 19.7032 16.6624 19.9738C14.685 20.115 12.7809 19.6734 11.4062 18.7237C12.1155 18.5972 12.9013 18.3572 13.4672 18.1348Z" fill="#ED1846"/>
</svg>
