<svg width="113" height="14" viewBox="0 0 113 14" fill="none" xmlns="http://www.w3.org/2000/svg">
<path d="M30.9724 11.4367C31.3778 10.676 31.4899 9.75285 31.4927 8.90044L31.5026 4.6185C31.506 3.42126 31.2949 2.07177 30.432 1.1757C29.6392 0.369157 28.6083 0.0607986 27.4984 0.0599697L24.1236 0.0486452C22.6326 0.0461584 21.2605 0.624196 20.5824 2.01513C20.1953 2.78299 20.0859 3.70143 20.0842 4.55136L20.0721 8.87172C20.0718 9.72689 20.177 10.6503 20.578 11.4168C20.8927 12.0716 21.3497 12.6102 22.0032 12.9381C22.6624 13.2841 23.39 13.425 24.1296 13.4264L27.468 13.4355C28.1944 13.4355 28.9073 13.3009 29.5464 12.9517C30.1913 12.6124 30.6577 12.0968 30.9724 11.4367ZM22.0985 4.65166C22.151 2.37322 22.9001 1.84686 25.0984 1.84934L26.5189 1.85515C28.6492 1.85929 29.4961 2.44976 29.4889 4.64668L29.4779 8.8963C29.4734 10.999 28.513 11.6406 26.5139 11.6345L25.0539 11.6295C23.0203 11.6237 22.0803 11.0313 22.0877 8.87586L22.0985 4.65166ZM18.793 8.85872L18.8041 4.57816C18.8079 3.37982 18.5949 2.03253 17.7359 1.13564C16.9404 0.330477 15.9097 0.0232238 14.8015 0.0199081L11.4225 0.0118975C9.93596 0.00830545 8.56133 0.586613 7.8841 1.97506C7.49782 2.74375 7.38757 3.65861 7.38425 4.51351L7.37265 8.8311C7.37348 9.68516 7.48096 10.6102 7.8841 11.3795C8.19273 12.0327 8.65389 12.5676 9.3046 12.9006C9.96276 13.2435 10.6928 13.3835 11.4324 13.3866L14.7705 13.3952C15.4961 13.3976 16.2051 13.2578 16.8473 12.9163C17.4935 12.5684 17.958 12.0545 18.2741 11.3977C18.6792 10.6357 18.7916 9.71528 18.793 8.85872ZM9.39661 4.61132C9.45353 2.3514 10.1783 1.8043 12.3987 1.80983L13.8228 1.81398C15.9327 1.82116 16.7964 2.38483 16.792 4.60634L16.7809 8.85375C16.7779 9.44423 16.7144 10.1264 16.4485 10.6644C15.9106 11.5652 14.7501 11.5939 13.817 11.5931L12.357 11.5867C11.4253 11.5853 10.1874 11.5823 9.69115 10.6288C9.42921 10.125 9.38528 9.39725 9.38556 8.83496L9.39661 4.61132ZM3.99478 2.11708L3.96991 12.1219C3.96743 12.863 4.08016 13.3706 4.93837 13.3742C5.77117 13.3764 5.89026 12.8356 5.88888 12.1272L5.91734 1.18261C5.9201 0.230181 5.0815 0.00222688 4.28325 1.64135e-05C3.42697 -0.00302297 3.17055 0.416407 2.61932 0.965155L0.403883 3.37318C-0.0672228 3.84069 -0.16863 4.24079 0.327895 4.74091C0.803422 5.22168 1.26817 5.05894 1.70004 4.62597L3.99478 2.11708ZM104.523 7.67999L109.346 12.5986C110.137 13.386 110.215 13.6458 111.424 13.651C111.713 13.651 112.054 13.5935 112.181 13.2946C112.343 12.9025 111.962 12.4521 111.706 12.1982L106.324 6.74137L111.147 1.6562C111.386 1.42549 111.773 1.02236 111.636 0.651551C111.512 0.306995 111.055 0.271903 110.74 0.270245C109.636 0.264995 109.604 0.578047 108.866 1.23898L104.542 5.83951L103.684 5.83757L103.692 1.44483C103.696 0.702393 103.523 0.250624 102.698 0.249518C101.87 0.248137 101.703 0.681112 101.7 1.4346L101.671 12.3681C101.668 13.0873 101.844 13.6259 102.659 13.6278C103.482 13.6303 103.665 13.1006 103.667 12.3758L103.677 7.67917L104.523 7.67999ZM98.1357 2.77387L98.1106 12.3706C98.1092 13.1083 98.2783 13.6181 99.1092 13.619C99.966 13.6217 100.105 13.1202 100.107 12.3692L100.134 1.42908C100.138 0.390439 99.2835 0.239295 98.4295 0.238742C97.5508 0.236808 97.1982 0.5565 96.7155 1.2528L90.5489 11.2062L90.5732 1.40781C90.5771 0.645472 90.4389 0.219124 89.594 0.216084C88.7565 0.214979 88.5829 0.640219 88.5818 1.40255L88.5528 12.3457C88.5517 13.3322 89.4204 13.593 90.2585 13.5949C91.2814 13.5969 91.514 13.3109 92.0418 12.5032L98.1357 2.77387ZM78.8765 8.5523L82.4127 8.55976C84.2598 8.56612 86.2642 8.34037 86.8063 6.29458C86.9757 5.61901 87.011 4.87491 87.0127 4.18055C87.0127 3.45662 86.9436 2.68324 86.6877 2.00822C86.0912 0.594901 84.7345 0.203933 83.3151 0.201446L78.2822 0.188182C77.4054 0.182932 76.925 0.419729 76.9233 1.36857L76.8946 12.3159C76.8934 13.1114 77.0413 13.5648 77.9266 13.5634C78.7541 13.5659 78.8668 13.0163 78.8682 12.3131L78.8765 8.5523ZM84.8763 2.93385C84.9705 3.43259 84.9973 3.94293 84.9981 4.44719C84.9962 4.923 84.9567 5.60631 84.7099 6.02519C84.2162 6.86351 82.8667 6.74525 82.0353 6.74304L78.8809 6.73529L78.9116 2.02839L83.1444 2.03944C83.8249 2.0411 84.6663 2.15466 84.8763 2.93385ZM67.2282 1.99882L73.3313 2.01513C74.0193 2.01513 74.4882 1.88389 74.4901 1.10304C74.4918 0.302575 74.0552 0.179061 73.3501 0.17464L66.6032 0.159993C65.674 0.156677 65.2426 0.334069 65.2382 1.33928L65.212 12.2722C65.2089 13.2515 65.6361 13.5311 66.5695 13.5372L71.5972 13.5491C72.9809 13.5507 74.423 13.1722 74.9753 11.7613C75.2411 11.0733 75.332 10.3215 75.3326 9.58984C75.3334 8.89299 75.3091 8.15359 75.1571 7.46613C74.8957 6.32111 74.1729 5.68588 73.0478 5.40404C72.32 5.22583 71.4985 5.20013 70.7533 5.20041L67.2188 5.18963L67.2282 1.99882ZM70.3287 7.01824C72.2556 7.02459 73.3067 7.01907 73.3012 9.31408C73.2973 10.7279 73.1506 11.7127 71.4662 11.7083L67.2055 11.697L67.2152 7.01188L70.3287 7.01824ZM60.9085 10.8924L61.4669 12.3797C61.8048 13.1992 61.8852 13.5236 62.87 13.5256C64.0042 13.5278 63.9147 13.0177 63.5204 12.1578L59.4733 1.22903C59.1926 0.516436 58.6358 0.137889 57.8699 0.136231C57.0457 0.134849 56.5403 0.46062 56.2195 1.21328L52.1992 12.1451C51.9166 12.9453 51.9334 13.5004 52.9345 13.5007C53.8933 13.5015 53.961 13.1647 54.2804 12.3623L54.836 10.8763L60.9085 10.8924ZM60.2796 9.06679L55.4332 9.05435L57.8647 2.32293L60.2796 9.06679ZM45.0227 11.5389L46.5623 11.5428C48.051 11.5483 49.5318 10.9717 50.3773 9.70368C50.7928 9.04136 50.9611 8.29947 50.963 7.52968L50.9677 5.758C50.9691 5.14542 50.8757 4.53064 50.6234 3.96946C49.8451 2.31769 48.1124 1.64626 46.3766 1.64239L45.0487 1.63714L45.0506 1.28954C45.0534 0.489356 44.9285 0.101421 44.0515 0.101144C43.1863 0.0969998 43.057 0.504555 43.0565 1.28513L43.0559 1.63382L41.7313 1.62885C40.0248 1.62553 38.2283 2.2884 37.4872 3.93492C37.2214 4.48339 37.1294 5.1131 37.1117 5.71655L37.1076 7.49598C37.1056 8.26577 37.2703 9.01097 37.6875 9.66113C38.5336 10.97 39.9823 11.4925 41.4859 11.5301L43.0302 11.5337L43.0275 12.222C43.0261 12.9619 43.175 13.4769 44.018 13.4758C44.8989 13.4816 45.0196 13.008 45.0216 12.2269L45.0227 11.5389ZM45.0448 3.44088L46.2525 3.44502C47.7711 3.44751 48.9791 4.11424 48.9742 5.77568L48.9695 7.49791C48.9664 9.19223 47.5473 9.80287 46.0649 9.79818L45.0285 9.79707L45.0448 3.44088ZM43.0344 9.79292L41.9955 9.78878C41.0662 9.78795 40.0679 9.56083 39.4791 8.78329C39.1962 8.40199 39.0986 7.94028 39.0984 7.47194L39.1028 5.74832C39.1064 4.0902 40.3202 3.42928 41.8374 3.43121L43.0515 3.43507L43.0344 9.79292Z" fill="#ED1846"/>
</svg>
