<svg width="24" height="24" viewBox="0 0 24 24" fill="none" xmlns="http://www.w3.org/2000/svg">
<g clip-path="url(#clip0_1401_8271)">
<path fill-rule="evenodd" clip-rule="evenodd" d="M17.7071 14.7071C17.3166 15.0976 16.6834 15.0976 16.2929 14.7071L11.2929 9.70711C10.9024 9.31658 10.9024 8.68342 11.2929 8.29289C11.6834 7.90237 12.3166 7.90237 12.7071 8.29289L17.7071 13.2929C18.0976 13.6834 18.0976 14.3166 17.7071 14.7071Z" fill="#292929"/>
<path fill-rule="evenodd" clip-rule="evenodd" d="M12.7071 8.29289C13.0976 8.68342 13.0976 9.31658 12.7071 9.70711L7.70711 14.7071C7.31658 15.0976 6.68342 15.0976 6.29289 14.7071C5.90237 14.3166 5.90237 13.6834 6.29289 13.2929L11.2929 8.29289C11.6834 7.90237 12.3166 7.90237 12.7071 8.29289Z" fill="#292929"/>
</g>
<defs>
<clipPath id="clip0_1401_8271">
<rect width="24" height="24" fill="white"/>
</clipPath>
</defs>
</svg>
