<svg width="24" height="24" viewBox="0 0 24 24" fill="none" xmlns="http://www.w3.org/2000/svg">
<path d="M21.9469 8.97882C21.884 8.79368 21.7683 8.63101 21.6141 8.51088C21.4598 8.39075 21.2738 8.31842 21.0789 8.30282L15.3779 7.84982L12.9109 2.38882C12.8323 2.21293 12.7045 2.06354 12.5429 1.95868C12.3813 1.85381 12.1928 1.79796 12.0002 1.79785C11.8076 1.79775 11.619 1.85339 11.4573 1.95808C11.2956 2.06277 11.1676 2.21202 11.0889 2.38782L8.62188 7.84982L2.92088 8.30282C2.72933 8.31799 2.54622 8.38803 2.39343 8.50455C2.24065 8.62107 2.12467 8.77914 2.05937 8.95985C1.99407 9.14056 1.98222 9.33625 2.02522 9.52352C2.06823 9.71079 2.16428 9.88171 2.30188 10.0158L6.51488 14.1228L5.02488 20.5748C4.97964 20.7701 4.99414 20.9745 5.0665 21.1615C5.13886 21.3484 5.26574 21.5093 5.43068 21.6233C5.59562 21.7372 5.791 21.7989 5.99146 21.8005C6.19193 21.802 6.38822 21.7432 6.55488 21.6318L11.9999 18.0018L17.4449 21.6318C17.6152 21.7449 17.8161 21.8031 18.0205 21.7987C18.2249 21.7942 18.4231 21.7272 18.5883 21.6067C18.7535 21.4863 18.8779 21.3181 18.9446 21.1249C19.0114 20.9316 19.0175 20.7226 18.9619 20.5258L17.1329 14.1258L21.6689 10.0438C21.9659 9.77582 22.0749 9.35782 21.9469 8.97882V8.97882Z" fill="#292929"/>
</svg>
