<svg width="24" height="24" viewBox="0 0 24 24" fill="none" xmlns="http://www.w3.org/2000/svg">
<path d="M17.9824 18.8058H16.3372V5.91939C16.3372 5.84652 16.3083 5.77691 16.2569 5.72546C16.2054 5.67402 16.1358 5.64514 16.0631 5.64514H7.28943C7.13815 5.64514 7.01537 5.76792 7.01537 5.9194V18.8058H5.3702V5.9194C5.3702 5.41031 5.57235 4.92222 5.93226 4.56226C6.2922 4.20232 6.78045 4 7.2894 4H16.0631C16.5721 4 17.0603 4.20234 17.4202 4.56226C17.7802 4.9222 17.9823 5.41026 17.9823 5.9194L17.9824 18.8058Z" fill="#343B4C"/>
<path d="M12.7731 20.9998C12.669 21 12.5658 20.9805 12.4688 20.9422L6.22046 18.4416L6.83188 16.9145L11.9507 18.9626V8.66185L6.22036 6.37794L6.83178 4.85081L13.0801 7.34858C13.2327 7.40997 13.3634 7.51554 13.4552 7.6519C13.547 7.78826 13.5959 7.94911 13.5955 8.1134V20.1772C13.5955 20.3953 13.5089 20.6045 13.3548 20.7588C13.2004 20.913 12.9913 20.9998 12.7731 20.9998Z" fill="#343B4C"/>
<path d="M7.28943 17.9832V17.1606H3.17676V18.8058H9.34577L7.28943 17.9832Z" fill="#343B4C"/>
<path d="M12.7725 17.1602H20.1753V18.8053H12.7725V17.1602Z" fill="#343B4C"/>
</svg>
