<svg width="24" height="24" viewBox="0 0 24 24" fill="none" xmlns="http://www.w3.org/2000/svg">
<path d="M10.7414 3.49805H12.3865V20.4968H10.7414V3.49805Z" fill="#343B4C"/>
<path d="M7.45127 18.8516H15.6765V20.4968H7.45127V18.8516Z" fill="#343B4C"/>
<path d="M12.3864 8.43207H8.27383C7.47382 8.43207 6.70672 8.1144 6.14119 7.54869C5.57566 6.98315 5.25781 6.21606 5.25781 5.41625V4.59368H6.90296V5.41625C6.90296 5.77981 7.04735 6.12847 7.30439 6.3855C7.56161 6.64254 7.91026 6.78713 8.27384 6.78713H12.3864L12.3864 8.43207Z" fill="#343B4C"/>
<path d="M12.3864 15.0134H8.27383C7.47382 15.0134 6.70672 14.6956 6.14119 14.1301C5.57566 13.5643 5.25781 12.7972 5.25781 11.9974V11.1748H6.90296V11.9974C6.90296 12.361 7.04735 12.7096 7.30439 12.9669C7.56161 13.2239 7.91026 13.3683 8.27384 13.3683H12.3864L12.3864 15.0134Z" fill="#343B4C"/>
<path d="M14.854 11.7227H10.7414V10.0778H14.854C15.2176 10.0778 15.5662 9.93339 15.8235 9.67616C16.0805 9.41913 16.2249 9.07048 16.2249 8.70691L17.87 8.70683C17.87 9.50664 17.5522 10.2738 16.9866 10.8395C16.4211 11.4051 15.654 11.7227 14.854 11.7227Z" fill="#343B4C"/>
<path d="M14.7901 8.0336L19.4334 10.7144L21.0686 11.0531L20.2863 9.23702C20.7652 8.40757 20.7652 7.38563 20.2863 6.55619C19.8074 5.72675 18.9224 5.21575 17.9646 5.21576C17.0069 5.21577 16.1218 5.72671 15.6429 6.55616L13.5136 6.80284L14.7901 8.0336ZM18.8982 8.71704L16.7876 7.4985L16.9095 7.28739C17.1272 6.91035 17.5294 6.67814 17.9648 6.67807C18.4002 6.67816 18.8024 6.91037 19.0201 7.28734C19.2378 7.66446 19.2378 8.12889 19.0201 8.50592L18.8982 8.71704Z" fill="#343B4C"/>
</svg>
