<svg width="24" height="24" viewBox="0 0 24 24" fill="none" xmlns="http://www.w3.org/2000/svg">
<path d="M16.8905 11.9517C17.1626 11.9517 17.4235 12.0598 17.6161 12.2523C17.8084 12.4446 17.9165 12.7057 17.9165 12.9777C17.9165 13.7941 17.5923 14.5772 17.015 15.1544C16.4376 15.7317 15.6548 16.0561 14.8383 16.0561H8.6819C7.86545 16.0561 7.08261 15.7317 6.50518 15.1544C5.92793 14.5772 5.60371 13.7942 5.60371 12.9777C5.60371 12.6112 5.79928 12.2725 6.11669 12.0891C6.43412 11.9059 6.82527 11.9059 7.14267 12.0891C7.46009 12.2725 7.65565 12.6112 7.65565 12.9777V14.0037L15.8642 14.0038V12.9777C15.8642 12.7057 15.9722 12.4446 16.1646 12.2523C16.3571 12.0598 16.6183 11.9517 16.8905 11.9517ZM16.8902 10.4125C16.2988 10.4125 15.7255 10.6167 15.2674 10.9906C14.8094 11.3646 14.4946 11.8853 14.3764 12.4647H9.14343C8.97327 11.626 8.39587 10.9275 7.60424 10.6024C6.81247 10.2772 5.91082 10.3683 5.20032 10.8452C4.48958 11.322 4.06358 12.1218 4.06445 12.9777C4.06445 14.2023 4.55097 15.3768 5.4168 16.2426C6.28263 17.1085 7.45716 17.595 8.68175 17.595H14.8381C16.0627 17.595 17.2372 17.1085 18.1031 16.2426C18.9689 15.3768 19.4554 14.2023 19.4554 12.9777C19.4554 12.2974 19.1852 11.645 18.7041 11.1639C18.2231 10.6829 17.5705 10.4125 16.8902 10.4125Z" fill="#343B4C"/>
<path d="M17.66 11.6955H16.1208V7.84774C16.1208 7.23545 15.8776 6.64835 15.4446 6.21534C15.0118 5.78232 14.4245 5.53914 13.8122 5.53914H9.70785C9.09555 5.53914 8.50827 5.78231 8.07544 6.21534C7.64243 6.64835 7.39925 7.23545 7.39925 7.84774V11.6955H5.86006V7.84774C5.86006 6.82731 6.26552 5.8487 6.98713 5.12707C7.70858 4.40543 8.68733 4 9.7078 4H13.8122C14.8326 4 15.8114 4.40546 16.5328 5.12707C17.2545 5.8487 17.6599 6.82727 17.6599 7.84774L17.66 11.6955Z" fill="#343B4C"/>
<path d="M17.66 19.9046H16.1208C16.1208 19.2923 15.8776 18.705 15.4446 18.272C15.0118 17.8391 14.4245 17.5958 13.8122 17.5958H9.70785C9.09555 17.5958 8.50827 17.8391 8.07544 18.272C7.64243 18.705 7.39925 19.2922 7.39925 19.9046H5.86006C5.86006 18.8839 6.26552 17.9053 6.98713 17.1837C7.70858 16.4621 8.68733 16.0568 9.7078 16.0568H13.8122C14.8326 16.0568 15.8114 16.4621 16.5328 17.1837C17.2545 17.9054 17.66 18.8839 17.66 19.9046Z" fill="#343B4C"/>
</svg>
