<svg width="24" height="24" viewBox="0 0 24 24" fill="none" xmlns="http://www.w3.org/2000/svg">
<path d="M17.1612 19H6.83877C6.08597 19 5.36395 18.7008 4.83147 18.1685C4.29917 17.6361 4 16.914 4 16.1612V5.83877C4 5.08597 4.29918 4.36395 4.83147 3.83147C5.36395 3.29917 6.08597 3 6.83877 3H17.1612C17.914 3 18.6361 3.29918 19.1685 3.83147C19.7008 4.36395 20 5.08597 20 5.83877V16.1612C20 16.914 19.7008 17.6361 19.1685 18.1685C18.6361 18.7008 17.914 19 17.1612 19ZM6.83877 4.54855C6.49657 4.54855 6.16841 4.68446 5.92629 4.92639C5.68436 5.1685 5.54845 5.49666 5.54845 5.83887V16.1613C5.54845 16.5035 5.68436 16.8317 5.92629 17.0738C6.1684 17.3157 6.49656 17.4516 6.83877 17.4516H17.1612C17.5034 17.4516 17.8316 17.3157 18.0737 17.0738C18.3156 16.8317 18.4516 16.5035 18.4516 16.1613V5.83887C18.4516 5.49667 18.3156 5.16851 18.0737 4.92639C17.8316 4.68446 17.5034 4.54855 17.1612 4.54855H6.83877Z" fill="#343B4C"/>
<path d="M16 11C16 11.5522 15.5524 12 15.0001 12C14.4476 12 14 11.5522 14 11C14 10.4478 14.4476 10 15.0001 10C15.5524 10 16 10.4478 16 11Z" fill="#343B4C"/>
<path d="M11.2259 4.29026H12.7743V18.2256H11.2259V4.29026Z" fill="#343B4C"/>
<path d="M10 11C10 11.5522 9.55238 12 8.99988 12C8.44763 12 8 11.5522 8 11C8 10.4478 8.44762 10 8.99988 10C9.55237 10 10 10.4478 10 11Z" fill="#343B4C"/>
<path d="M5 19.5C5 18.6716 5.67157 18 6.5 18H17.5C18.3284 18 19 18.6716 19 19.5C19 19.6753 19 20 19 20H18C18 19.4477 17.5523 19 17 19H7C6.44772 19 6 19.4477 6 20H4.99997C4.99997 20 5 19.6753 5 19.5Z" fill="#343B4C"/>
</svg>
