<svg width="24" height="24" viewBox="0 0 24 24" fill="none" xmlns="http://www.w3.org/2000/svg">
<path d="M12.0642 9.94049C12.4217 9.94049 12.7117 10.2301 12.7117 10.588V12.0643C12.7117 12.4221 12.4219 12.7118 12.0642 12.7118C11.7067 12.7118 11.4167 12.4221 11.4167 12.0643V10.588C11.4167 10.2301 11.7067 9.94049 12.0642 9.94049Z" fill="#343B4C"/>
<path d="M5.58992 11.0469C5.94744 11.0469 6.23739 11.3366 6.23739 11.6944V14.6533C6.23739 15.0112 5.9476 15.3008 5.58992 15.3008C5.2324 15.3008 4.94245 15.0112 4.94245 14.6533V11.6944C4.94245 11.3366 5.23238 11.0469 5.58992 11.0469Z" fill="#343B4C"/>
<path d="M18.5385 11.0414C18.896 11.0414 19.186 11.3311 19.186 11.6889V14.654C19.186 15.0118 18.8962 15.3015 18.5385 15.3015C18.181 15.3015 17.891 15.0119 17.891 14.654V11.6889C17.891 11.3311 18.181 11.0414 18.5385 11.0414Z" fill="#343B4C"/>
<path d="M14.7518 15.3445L13.304 15.1234L12.6505 13.7312C12.5437 13.504 12.3152 13.3586 12.0643 13.3586C11.8133 13.3586 11.5848 13.504 11.4781 13.731L10.8246 15.1232L9.37676 15.3443C9.1368 15.3811 8.93763 15.5485 8.86055 15.7788C8.78348 16.0091 8.84158 16.2625 9.01094 16.4363L10.0775 17.5293L9.8246 19.0808C9.7844 19.3256 9.88782 19.5714 10.0904 19.7144C10.294 19.8572 10.5597 19.8723 10.7768 19.7517L12.0643 19.0406L13.3515 19.7519C13.5674 19.8717 13.8339 19.8578 14.0378 19.7145C14.2405 19.5717 14.3439 19.3257 14.3037 19.0809L14.0508 17.5295L15.1173 16.4365C15.2867 16.2626 15.3449 16.0091 15.2677 15.7789C15.1905 15.5486 14.9915 15.3811 14.7518 15.3445ZM12.8958 16.8594C12.7524 17.0067 12.6872 17.2128 12.7203 17.4158L12.8114 17.9741L12.3775 17.7346C12.2798 17.6806 12.1722 17.6535 12.0643 17.6535C11.9563 17.6535 11.8487 17.6807 11.7509 17.7344L11.317 17.974L11.4082 17.4158C11.4415 17.2129 11.3763 17.0066 11.2327 16.8594L10.818 16.4344L11.3618 16.3509C11.5753 16.3187 11.7585 16.1815 11.8502 15.9861L12.0642 15.5303L12.2783 15.9861C12.37 16.1814 12.5532 16.3187 12.7667 16.3509L13.3105 16.4344L12.8958 16.8594Z" fill="#343B4C"/>
<path d="M7.45552 18.5287C6.77252 18.4876 6.23754 17.9236 6.23754 17.2439C6.23754 17.1125 6.26343 16.974 6.31702 16.8209C6.38085 16.6374 6.33389 16.4326 6.23227 16.267C6.12208 16.0874 5.89567 15.9491 5.59009 15.9491C4.16208 15.9491 3.00041 17.1107 3.00041 18.5388C3.00041 19.9671 4.16212 21.1285 5.59009 21.1285C6.6857 21.1285 7.66567 20.4292 8.02835 19.388C8.09504 19.1963 8.06824 18.9847 7.95564 18.8159C7.84289 18.6472 7.658 18.5408 7.45552 18.5287ZM5.59007 19.8337C4.87594 19.8337 4.29514 19.2528 4.29514 18.5388C4.29514 18.0551 4.56159 17.6328 4.948 17.4104C5.00807 18.3481 5.57377 19.156 6.38248 19.5569C6.16104 19.7318 5.88377 19.8337 5.59007 19.8337Z" fill="#343B4C"/>
<path d="M18.5385 15.948C17.1105 15.948 15.9488 17.1096 15.9488 18.5377C15.9488 19.966 17.1105 21.1274 18.5385 21.1274C19.9665 21.1274 21.1282 19.9658 21.1282 18.5377C21.1282 17.1094 19.9665 15.948 18.5385 15.948ZM18.5385 19.8326C17.8244 19.8326 17.2436 19.2517 17.2436 18.5376C17.2436 17.8238 17.8243 17.2427 18.5385 17.2427C19.2527 17.2427 19.8334 17.8236 19.8334 18.5376C19.8334 19.2515 19.2527 19.8326 18.5385 19.8326Z" fill="#343B4C"/>
<path d="M12.0642 3C10.9931 3 10.122 3.87114 10.122 4.94221V5.66929C8.16457 5.83022 6.21007 6.23472 4.26585 6.88276C3.29398 7.20777 2.77268 8.25489 3.09559 9.22345C3.4221 10.203 4.48024 10.7136 5.4357 10.3925C9.83436 8.92571 14.2951 8.92571 18.6922 10.3925C19.6568 10.7162 20.7091 10.1973 21.0335 9.22345C21.3549 8.2597 20.8388 7.20867 19.8635 6.88334C17.9187 6.23483 15.9639 5.8305 14.0066 5.66926V4.94217C14.0066 3.8711 13.1353 3 12.0642 3ZM11.4167 4.94221C11.4167 4.58499 11.7073 4.29474 12.0642 4.29474C12.4211 4.29474 12.7117 4.58497 12.7117 4.94221V5.60262C12.2801 5.59073 11.8485 5.59073 11.4167 5.60262V4.94221ZM19.4537 8.11114C19.7494 8.2111 19.9001 8.52769 19.8046 8.81356C19.7107 9.09567 19.4 9.26368 19.1028 9.16446C16.7675 8.38543 14.4159 7.99601 12.0643 7.99601C9.71279 7.99601 7.36085 8.38558 5.02548 9.16446C4.73374 9.26111 4.42033 9.10289 4.32414 8.81356C4.22946 8.52935 4.37788 8.21141 4.67519 8.11114C9.57831 6.47723 14.5498 6.47723 19.4537 8.11114Z" fill="#343B4C"/>
</svg>
