<svg width="24" height="24" viewBox="0 0 24 24" fill="none" xmlns="http://www.w3.org/2000/svg">
<path d="M16.8905 11.9518C17.1626 11.9518 17.4235 12.0599 17.6161 12.2524C17.8084 12.4448 17.9165 12.7058 17.9165 12.9778C17.9165 13.7943 17.5923 14.5773 17.015 15.1545C16.4376 15.7318 15.6548 16.0562 14.8383 16.0562H8.6819C7.86545 16.0562 7.08261 15.7318 6.50518 15.1545C5.92793 14.5773 5.60371 13.7943 5.60371 12.9778C5.60371 12.6114 5.79928 12.2726 6.11669 12.0893C6.43412 11.906 6.82527 11.906 7.14267 12.0893C7.46009 12.2727 7.65565 12.6114 7.65565 12.9778V14.0038L15.8642 14.004V12.9778C15.8642 12.7058 15.9722 12.4448 16.1646 12.2524C16.3571 12.0599 16.6183 11.9518 16.8905 11.9518ZM16.8902 10.4126C16.2988 10.4126 15.7255 10.6168 15.2674 10.9907C14.8094 11.3647 14.4946 11.8854 14.3764 12.4648H9.14343C8.97327 11.6261 8.39587 10.9276 7.60424 10.6025C6.81247 10.2774 5.91082 10.3684 5.20032 10.8453C4.48958 11.3221 4.06358 12.122 4.06445 12.9778C4.06445 14.2024 4.55097 15.3769 5.4168 16.2428C6.28263 17.1086 7.45716 17.5951 8.68175 17.5951H14.8381C16.0627 17.5951 17.2372 17.1086 18.1031 16.2428C18.9689 15.3769 19.4554 14.2024 19.4554 12.9778C19.4554 12.2975 19.1852 11.6451 18.7041 11.164C18.2231 10.683 17.5705 10.4126 16.8902 10.4126Z" fill="#343B4C"/>
<path d="M17.6603 11.6955H16.1211V7.84774C16.1211 7.23545 15.8779 6.64835 15.4449 6.21534C15.0121 5.78232 14.4248 5.53914 13.8125 5.53914H9.70814C9.09584 5.53914 8.50856 5.78231 8.07573 6.21534C7.64272 6.64835 7.39954 7.23545 7.39954 7.84774V11.6955H5.86035V7.84774C5.86035 6.82731 6.26581 5.8487 6.98742 5.12707C7.70887 4.40543 8.68762 4 9.70809 4H13.8124C14.8329 4 15.8117 4.40546 16.5331 5.12707C17.2548 5.8487 17.6602 6.82727 17.6602 7.84774L17.6603 11.6955Z" fill="#343B4C"/>
<path d="M17.6603 19.9044H16.1211C16.1211 19.2921 15.8779 18.7048 15.4449 18.2718C15.0121 17.839 14.4248 17.5956 13.8125 17.5956H9.70814C9.09584 17.5956 8.50856 17.8389 8.07573 18.2718C7.64272 18.7048 7.39954 19.292 7.39954 19.9044H5.86035C5.86035 18.8838 6.26581 17.9052 6.98742 17.1836C7.70887 16.4619 8.68762 16.0566 9.70809 16.0566H13.8124C14.8329 16.0566 15.8117 16.4619 16.5331 17.1836C17.2548 17.9052 17.6602 18.8838 17.6602 19.9044H17.6603Z" fill="#343B4C"/>
</svg>
