<svg width="24" height="24" viewBox="0 0 24 24" fill="none" xmlns="http://www.w3.org/2000/svg">
<path d="M17.3335 5.6001C17.6164 5.6001 17.8876 5.71245 18.0878 5.91241C18.2877 6.11256 18.4001 6.38376 18.4001 6.6667V18.4H5.60007V6.6667C5.60007 6.38377 5.71242 6.11255 5.91238 5.91241C6.11253 5.71245 6.38373 5.6001 6.66667 5.6001H17.3335ZM17.3333 4H6.66667C5.95943 4 5.28105 4.28088 4.78105 4.78105C4.28086 5.28105 4 5.95943 4 6.66667V20H20V6.66667C20 5.95943 19.7191 5.28105 19.219 4.78105C18.719 4.28086 18.0406 4 17.3333 4Z" fill="#343B4C"/>
<path d="M9 8C9 8.55219 8.55221 9 8 9C7.44779 9 7 8.55221 7 8C7 7.44779 7.44779 7 8 7C8.55221 7 9 7.44779 9 8Z" fill="#343B4C"/>
<path d="M13 8C13 8.55219 12.5522 9 12 9C11.4478 9 11 8.55221 11 8C11 7.44779 11.4478 7 12 7C12.5522 7 13 7.44779 13 8Z" fill="#343B4C"/>
<path d="M17 8C17 8.55219 16.5522 9 16 9C15.4478 9 15 8.55221 15 8C15 7.44779 15.4478 7 16 7C16.5522 7 17 7.44779 17 8Z" fill="#343B4C"/>
<path d="M16.5335 16.5332H7.4668V10.1332H16.5335V16.5332ZM9.0668 14.9333H14.9335V11.7332H9.0668V14.9333Z" fill="#343B4C"/>
</svg>
