<svg width="24" height="24" viewBox="0 0 24 24" fill="none" xmlns="http://www.w3.org/2000/svg">
<path d="M19.8905 11.9517C20.1626 11.9517 20.4235 12.0598 20.6161 12.2523C20.8084 12.4446 20.9165 12.7057 20.9165 12.9777C20.9165 13.7941 20.5923 14.5772 20.015 15.1544C19.4376 15.7317 18.6548 16.0561 17.8383 16.0561H5.6819C4.86545 16.0561 4.08261 15.7317 3.50518 15.1544C2.92793 14.5772 2.60371 13.7942 2.60371 12.9777C2.60371 12.6112 2.79928 12.2725 3.11669 12.0891C3.43412 11.9059 3.82527 11.9059 4.14267 12.0891C4.46009 12.2725 4.65565 12.6112 4.65565 12.9777V14.0037L18.8642 14.0038V12.9777C18.8642 12.7057 18.9722 12.4446 19.1646 12.2523C19.3571 12.0598 19.6183 11.9517 19.8905 11.9517ZM19.8902 10.4125C19.2988 10.4125 18.7255 10.6167 18.2674 10.9906C17.8094 11.3646 17.4946 11.8853 17.3764 12.4647H6.14343C5.97327 11.626 5.39587 10.9275 4.60424 10.6024C3.81247 10.2772 2.91082 10.3683 2.20032 10.8452C1.48958 11.322 1.06358 12.1218 1.06445 12.9777C1.06445 14.2023 1.55097 15.3768 2.4168 16.2426C3.03654 16.8624 3.81444 17.2878 4.65565 17.4795C4.98968 17.5557 5.33369 17.595 5.68175 17.595H17.8381C18.1862 17.595 18.5302 17.5557 18.8642 17.4796C19.7054 17.2878 20.4833 16.8624 21.1031 16.2426C21.9689 15.3768 22.4554 14.2023 22.4554 12.9777C22.4554 12.2974 22.1852 11.645 21.7041 11.1639C21.2231 10.6829 20.5705 10.4125 19.8902 10.4125Z" fill="#343B4C"/>
<path d="M19.66 11.6955H18.1208V8.84774C18.1208 8.23545 17.8776 7.64835 17.4446 7.21534C17.0118 6.78232 16.4245 6.53914 15.8122 6.53914H7.70785C7.09555 6.53914 6.50827 6.78231 6.07544 7.21534C5.64243 7.64835 5.39925 8.23545 5.39925 8.84774V11.6955H3.86006V8.84774C3.86006 7.82731 4.26552 6.8487 4.98713 6.12707C5.70858 5.40543 6.68733 5 7.7078 5H15.8122C16.8326 5 17.8114 5.40546 18.5328 6.12707C19.2545 6.8487 19.6599 7.82727 19.6599 8.84774L19.66 11.6955Z" fill="#343B4C"/>
<path d="M20.66 19.9046H19.1208C19.1208 19.2923 18.8776 18.705 18.4446 18.272C18.0118 17.8391 17.4245 17.5958 16.8122 17.5958H6.70785C6.09555 17.5958 5.50827 17.8391 5.07544 18.272C4.64243 18.705 4.39925 19.2922 4.39925 19.9046H2.86006C2.86006 18.8839 3.26552 17.9053 3.98713 17.1837C4.70858 16.4621 5.68733 16.0568 6.7078 16.0568H16.8122C17.8326 16.0568 18.8114 16.4621 19.5328 17.1837C20.2545 17.9054 20.66 18.8839 20.66 19.9046Z" fill="#343B4C"/>
</svg>
