<svg width="24" height="24" viewBox="0 0 24 24" fill="none" xmlns="http://www.w3.org/2000/svg">
<g clip-path="url(#clip0_1401_8538)">
<path fill-rule="evenodd" clip-rule="evenodd" d="M12 3.99902C7.58172 3.99902 4 7.58075 4 11.999C4 16.4173 7.58172 19.999 12 19.999C16.4183 19.999 20 16.4173 20 11.999C20 7.58075 16.4183 3.99902 12 3.99902ZM2 11.999C2 6.47618 6.47715 1.99902 12 1.99902C17.5228 1.99902 22 6.47618 22 11.999C22 17.5219 17.5228 21.999 12 21.999C6.47715 21.999 2 17.5219 2 11.999Z" fill="#292929"/>
<path fill-rule="evenodd" clip-rule="evenodd" d="M15.7071 8.29295C16.0976 8.68348 16.0976 9.31664 15.7071 9.70717L9.70711 15.7072C9.31658 16.0977 8.68342 16.0977 8.29289 15.7072C7.90237 15.3166 7.90237 14.6835 8.29289 14.293L14.2929 8.29295C14.6834 7.90243 15.3166 7.90243 15.7071 8.29295Z" fill="#292929"/>
<path fill-rule="evenodd" clip-rule="evenodd" d="M8.29289 8.29295C8.68342 7.90243 9.31658 7.90243 9.70711 8.29295L15.7071 14.293C16.0976 14.6835 16.0976 15.3166 15.7071 15.7072C15.3166 16.0977 14.6834 16.0977 14.2929 15.7072L8.29289 9.70717C7.90237 9.31664 7.90237 8.68348 8.29289 8.29295Z" fill="#292929"/>
</g>
<defs>
<clipPath id="clip0_1401_8538">
<rect width="24" height="24" fill="white"/>
</clipPath>
</defs>
</svg>
