<svg width="24" height="24" viewBox="0 0 24 24" fill="none" xmlns="http://www.w3.org/2000/svg">
<g clip-path="url(#clip0_1401_8573)">
<path fill-rule="evenodd" clip-rule="evenodd" d="M12 1C12.5523 1 13 1.44772 13 2V3C13.5523 3 14 3.44772 14 4C14 4.55228 13.5523 5 13 5V19C13.5523 19 14 19.4477 14 20C14 20.5523 13.5523 21 13 21V22C13 22.5523 12.5523 23 12 23C11.4477 23 11 22.5523 11 22V21H6C4.34315 21 3 19.6569 3 18V6C3 4.34315 4.34315 3 6 3H11V2C11 1.44772 11.4477 1 12 1ZM11 5H6C5.44772 5 5 5.44772 5 6V18C5 18.5523 5.44772 19 6 19H11V5ZM16 4C16 3.44772 16.4477 3 17 3H18C19.6569 3 21 4.34315 21 6V7C21 7.55228 20.5523 8 20 8C19.4477 8 19 7.55228 19 7V6C19 5.44772 18.5523 5 18 5H17C16.4477 5 16 4.55228 16 4ZM20 10C20.5523 10 21 10.4477 21 11V13C21 13.5523 20.5523 14 20 14C19.4477 14 19 13.5523 19 13V11C19 10.4477 19.4477 10 20 10ZM20 16C20.5523 16 21 16.4477 21 17V18C21 19.6569 19.6569 21 18 21H17C16.4477 21 16 20.5523 16 20C16 19.4477 16.4477 19 17 19H18C18.5523 19 19 18.5523 19 18V17C19 16.4477 19.4477 16 20 16Z" fill="#292929"/>
</g>
<defs>
<clipPath id="clip0_1401_8573">
<rect width="24" height="24" fill="white"/>
</clipPath>
</defs>
</svg>
