<svg width="24" height="24" viewBox="0 0 24 24" fill="none" xmlns="http://www.w3.org/2000/svg">
<path d="M19.8299 0H3.14063C2.23598 0 1.5 0.735984 1.5 1.64062V11.898C1.5 12.8026 2.23598 13.5386 3.14063 13.5386H5.03709V16.9968C5.03709 18.6065 6.00652 20.0608 7.45012 20.7016V23.2969C7.45012 23.6852 7.76494 24 8.15325 24H14.8173C15.2056 24 15.5204 23.6852 15.5204 23.2969V20.7017C16.964 20.0609 17.9334 18.6066 17.9334 16.9968V13.5387H19.8299C20.7345 13.5387 21.4705 12.8027 21.4705 11.898V1.64062C21.4705 0.735984 20.7345 0 19.8299 0ZM3.14063 1.40625H19.8299C19.9569 1.40625 20.0642 1.51359 20.0642 1.64062V2.95837H2.90625V1.64062C2.90625 1.51359 3.01359 1.40625 3.14063 1.40625ZM14.1142 22.5938H8.85637V20.9154H14.1142V22.5938ZM16.5272 16.9968C16.5272 18.1353 15.7852 19.1551 14.7113 19.5092H8.25933C7.18542 19.1551 6.44339 18.1353 6.44339 16.9968V13.5387H11.7484C11.1242 14.2184 10.5352 15.2543 10.5352 16.7448C10.5352 17.1331 10.8501 17.448 11.2384 17.448C11.6267 17.448 11.9415 17.1331 11.9415 16.7448C11.9415 14.5849 13.6832 13.7834 13.7532 13.7521C14.0158 13.6432 14.1785 13.3905 14.1785 13.1062V9.94444C14.1785 9.29691 14.7052 8.77008 15.3528 8.77008C16.0004 8.77008 16.5272 9.29686 16.5272 9.94444V16.9968ZM19.8299 12.1324H17.9334V9.94439C17.9334 8.52145 16.7758 7.36378 15.3528 7.36378C13.9298 7.36378 12.7722 8.52141 12.7722 9.94439V12.1324H3.14063C3.01359 12.1324 2.90625 12.025 2.90625 11.898V4.36462H20.0642V11.898C20.0643 12.025 19.9569 12.1324 19.8299 12.1324Z" fill="#292929"/>
<path d="M8.76004 6.06592H5.16064C4.77233 6.06592 4.45752 6.38073 4.45752 6.76904V9.72742C4.45752 10.1157 4.77233 10.4305 5.16064 10.4305H8.76004C9.14835 10.4305 9.46316 10.1157 9.46316 9.72742V6.76904C9.46316 6.38073 9.14835 6.06592 8.76004 6.06592ZM8.05691 9.02429H5.86377V7.47217H8.05691V9.02429Z" fill="#292929"/>
</svg>
