<svg width="24" height="24" viewBox="0 0 24 24" fill="none" xmlns="http://www.w3.org/2000/svg">
<path d="M8.57143 6.28571C8.57143 7.54808 7.54808 8.57143 6.28571 8.57143C5.02335 8.57143 4 7.54808 4 6.28571C4 5.02335 5.02335 4 6.28571 4C7.54808 4 8.57143 5.02335 8.57143 6.28571Z" fill="#292929"/>
<path d="M20 6.28571C20 7.54808 18.9767 8.57143 17.7143 8.57143C16.4519 8.57143 15.4286 7.54808 15.4286 6.28571C15.4286 5.02335 16.4519 4 17.7143 4C18.9767 4 20 5.02335 20 6.28571Z" fill="#292929"/>
<path d="M8.57143 17.7143C8.57143 18.9767 7.54808 20 6.28571 20C5.02335 20 4 18.9767 4 17.7143C4 16.4519 5.02335 15.4286 6.28571 15.4286C7.54808 15.4286 8.57143 16.4519 8.57143 17.7143Z" fill="#292929"/>
<path d="M20 17.7143C20 18.9767 18.9767 20 17.7143 20C16.4519 20 15.4286 18.9767 15.4286 17.7143C15.4286 16.4519 16.4519 15.4286 17.7143 15.4286C18.9767 15.4286 20 16.4519 20 17.7143Z" fill="#292929"/>
</svg>
