<svg width="24" height="24" viewBox="0 0 24 24" fill="none" xmlns="http://www.w3.org/2000/svg">
<path d="M23.8021 11.9895L19.7685 7.82191C19.6361 7.68503 19.4538 7.60778 19.2633 7.60778H16.6858V4.57422C16.6858 4.18591 16.371 3.87109 15.9827 3.87109H2.92308C2.53477 3.87109 2.21995 4.18591 2.21995 4.57422V6.68425H1.68773C1.29942 6.68425 0.984609 6.99906 0.984609 7.38737C0.984609 7.77569 1.29942 8.0905 1.68773 8.0905H2.21995V9.49741H0.703125C0.314812 9.49741 0 9.81222 0 10.2005C0 10.5888 0.314812 10.9037 0.703125 10.9037H2.21995V17.361C2.21995 17.7493 2.53477 18.0641 2.92308 18.0641H4.41975C4.55606 18.5179 4.80323 18.9337 5.14767 19.2781C5.6962 19.8267 6.42553 20.1287 7.20127 20.1287C7.977 20.1287 8.70628 19.8267 9.25486 19.2781C9.60342 18.9295 9.84427 18.5136 9.97823 18.0719H16.6928C16.8268 18.5136 17.0677 18.9295 17.4162 19.2781C17.9647 19.8267 18.6941 20.1287 19.4698 20.1287C20.2455 20.1287 20.9748 19.8267 21.5234 19.2781C21.872 18.9295 22.1128 18.5136 22.2468 18.0719H23.2969C23.6852 18.0719 24 17.7571 24 17.3687V12.4785C24 12.296 23.929 12.1207 23.8021 11.9895V11.9895ZM21.6379 11.7754H16.6661V9.01403H18.9653L21.6379 11.7754ZM3.6262 10.9036H7.28588C7.67419 10.9036 7.989 10.5888 7.989 10.2005C7.989 9.81217 7.67419 9.49736 7.28588 9.49736H3.6262V8.09045H7.80164C8.18995 8.09045 8.50477 7.77564 8.50477 7.38733C8.50477 6.99902 8.18995 6.6842 7.80164 6.6842H3.6262V5.2773H7.80164H15.2795L15.2598 16.6655H10.0502C9.94355 16.1175 9.67847 15.5944 9.25486 15.1707C8.70633 14.6222 7.977 14.3201 7.20127 14.3201C6.42553 14.3201 5.69625 14.6222 5.14767 15.1707C4.73517 15.5832 4.46213 16.098 4.35202 16.6578H3.6262V10.9036ZM8.2605 18.2837C7.97756 18.5667 7.60134 18.7225 7.20127 18.7225C6.80119 18.7225 6.42497 18.5667 6.14203 18.2837C5.85909 18.0008 5.70328 17.6246 5.70328 17.2245C5.70328 16.8243 5.85909 16.4481 6.14203 16.1651C6.42497 15.8822 6.80119 15.7264 7.20127 15.7264C7.60134 15.7264 7.97756 15.8822 8.2605 16.1651C8.84456 16.7492 8.84456 17.6996 8.2605 18.2837ZM20.529 18.2837C20.246 18.5667 19.8698 18.7225 19.4697 18.7225C19.0696 18.7225 18.6934 18.5667 18.4105 18.2837C17.8264 17.6996 17.8264 16.7493 18.4105 16.1652C18.6934 15.8822 19.0696 15.7264 19.4697 15.7264C19.8698 15.7264 20.246 15.8822 20.529 16.1652C20.8119 16.4481 20.9677 16.8243 20.9677 17.2245C20.9677 17.6246 20.8119 18.0008 20.529 18.2837V18.2837ZM22.3187 16.6656C22.212 16.1175 21.947 15.5944 21.5233 15.1708C20.9748 14.6222 20.2455 14.3201 19.4697 14.3201C18.694 14.3201 17.9647 14.6222 17.4161 15.1708C17.0426 15.5443 16.7931 15.9953 16.666 16.4724V13.1816H22.5938V16.6656H22.3187Z" fill="#292929"/>
</svg>
