<svg width="24" height="24" viewBox="0 0 24 24" fill="none" xmlns="http://www.w3.org/2000/svg">
<g clip-path="url(#clip0_1602_9787)">
<path fill-rule="evenodd" clip-rule="evenodd" d="M3.29295 3.29289C3.68348 2.90237 4.31664 2.90237 4.70717 3.29289L7.20828 5.79401C7.22042 5.80554 7.2323 5.81742 7.24391 5.82964L10.5763 9.16201C10.5795 9.16515 10.5827 9.16832 10.5859 9.17151C10.5891 9.17468 10.5922 9.17787 10.5953 9.18107L14.819 13.4047C14.8221 13.4078 14.8253 13.4109 14.8285 13.4141C14.8317 13.4173 14.8348 13.4205 14.838 13.4237L18.1693 16.755C18.1814 16.7665 18.1933 16.7784 18.2049 16.7906L20.7072 19.2929C21.0977 19.6834 21.0977 20.3166 20.7072 20.7071C20.3166 21.0976 19.6835 21.0976 19.293 20.7071L17.3096 18.7237C15.7307 19.5414 13.9346 20 12 20C6.8839 20 2.80329 16.8059 1.06851 12.3638C0.977163 12.1299 0.977163 11.8701 1.06851 11.6362C1.88809 9.5376 3.22989 7.7162 4.9638 6.37795L3.29295 4.70711C2.90243 4.31658 2.90243 3.68342 3.29295 3.29289ZM6.3922 7.80636C4.96056 8.85093 3.81775 10.2973 3.08113 12C4.61926 15.5565 7.92566 18 12 18C13.3755 18 14.6564 17.7229 15.8093 17.2234L14.0319 15.446C13.4364 15.7977 12.7414 16 12 16C9.79086 16 8 14.2091 8 12C8 11.2586 8.2023 10.5636 8.55399 9.96814L6.3922 7.80636ZM10.0676 11.4817C10.0235 11.647 10 11.8206 10 12C10 13.1046 10.8954 14 12 14C12.1794 14 12.353 13.9765 12.5183 13.9324L10.0676 11.4817ZM12 6C11.6069 6 11.222 6.02263 10.846 6.06646C10.2975 6.13041 9.80091 5.73755 9.73696 5.18899C9.67301 4.64042 10.0659 4.14387 10.6144 4.07992C11.0678 4.02706 11.53 4 12 4C17.1161 4 21.1967 7.1941 22.9315 11.6362C23.0228 11.8701 23.0228 12.1299 22.9315 12.3638C22.504 13.4585 21.9346 14.4773 21.2417 15.3917C20.9081 15.8318 20.2808 15.9182 19.8407 15.5846C19.4005 15.251 19.3141 14.6238 19.6477 14.1836C20.1506 13.5201 20.5782 12.7873 20.9189 12C19.3807 8.44349 16.0743 6 12 6Z" fill="#292929"/>
</g>
<defs>
<clipPath id="clip0_1602_9787">
<rect width="24" height="24" fill="white"/>
</clipPath>
</defs>
</svg>
