<svg width="24" height="24" viewBox="0 0 24 24" fill="none" xmlns="http://www.w3.org/2000/svg">
<path d="M18.0916 2.56178C18.0916 2.41453 18.0331 2.27331 17.929 2.16918C17.8249 2.06506 17.6837 2.00657 17.5364 2.00657H14.7603C13.3625 1.93693 11.9938 2.42341 10.9535 3.35971C9.91317 4.296 9.28572 5.606 9.20822 7.00347V10.0016H6.43217C6.28491 10.0016 6.14369 10.0601 6.03957 10.1642C5.93545 10.2684 5.87695 10.4096 5.87695 10.5568V13.4439C5.87695 13.5912 5.93545 13.7324 6.03957 13.8365C6.14369 13.9406 6.28491 13.9991 6.43217 13.9991H9.20822V21.439C9.20822 21.5862 9.26672 21.7275 9.37084 21.8316C9.47496 21.9357 9.61619 21.9942 9.76344 21.9942H13.0947C13.242 21.9942 13.3832 21.9357 13.4873 21.8316C13.5914 21.7275 13.6499 21.5862 13.6499 21.439V13.9991H16.5592C16.6827 14.0009 16.8032 13.9615 16.9018 13.8871C17.0003 13.8127 17.0712 13.7075 17.1033 13.5883L17.9028 10.7012C17.9249 10.6191 17.9279 10.5331 17.9115 10.4498C17.8951 10.3664 17.8598 10.2879 17.8084 10.2203C17.7569 10.1528 17.6906 10.0979 17.6145 10.06C17.5385 10.0221 17.4548 10.0021 17.3698 10.0016H13.6499V7.00347C13.6775 6.72862 13.8066 6.47392 14.0119 6.28913C14.2173 6.10433 14.4841 6.00271 14.7603 6.00409H17.5364C17.6837 6.00409 17.8249 5.9456 17.929 5.84147C18.0331 5.73735 18.0916 5.59613 18.0916 5.44888V2.56178Z" fill="#292929"/>
</svg>
