<svg width="40" height="40" viewBox="0 0 40 40" fill="none" xmlns="http://www.w3.org/2000/svg">
<g>
<path d="M20 4.00049V13.0005C20 13.7961 20.3161 14.5592 20.8787 15.1218C21.4413 15.6844 22.2044 16.0005 23 16.0005H32V33.0005C32 33.7961 31.6839 34.5592 31.1213 35.1218C30.5587 35.6844 29.7956 36.0005 29 36.0005H19.486C20.9797 34.1916 21.8561 31.9526 21.987 29.6103C22.118 27.268 21.4967 24.9453 20.2138 22.9812C18.931 21.0171 17.0539 19.5145 14.8565 18.6929C12.6592 17.8714 10.2567 17.7738 8 18.4145V7.00049C8 6.20484 8.31607 5.44178 8.87868 4.87917C9.44129 4.31656 10.2044 4.00049 11 4.00049H20ZM22 4.50049V13.0005C22 13.2657 22.1054 13.5201 22.2929 13.7076C22.4804 13.8951 22.7348 14.0005 23 14.0005H31.5L22 4.50049ZM11 38.0005C13.3869 38.0005 15.6761 37.0523 17.364 35.3644C19.0518 33.6766 20 31.3874 20 29.0005C20 26.6135 19.0518 24.3244 17.364 22.6365C15.6761 20.9487 13.3869 20.0005 11 20.0005C8.61305 20.0005 6.32387 20.9487 4.63604 22.6365C2.94821 24.3244 2 26.6135 2 29.0005C2 31.3874 2.94821 33.6766 4.63604 35.3644C6.32387 37.0523 8.61305 38.0005 11 38.0005V38.0005ZM6.292 29.7085C6.10423 29.5207 5.99874 29.266 5.99874 29.0005C5.99874 28.7349 6.10423 28.4803 6.292 28.2925C6.47977 28.1047 6.73445 27.9992 7 27.9992C7.26555 27.9992 7.52023 28.1047 7.708 28.2925L10 30.5865V25.0005C10 24.7353 10.1054 24.4809 10.2929 24.2934C10.4804 24.1058 10.7348 24.0005 11 24.0005C11.2652 24.0005 11.5196 24.1058 11.7071 24.2934C11.8946 24.4809 12 24.7353 12 25.0005V30.5865L14.292 28.2925C14.4798 28.1047 14.7344 27.9992 15 27.9992C15.2656 27.9992 15.5202 28.1047 15.708 28.2925C15.8958 28.4803 16.0013 28.7349 16.0013 29.0005C16.0013 29.266 15.8958 29.5207 15.708 29.7085L11.708 33.7085C11.5216 33.8945 11.2693 33.9994 11.006 34.0005H10.994C10.7333 33.9989 10.4836 33.8955 10.298 33.7125L10.292 33.7065L6.292 29.7065V29.7085Z" fill="#292929"/>
</g>
</svg>
