<svg width="24" height="24" viewBox="0 0 24 24" fill="none" xmlns="http://www.w3.org/2000/svg">
<g clip-path="url(#clip0_1505_108654)">
<path d="M4.2183 4.3638C6.33812 2.24398 9.64952 2.04194 11.9965 3.7577C14.3434 2.04194 17.6548 2.24398 19.7746 4.3638C21.827 6.41615 22.0817 9.5854 20.5388 11.915C19.9723 11.5388 19.3322 11.2648 18.6446 11.1193C19.916 9.54839 19.8212 7.23882 18.3604 5.77802C16.7983 4.21592 14.2657 4.21592 12.7036 5.77802C12.3131 6.16854 11.6799 6.16854 11.2894 5.77802C9.72727 4.21592 7.19461 4.21592 5.63251 5.77802C4.07041 7.34012 4.07041 9.87278 5.63251 11.4349L11.0086 16.811C11.0609 17.7491 11.3483 18.6244 11.8128 19.379C11.1074 19.336 10.4142 19.045 9.87515 18.5059L4.2183 12.8491C1.87515 10.5059 1.87515 6.70695 4.2183 4.3638Z" fill="#292929"/>
<path fill-rule="evenodd" clip-rule="evenodd" d="M18 12.8333C18.6443 12.8333 19.1667 13.3557 19.1667 14V16.3333H21.5C22.1443 16.3333 22.6667 16.8557 22.6667 17.5C22.6667 18.1443 22.1443 18.6667 21.5 18.6667H19.1667V21C19.1667 21.6443 18.6443 22.1667 18 22.1667C17.3557 22.1667 16.8333 21.6443 16.8333 21V18.6667H14.5C13.8557 18.6667 13.3333 18.1443 13.3333 17.5C13.3333 16.8557 13.8557 16.3333 14.5 16.3333H16.8333V14C16.8333 13.3557 17.3557 12.8333 18 12.8333Z" fill="#292929"/>
</g>
<defs>
<clipPath id="clip0_1505_108654">
<rect width="24" height="24" fill="white"/>
</clipPath>
</defs>
</svg>
