<svg width="24" height="24" viewBox="0 0 24 24" fill="none" xmlns="http://www.w3.org/2000/svg">
<g clip-path="url(#clip0_1401_8647)">
<path fill-rule="evenodd" clip-rule="evenodd" d="M12.0004 5.7577C9.65342 4.04194 6.34203 4.24398 4.2222 6.3638C1.87906 8.70695 1.87906 12.5059 4.2222 14.8491L9.87906 20.5059C11.0506 21.6775 12.9501 21.6775 14.1217 20.5059L19.7786 14.8491C22.1217 12.5059 22.1217 8.70695 19.7786 6.3638C17.6587 4.24398 14.3473 4.04194 12.0004 5.7577ZM11.2933 7.77802C9.73117 6.21592 7.19851 6.21592 5.63642 7.77802C4.07432 9.34012 4.07432 11.8728 5.63642 13.4349L11.2933 19.0917C11.6838 19.4823 12.317 19.4823 12.7075 19.0917L18.3643 13.4349C19.9264 11.8728 19.9264 9.34012 18.3643 7.77802C16.8022 6.21592 14.2696 6.21592 12.7075 7.77802C12.317 8.16854 11.6838 8.16854 11.2933 7.77802Z" fill="#292929"/>
</g>
<defs>
<clipPath id="clip0_1401_8647">
<rect width="24" height="24" fill="white"/>
</clipPath>
</defs>
</svg>
