<svg width="20" height="20" fill="none" xmlns="http://www.w3.org/2000/svg"><path d="M10.2 3c1.955 0 2.2.008 2.97.044 2.617.12 4.07 1.575 4.187 4.188.035.768.043 1.013.043 2.968s-.008 2.2-.044 2.969c-.118 2.617-1.575 4.068-4.187 4.188-.768.035-1.014.043-2.969.043-1.955 0-2.2-.008-2.969-.043-2.617-.12-4.068-1.573-4.188-4.188C3.008 12.4 3 12.155 3 10.2c0-1.955.008-2.2.044-2.969.12-2.617 1.573-4.068 4.188-4.188C8 3.008 8.245 3 10.2 3Zm0 2.876a4.324 4.324 0 1 0 0 8.649 4.324 4.324 0 0 0 0-8.65Zm4.495-1.181a1.01 1.01 0 1 0 0 2.022 1.01 1.01 0 0 0 0-2.022ZM10.2 13.007a2.807 2.807 0 1 1 0-5.613 2.807 2.807 0 0 1 0 5.613Z" fill="#002B45"/></svg>