<svg width="24" height="24" viewBox="0 0 24 24" fill="none" xmlns="http://www.w3.org/2000/svg">
<path fill-rule="evenodd" clip-rule="evenodd" d="M10.5008 11C10.5008 10.1715 11.1724 9.49998 12.0008 9.49998H12.0108C12.8393 9.49998 13.5108 10.1715 13.5108 11V11.01C13.5108 11.8384 12.8393 12.51 12.0108 12.51H12.0008C11.1724 12.51 10.5008 11.8384 10.5008 11.01V11Z" fill="#292929"/>
<path fill-rule="evenodd" clip-rule="evenodd" d="M16.7937 6.20708C14.1467 3.56004 9.85498 3.56004 7.20794 6.20708C4.5609 8.85412 4.5609 13.1458 7.20794 15.7929L12.0008 20.5858L16.7937 15.7929C19.4408 13.1458 19.4408 8.85412 16.7937 6.20708ZM5.79372 4.79287C9.22181 1.36478 14.7798 1.36478 18.2079 4.79287C21.636 8.22096 21.636 13.779 18.2079 17.2071L12.7079 22.7071C12.5204 22.8946 12.266 23 12.0008 23C11.7356 23 11.4813 22.8946 11.2937 22.7071L5.79372 17.2071C2.36564 13.779 2.36563 8.22096 5.79372 4.79287Z" fill="#292929"/>
</svg>
