<svg width="25" height="24" viewBox="0 0 25 24" fill="none" xmlns="http://www.w3.org/2000/svg">
<path fill-rule="evenodd" clip-rule="evenodd" d="M6.35407 2C5.12735 2 4.02423 2.74685 3.56864 3.88583L2.67421 6.12189C2.14733 7.43908 2.61514 8.94528 3.79554 9.73221L4 9.86852V20H3C2.44772 20 2 20.4477 2 21C2 21.5523 2.44772 22 3 22H21C21.5523 22 22 21.5523 22 21C22 20.4477 21.5523 20 21 20H6V10.5963C6.58013 10.5963 7.16022 10.4284 7.6641 10.0925L9 9.20185L10.3359 10.0925C11.3436 10.7642 12.6564 10.7642 13.6641 10.0925L15 9.20185L16.3359 10.0925C16.8398 10.4284 17.4199 10.5963 18 10.5963V11H20V9.86852L20.2045 9.73221C21.3849 8.94528 21.8527 7.43908 21.3258 6.12189L20.4314 3.88583C19.9758 2.74685 18.8726 2 17.6459 2H6.35407ZM5.42559 4.62861C5.57745 4.24895 5.94516 4 6.35407 4H17.6459C18.0548 4 18.4225 4.24895 18.5744 4.62861L19.4688 6.86467C19.6445 7.30373 19.4885 7.8058 19.0951 8.06811L18.5547 8.42835C18.5366 8.4404 18.5183 8.45177 18.4998 8.46248C18.1723 8.65165 17.7632 8.64025 17.4453 8.42835L15.5547 7.16795C15.2188 6.94402 14.7812 6.94402 14.4453 7.16795L12.5547 8.42835C12.2188 8.65228 11.7812 8.65228 11.4453 8.42835L9.5547 7.16795C9.2188 6.94402 8.7812 6.94402 8.4453 7.16795L6.5547 8.42835C6.23684 8.64026 5.82768 8.65165 5.50023 8.46248C5.4817 8.45178 5.46338 8.4404 5.4453 8.42835L4.90494 8.06811C4.51148 7.8058 4.35554 7.30373 4.53117 6.86467L5.42559 4.62861Z" fill="#292929"/>
<path d="M12.3517 16.7586V17.931H9.15862V16.7586H10.1379V14.2621C10.1011 14.3172 10.0391 14.3793 9.95172 14.4483C9.86437 14.5126 9.76322 14.577 9.64828 14.6414C9.53793 14.7011 9.42529 14.7517 9.31034 14.7931C9.1954 14.8345 9.09195 14.8552 9 14.8552V13.6552C9.12414 13.6552 9.25057 13.623 9.37931 13.5586C9.51264 13.4943 9.63448 13.4207 9.74483 13.3379C9.85977 13.2552 9.95172 13.1793 10.0207 13.1103C10.0943 13.0414 10.1333 13.0046 10.1379 13H11.4759V16.7586H12.3517Z" fill="#292929"/>
<path d="M14.9642 18C14.601 18 14.2791 17.9241 13.9987 17.7724C13.7228 17.6207 13.4906 17.4207 13.3021 17.1724C13.1182 16.9241 12.978 16.6552 12.8814 16.3655C12.7895 16.0759 12.7435 15.7931 12.7435 15.5172C12.7435 15.223 12.7941 14.9287 12.8952 14.6345C12.9964 14.3402 13.1435 14.0736 13.3366 13.8345C13.5297 13.5908 13.7619 13.3977 14.0331 13.2552C14.309 13.108 14.6193 13.0345 14.9642 13.0345C15.332 13.0345 15.6538 13.1126 15.9297 13.269C16.2055 13.4253 16.4354 13.6276 16.6193 13.8759C16.8078 14.1241 16.9481 14.3931 17.04 14.6828C17.1366 14.9724 17.1849 15.2506 17.1849 15.5172C17.1849 15.8161 17.1343 16.1126 17.0331 16.4069C16.932 16.7011 16.7849 16.9678 16.5918 17.2069C16.3987 17.446 16.1642 17.6391 15.8883 17.7862C15.617 17.9287 15.309 18 14.9642 18ZM14.109 15.5172C14.109 15.669 14.1251 15.8207 14.1573 15.9724C14.1895 16.1241 14.2377 16.2644 14.3021 16.3931C14.3711 16.5172 14.4607 16.6184 14.5711 16.6966C14.6814 16.7701 14.8124 16.8069 14.9642 16.8069C15.1251 16.8069 15.2584 16.7655 15.3642 16.6828C15.4745 16.6 15.5619 16.4943 15.6262 16.3655C15.6952 16.2368 15.7435 16.0989 15.7711 15.9517C15.8033 15.8 15.8193 15.6552 15.8193 15.5172C15.8193 15.3655 15.8033 15.2138 15.7711 15.0621C15.7389 14.9103 15.6883 14.7724 15.6193 14.6483C15.5504 14.5195 15.4607 14.4184 15.3504 14.3448C15.2446 14.2667 15.1159 14.2276 14.9642 14.2276C14.8078 14.2276 14.6745 14.269 14.5642 14.3517C14.4538 14.4345 14.3642 14.5402 14.2952 14.669C14.2308 14.7977 14.1826 14.9379 14.1504 15.0897C14.1228 15.2368 14.109 15.3793 14.109 15.5172Z" fill="#292929"/>
<path d="M19.8874 18C19.5242 18 19.2023 17.9241 18.9219 17.7724C18.646 17.6207 18.4138 17.4207 18.2253 17.1724C18.0414 16.9241 17.9012 16.6552 17.8046 16.3655C17.7127 16.0759 17.6667 15.7931 17.6667 15.5172C17.6667 15.223 17.7173 14.9287 17.8184 14.6345C17.9196 14.3402 18.0667 14.0736 18.2598 13.8345C18.4529 13.5908 18.6851 13.3977 18.9564 13.2552C19.2322 13.108 19.5426 13.0345 19.8874 13.0345C20.2552 13.0345 20.577 13.1126 20.8529 13.269C21.1288 13.4253 21.3587 13.6276 21.5426 13.8759C21.7311 14.1241 21.8713 14.3931 21.9633 14.6828C22.0598 14.9724 22.1081 15.2506 22.1081 15.5172C22.1081 15.8161 22.0575 16.1126 21.9564 16.4069C21.8552 16.7011 21.7081 16.9678 21.515 17.2069C21.3219 17.446 21.0874 17.6391 20.8115 17.7862C20.5403 17.9287 20.2322 18 19.8874 18ZM19.0322 15.5172C19.0322 15.669 19.0483 15.8207 19.0805 15.9724C19.1127 16.1241 19.161 16.2644 19.2253 16.3931C19.2943 16.5172 19.3839 16.6184 19.4943 16.6966C19.6046 16.7701 19.7357 16.8069 19.8874 16.8069C20.0483 16.8069 20.1816 16.7655 20.2874 16.6828C20.3977 16.6 20.4851 16.4943 20.5495 16.3655C20.6184 16.2368 20.6667 16.0989 20.6943 15.9517C20.7265 15.8 20.7426 15.6552 20.7426 15.5172C20.7426 15.3655 20.7265 15.2138 20.6943 15.0621C20.6621 14.9103 20.6115 14.7724 20.5426 14.6483C20.4736 14.5195 20.3839 14.4184 20.2736 14.3448C20.1679 14.2667 20.0391 14.2276 19.8874 14.2276C19.7311 14.2276 19.5977 14.269 19.4874 14.3517C19.377 14.4345 19.2874 14.5402 19.2184 14.669C19.1541 14.7977 19.1058 14.9379 19.0736 15.0897C19.046 15.2368 19.0322 15.3793 19.0322 15.5172Z" fill="#292929"/>
</svg>
