<svg width="24" height="24" viewBox="0 0 24 24" fill="none" xmlns="http://www.w3.org/2000/svg">
<path fill-rule="evenodd" clip-rule="evenodd" d="M3.93934 10.9384C4.22064 10.6571 4.60218 10.499 5 10.499H5.01C5.83843 10.499 6.51 11.1706 6.51 11.999V12.009C6.51 12.8375 5.83843 13.509 5.01 13.509H5C4.60218 13.509 4.22064 13.351 3.93934 13.0697C3.65804 12.7884 3.5 12.4068 3.5 12.009V11.999C3.5 11.6012 3.65804 11.2197 3.93934 10.9384ZM10.9393 10.9384C11.2206 10.6571 11.6022 10.499 12 10.499H12.01C12.8384 10.499 13.51 11.1706 13.51 11.999V12.009C13.51 12.8375 12.8384 13.509 12.01 13.509H12C11.1716 13.509 10.5 12.8375 10.5 12.009V11.999C10.5 11.6012 10.658 11.2197 10.9393 10.9384ZM17.9393 10.9384C18.2206 10.6571 18.6022 10.499 19 10.499H19.01C19.8384 10.499 20.51 11.1706 20.51 11.999V12.009C20.51 12.8375 19.8384 13.509 19.01 13.509H19C18.1716 13.509 17.5 12.8375 17.5 12.009V11.999C17.5 11.6012 17.658 11.2197 17.9393 10.9384Z" fill="#292929"/>
</svg>
