<svg width="24" height="24" viewBox="0 0 24 24" fill="none" xmlns="http://www.w3.org/2000/svg">
<path fill-rule="evenodd" clip-rule="evenodd" d="M7.99881 5C6.24907 5 5.12205 6.37901 5.4616 7.71281C6.81094 13.0131 10.9857 17.1879 16.286 18.5372C17.6198 18.8768 18.9988 17.7497 18.9988 16V15C18.9988 14.999 18.9989 14.9998 18.9988 14.9997C18.9984 14.9987 18.9958 14.9931 18.988 14.9851C18.9706 14.9671 18.9398 14.9497 18.9017 14.9459C18.1083 14.8673 17.3393 14.7042 16.604 14.4659L15.5323 15.5376C15.2324 15.8375 14.776 15.9156 14.3935 15.7325C11.7166 14.4515 9.54731 12.2822 8.26626 9.60534C8.0832 9.22281 8.16132 8.76642 8.46119 8.46656L9.53293 7.39482C9.29457 6.6595 9.13155 5.89046 9.0529 5.09706C9.04913 5.05899 9.03171 5.02825 9.01376 5.01083C9.00568 5.00299 9.00014 5.0004 8.99911 4.99997C8.99897 4.99991 8.99979 5 8.99881 5H7.99881ZM3.52343 8.20623C2.77295 5.25833 5.33026 3 7.99881 3H8.99881C10.1257 3 10.9442 3.90113 11.0431 4.89977C11.126 5.73553 11.3231 6.53697 11.6184 7.2888C11.7638 7.65902 11.6759 8.08023 11.3947 8.36149L10.3926 9.36358C11.3865 11.1396 12.8592 12.6123 14.6352 13.6062L15.6373 12.6041C15.9186 12.3229 16.3398 12.235 16.71 12.3805C17.4618 12.6758 18.2633 12.8728 19.099 12.9557C20.0977 13.0547 20.9988 13.8731 20.9988 15V16C20.9988 18.6685 18.7405 21.2259 15.7926 20.4754C9.78251 18.9453 5.05346 14.2163 3.52343 8.20623Z" fill="#292929"/>
</svg>
