<svg width="24" height="24" viewBox="0 0 24 24" fill="none" xmlns="http://www.w3.org/2000/svg">
<g clip-path="url(#clip0_1401_8500)">
<path fill-rule="evenodd" clip-rule="evenodd" d="M12 3.99902C7.58172 3.99902 4 7.58075 4 11.999C4 16.4173 7.58172 19.999 12 19.999C16.4183 19.999 20 16.4173 20 11.999C20 7.58075 16.4183 3.99902 12 3.99902ZM2 11.999C2 6.47618 6.47715 1.99902 12 1.99902C17.5228 1.99902 22 6.47618 22 11.999C22 17.5219 17.5228 21.999 12 21.999C6.47715 21.999 2 17.5219 2 11.999Z" fill="#292929"/>
<path fill-rule="evenodd" clip-rule="evenodd" d="M12 8.00006C12.5523 8.00006 13 8.44778 13 9.00006V15.0001C13 15.5523 12.5523 16.0001 12 16.0001C11.4477 16.0001 11 15.5523 11 15.0001V9.00006C11 8.44778 11.4477 8.00006 12 8.00006Z" fill="#292929"/>
<path fill-rule="evenodd" clip-rule="evenodd" d="M8 12.0001C8 11.4478 8.44772 11.0001 9 11.0001H15C15.5523 11.0001 16 11.4478 16 12.0001C16 12.5523 15.5523 13.0001 15 13.0001H9C8.44772 13.0001 8 12.5523 8 12.0001Z" fill="#292929"/>
</g>
<defs>
<clipPath id="clip0_1401_8500">
<rect width="24" height="24" fill="white"/>
</clipPath>
</defs>
</svg>
