<svg width="24" height="24" viewBox="0 0 24 24" fill="none" xmlns="http://www.w3.org/2000/svg">
<path fill-rule="evenodd" clip-rule="evenodd" d="M3.26158 8.32566C3.45104 8.11819 3.71904 8 4 8H20C20.281 8 20.549 8.11819 20.7384 8.32566C20.9279 8.53313 21.0213 8.81073 20.9959 9.09054L20.1613 18.2716C20.0208 19.8168 18.7252 21 17.1736 21H6.82643C5.27482 21 3.97923 19.8168 3.83875 18.2716L3.00411 9.09054C2.97867 8.81073 3.07212 8.53313 3.26158 8.32566ZM5.09504 10L5.83054 18.0905C5.87737 18.6056 6.30923 19 6.82643 19H17.1736C17.6908 19 18.1226 18.6056 18.1695 18.0905L18.905 10H5.09504Z" fill="#292929"/>
<path fill-rule="evenodd" clip-rule="evenodd" d="M12 5C10.3431 5 9 6.34315 9 8V11C9 11.5523 8.55229 12 8 12C7.44772 12 7 11.5523 7 11V8C7 5.23858 9.23858 3 12 3C14.7614 3 17 5.23858 17 8V11C17 11.5523 16.5523 12 16 12C15.4477 12 15 11.5523 15 11V8C15 6.34315 13.6569 5 12 5Z" fill="#292929"/>
</svg>
