<svg width="24" height="24" viewBox="0 0 24 24" fill="none" xmlns="http://www.w3.org/2000/svg">
<g clip-path="url(#clip0_1401_8381)">
<path d="M3 2C2.44772 2 2 2.44772 2 3C2 3.55228 2.44772 4 3 4V2ZM5 3L5.99705 2.9233C5.95698 2.40231 5.52254 2 5 2V3ZM7.98405 15.8583L7.9128 14.8608L7.9128 14.8608L7.98405 15.8583ZM18.3387 15.1187L18.4099 16.1161L18.4099 16.1161L18.3387 15.1187ZM20.1839 13.3446L19.19 13.2342L19.19 13.2342L20.1839 13.3446ZM21 6L21.9939 6.11043C22.0253 5.82773 21.9348 5.54503 21.7451 5.33308C21.5554 5.12113 21.2844 5 21 5V6ZM5.23077 6L4.23371 6.0767L5.23077 6ZM5.84744 14.0168L4.85039 14.0935L4.85039 14.0935L5.84744 14.0168ZM8.5 20.5V19.5C7.94772 19.5 7.5 19.9477 7.5 20.5H8.5ZM8.51 20.5H9.51C9.51 19.9477 9.06228 19.5 8.51 19.5V20.5ZM8.51 20.51V21.51C9.06228 21.51 9.51 21.0623 9.51 20.51H8.51ZM8.5 20.51H7.5C7.5 21.0623 7.94772 21.51 8.5 21.51V20.51ZM17.5 20.5V19.5C16.9477 19.5 16.5 19.9477 16.5 20.5H17.5ZM17.51 20.5H18.51C18.51 19.9477 18.0623 19.5 17.51 19.5V20.5ZM17.51 20.51V21.51C18.0623 21.51 18.51 21.0623 18.51 20.51H17.51ZM17.5 20.51H16.5C16.5 21.0623 16.9477 21.51 17.5 21.51V20.51ZM3 4H5V2H3V4ZM8.05529 16.8557L18.4099 16.1161L18.2674 14.1212L7.9128 14.8608L8.05529 16.8557ZM21.1778 13.455L21.9939 6.11043L20.0061 5.88957L19.19 13.2342L21.1778 13.455ZM4.00295 3.0767L4.23371 6.0767L6.22782 5.9233L5.99705 2.9233L4.00295 3.0767ZM4.23371 6.0767L4.85039 14.0935L6.8445 13.9401L6.22782 5.9233L4.23371 6.0767ZM21 5H5.23077V7H21V5ZM18.4099 16.1161C19.8537 16.013 21.018 14.8937 21.1778 13.455L19.19 13.2342C19.1368 13.7137 18.7487 14.0868 18.2674 14.1212L18.4099 16.1161ZM7.9128 14.8608C7.36405 14.9 6.88669 14.4886 6.8445 13.9401L4.85039 14.0935C4.97697 15.739 6.40903 16.9733 8.05529 16.8557L7.9128 14.8608ZM8.5 21.5H8.51V19.5H8.5V21.5ZM7.51 20.5V20.51H9.51V20.5H7.51ZM8.51 19.51H8.5V21.51H8.51V19.51ZM9.5 20.51V20.5H7.5V20.51H9.5ZM17.5 21.5H17.51V19.5H17.5V21.5ZM16.51 20.5V20.51H18.51V20.5H16.51ZM17.51 19.51H17.5V21.51H17.51V19.51ZM18.5 20.51V20.5H16.5V20.51H18.5Z" fill="#292929"/>
</g>
<defs>
<clipPath id="clip0_1401_8381">
<rect width="24" height="24" fill="white"/>
</clipPath>
</defs>
</svg>
