<svg width="25" height="25" viewBox="0 0 25 25" fill="none" xmlns="http://www.w3.org/2000/svg">
<g clip-path="url(#clip0_1810_147095)">
<path fill-rule="evenodd" clip-rule="evenodd" d="M18.1094 3.10645C18.6617 3.10645 19.1094 3.55416 19.1094 4.10645L19.1094 20.1064C19.1094 20.6587 18.6617 21.1064 18.1094 21.1064C17.5571 21.1064 17.1094 20.6587 17.1094 20.1064L17.1094 4.10645C17.1094 3.55416 17.5571 3.10645 18.1094 3.10645ZM12.1094 3.10645C12.6617 3.10645 13.1094 3.55416 13.1094 4.10645L13.1094 14.1064C13.1094 14.6587 12.6617 15.1064 12.1094 15.1064C11.5571 15.1064 11.1094 14.6587 11.1094 14.1064L11.1094 4.10644C11.1094 3.55416 11.5571 3.10644 12.1094 3.10645ZM6.10938 3.10644C6.66166 3.10644 7.10937 3.55416 7.10937 4.10644L7.10937 8.10644C7.10937 8.65873 6.66166 9.10644 6.10937 9.10644C5.55709 9.10644 5.10937 8.65873 5.10937 8.10644L5.10937 4.10644C5.10937 3.55416 5.55709 3.10644 6.10938 3.10644Z" fill="#292929"/>
</g>
<defs>
<clipPath id="clip0_1810_147095">
<rect width="24" height="24" fill="white" transform="translate(24.1094 0.106445) rotate(90)"/>
</clipPath>
</defs>
</svg>
