<svg width="26" height="26" viewBox="0 0 26 26" fill="none" xmlns="http://www.w3.org/2000/svg">
<g clip-path="url(#clip0_1810_147090)">
<path fill-rule="evenodd" clip-rule="evenodd" d="M6.91402 21.9464C6.36176 21.9415 5.91804 21.4898 5.92295 20.9375L6.06521 4.93817C6.07012 4.38591 6.5218 3.94219 7.07406 3.9471C7.62633 3.95201 8.07004 4.40369 8.06513 4.95595L7.92287 20.9553C7.91796 21.5076 7.46629 21.9513 6.91402 21.9464ZM12.9138 21.9997C12.3615 21.9948 11.9178 21.5431 11.9227 20.9909L12.0116 10.9913C12.0165 10.439 12.4682 9.9953 13.0205 10.0002C13.5727 10.0051 14.0165 10.4568 14.0115 11.0091L13.9226 21.0087C13.9177 21.5609 13.466 22.0046 12.9138 21.9997ZM18.9135 22.0531C18.3613 22.0482 17.9176 21.5965 17.9225 21.0442L17.958 17.0444C17.963 16.4921 18.4146 16.0484 18.9669 16.0533C19.5192 16.0582 19.9629 16.5099 19.958 17.0622L19.9224 21.062C19.9175 21.6143 19.4658 22.058 18.9135 22.0531Z" fill="#292929"/>
</g>
<defs>
<clipPath id="clip0_1810_147090">
<rect width="24" height="24" fill="white" transform="translate(0.890625 24.8926) rotate(-89.4906)"/>
</clipPath>
</defs>
</svg>
