<svg width="24" height="24" viewBox="0 0 24 24" fill="none" xmlns="http://www.w3.org/2000/svg">
<g clip-path="url(#clip0_1606_107931)">
<path fill-rule="evenodd" clip-rule="evenodd" d="M8.28465 2.64145C8.42017 2.37042 8.69718 2.19922 9.0002 2.19922H15.0002C15.3032 2.19922 15.5802 2.37042 15.7157 2.64145L17.4946 6.19922H20.0002C20.442 6.19922 20.8002 6.55739 20.8002 6.99922C20.8002 7.44105 20.442 7.79922 20.0002 7.79922H18.8002V18.9992C18.8002 20.5456 17.5466 21.7992 16.0002 21.7992H8.0002C6.4538 21.7992 5.2002 20.5456 5.2002 18.9992V7.79922H4.0002C3.55837 7.79922 3.2002 7.44105 3.2002 6.99922C3.2002 6.55739 3.55837 6.19922 4.0002 6.19922H6.50577L8.28465 2.64145ZM6.98287 7.79922C6.99402 7.79945 7.00516 7.79945 7.01628 7.79922H16.9841C16.9952 7.79945 17.0064 7.79945 17.0175 7.79922H17.2002V18.9992C17.2002 19.662 16.6629 20.1992 16.0002 20.1992H8.0002C7.33745 20.1992 6.8002 19.662 6.8002 18.9992V7.79922H6.98287ZM15.7058 6.19922H8.29462L9.49462 3.79922H14.5058L15.7058 6.19922ZM10.0002 10.1992C10.442 10.1992 10.8002 10.5574 10.8002 10.9992V16.9992C10.8002 17.441 10.442 17.7992 10.0002 17.7992C9.55837 17.7992 9.2002 17.441 9.2002 16.9992V10.9992C9.2002 10.5574 9.55837 10.1992 10.0002 10.1992ZM14.0002 10.1992C14.442 10.1992 14.8002 10.5574 14.8002 10.9992V16.9992C14.8002 17.441 14.442 17.7992 14.0002 17.7992C13.5584 17.7992 13.2002 17.441 13.2002 16.9992V10.9992C13.2002 10.5574 13.5584 10.1992 14.0002 10.1992Z" fill="#292929"/>
</g>
<defs>
<clipPath id="clip0_1606_107931">
<rect width="24" height="24" fill="white"/>
</clipPath>
</defs>
</svg>
