<svg width="46" height="56" fill="none" xmlns="http://www.w3.org/2000/svg"><path d="M33.19 43.882V20.767L25.834 37.02h-6.428l-7.355-16.254v23.115H0V0h13.165l9.456 20.643L32.139 0H45.24v43.882H33.19Z" fill="#fff" fill-opacity=".3"/><path d="M0 43.882h45.242l-.015 1.709c0 5.749-4.66 10.41-10.41 10.41H10.41C4.66 56 0 51.34 0 45.59v-1.71Z" fill="#fff" fill-opacity=".3"/><rect x="2.513" y="39.25" width="40.202" height="14.238" rx="7.119" fill="#CED2DF"/><path d="M17.298 48.345v1.794h-4.886v-1.794h1.498v-3.82c-.056.084-.151.18-.285.285a3.757 3.757 0 0 1-.981.528 1.417 1.417 0 0 1-.475.095v-1.837c.19 0 .383-.049.58-.147.204-.099.39-.212.56-.338.176-.127.316-.243.422-.348l.18-.17h2.046v5.752h1.34Zm3.997 1.9c-.556 0-1.048-.116-1.477-.349a3.348 3.348 0 0 1-1.066-.918 4.401 4.401 0 0 1-.644-1.234 4.277 4.277 0 0 1-.21-1.298 4.157 4.157 0 0 1 .907-2.575c.295-.373.65-.669 1.066-.887a2.98 2.98 0 0 1 1.424-.337c.563 0 1.056.12 1.478.358.422.24.774.55 1.055.929.288.38.503.791.644 1.235.147.443.221.869.221 1.277a4.164 4.164 0 0 1-.907 2.585 3.465 3.465 0 0 1-1.077.887 2.994 2.994 0 0 1-1.414.327Zm-1.308-3.8c0 .233.024.465.074.697.049.232.123.447.221.644.106.19.243.345.412.464.169.113.37.169.601.169.246 0 .45-.063.612-.19.17-.127.303-.288.401-.485.106-.197.18-.408.222-.634a3.207 3.207 0 0 0 0-1.36 2.265 2.265 0 0 0-.232-.634 1.26 1.26 0 0 0-.412-.464.966.966 0 0 0-.59-.18.991.991 0 0 0-.613.19 1.457 1.457 0 0 0-.411.486 2.672 2.672 0 0 0-.222.643 3.55 3.55 0 0 0-.063.655Zm8.842 3.8c-.556 0-1.049-.116-1.478-.349a3.35 3.35 0 0 1-1.066-.918 4.398 4.398 0 0 1-.643-1.234 4.277 4.277 0 0 1-.211-1.298c0-.45.077-.9.232-1.351.155-.45.38-.858.675-1.224a3.32 3.32 0 0 1 1.066-.887 2.98 2.98 0 0 1 1.425-.337c.563 0 1.055.12 1.477.358.422.24.774.55 1.055.929.289.38.503.791.644 1.235.148.443.222.869.222 1.277a4.176 4.176 0 0 1-.908 2.585 3.463 3.463 0 0 1-1.076.887 2.994 2.994 0 0 1-1.414.327Zm-1.309-3.8c0 .233.025.465.074.697.05.232.123.447.222.644.105.19.242.345.411.464.169.113.37.169.602.169.246 0 .45-.063.612-.19.169-.127.302-.288.4-.485.106-.197.18-.408.222-.634a3.201 3.201 0 0 0 0-1.36 2.261 2.261 0 0 0-.232-.634 1.261 1.261 0 0 0-.411-.464.967.967 0 0 0-.591-.18.991.991 0 0 0-.612.19 1.458 1.458 0 0 0-.412.486 2.672 2.672 0 0 0-.221.643 3.542 3.542 0 0 0-.064.655Z" fill="#343B4C"/></svg>