<svg width="30" height="36" fill="none" xmlns="http://www.w3.org/2000/svg"><path d="M21.336 28.21V13.35L16.608 23.8h-4.132L7.748 13.35v14.86H0V0h8.463l6.079 13.27L20.66 0h8.423v28.21h-7.748Z" fill="#D1103A"/><path d="M0 25.77h29.075V30a6 6 0 0 1-6 6H6a6 6 0 0 1-6-6v-4.23Z" fill="#D1103A"/><rect x="1.615" y="25.232" width="25.844" height="9.153" rx="4.577" fill="#ED1846"/><path d="M20.776 28.97a2.823 2.823 0 0 0-.446-.854 2.367 2.367 0 0 0-.743-.654 2.104 2.104 0 0 0-1.054-.259c-.37 0-.71.08-1.015.242a2.341 2.341 0 0 0-.751.625 2.784 2.784 0 0 0-.47.85c-.106.31-.16.623-.16.937 0 .295.05.595.146.899v.002c.103.307.251.591.445.853l.002.002c.203.268.454.484.751.648h.002c.31.169.663.25 1.05.25.37 0 .707-.077 1.008-.235.297-.158.55-.366.758-.624a2.887 2.887 0 0 0 .63-1.795c0-.288-.052-.583-.153-.886Zm0 0-.2.066.2-.064v-.001Zm-9.444 2.108v-.211h-.862v-3.698H8.855l-.062.062-.002.003-.026.023-.082.078-.005.005a2.036 2.036 0 0 1-.246.202l-.003.002a1.96 1.96 0 0 1-.325.196l-.002.001a.62.62 0 0 1-.279.073h-.211v1.603h.211c.122 0 .248-.027.377-.073.123-.045.244-.099.362-.163l.002-.001c.059-.033.115-.066.167-.1v1.787h-.963v1.576h3.564v-1.365Zm1.306 1.183h.002c.31.169.663.25 1.05.25.37 0 .707-.077 1.008-.235.297-.158.55-.366.758-.624a2.887 2.887 0 0 0 .63-1.795 2.8 2.8 0 0 0-.153-.886 2.82 2.82 0 0 0-.445-.855 2.367 2.367 0 0 0-.744-.654l-.103.182.103-.182a2.105 2.105 0 0 0-1.054-.259c-.37 0-.71.08-1.015.242a2.341 2.341 0 0 0-.751.625 2.786 2.786 0 0 0-.469.85c-.107.31-.16.623-.16.937 0 .295.049.595.145.899v.002c.103.307.251.591.445.853l.002.002c.203.268.454.484.752.648Zm1.319-1.427-.004.003a.41.41 0 0 1-.263.077.472.472 0 0 1-.267-.071.676.676 0 0 1-.197-.223 1.507 1.507 0 0 1-.123-.36 1.938 1.938 0 0 1-.006-.782c.028-.131.07-.25.123-.358a.724.724 0 0 1 .204-.24.427.427 0 0 1 .266-.08.41.41 0 0 1 .254.074l.009.006a.6.6 0 0 1 .195.222l.002.003c.056.102.1.218.127.348a1.855 1.855 0 0 1 0 .787v.006a1.238 1.238 0 0 1-.122.346l-.003.005a.658.658 0 0 1-.195.237Zm4.843 0-.004.003a.41.41 0 0 1-.263.077.472.472 0 0 1-.267-.071.676.676 0 0 1-.197-.223 1.516 1.516 0 0 1-.123-.36 1.938 1.938 0 0 1-.006-.782c.028-.131.07-.25.123-.358a.723.723 0 0 1 .204-.24.426.426 0 0 1 .266-.08.41.41 0 0 1 .254.074l.009.006a.6.6 0 0 1 .195.222l.002.003c.056.102.1.218.127.348a1.848 1.848 0 0 1 0 .787l-.001.006a1.19 1.19 0 0 1-.121.346l-.003.005a.658.658 0 0 1-.195.237Z" fill="#fff" stroke="#ED1846" stroke-width=".423"/></svg>