<svg width="31" height="38" fill="none" xmlns="http://www.w3.org/2000/svg"><mask id="a" maskUnits="userSpaceOnUse" x=".084" y="0" width="31" height="38" fill="#000"><path fill="#fff" d="M.084 0h31v38h-31z"/><path d="M1.084 29.5V1h29.015v28.5h-9.29V9.105H10.373V29.5h-9.29Z"/><path d="M1.084 26.791h29.015v4.21a6 6 0 0 1-6 6H7.084a6 6 0 0 1-6-6v-4.21Z"/><path d="M2.696 30.82a4.567 4.567 0 0 1 4.567-4.566H23.92a4.567 4.567 0 1 1 0 9.134H7.263a4.567 4.567 0 0 1-4.567-4.567Z"/><path d="M12.181 32.088v1.15H9.046v-1.15h.962v-2.451a.86.86 0 0 1-.183.183 2.416 2.416 0 0 1-.63.338.911.911 0 0 1-.304.061v-1.178a.83.83 0 0 0 .372-.095 2.19 2.19 0 0 0 .359-.216 2.19 2.19 0 0 0 .27-.224l.116-.108h1.313v3.69h.86Zm2.565 1.218a1.96 1.96 0 0 1-.948-.223 2.15 2.15 0 0 1-.684-.59 2.746 2.746 0 0 1-.548-1.625 2.66 2.66 0 0 1 .582-1.651c.19-.239.417-.429.684-.569a1.91 1.91 0 0 1 .914-.216c.36 0 .677.077.947.23.271.154.497.352.678.596.184.244.322.508.412.792.095.284.143.557.143.82a2.67 2.67 0 0 1-.583 1.658c-.19.235-.42.424-.69.569-.267.14-.569.21-.907.21Zm-.84-2.437c0 .149.016.298.047.447.032.149.08.287.143.413a.887.887 0 0 0 .264.298.68.68 0 0 0 .386.108c.158 0 .288-.04.392-.122a.868.868 0 0 0 .258-.311 1.4 1.4 0 0 0 .142-.406 2.056 2.056 0 0 0 0-.874 1.452 1.452 0 0 0-.15-.406.809.809 0 0 0-.263-.298.62.62 0 0 0-.38-.115.636.636 0 0 0-.392.122.934.934 0 0 0-.264.311 1.71 1.71 0 0 0-.142.413c-.027.145-.04.285-.04.42Zm5.673 2.437a1.96 1.96 0 0 1-.948-.223 2.15 2.15 0 0 1-.684-.59 2.746 2.746 0 0 1-.548-1.625 2.66 2.66 0 0 1 .582-1.651c.19-.239.417-.429.684-.569.27-.144.575-.216.914-.216.36 0 .677.077.947.23.271.154.497.352.677.596.186.244.323.508.413.792.095.284.143.557.143.82a2.67 2.67 0 0 1-.583 1.658c-.19.235-.42.424-.69.569-.267.14-.569.21-.907.21Zm-.84-2.437c0 .149.016.298.047.447.032.149.08.287.143.413a.887.887 0 0 0 .264.298.68.68 0 0 0 .386.108c.158 0 .288-.04.392-.122a.868.868 0 0 0 .258-.311 1.43 1.43 0 0 0 .142-.406 2.056 2.056 0 0 0 0-.874 1.452 1.452 0 0 0-.15-.406.808.808 0 0 0-.263-.298.62.62 0 0 0-.38-.115.636.636 0 0 0-.392.122.935.935 0 0 0-.264.311 1.75 1.75 0 0 0-.142.413c-.027.145-.04.285-.04.42Z"/></mask><path d="M1.084 29.5V1h29.015v28.5h-9.29V9.105H10.373V29.5h-9.29Z" fill="#D1103A"/><path d="M1.084 26.791h29.015v4.21a6 6 0 0 1-6 6H7.084a6 6 0 0 1-6-6v-4.21Z" fill="#D1103A"/><path d="M2.696 30.82a4.567 4.567 0 0 1 4.567-4.566H23.92a4.567 4.567 0 1 1 0 9.134H7.263a4.567 4.567 0 0 1-4.567-4.567Z" fill="#ED1846"/><path d="M12.181 32.088v1.15H9.046v-1.15h.962v-2.451a.86.86 0 0 1-.183.183 2.416 2.416 0 0 1-.63.338.911.911 0 0 1-.304.061v-1.178a.83.83 0 0 0 .372-.095 2.19 2.19 0 0 0 .359-.216 2.19 2.19 0 0 0 .27-.224l.116-.108h1.313v3.69h.86Zm2.565 1.218a1.96 1.96 0 0 1-.948-.223 2.15 2.15 0 0 1-.684-.59 2.746 2.746 0 0 1-.548-1.625 2.66 2.66 0 0 1 .582-1.651c.19-.239.417-.429.684-.569a1.91 1.91 0 0 1 .914-.216c.36 0 .677.077.947.23.271.154.497.352.678.596.184.244.322.508.412.792.095.284.143.557.143.82a2.67 2.67 0 0 1-.583 1.658c-.19.235-.42.424-.69.569-.267.14-.569.21-.907.21Zm-.84-2.437c0 .149.016.298.047.447.032.149.08.287.143.413a.887.887 0 0 0 .264.298.68.68 0 0 0 .386.108c.158 0 .288-.04.392-.122a.868.868 0 0 0 .258-.311 1.4 1.4 0 0 0 .142-.406 2.056 2.056 0 0 0 0-.874 1.452 1.452 0 0 0-.15-.406.809.809 0 0 0-.263-.298.62.62 0 0 0-.38-.115.636.636 0 0 0-.392.122.934.934 0 0 0-.264.311 1.71 1.71 0 0 0-.142.413c-.027.145-.04.285-.04.42Zm5.673 2.437a1.96 1.96 0 0 1-.948-.223 2.15 2.15 0 0 1-.684-.59 2.746 2.746 0 0 1-.548-1.625 2.66 2.66 0 0 1 .582-1.651c.19-.239.417-.429.684-.569.27-.144.575-.216.914-.216.36 0 .677.077.947.23.271.154.497.352.677.596.186.244.323.508.413.792.095.284.143.557.143.82a2.67 2.67 0 0 1-.583 1.658c-.19.235-.42.424-.69.569-.267.14-.569.21-.907.21Zm-.84-2.437c0 .149.016.298.047.447.032.149.08.287.143.413a.887.887 0 0 0 .264.298.68.68 0 0 0 .386.108c.158 0 .288-.04.392-.122a.868.868 0 0 0 .258-.311 1.43 1.43 0 0 0 .142-.406 2.056 2.056 0 0 0 0-.874 1.452 1.452 0 0 0-.15-.406.808.808 0 0 0-.263-.298.62.62 0 0 0-.38-.115.636.636 0 0 0-.392.122.935.935 0 0 0-.264.311 1.75 1.75 0 0 0-.142.413c-.027.145-.04.285-.04.42Z" fill="#fff"/><path d="M1.084 29.5V1h29.015v28.5h-9.29V9.105H10.373V29.5h-9.29Z" stroke="#ED1846" stroke-width=".975" mask="url(#a)"/><path d="M1.084 26.791h29.015v4.21a6 6 0 0 1-6 6H7.084a6 6 0 0 1-6-6v-4.21Z" stroke="#ED1846" stroke-width=".975" mask="url(#a)"/><path d="M2.696 30.82a4.567 4.567 0 0 1 4.567-4.566H23.92a4.567 4.567 0 1 1 0 9.134H7.263a4.567 4.567 0 0 1-4.567-4.567Z" stroke="#ED1846" stroke-width=".975" mask="url(#a)"/><path d="M12.181 32.088v1.15H9.046v-1.15h.962v-2.451a.86.86 0 0 1-.183.183 2.416 2.416 0 0 1-.63.338.911.911 0 0 1-.304.061v-1.178a.83.83 0 0 0 .372-.095 2.19 2.19 0 0 0 .359-.216 2.19 2.19 0 0 0 .27-.224l.116-.108h1.313v3.69h.86Zm2.565 1.218a1.96 1.96 0 0 1-.948-.223 2.15 2.15 0 0 1-.684-.59 2.746 2.746 0 0 1-.548-1.625 2.66 2.66 0 0 1 .582-1.651c.19-.239.417-.429.684-.569a1.91 1.91 0 0 1 .914-.216c.36 0 .677.077.947.23.271.154.497.352.678.596.184.244.322.508.412.792.095.284.143.557.143.82a2.67 2.67 0 0 1-.583 1.658c-.19.235-.42.424-.69.569-.267.14-.569.21-.907.21Zm-.84-2.437c0 .149.016.298.047.447.032.149.08.287.143.413a.887.887 0 0 0 .264.298.68.68 0 0 0 .386.108c.158 0 .288-.04.392-.122a.868.868 0 0 0 .258-.311 1.4 1.4 0 0 0 .142-.406 2.056 2.056 0 0 0 0-.874 1.452 1.452 0 0 0-.15-.406.809.809 0 0 0-.263-.298.62.62 0 0 0-.38-.115.636.636 0 0 0-.392.122.934.934 0 0 0-.264.311 1.71 1.71 0 0 0-.142.413c-.027.145-.04.285-.04.42Zm5.673 2.437a1.96 1.96 0 0 1-.948-.223 2.15 2.15 0 0 1-.684-.59 2.746 2.746 0 0 1-.548-1.625 2.66 2.66 0 0 1 .582-1.651c.19-.239.417-.429.684-.569.27-.144.575-.216.914-.216.36 0 .677.077.947.23.271.154.497.352.677.596.186.244.323.508.413.792.095.284.143.557.143.82a2.67 2.67 0 0 1-.583 1.658c-.19.235-.42.424-.69.569-.267.14-.569.21-.907.21Zm-.84-2.437c0 .149.016.298.047.447.032.149.08.287.143.413a.887.887 0 0 0 .264.298.68.68 0 0 0 .386.108c.158 0 .288-.04.392-.122a.868.868 0 0 0 .258-.311 1.43 1.43 0 0 0 .142-.406 2.056 2.056 0 0 0 0-.874 1.452 1.452 0 0 0-.15-.406.808.808 0 0 0-.263-.298.62.62 0 0 0-.38-.115.636.636 0 0 0-.392.122.935.935 0 0 0-.264.311 1.75 1.75 0 0 0-.142.413c-.027.145-.04.285-.04.42Z" stroke="#ED1846" stroke-width=".975" mask="url(#a)"/></svg>