<svg width="46" height="56" fill="none" xmlns="http://www.w3.org/2000/svg"><path d="M0 46.806V0h45.134v46.806H30.683V12.608H14.451v34.198H0Z" fill="#fff" fill-opacity=".3"/><path d="M0 46.803h45.134V48a8 8 0 0 1-8 8H8a8 8 0 0 1-8-8v-1.197Z" fill="#fff" fill-opacity=".3"/><rect x="2.508" y="39.285" width="40.119" height="14.209" rx="7.104" fill="#CED2DF"/><path d="M17.262 48.36v1.791h-4.876v-1.79h1.495v-3.813c-.056.085-.15.18-.284.285a3.746 3.746 0 0 1-.98.526 1.417 1.417 0 0 1-.473.095v-1.832c.19 0 .382-.05.579-.148.203-.098.39-.21.558-.337a3.46 3.46 0 0 0 .421-.347l.18-.169h2.042v5.74h1.338Zm3.989 1.896c-.555 0-1.046-.115-1.474-.347a3.342 3.342 0 0 1-1.064-.916c-.28-.38-.495-.79-.642-1.233a4.269 4.269 0 0 1-.211-1.295c0-.45.077-.899.232-1.348.154-.45.379-.856.674-1.222a3.31 3.31 0 0 1 1.063-.884 2.973 2.973 0 0 1 1.422-.337c.562 0 1.053.12 1.474.358.422.239.773.547 1.054.927.288.379.502.79.642 1.232.148.442.221.867.221 1.274a4.154 4.154 0 0 1-.905 2.58c-.295.365-.653.66-1.075.885a2.987 2.987 0 0 1-1.41.326Zm-1.306-3.791c0 .232.025.463.074.695.05.232.123.446.221.643.105.19.242.344.41.463.17.112.37.168.601.168.246 0 .45-.063.61-.19a1.35 1.35 0 0 0 .401-.484 2.18 2.18 0 0 0 .221-.631 3.202 3.202 0 0 0 0-1.359 2.258 2.258 0 0 0-.231-.632 1.257 1.257 0 0 0-.411-.463.965.965 0 0 0-.59-.18.99.99 0 0 0-.61.19 1.454 1.454 0 0 0-.411.485 2.67 2.67 0 0 0-.222.642 3.543 3.543 0 0 0-.063.653Zm8.825 3.791c-.556 0-1.047-.115-1.475-.347a3.344 3.344 0 0 1-1.064-.916c-.28-.38-.495-.79-.642-1.233a4.269 4.269 0 0 1-.211-1.295c0-.45.077-.899.232-1.348.154-.45.379-.856.674-1.222a3.31 3.31 0 0 1 1.063-.884 2.973 2.973 0 0 1 1.422-.337c.562 0 1.053.12 1.475.358.42.239.772.547 1.053.927.287.379.502.79.642 1.232.148.442.221.867.221 1.274a4.154 4.154 0 0 1-.905 2.58c-.295.365-.653.66-1.075.885a2.987 2.987 0 0 1-1.41.326Zm-1.307-3.791c0 .232.025.463.074.695.05.232.123.446.221.643.105.19.242.344.41.463.17.112.37.168.601.168.246 0 .45-.063.61-.19a1.35 1.35 0 0 0 .401-.484c.105-.196.18-.407.221-.631a3.202 3.202 0 0 0 0-1.359 2.258 2.258 0 0 0-.231-.632 1.257 1.257 0 0 0-.411-.463.965.965 0 0 0-.59-.18.99.99 0 0 0-.61.19 1.454 1.454 0 0 0-.411.485c-.099.196-.172.41-.222.642a3.543 3.543 0 0 0-.063.653Z" fill="#343B4C"/></svg>