<svg width="20" height="20" viewBox="0 0 20 20" fill="none" xmlns="http://www.w3.org/2000/svg">
<circle cx="10.0001" cy="9.99916" r="8.57143" stroke="white" stroke-width="1.6" stroke-linecap="round" stroke-linejoin="round"/>
<path fill-rule="evenodd" clip-rule="evenodd" d="M8.57741 13.0889C8.25197 12.7635 8.25197 12.2359 8.57741 11.9104L10.4882 9.99967L8.57741 8.08893C8.25197 7.76349 8.25197 7.23586 8.57741 6.91042C8.90285 6.58498 9.43049 6.58498 9.75592 6.91042L12.2559 9.41042C12.5814 9.73586 12.5814 10.2635 12.2559 10.5889L9.75592 13.0889C9.43049 13.4144 8.90285 13.4144 8.57741 13.0889Z" fill="white"/>
<path fill-rule="evenodd" clip-rule="evenodd" d="M8.57741 13.0889C8.25197 12.7635 8.25197 12.2359 8.57741 11.9104L10.4882 9.99967L8.57741 8.08893C8.25197 7.76349 8.25197 7.23586 8.57741 6.91042C8.90285 6.58498 9.43049 6.58498 9.75592 6.91042L12.2559 9.41042C12.5814 9.73586 12.5814 10.2635 12.2559 10.5889L9.75592 13.0889C9.43049 13.4144 8.90285 13.4144 8.57741 13.0889Z" fill="white"/>
</svg>
