<svg width="24" height="24" viewBox="0 0 24 24" fill="none" xmlns="http://www.w3.org/2000/svg">
<path d="M20 19.4829H18.4516V12.5153C18.4516 12.4469 18.4244 12.3812 18.3759 12.3328C18.3275 12.2844 18.262 12.2572 18.1934 12.2572H5.80658C5.66401 12.2572 5.54845 12.3728 5.54845 12.5154V19.483H4V12.5154C4 12.0362 4.19045 11.5768 4.52921 11.238C4.86798 10.8992 5.32735 10.709 5.80655 10.709H18.1934C18.6726 10.709 19.132 10.8993 19.4707 11.238C19.8095 11.5768 19.9999 12.0361 19.9999 12.5154L20 19.4829Z" fill="#343B4C"/>
<path d="M4.77441 15.3555H19.2257V16.9039H4.77441V15.3555Z" fill="#343B4C"/>
<path d="M18.4519 11.9999H16.9034V7.35482C16.9034 6.87566 16.7132 6.41626 16.3744 6.07747C16.0356 5.73869 15.5763 5.54845 15.0971 5.54845H8.90364C8.42448 5.54845 7.96509 5.73872 7.6263 6.07747C7.28752 6.41624 7.09728 6.87561 7.09728 7.35482V11.9999H5.54883V7.35482C5.54883 6.46502 5.90236 5.61181 6.53148 4.98265C7.16059 4.35354 8.01385 4 8.90364 4H15.0971C15.9869 4 16.8401 4.35354 17.4692 4.98265C18.0983 5.61176 18.4519 6.46502 18.4519 7.35482V11.9999Z" fill="#343B4C"/>
<path d="M14.8384 12.2583H9.16113V10.452C9.16113 9.43781 9.70223 8.50068 10.5805 7.9936C11.4588 7.48651 12.541 7.48651 13.4192 7.9936C14.2975 8.50068 14.8386 9.43781 14.8386 10.452L14.8384 12.2583ZM10.7094 10.7101H13.29V10.452C13.29 9.99095 13.0441 9.56506 12.6448 9.33446C12.2456 9.10405 11.7538 9.10405 11.3545 9.33446C10.9553 9.56505 10.7094 9.99095 10.7094 10.452V10.7101Z" fill="#343B4C"/>
</svg>
