<svg width="24" height="24" viewBox="0 0 24 24" fill="none" xmlns="http://www.w3.org/2000/svg">
<path d="M19.8905 11.9518C20.1626 11.9518 20.4235 12.0599 20.6161 12.2524C20.8084 12.4448 20.9165 12.7058 20.9165 12.9778C20.9165 13.7943 20.5923 14.5773 20.015 15.1545C19.4376 15.7318 18.6548 16.0562 17.8383 16.0562H5.6819C4.86545 16.0562 4.08261 15.7318 3.50518 15.1545C2.92793 14.5773 2.60371 13.7943 2.60371 12.9778C2.60371 12.6114 2.79928 12.2726 3.11669 12.0893C3.43412 11.906 3.82527 11.906 4.14267 12.0893C4.46009 12.2727 4.65565 12.6114 4.65565 12.9778V14.0038L18.8642 14.004V12.9778C18.8642 12.7058 18.9722 12.4448 19.1646 12.2524C19.3571 12.0599 19.6183 11.9518 19.8905 11.9518ZM19.8902 10.4126C19.2988 10.4126 18.7255 10.6168 18.2674 10.9907C17.8094 11.3647 17.4946 11.8854 17.3764 12.4648H6.14343C5.97327 11.6261 5.39587 10.9276 4.60424 10.6025C3.81247 10.2774 2.91082 10.3684 2.20032 10.8453C1.48958 11.3221 1.06358 12.122 1.06445 12.9778C1.06445 14.2024 1.55097 15.3769 2.4168 16.2428C3.03654 16.8625 3.81444 17.2879 4.65565 17.4797C4.98968 17.5558 5.33369 17.5951 5.68175 17.5951H17.8381C18.1862 17.5951 18.5302 17.5558 18.8642 17.4797C19.7054 17.2879 20.4833 16.8625 21.1031 16.2428C21.9689 15.3769 22.4554 14.2024 22.4554 12.9778C22.4554 12.2975 22.1852 11.6451 21.7041 11.164C21.2231 10.683 20.5705 10.4126 19.8902 10.4126Z" fill="#343B4C"/>
<path d="M19.6603 11.6955H18.1211V8.84774C18.1211 8.23545 17.8779 7.64835 17.4449 7.21534C17.0121 6.78232 16.4248 6.53914 15.8125 6.53914H7.70814C7.09584 6.53914 6.50856 6.78231 6.07573 7.21534C5.64272 7.64835 5.39954 8.23545 5.39954 8.84774V11.6955H3.86035V8.84774C3.86035 7.82731 4.26581 6.8487 4.98742 6.12707C5.70887 5.40543 6.68762 5 7.70809 5H15.8124C16.8329 5 17.8117 5.40546 18.5331 6.12707C19.2548 6.8487 19.6602 7.82727 19.6602 8.84774L19.6603 11.6955Z" fill="#343B4C"/>
<path d="M20.6603 19.9044H19.1211C19.1211 19.2921 18.8779 18.7048 18.4449 18.2718C18.0121 17.839 17.4248 17.5956 16.8125 17.5956H6.70814C6.09584 17.5956 5.50856 17.8389 5.07573 18.2718C4.64272 18.7048 4.39954 19.292 4.39954 19.9044H2.86035C2.86035 18.8838 3.26581 17.9052 3.98742 17.1836C4.70887 16.4619 5.68762 16.0566 6.70809 16.0566H16.8124C17.8329 16.0566 18.8117 16.4619 19.5331 17.1836C20.2548 17.9052 20.6603 18.8838 20.6603 19.9044Z" fill="#343B4C"/>
</svg>
