<svg width="24" height="24" viewBox="0 0 24 24" fill="none" xmlns="http://www.w3.org/2000/svg">
<path d="M10.7412 3.49609H12.3864V20.4949H10.7412V3.49609Z" fill="#343B4C"/>
<path d="M7.45117 18.8496H15.6764V20.4948H7.45117V18.8496Z" fill="#343B4C"/>
<path d="M12.3864 8.43019H8.27383C7.47382 8.43019 6.70672 8.11252 6.14119 7.54681C5.57566 6.98127 5.25781 6.21417 5.25781 5.41437V4.5918H6.90296V5.41437C6.90296 5.77793 7.04735 6.12658 7.30439 6.38362C7.56161 6.64066 7.91026 6.78524 8.27384 6.78524H12.3864L12.3864 8.43019Z" fill="#343B4C"/>
<path d="M12.3864 15.0124H8.27383C7.47382 15.0124 6.70672 14.6946 6.14119 14.129C5.57566 13.5633 5.25781 12.7962 5.25781 11.9964V11.1738H6.90296V11.9964C6.90296 12.36 7.04735 12.7086 7.30439 12.9659C7.56161 13.2229 7.91026 13.3673 8.27384 13.3673H12.3864L12.3864 15.0124Z" fill="#343B4C"/>
<path d="M14.8538 11.7209H10.7412V10.076H14.8538C15.2174 10.076 15.566 9.93156 15.8233 9.67433C16.0803 9.41729 16.2247 9.06865 16.2247 8.70508L17.8698 8.705C17.8698 9.50481 17.552 10.272 16.9865 10.8377C16.4209 11.4032 15.6538 11.7209 14.8538 11.7209Z" fill="#343B4C"/>
<path d="M14.7903 8.03252L19.4336 10.7133L21.0688 11.052L20.2865 9.23594C20.7654 8.40649 20.7654 7.38455 20.2865 6.55511C19.8076 5.72567 18.9225 5.21467 17.9648 5.21468C17.007 5.21469 16.122 5.72563 15.6431 6.55508L13.5138 6.80176L14.7903 8.03252ZM18.8984 8.71596L16.7878 7.49742L16.9097 7.28631C17.1274 6.90927 17.5296 6.67706 17.965 6.67699C18.4003 6.67707 18.8026 6.90929 19.0203 7.28626C19.2379 7.66337 19.2379 8.1278 19.0203 8.50484L18.8984 8.71596Z" fill="#343B4C"/>
</svg>
