<svg width="24" height="24" viewBox="0 0 24 24" fill="none" xmlns="http://www.w3.org/2000/svg">
<path d="M17.9823 18.8058H16.3371V5.91939C16.3371 5.84652 16.3082 5.77691 16.2568 5.72546C16.2054 5.67402 16.1357 5.64514 16.0631 5.64514H7.28935C7.13807 5.64514 7.01529 5.76792 7.01529 5.9194V18.8058H5.37012V5.9194C5.37012 5.41031 5.57227 4.92222 5.93218 4.56226C6.29212 4.20232 6.78037 4 7.28932 4H16.063C16.572 4 17.0602 4.20234 17.4202 4.56226C17.7801 4.9222 17.9822 5.41026 17.9822 5.9194L17.9823 18.8058Z" fill="#343B4C"/>
<path d="M12.7734 21.0006C12.6694 21.0008 12.5661 20.9812 12.4691 20.943L6.2208 18.4424L6.83222 16.9153L11.951 18.9634V8.66259L6.2207 6.37869L6.83212 4.85156L13.0805 7.34933C13.2331 7.41072 13.3637 7.51629 13.4555 7.65265C13.5473 7.78901 13.5963 7.94986 13.5959 8.11414V20.178C13.5959 20.396 13.5092 20.6053 13.3551 20.7596C13.2008 20.9137 12.9915 21.0006 12.7733 21.0006L12.7734 21.0006Z" fill="#343B4C"/>
<path d="M7.28943 17.9827V17.1602H3.17676V18.8053H9.34577L7.28943 17.9827Z" fill="#343B4C"/>
<path d="M12.7725 17.1602H20.1753V18.8053H12.7725V17.1602Z" fill="#343B4C"/>
</svg>
