<svg width="20" height="20" fill="none" xmlns="http://www.w3.org/2000/svg"><path fill-rule="evenodd" clip-rule="evenodd" d="M10 1.75a8.25 8.25 0 1 0 0 16.5 8.25 8.25 0 0 0 0-16.5ZM.25 10C.25 4.615 4.615.25 10 .25s9.75 4.365 9.75 9.75-4.365 9.75-9.75 9.75S.25 15.385.25 10ZM7 8.01c0-.905.274-1.632.822-2.18.547-.554 1.3-.83 2.255-.83.885 0 1.592.237 2.122.71.534.47.801 1.07.801 1.803 0 .445-.099.805-.296 1.081-.193.277-.586.683-1.179 1.22-.43.389-.711.72-.841.992-.126.268-.19.666-.19 1.194H9.297c0-.599.077-1.08.23-1.445.152-.369.486-.79 1.003-1.263l.538-.497c.162-.142.292-.29.39-.446.18-.272.27-.555.27-.848 0-.41-.132-.767-.397-1.068-.26-.302-.694-.453-1.3-.453-.75 0-1.268.26-1.555.78-.162.288-.254.705-.276 1.25H7Zm2.91 6.49a.75.75 0 1 0 0-1.5.75.75 0 0 0 0 1.5Z" fill="#002B45"/></svg>