<svg width="20" height="20" fill="none" xmlns="http://www.w3.org/2000/svg"><path fill-rule="evenodd" clip-rule="evenodd" d="M7.822 5.83C7.274 6.377 7 7.104 7 8.01h1.199c.022-.545.114-.962.276-1.25.287-.52.806-.78 1.555-.78.606 0 1.04.151 1.3.453a1.563 1.563 0 0 1 .127 1.916 2.115 2.115 0 0 1-.39.446l-.538.497c-.517.473-.851.894-1.004 1.263-.152.364-.229.846-.229 1.445h1.199c0-.528.063-.926.189-1.194.13-.272.41-.603.841-.993.593-.536.986-.942 1.179-1.219.197-.276.296-.636.296-1.08 0-.734-.267-1.335-.801-1.804-.53-.473-1.237-.71-2.122-.71-.956 0-1.708.276-2.255.83ZM9.91 14.5a.75.75 0 1 0 0-1.5.75.75 0 0 0 0 1.5Z" fill="#002B45"/></svg>