<svg width="20" height="20" fill="none" xmlns="http://www.w3.org/2000/svg"><path fill-rule="evenodd" clip-rule="evenodd" d="M3.75 2A.25.25 0 0 1 4 1.75h5.25V7c0 .966.784 1.75 1.75 1.75h5.25V18a.25.25 0 0 1-.25.25H4a.25.25 0 0 1-.25-.25V2Zm12.439 5.25a.252.252 0 0 0-.012-.013l-5.414-5.414a.278.278 0 0 0-.013-.012V7c0 .138.112.25.25.25h5.189ZM4 .25A1.75 1.75 0 0 0 2.25 2v16c0 .966.784 1.75 1.75 1.75h12A1.75 1.75 0 0 0 17.75 18V7.414c0-.464-.184-.909-.513-1.237L11.823.763A1.75 1.75 0 0 0 10.586.25H4Z" fill="#002B45"/></svg>