<svg width="20" height="20" fill="none" xmlns="http://www.w3.org/2000/svg"><path fill-rule="evenodd" clip-rule="evenodd" d="m9.77 17.921-7.332-6.02A5.302 5.302 0 0 1 .5 7.801V6.94A4.44 4.44 0 0 1 4.94 2.5c1.794 0 3.521.653 4.863 1.828a7.834 7.834 0 0 1 5.03-1.828A4.667 4.667 0 0 1 19.5 7.167v.596a5.263 5.263 0 0 1-2.026 4.15L9.771 17.92ZM9.796 16 3.39 10.74A3.802 3.802 0 0 1 2 7.803v-.861A2.94 2.94 0 0 1 4.94 4c1.535 0 3.008.6 4.106 1.67l.749.73.617-.601A6.334 6.334 0 0 1 14.832 4 3.167 3.167 0 0 1 18 7.167v.596a3.76 3.76 0 0 1-1.449 2.967L9.795 16Z" fill="#002B45"/></svg>