<svg width="20" height="20" fill="none" xmlns="http://www.w3.org/2000/svg"><path fill-rule="evenodd" clip-rule="evenodd" d="M18.663 1.329a3.72 3.72 0 0 0-5.239 0l-.009.009-.009.009-2.952 3.14a.75.75 0 1 0 1.092 1.027l2.944-3.13a2.22 2.22 0 0 1 3.115.009c.86.854.86 2.237 0 3.092l-4.148 4.122a8.13 8.13 0 0 1-.86.721 5.031 5.031 0 0 1-.483.316 1.194 1.194 0 0 1-.267.122c-.45.093-.788.128-1.072.088a1.256 1.256 0 0 1-.746-.386.903.903 0 0 1-.217-.422A2.228 2.228 0 0 1 9.75 9.5a.75.75 0 0 0-1.5 0c0 .413.05 1.366.721 2.032a2.75 2.75 0 0 0 1.595.807c.547.078 1.092-.002 1.587-.105.248-.051.492-.168.694-.281.212-.12.43-.264.633-.412a9.59 9.59 0 0 0 1.035-.87l4.148-4.123a3.676 3.676 0 0 0 0-5.22Zm-7.388 5.208c-1.405-.555-3.153-.312-4.297.799l-.013.012-.012.013-4.588 4.893a3.672 3.672 0 0 0 .013 5.284 3.891 3.891 0 0 0 5.393 0l.019-.018.017-.02 3.251-3.625a.75.75 0 0 0-1.116-1.002L6.709 16.48a2.391 2.391 0 0 1-3.286-.017 2.173 2.173 0 0 1 0-3.144l.013-.013.012-.012L8.034 8.4c.68-.649 1.78-.828 2.69-.469.226.089.33.199.394.32.076.145.132.375.132.748a.75.75 0 0 0 1.5 0c0-.496-.07-1.001-.306-1.448-.248-.47-.645-.809-1.169-1.015Z" fill="#002B45"/></svg>