<svg width="20" height="20" fill="none" xmlns="http://www.w3.org/2000/svg"><path fill-rule="evenodd" clip-rule="evenodd" d="M3 2.5h-.045c-.433 0-.83 0-1.152.043-.356.048-.731.16-1.04.47-.31.309-.422.684-.47 1.04-.043.323-.043.72-.043 1.152v9.59c0 .432 0 .83.043 1.152.048.356.16.731.47 1.04.309.31.684.422 1.04.47.323.043.72.043 1.152.043h14.089c.433 0 .83 0 1.153-.043.355-.048.731-.16 1.04-.47.31-.309.422-.684.47-1.04.043-.323.043-.72.043-1.152v-9.59c0-.432 0-.83-.044-1.152-.047-.356-.16-.731-.469-1.04-.309-.31-.684-.422-1.04-.47-.323-.043-.72-.043-1.152-.043H3ZM1.826 4.072l-.003.001-.001.003a.706.706 0 0 0-.042.177c-.028.21-.03.504-.03.997v.912l8.138 4.069a.25.25 0 0 0 .224 0l8.138-4.07v-.91c0-.494-.002-.788-.03-.998a.703.703 0 0 0-.042-.177l-.001-.003-.003-.001a.704.704 0 0 0-.177-.042C17.787 4.002 17.492 4 17 4H3c-.493 0-.787.002-.997.03a.706.706 0 0 0-.177.042ZM18.25 7.839l-7.467 3.733a1.75 1.75 0 0 1-1.566 0L1.75 7.84v6.91c0 .493.002.787.03.998a.707.707 0 0 0 .042.177l.001.003.003.001a.711.711 0 0 0 .177.042c.21.028.504.03.997.03h14c.492 0 .786-.002.997-.03a.71.71 0 0 0 .167-.037l.006-.003.004-.002.003-.001v-.003l.004-.006.002-.004a.705.705 0 0 0 .037-.167c.028-.21.03-.505.03-.997V7.839Z" fill="#002B45"/></svg>