<svg width="21" height="21" fill="none" xmlns="http://www.w3.org/2000/svg"><path fill-rule="evenodd" clip-rule="evenodd" d="M4.63 2.247a.263.263 0 0 0-.372 0 5.329 5.329 0 0 0-.495 6.965l1.313 1.75a24.763 24.763 0 0 0 4.961 4.962l1.75 1.313a5.329 5.329 0 0 0 6.966-.495.263.263 0 0 0 0-.373l-2.942-2.942a.361.361 0 0 0-.511 0l-1.135 1.135a1.342 1.342 0 0 1-1.55.251 14.376 14.376 0 0 1-6.428-6.429 1.342 1.342 0 0 1 .251-1.55L7.573 5.7a.361.361 0 0 0 0-.51L4.63 2.246Zm-1.433-1.06a1.763 1.763 0 0 1 2.494 0l2.942 2.941a1.861 1.861 0 0 1 0 2.632L7.58 7.814a12.876 12.876 0 0 0 5.606 5.606l1.054-1.053a1.861 1.861 0 0 1 2.632 0l2.943 2.942a1.763 1.763 0 0 1 0 2.493 6.829 6.829 0 0 1-8.926.635l-1.75-1.313a26.306 26.306 0 0 1-5.262-5.261l-1.313-1.75a6.829 6.829 0 0 1 .634-8.927Z" fill="#002B45"/></svg>