<svg width="21" height="21" fill="none" xmlns="http://www.w3.org/2000/svg"><path fill-rule="evenodd" clip-rule="evenodd" d="m4.843.85.537.688 3.523 4.5.426.544-.507.469-1.934 1.788c.407 1.402 1.34 2.577 2.423 3.503a11.707 11.707 0 0 0 2.91 1.812l2.351-2.034.506-.437.492.452 3.938 3.616.63.579-.657.549-2.076 1.736c-1.635 1.367-3.934 1.996-6.018 1.096C5.782 17.291 2.66 12.745 1.199 9.21c-.873-2.112-.112-4.376 1.345-5.92l1.7-1.804.599-.634Zm-.106 2.3L3.635 4.316c-1.17 1.24-1.638 2.895-1.05 4.32 1.36 3.287 4.25 7.475 9.396 9.697 1.443.623 3.15.227 4.462-.87l1.42-1.187-2.815-2.585-2.189 1.893-.331.287-.413-.148c-.973-.35-2.443-1.1-3.778-2.241-1.335-1.14-2.593-2.722-3.018-4.74l-.088-.416.313-.288 1.752-1.62-2.56-3.27Zm14.75 5.642.014.114-1.489.18-.014-.115a7.487 7.487 0 0 0-6.125-6.476l.262-1.477a8.987 8.987 0 0 1 7.353 7.774Zm-2.912 1.147-.01-.08a6.472 6.472 0 0 0-5.295-5.598l-.262 1.477a4.972 4.972 0 0 1 4.068 4.301l.01.08 1.489-.18Z" fill="#002B45"/></svg>