<svg width="20" height="20" fill="none" xmlns="http://www.w3.org/2000/svg"><path d="M9.906 1C4.744 1 2 4.162 2 7.61c0 1.597.935 3.592 2.43 4.224.428.184.371-.04.738-1.383a.309.309 0 0 0-.08-.313C2.95 7.773 4.671 2.912 9.601 2.912c7.135 0 5.802 9.436 1.241 9.436-1.175 0-2.05-.882-1.774-1.973.336-1.3.994-2.697.994-3.634 0-2.36-3.68-2.01-3.68 1.118 0 .967.357 1.62.357 1.62s-1.184 4.571-1.403 5.425c-.372 1.447.05 3.787.087 3.989a.126.126 0 0 0 .226.055c.117-.146 1.548-2.098 1.949-3.509.146-.514.744-2.599.744-2.599.395.681 1.533 1.251 2.745 1.251 3.606 0 6.213-3.03 6.213-6.79C17.287 3.698 14.06 1 9.906 1Z" fill="#002B45"/></svg>