<svg width="29" height="28" viewBox="0 0 29 28" fill="none" xmlns="http://www.w3.org/2000/svg">
<path d="M4 2.33333C3.35567 2.33333 2.83333 2.85567 2.83333 3.5C2.83333 4.14433 3.35567 4.66667 4 4.66667V2.33333ZM6.33333 3.5L7.49656 3.41052C7.44981 2.80269 6.94296 2.33333 6.33333 2.33333V3.5ZM9.81472 18.5013L9.89784 19.665L9.89784 19.665L9.81472 18.5013ZM21.8951 17.6384L21.812 16.4747L21.812 16.4747L21.8951 17.6384ZM24.0479 15.5687L22.8884 15.4399L22.8884 15.4399L24.0479 15.5687ZM25 7L26.1595 7.12884C26.1962 6.79902 26.0906 6.4692 25.8693 6.22193C25.648 5.97465 25.3319 5.83333 25 5.83333V7ZM6.60256 7L5.43933 7.08948L5.43933 7.08948L6.60256 7ZM7.32202 16.3529L6.15879 16.4424L6.15879 16.4424L7.32202 16.3529ZM10.4167 23.9167V22.75C9.77233 22.75 9.25 23.2723 9.25 23.9167H10.4167ZM10.4283 23.9167H11.595C11.595 23.2723 11.0727 22.75 10.4283 22.75V23.9167ZM10.4283 23.9283V25.095C11.0727 25.095 11.595 24.5727 11.595 23.9283H10.4283ZM10.4167 23.9283H9.25C9.25 24.5727 9.77233 25.095 10.4167 25.095V23.9283ZM20.9167 23.9167V22.75C20.2723 22.75 19.75 23.2723 19.75 23.9167H20.9167ZM20.9283 23.9167H22.095C22.095 23.2723 21.5727 22.75 20.9283 22.75V23.9167ZM20.9283 23.9283V25.095C21.5727 25.095 22.095 24.5727 22.095 23.9283H20.9283ZM20.9167 23.9283H19.75C19.75 24.5727 20.2723 25.095 20.9167 25.095V23.9283ZM4 4.66667H6.33333V2.33333H4V4.66667ZM9.89784 19.665L21.9782 18.8021L21.812 16.4747L9.7316 17.3376L9.89784 19.665ZM25.2075 15.6976L26.1595 7.12884L23.8405 6.87116L22.8884 15.4399L25.2075 15.6976ZM5.1701 3.58948L5.43933 7.08948L7.76579 6.91052L7.49656 3.41052L5.1701 3.58948ZM5.43933 7.08948L6.15879 16.4424L8.48525 16.2634L7.76579 6.91052L5.43933 7.08948ZM25 5.83333H6.60256V8.16667H25V5.83333ZM21.9782 18.8021C23.6626 18.6818 25.021 17.3759 25.2075 15.6976L22.8884 15.4399C22.8262 15.9993 22.3735 16.4346 21.812 16.4747L21.9782 18.8021ZM9.7316 17.3376C9.09138 17.3834 8.53447 16.9034 8.48525 16.2634L6.15879 16.4424C6.30647 18.3622 7.9772 19.8022 9.89784 19.665L9.7316 17.3376ZM10.4167 25.0833H10.4283V22.75H10.4167V25.0833ZM9.26167 23.9167V23.9283H11.595V23.9167H9.26167ZM10.4283 22.7617H10.4167V25.095H10.4283V22.7617ZM11.5833 23.9283V23.9167H9.25V23.9283H11.5833ZM20.9167 25.0833H20.9283V22.75H20.9167V25.0833ZM19.7617 23.9167V23.9283H22.095V23.9167H19.7617ZM20.9283 22.7617H20.9167V25.095H20.9283V22.7617ZM22.0833 23.9283V23.9167H19.75V23.9283H22.0833Z" fill="white"/>
</svg>
