<svg width="20" height="20" fill="none" xmlns="http://www.w3.org/2000/svg"><path fill-rule="evenodd" clip-rule="evenodd" d="M18.587 5.706c.125-.407 0-.706-.596-.706h-1.969c-.5 0-.731.258-.856.543 0 0-1.002 2.38-2.42 3.925-.46.447-.668.59-.918.59-.126 0-.307-.143-.307-.55V5.707c0-.489-.145-.706-.562-.706H7.864c-.313 0-.501.227-.501.441 0 .463.71.57.782 1.871v2.827c0 .62-.114.732-.365.732-.667 0-2.291-2.39-3.254-5.125C4.337 5.215 4.148 5 3.644 5H1.675C1.113 5 1 5.258 1 5.543c0 .508.668 3.03 3.108 6.366 1.628 2.277 3.92 3.512 6.007 3.512 1.251 0 1.406-.274 1.406-.747v-1.721c0-.549.119-.658.515-.658.292 0 .793.142 1.961 1.24 1.335 1.302 1.556 1.886 2.307 1.886h1.969c.562 0 .844-.274.681-.815-.177-.54-.815-1.322-1.66-2.25-.46-.529-1.148-1.098-1.357-1.383-.292-.366-.208-.529 0-.854 0 0 2.4-3.295 2.65-4.413Z" fill="#002B45"/></svg>